G04 ================== begin FILE IDENTIFICATION RECORD ==================*
G04 Layout Name:  layout_12.brd*
G04 Film Name:    Gerber_VCC_RK3188_v2*
G04 File Format:  Gerber RS274X*
G04 File Origin:  Cadence Allegro 16.6-S008*
G04 Origin Date:  Mon Aug 22 09:39:43 2016*
G04 *
G04 Layer:  VIA CLASS/VCC*
G04 Layer:  PIN/VCC*
G04 Layer:  ETCH/VCC*
G04 Layer:  DRAWING FORMAT/VCC*
G04 Layer:  BOARD GEOMETRY/OUTLINE*
G04 Layer:  BOARD GEOMETRY/LOGO*
G04 *
G04 Offset:    (0.00 0.00)*
G04 Mirror:    No*
G04 Mode:      Positive*
G04 Rotation:  0*
G04 FullContactRelief:  No*
G04 UndefLineWidth:     5.00*
G04 ================== end FILE IDENTIFICATION RECORD ====================*
%FSLAX25Y25*MOIN*%
%IR0*IPPOS*OFA0.00000B0.00000*MIA0B0*SFA1.00000B1.00000*%
%ADD13C,.02*%
%ADD14C,.06*%
%ADD11C,.016*%
%ADD12C,.08*%
%ADD15C,.055*%
%ADD10C,.12*%
%ADD16C,.015*%
%ADD17C,.005*%
%ADD28C,.04004*%
%ADD20C,.02404*%
%ADD18O,.07604X.14104*%
%ADD27C,.07104*%
%ADD30C,.06304*%
%ADD29C,.08104*%
%ADD26C,.02804*%
%ADD25C,.07604*%
%ADD23C,.08604*%
%ADD22C,.08296*%
%ADD24C,.15104*%
%ADD19C,.13604*%
%ADD21R,.08296X.08296*%
G75*
%LPD*%
G75*
G36*
G01X1000Y1200D02*
Y391600D01*
X69156D01*
G02X69454Y390934I0J-400D01*
G03X71546I1046J-934D01*
G02X71844Y391600I298J266D01*
G01X201939D01*
G02X202204Y390900I0J-400D01*
G03X203796I796J-900D01*
G02X204061Y391600I265J300D01*
G01X206939D01*
G02X207204Y390900I0J-400D01*
G03X208796I796J-900D01*
G02X209061Y391600I265J300D01*
G01X211939D01*
G02X212204Y390900I0J-400D01*
G03X213796I796J-900D01*
G02X214061Y391600I265J300D01*
G01X216939D01*
G02X217204Y390900I0J-400D01*
G03X218796I796J-900D01*
G02X219061Y391600I265J300D01*
G01X221939D01*
G02X222204Y390900I0J-400D01*
G03X223796I796J-900D01*
G02X224061Y391600I265J300D01*
G01X226939D01*
G02X227204Y390900I0J-400D01*
G03X228796I796J-900D01*
G02X229061Y391600I265J300D01*
G01X231939D01*
G02X232204Y390900I0J-400D01*
G03X233796I796J-900D01*
G02X234061Y391600I265J300D01*
G01X281300D01*
Y314051D01*
G02X280800Y313664I-400J0D01*
G03X279562Y313252I-300J-1164D01*
G02X278938I-312J250D01*
G03X277248Y311562I-938J-752D01*
G02Y310938I-250J-312D01*
G03X278938Y309248I752J-938D01*
G02X279562I312J-250D01*
G03X279748Y309062I938J752D01*
G02Y308438I-250J-312D01*
G03X280800Y306336I752J-938D01*
G02X281300Y305949I100J-387D01*
G01Y1200D01*
X1000D01*
G37*
%LPC*%
G75*
G36*
G01X25860Y299837D02*
X31775Y305752D01*
X45000D01*
G02Y302248I0J-1752D01*
G01X33225D01*
X27525Y296548D01*
X26700D01*
G02X25860Y299837I0J1752D01*
G37*
G36*
G01X192138Y373412D02*
G03Y372745I221J-333D01*
G02X189318I-1410J-2127D01*
G03Y373412I-221J334D01*
G02X189319Y377667I1410J2127D01*
G03Y378333I-221J333D01*
G02X189318Y382588I1409J2128D01*
G03Y383255I-221J333D01*
G02X192138I1410J2127D01*
G03Y382588I221J-334D01*
G02X192137Y378333I-1410J-2127D01*
G03Y377667I221J-333D01*
G02X192138Y373412I-1409J-2128D01*
G37*
G36*
G01X10637Y338333D02*
G03Y337667I221J-333D01*
G02X7819I-1409J-2128D01*
G03Y338333I-221J333D01*
G02X10637I1409J2128D01*
G37*
G36*
G01X27300Y320926D02*
G03X26926Y321300I-399J-25D01*
G02X25800Y322426I74J1200D01*
G03X25426Y322800I-399J-25D01*
G02X24300Y323926I74J1200D01*
G03X23926Y324300I-399J-25D01*
G02X22800Y325426I74J1200D01*
G03X22426Y325800I-399J-25D01*
G02X21300Y326926I74J1200D01*
G03X20926Y327300I-399J-25D01*
G02X19800Y328426I74J1200D01*
G03X19426Y328800I-399J-25D01*
G02X19413Y328801I86J1199D01*
G03X19199Y328587I-15J-199D01*
G02X17926Y329700I-1199J-87D01*
G03X18300Y330074I-25J399D01*
G02X20700I1200J-74D01*
G03X21074Y329700I399J25D01*
G02X22200Y328574I-74J-1200D01*
G03X22574Y328200I399J25D01*
G02X23700Y327074I-74J-1200D01*
G03X24074Y326700I399J25D01*
G02X25200Y325574I-74J-1200D01*
G03X25574Y325200I399J25D01*
G02X26700Y324074I-74J-1200D01*
G03X27074Y323700I399J25D01*
G02X28200Y322574I-74J-1200D01*
G03X28574Y322200I399J25D01*
G02X27300Y320926I-74J-1200D01*
G37*
G36*
G01X10637Y320833D02*
G03Y320167I221J-333D01*
G02X7819I-1409J-2128D01*
G03Y320833I-221J333D01*
G02X10637I1409J2128D01*
G37*
G36*
G01X14181Y254333D02*
G03Y253667I221J-333D01*
G02X11363I-1409J-2128D01*
G03Y254333I-221J333D01*
G02X14181I1409J2128D01*
G37*
G36*
G01X263022Y182228D02*
G03Y181972I153J-128D01*
G02X261178I-922J-772D01*
G03Y182228I-153J128D01*
G02X263022I922J772D01*
G37*
G36*
G01X71868Y155805D02*
G03X71654Y155663I-22J-199D01*
G02X69346I-1154J337D01*
G03X69132Y155805I-192J-57D01*
G02X70154Y157337I-132J1195D01*
G03X70368Y157195I192J57D01*
G02X70632I132J-1195D01*
G03X70846Y157337I22J199D01*
G02X71868Y155805I1154J-337D01*
G37*
G36*
G01X95137Y148037D02*
G03Y147463I278J-287D01*
G02X93463I-837J-863D01*
G03Y148037I-278J287D01*
G02X95137I837J863D01*
G37*
G36*
G01X106549Y146708D02*
G03X106099Y146283I-51J-397D01*
G02X103701I-1199J-83D01*
G03X103251Y146708I-399J28D01*
G02X103272Y149090I-151J1192D01*
G03X103721Y149564I57J396D01*
G02X106079I1179J236D01*
G03X106528Y149090I392J-78D01*
G02X106549Y146708I172J-1190D01*
G37*
G36*
G01X80281Y381070D02*
G02X79275Y381875I-1281J-570D01*
G03X79719Y382430I79J392D01*
G02X80725Y381625I1281J570D01*
G03X80281Y381070I-79J-392D01*
G37*
G36*
G01X61438Y356748D02*
G02Y358252I-938J752D01*
G03X62062I312J250D01*
G02Y356748I938J-752D01*
G03X61438I-312J-250D01*
G37*
G36*
G01Y351748D02*
G02Y353252I-938J752D01*
G03X62062I312J250D01*
G02Y351748I938J-752D01*
G03X61438I-312J-250D01*
G37*
G36*
G01X218938Y346748D02*
G02Y348252I-938J752D01*
G03X219562I312J250D01*
G02Y346748I938J-752D01*
G03X218938I-312J-250D01*
G37*
G36*
G01X49410Y321270D02*
G02X47990I-710J-970D01*
G03X47911Y321960I-237J322D01*
G02X49489I789J1840D01*
G03X49410Y321270I158J-368D01*
G37*
G36*
G01X271438Y319248D02*
G02X269748Y320938I-938J752D01*
G03Y321562I-250J312D01*
G02Y323438I752J938D01*
G03Y324062I-250J312D01*
G02Y325938I752J938D01*
G03Y326562I-250J312D01*
G02Y328438I752J938D01*
G03Y329062I-250J312D01*
G02Y330938I752J938D01*
G03Y331562I-250J312D01*
G02X269562Y331748I752J938D01*
G03X268938I-312J-250D01*
G02X267248Y333438I-938J752D01*
G03Y334062I-250J312D01*
G02X267062Y334248I752J938D01*
G03X266438I-312J-250D01*
G02X264748Y335938I-938J752D01*
G03Y336562I-250J312D01*
G02Y338438I752J938D01*
G03Y339062I-250J312D01*
G02Y340938I752J938D01*
G03Y341562I-250J312D01*
G02X264562Y341748I752J938D01*
G03X263938I-312J-250D01*
G02X262248Y343438I-938J752D01*
G03Y344062I-250J312D01*
G02X262062Y344248I752J938D01*
G03X261438I-312J-250D01*
G02X259562I-938J752D01*
G03X258938I-312J-250D01*
G02X257062I-938J752D01*
G03X256438I-312J-250D01*
G02X254562I-938J752D01*
G03X253938I-312J-250D01*
G02X253752Y344062I-938J752D01*
G03Y343438I250J-312D01*
G02X252062Y341748I-752J-938D01*
G03X251438I-312J-250D01*
G02X251252Y341562I-938J752D01*
G03Y340938I250J-312D01*
G02Y339062I-752J-938D01*
G03Y338438I250J-312D01*
G02X249562Y336748I-752J-938D01*
G03X248938I-312J-250D01*
G02X247062I-938J752D01*
G03X246438I-312J-250D01*
G02X244748Y338438I-938J752D01*
G03Y339062I-250J312D01*
G02X246438Y340752I752J938D01*
G03X247062I312J250D01*
G02X247248Y340938I938J-752D01*
G03Y341562I-250J312D01*
G02X248938Y343252I752J938D01*
G03X249562I312J250D01*
G02X249748Y343438I938J-752D01*
G03Y344062I-250J312D01*
G02X251438Y345752I752J938D01*
G03X252062I312J250D01*
G02X253938I938J-752D01*
G03X254562I312J250D01*
G02X256438I938J-752D01*
G03X257062I312J250D01*
G02X258938I938J-752D01*
G03X259562I312J250D01*
G02X261438I938J-752D01*
G03X262062I312J250D01*
G02X263938I938J-752D01*
G03X264562I312J250D01*
G02X266438I938J-752D01*
G03X267062I312J250D01*
G02X268938I938J-752D01*
G03X269562I312J250D01*
G02X271438I938J-752D01*
G03X272062I312J250D01*
G02X273938I938J-752D01*
G03X274562I312J250D01*
G02X276438I938J-752D01*
G03X277062I312J250D01*
G02X278752Y344062I938J-752D01*
G03Y343438I250J-312D01*
G02Y341562I-752J-938D01*
G03Y340938I250J-312D01*
G02Y339062I-752J-938D01*
G03Y338438I250J-312D01*
G02Y336562I-752J-938D01*
G03Y335938I250J-312D01*
G02Y334062I-752J-938D01*
G03Y333438I250J-312D01*
G02Y331562I-752J-938D01*
G03Y330938I250J-312D01*
G02Y329062I-752J-938D01*
G03Y328438I250J-312D01*
G02Y326562I-752J-938D01*
G03Y325938I250J-312D01*
G02Y324062I-752J-938D01*
G03Y323438I250J-312D01*
G02Y321562I-752J-938D01*
G03Y320938I250J-312D01*
G02X277062Y319248I-752J-938D01*
G03X276438I-312J-250D01*
G02X274562I-938J752D01*
G03X273938I-312J-250D01*
G02X272062I-938J752D01*
G03X271438I-312J-250D01*
G37*
G36*
G01X36938Y313248D02*
G02Y314752I-938J752D01*
G03X37562I312J250D01*
G02X39438I938J-752D01*
G03X40062I312J250D01*
G02Y313248I938J-752D01*
G03X39438I-312J-250D01*
G02X37562I-938J752D01*
G03X36938I-312J-250D01*
G37*
G36*
G01X38938Y298748D02*
G02Y300252I-938J752D01*
G03X39562I312J250D01*
G02Y298748I938J-752D01*
G03X38938I-312J-250D01*
G37*
G36*
G01X273938Y296748D02*
G02X272248Y298438I-938J752D01*
G03Y299062I-250J312D01*
G02X272062Y299248I752J938D01*
G03X271438I-312J-250D01*
G02X269748Y300938I-938J752D01*
G03Y301562I-250J312D01*
G02X269562Y301748I752J938D01*
G03X268938I-312J-250D01*
G02X267248Y303438I-938J752D01*
G03Y304062I-250J312D01*
G02X267062Y304248I752J938D01*
G03X266438I-312J-250D01*
G02Y305752I-938J752D01*
G03X267062I312J250D01*
G02X268938I938J-752D01*
G03X269562I312J250D01*
G02X271252Y304062I938J-752D01*
G03Y303438I250J-312D01*
G02X271438Y303252I-752J-938D01*
G03X272062I312J250D01*
G02X273938I938J-752D01*
G03X274562I312J250D01*
G02X276438I938J-752D01*
G03X277062I312J250D01*
G02X278752Y301562I938J-752D01*
G03Y300938I250J-312D01*
G02Y299062I-752J-938D01*
G03Y298438I250J-312D01*
G02X277062Y296748I-752J-938D01*
G03X276438I-312J-250D01*
G02X274562I-938J752D01*
G03X273938I-312J-250D01*
G37*
G36*
G01X256438D02*
G02X254748Y298438I-938J752D01*
G03Y299062I-250J312D01*
G02X254562Y299248I752J938D01*
G03X253938I-312J-250D01*
G02X252248Y300938I-938J752D01*
G03Y301562I-250J312D01*
G02X252062Y301748I752J938D01*
G03X251438I-312J-250D01*
G02X249728Y303421I-938J752D01*
G03X249741Y304024I-256J307D01*
G02X249524Y304241I2259J2476D01*
G03X248921Y304228I-296J-269D01*
G02X247248Y305938I-921J772D01*
G03Y306562I-250J312D01*
G02X247062Y306748I752J938D01*
G03X246438I-312J-250D01*
G02X244748Y308438I-938J752D01*
G03Y309062I-250J312D01*
G02Y310938I752J938D01*
G03Y311562I-250J312D01*
G02X246438Y313252I752J938D01*
G03X247062I312J250D01*
G02X248938I938J-752D01*
G03X249562I312J250D01*
G02X251438I938J-752D01*
G03X252062I312J250D01*
G02Y311748I938J-752D01*
G03X251438I-312J-250D01*
G02X249562I-938J752D01*
G03X248938I-312J-250D01*
G02X248752Y311562I-938J752D01*
G03Y310938I250J-312D01*
G02X248544Y308928I-752J-938D01*
G03Y308572I91J-178D01*
G02X248750Y308440I-542J-1073D01*
G03X249319Y308512I250J312D01*
G02X253717Y309379I2681J-2012D01*
G03X254316Y309791I205J343D01*
G02X255291Y308816I1184J209D01*
G03X254879Y308217I-69J-394D01*
G02X254012Y303819I-2879J-1717D01*
G03X253940Y303250I240J-319D01*
G02X254072Y303044I-941J-748D01*
G03X254428I178J91D01*
G02X256438Y303252I1072J-544D01*
G03X257062I312J250D01*
G02X257248Y303438I938J-752D01*
G03Y304062I-250J312D01*
G02Y305938I752J938D01*
G03Y306562I-250J312D01*
G02X258752I752J938D01*
G03Y305938I250J-312D01*
G02X258938Y305752I-752J-938D01*
G03X259562I312J250D01*
G02X261252Y304062I938J-752D01*
G03Y303438I250J-312D01*
G02X261438Y303252I-752J-938D01*
G03X262062I312J250D01*
G02X263752Y301562I938J-752D01*
G03Y300938I250J-312D01*
G02X263938Y300752I-752J-938D01*
G03X264562I312J250D01*
G02X266252Y299062I938J-752D01*
G03Y298438I250J-312D01*
G02X266438Y298252I-752J-938D01*
G03X267062I312J250D01*
G02Y296748I938J-752D01*
G03X266438I-312J-250D01*
G02X264562I-938J752D01*
G03X263938I-312J-250D01*
G02X262062I-938J752D01*
G03X261438I-312J-250D01*
G02X259562I-938J752D01*
G03X258938I-312J-250D01*
G02X257062I-938J752D01*
G03X256438I-312J-250D01*
G37*
G36*
G01X48938Y277748D02*
G02Y279252I-938J752D01*
G03X49562I312J250D01*
G02Y277748I938J-752D01*
G03X48938I-312J-250D01*
G37*
G36*
G01X57526Y277081D02*
G02X56099Y276795I-526J-1081D01*
G03X55974Y277419I-300J264D01*
G02X57401Y277705I526J1081D01*
G03X57526Y277081I300J-264D01*
G37*
G36*
G01X13938Y274248D02*
G02X12248Y275938I-938J752D01*
G03Y276562I-250J312D01*
G02Y278438I752J938D01*
G03Y279062I-250J312D01*
G02X13938Y280752I752J938D01*
G03X14562I312J250D01*
G02X16438I938J-752D01*
G03X17062I312J250D01*
G02X18752Y279062I938J-752D01*
G03Y278438I250J-312D01*
G02Y276562I-752J-938D01*
G03Y275938I250J-312D01*
G02X17062Y274248I-752J-938D01*
G03X16438I-312J-250D01*
G02X14562I-938J752D01*
G03X13938I-312J-250D01*
G37*
G36*
G01X247938Y268248D02*
G02Y269752I-938J752D01*
G03X248562I312J250D01*
G02X250438I938J-752D01*
G03X251062I312J250D01*
G02X252938I938J-752D01*
G03X253562I312J250D01*
G02X255438I938J-752D01*
G03X256062I312J250D01*
G02Y268248I938J-752D01*
G03X255438I-312J-250D01*
G02X253562I-938J752D01*
G03X252938I-312J-250D01*
G02X251062I-938J752D01*
G03X250438I-312J-250D01*
G02X248562I-938J752D01*
G03X247938I-312J-250D01*
G37*
G36*
G01X59384Y156714D02*
G02X57616I-884J-814D01*
G03Y156986I-147J136D01*
G02X59215Y158766I885J813D01*
G03X59814Y158916I238J322D01*
G02X60185Y157434I1086J-516D01*
G03X59586Y157284I-238J-322D01*
G02X59384Y156986I-1085J518D01*
G03Y156714I147J-136D01*
G37*
G36*
G01X128752Y152838D02*
G02X127248I-752J-938D01*
G03Y153462I-250J312D01*
G02X128752I752J938D01*
G03Y152838I250J-312D01*
G37*
G36*
G01X158280Y150417D02*
G02X154720I-1780J-917D01*
G03X154365Y151000I-355J183D01*
G01X140600D01*
X132200Y159400D01*
Y176200D01*
X136400Y180400D01*
Y181400D01*
X135800Y182000D01*
X124600D01*
X122300Y179700D01*
Y168200D01*
X116600Y162500D01*
X87700D01*
X77300Y172900D01*
X64500D01*
X44300Y152700D01*
Y148400D01*
X43600Y147700D01*
X32500D01*
X31900Y148300D01*
Y160000D01*
X31300Y160600D01*
X28341D01*
G03X27981Y160025I0J-400D01*
G02X25819I-1081J-525D01*
G03X25459Y160600I-360J175D01*
G01X22600D01*
X22100Y160100D01*
Y148300D01*
X21400Y147600D01*
X10900D01*
X10500Y148000D01*
Y223000D01*
X25500Y238000D01*
X56300D01*
X66798Y248498D01*
Y265001D01*
X64400Y267400D01*
Y279791D01*
X64243Y279826D01*
G02Y282174I257J1174D01*
G01X64400Y282209D01*
Y282975D01*
X64087D01*
X64029Y282878D01*
G02X63750Y284439I-1029J622D01*
G03X64400Y284751I250J312D01*
G01Y314478D01*
G03X63875Y314858I-400J0D01*
G02Y317142I-375J1142D01*
G03X64400Y317522I125J380D01*
G01Y336400D01*
X100000Y372000D01*
X170500D01*
X177500Y365000D01*
Y348000D01*
X185000Y340500D01*
X218500D01*
X225000Y334000D01*
Y309000D01*
X216300Y300300D01*
Y291200D01*
X253000Y254500D01*
Y240951D01*
G03X253650Y240639I400J0D01*
G02Y238761I750J-939D01*
G03X253000Y238449I-250J-312D01*
G01Y218088D01*
G03X253600Y217741I400J0D01*
G02Y215659I600J-1041D01*
G03X253000Y215312I-200J-347D01*
G01Y158800D01*
X245200Y151000D01*
X158635D01*
G03X158280Y150417I0J-400D01*
G37*
G36*
G01X16438Y124248D02*
G02Y125752I-938J752D01*
G03X17062I312J250D01*
G02X17248Y125938I938J-752D01*
G03Y126562I-250J312D01*
G02Y128438I752J938D01*
G03Y129062I-250J312D01*
G02X17062Y129248I752J938D01*
G03X16438I-312J-250D01*
G02Y130752I-938J752D01*
G03X17062I312J250D01*
G02X17248Y130938I938J-752D01*
G03Y131562I-250J312D01*
G02Y133438I752J938D01*
G03Y134062I-250J312D01*
G02X17062Y134248I752J938D01*
G03X16438I-312J-250D01*
G02Y135752I-938J752D01*
G03X17062I312J250D01*
G02X17248Y135938I938J-752D01*
G03Y136562I-250J312D01*
G02X18752I752J938D01*
G03Y135938I250J-312D01*
G02Y134062I-752J-938D01*
G03Y133438I250J-312D01*
G02Y131562I-752J-938D01*
G03Y130938I250J-312D01*
G02Y129062I-752J-938D01*
G03Y128438I250J-312D01*
G02Y126562I-752J-938D01*
G03Y125938I250J-312D01*
G02X17062Y124248I-752J-938D01*
G03X16438I-312J-250D01*
G37*
G36*
G01X18938Y106748D02*
G02X17248Y108438I-938J752D01*
G03Y109062I-250J312D01*
G02X18938Y110752I752J938D01*
G03X19562I312J250D01*
G02X21438I938J-752D01*
G03X22062I312J250D01*
G02X23752Y109062I938J-752D01*
G03Y108438I250J-312D01*
G02X22062Y106748I-752J-938D01*
G03X21438I-312J-250D01*
G02X19562I-938J752D01*
G03X18938I-312J-250D01*
G37*
G36*
G01X65438Y99248D02*
G02X63748Y100938I-938J752D01*
G03Y101562I-250J312D01*
G02X65438Y103252I752J938D01*
G03X66062I312J250D01*
G02X67938I938J-752D01*
G03X68562I312J250D01*
G02X70252Y101562I938J-752D01*
G03Y100938I250J-312D01*
G02X68562Y99248I-752J-938D01*
G03X67938I-312J-250D01*
G02X66062I-938J752D01*
G03X65438I-312J-250D01*
G37*
G36*
G01X251438Y98248D02*
G02X249748Y99938I-938J752D01*
G03Y100562I-250J312D01*
G02X249562Y100748I752J938D01*
G03X248938I-312J-250D01*
G02X247248Y102438I-938J752D01*
G03Y103062I-250J312D01*
G02X247062Y103248I752J938D01*
G03X246438I-312J-250D01*
G02X244748Y104938I-938J752D01*
G03Y105562I-250J312D01*
G02X244562Y105748I752J938D01*
G03X243938I-312J-250D01*
G02X242248Y107438I-938J752D01*
G03Y108062I-250J312D01*
G02X242062Y108248I752J938D01*
G03X241438I-312J-250D01*
G02X239748Y109938I-938J752D01*
G03Y110562I-250J312D01*
G02X239562Y110748I752J938D01*
G03X238938I-312J-250D01*
G02X237248Y112438I-938J752D01*
G03Y113062I-250J312D01*
G02X237062Y113248I752J938D01*
G03X236438I-312J-250D01*
G02X234748Y114938I-938J752D01*
G03Y115562I-250J312D01*
G02X234562Y115748I752J938D01*
G03X233938I-312J-250D01*
G02Y117252I-938J752D01*
G03X234562I312J250D01*
G02X236438I938J-752D01*
G03X237062I312J250D01*
G02X238938I938J-752D01*
G03X239562I312J250D01*
G02X241438I938J-752D01*
G03X242062I312J250D01*
G02X243938I938J-752D01*
G03X244562I312J250D01*
G02X244748Y117438I938J-752D01*
G03Y118062I-250J312D01*
G02Y119938I752J938D01*
G03Y120562I-250J312D01*
G02Y122438I752J938D01*
G03Y123062I-250J312D01*
G02Y124938I752J938D01*
G03Y125562I-250J312D01*
G02X246438Y127252I752J938D01*
G03X247062I312J250D01*
G02X248938I938J-752D01*
G03X249562I312J250D01*
G02X251438I938J-752D01*
G03X252062I312J250D01*
G02X253752Y125562I938J-752D01*
G03Y124938I250J-312D01*
G02Y123062I-752J-938D01*
G03Y122438I250J-312D01*
G02Y120562I-752J-938D01*
G03Y119938I250J-312D01*
G02Y118062I-752J-938D01*
G03Y117438I250J-312D01*
G02Y115562I-752J-938D01*
G03Y114938I250J-312D01*
G02Y113062I-752J-938D01*
G03Y112438I250J-312D01*
G02Y110562I-752J-938D01*
G03Y109938I250J-312D01*
G02Y108062I-752J-938D01*
G03Y107438I250J-312D01*
G02X253938Y107252I-752J-938D01*
G03X254562I312J250D01*
G02X256252Y105562I938J-752D01*
G03Y104938I250J-312D01*
G02Y103062I-752J-938D01*
G03Y102438I250J-312D01*
G02Y100562I-752J-938D01*
G03Y99938I250J-312D01*
G02X256438Y99752I-752J-938D01*
G03X257062I312J250D01*
G02X258938I938J-752D01*
G03X259562I312J250D01*
G02X261438I938J-752D01*
G03X262062I312J250D01*
G02X263938I938J-752D01*
G03X264562I312J250D01*
G02X266438I938J-752D01*
G03X267062I312J250D01*
G02X268938I938J-752D01*
G03X269562I312J250D01*
G02X271438I938J-752D01*
G03X272062I312J250D01*
G02X273938I938J-752D01*
G03X274562I312J250D01*
G02X276438I938J-752D01*
G03X277062I312J250D01*
G02Y98248I938J-752D01*
G03X276438I-312J-250D01*
G02X274562I-938J752D01*
G03X273938I-312J-250D01*
G02X272062I-938J752D01*
G03X271438I-312J-250D01*
G02X269562I-938J752D01*
G03X268938I-312J-250D01*
G02X267062I-938J752D01*
G03X266438I-312J-250D01*
G02X264562I-938J752D01*
G03X263938I-312J-250D01*
G02X262062I-938J752D01*
G03X261438I-312J-250D01*
G02X259562I-938J752D01*
G03X258938I-312J-250D01*
G02X257062I-938J752D01*
G03X256438I-312J-250D01*
G02X254562I-938J752D01*
G03X253938I-312J-250D01*
G02X252062I-938J752D01*
G03X251438I-312J-250D01*
G37*
G36*
G01X261438Y81748D02*
G02Y83252I-938J752D01*
G03X262062I312J250D01*
G02X263938I938J-752D01*
G03X264562I312J250D01*
G02X264748Y83438I938J-752D01*
G03Y84062I-250J312D01*
G02X266252I752J938D01*
G03Y83438I250J-312D01*
G02X264562Y81748I-752J-938D01*
G03X263938I-312J-250D01*
G02X262062I-938J752D01*
G03X261438I-312J-250D01*
G37*
G36*
G01X225438D02*
G02Y83252I-938J752D01*
G03X226062I312J250D01*
G02X227938I938J-752D01*
G03X228562I312J250D01*
G02X230438I938J-752D01*
G03X231062I312J250D01*
G02X232938I938J-752D01*
G03X233562I312J250D01*
G02Y81748I938J-752D01*
G03X232938I-312J-250D01*
G02X231062I-938J752D01*
G03X230438I-312J-250D01*
G02X228562I-938J752D01*
G03X227938I-312J-250D01*
G02X226062I-938J752D01*
G03X225438I-312J-250D01*
G37*
G36*
G01X65438Y74248D02*
G02X63748Y75938I-938J752D01*
G03Y76562I-250J312D01*
G02X65438Y78252I752J938D01*
G03X66062I312J250D01*
G02X67938I938J-752D01*
G03X68562I312J250D01*
G02X70252Y76562I938J-752D01*
G03Y75938I250J-312D01*
G02X68562Y74248I-752J-938D01*
G03X67938I-312J-250D01*
G02X66062I-938J752D01*
G03X65438I-312J-250D01*
G37*
G36*
G01X227938Y56748D02*
G02X226248Y58438I-938J752D01*
G03Y59062I-250J312D01*
G02Y60938I752J938D01*
G03Y61562I-250J312D01*
G02X226062Y61748I752J938D01*
G03X225438I-312J-250D01*
G02X223748Y63438I-938J752D01*
G03Y64062I-250J312D01*
G02X225438Y65752I752J938D01*
G03X226062I312J250D01*
G02X227938I938J-752D01*
G03X228562I312J250D01*
G02X230438I938J-752D01*
G03X231062I312J250D01*
G02X232752Y64062I938J-752D01*
G03Y63438I250J-312D01*
G02Y61562I-752J-938D01*
G03Y60938I250J-312D01*
G02Y59062I-752J-938D01*
G03Y58438I250J-312D01*
G02X231062Y56748I-752J-938D01*
G03X230438I-312J-250D01*
G02X228562I-938J752D01*
G03X227938I-312J-250D01*
G37*
G36*
G01X68938Y52748D02*
G02X67248Y54438I-938J752D01*
G03Y55062I-250J312D01*
G02Y56938I752J938D01*
G03Y57562I-250J312D01*
G02X68938Y59252I752J938D01*
G03X69562I312J250D01*
G02X71438I938J-752D01*
G03X72062I312J250D01*
G02X73938I938J-752D01*
G03X74562I312J250D01*
G02X76252Y57562I938J-752D01*
G03Y56938I250J-312D01*
G02Y55062I-752J-938D01*
G03Y54438I250J-312D01*
G02X74562Y52748I-752J-938D01*
G03X73938I-312J-250D01*
G02X72062I-938J752D01*
G03X71438I-312J-250D01*
G02X69562I-938J752D01*
G03X68938I-312J-250D01*
G37*
G36*
G01X275438Y51748D02*
G02Y53252I-938J752D01*
G03X276062I312J250D01*
G02X277938I938J-752D01*
G03X278562I312J250D01*
G02X278748Y53438I938J-752D01*
G03Y54062I-250J312D01*
G02Y55938I752J938D01*
G03Y56562I-250J312D01*
G02Y58438I752J938D01*
G03Y59062I-250J312D01*
G02Y60938I752J938D01*
G03Y61562I-250J312D01*
G02Y63438I752J938D01*
G03Y64062I-250J312D01*
G02Y65938I752J938D01*
G03Y66562I-250J312D01*
G02X278562Y66748I752J938D01*
G03X277938I-312J-250D01*
G02X276062I-938J752D01*
G03X275438I-312J-250D01*
G02Y68252I-938J752D01*
G03X276062I312J250D01*
G02X277938I938J-752D01*
G03X278562I312J250D01*
G02X278748Y68438I938J-752D01*
G03Y69062I-250J312D01*
G02Y70938I752J938D01*
G03Y71562I-250J312D01*
G02Y73438I752J938D01*
G03Y74062I-250J312D01*
G02Y75938I752J938D01*
G03Y76562I-250J312D01*
G02Y78438I752J938D01*
G03Y79062I-250J312D01*
G02X278562Y79248I752J938D01*
G03X277938I-312J-250D01*
G02X276062I-938J752D01*
G03X275438I-312J-250D01*
G02X273562I-938J752D01*
G03X272938I-312J-250D01*
G02X271062I-938J752D01*
G03X270438I-312J-250D01*
G02Y80752I-938J752D01*
G03X271062I312J250D01*
G02X272938I938J-752D01*
G03X273562I312J250D01*
G02X275438I938J-752D01*
G03X276062I312J250D01*
G02X277938I938J-752D01*
G03X278562I312J250D01*
G02X280252Y79062I938J-752D01*
G03Y78438I250J-312D01*
G02Y76562I-752J-938D01*
G03Y75938I250J-312D01*
G02Y74062I-752J-938D01*
G03Y73438I250J-312D01*
G02Y71562I-752J-938D01*
G03Y70938I250J-312D01*
G02Y69062I-752J-938D01*
G03Y68438I250J-312D01*
G02Y66562I-752J-938D01*
G03Y65938I250J-312D01*
G02Y64062I-752J-938D01*
G03Y63438I250J-312D01*
G02Y61562I-752J-938D01*
G03Y60938I250J-312D01*
G02Y59062I-752J-938D01*
G03Y58438I250J-312D01*
G02Y56562I-752J-938D01*
G03Y55938I250J-312D01*
G02Y54062I-752J-938D01*
G03Y53438I250J-312D01*
G02X278562Y51748I-752J-938D01*
G03X277938I-312J-250D01*
G02X276062I-938J752D01*
G03X275438I-312J-250D01*
G37*
G36*
G01X68938Y42748D02*
G02X67248Y44438I-938J752D01*
G03Y45062I-250J312D01*
G02Y46938I752J938D01*
G03Y47562I-250J312D01*
G02X68938Y49252I752J938D01*
G03X69562I312J250D01*
G02X71438I938J-752D01*
G03X72062I312J250D01*
G02X73938I938J-752D01*
G03X74562I312J250D01*
G02X76252Y47562I938J-752D01*
G03Y46938I250J-312D01*
G02Y45062I-752J-938D01*
G03Y44438I250J-312D01*
G02X74562Y42748I-752J-938D01*
G03X73938I-312J-250D01*
G02X72062I-938J752D01*
G03X71438I-312J-250D01*
G02X69562I-938J752D01*
G03X68938I-312J-250D01*
G37*
G36*
G01X241438Y39248D02*
G02X239748Y40938I-938J752D01*
G03Y41562I-250J312D01*
G02Y43438I752J938D01*
G03Y44062I-250J312D01*
G02Y45938I752J938D01*
G03Y46562I-250J312D01*
G02X239562Y46748I752J938D01*
G03X238938I-312J-250D01*
G02X237062I-938J752D01*
G03X236438I-312J-250D01*
G02X234562I-938J752D01*
G03X233938I-312J-250D01*
G02X232062I-938J752D01*
G03X231438I-312J-250D01*
G02X229748Y48438I-938J752D01*
G03Y49062I-250J312D01*
G02Y50938I752J938D01*
G03Y51562I-250J312D01*
G02X231438Y53252I752J938D01*
G03X232062I312J250D01*
G02X233938I938J-752D01*
G03X234562I312J250D01*
G02X236438I938J-752D01*
G03X237062I312J250D01*
G02X238938I938J-752D01*
G03X239562I312J250D01*
G02X241438I938J-752D01*
G03X242062I312J250D01*
G02X243938I938J-752D01*
G03X244562I312J250D01*
G02X246438I938J-752D01*
G03X247062I312J250D01*
G02X248752Y51562I938J-752D01*
G03Y50938I250J-312D01*
G02Y49062I-752J-938D01*
G03Y48438I250J-312D01*
G02Y46562I-752J-938D01*
G03Y45938I250J-312D01*
G02X248938Y45752I-752J-938D01*
G03X249562I312J250D01*
G02X251438I938J-752D01*
G03X252062I312J250D01*
G02X253938I938J-752D01*
G03X254562I312J250D01*
G02X256438I938J-752D01*
G03X257062I312J250D01*
G02X258752Y44062I938J-752D01*
G03Y43438I250J-312D01*
G02Y41562I-752J-938D01*
G03Y40938I250J-312D01*
G02X257062Y39248I-752J-938D01*
G03X256438I-312J-250D01*
G02X254562I-938J752D01*
G03X253938I-312J-250D01*
G02X252062I-938J752D01*
G03X251438I-312J-250D01*
G02X249562I-938J752D01*
G03X248938I-312J-250D01*
G02X247062I-938J752D01*
G03X246438I-312J-250D01*
G02X244562I-938J752D01*
G03X243938I-312J-250D01*
G02X242062I-938J752D01*
G03X241438I-312J-250D01*
G37*
G36*
G01X91438Y34248D02*
G02X89748Y35938I-938J752D01*
G03Y36562I-250J312D01*
G02Y38438I752J938D01*
G03Y39062I-250J312D01*
G02X91438Y40752I752J938D01*
G03X92062I312J250D01*
G02X93938I938J-752D01*
G03X94562I312J250D01*
G02X96438I938J-752D01*
G03X97062I312J250D01*
G02X98752Y39062I938J-752D01*
G03Y38438I250J-312D01*
G02Y36562I-752J-938D01*
G03Y35938I250J-312D01*
G02X97062Y34248I-752J-938D01*
G03X96438I-312J-250D01*
G02X94562I-938J752D01*
G03X93938I-312J-250D01*
G02X92062I-938J752D01*
G03X91438I-312J-250D01*
G37*
G36*
G01X106438Y24248D02*
G02X104748Y25938I-938J752D01*
G03Y26562I-250J312D01*
G02Y28438I752J938D01*
G03Y29062I-250J312D01*
G02X106438Y30752I752J938D01*
G03X107062I312J250D01*
G02X108938I938J-752D01*
G03X109562I312J250D01*
G02X111438I938J-752D01*
G03X112062I312J250D01*
G02X113752Y29062I938J-752D01*
G03Y28438I250J-312D01*
G02Y26562I-752J-938D01*
G03Y25938I250J-312D01*
G02X112062Y24248I-752J-938D01*
G03X111438I-312J-250D01*
G02X109562I-938J752D01*
G03X108938I-312J-250D01*
G02X107062I-938J752D01*
G03X106438I-312J-250D01*
G37*
G36*
G01X217116Y24675D02*
G02Y27325I-4616J1325D01*
G03X217884I384J110D01*
G02Y24675I4616J-1325D01*
G03X217116I-384J-110D01*
G37*
G36*
G01X47116D02*
G02Y27325I-4616J1325D01*
G03X47884I384J110D01*
G02Y24675I4616J-1325D01*
G03X47116I-384J-110D01*
G37*
G36*
G01X251438Y14248D02*
G02X249748Y15938I-938J752D01*
G03Y16562I-250J312D01*
G02Y18438I752J938D01*
G03Y19062I-250J312D01*
G02X251438Y20752I752J938D01*
G03X252062I312J250D01*
G02X253938I938J-752D01*
G03X254562I312J250D01*
G02X256438I938J-752D01*
G03X257062I312J250D01*
G02X258752Y19062I938J-752D01*
G03Y18438I250J-312D01*
G02Y16562I-752J-938D01*
G03Y15938I250J-312D01*
G02X257062Y14248I-752J-938D01*
G03X256438I-312J-250D01*
G02X254562I-938J752D01*
G03X253938I-312J-250D01*
G02X252062I-938J752D01*
G03X251438I-312J-250D01*
G37*
G54D28*
X127500Y134700D03*
X140500Y143800D03*
X151800D03*
G54D20*
X10500Y102000D03*
X8000Y107000D03*
Y115000D03*
Y119500D03*
Y111000D03*
Y132500D03*
Y128500D03*
Y124000D03*
Y137000D03*
X5000Y150500D03*
X5300Y159500D03*
X6500Y215600D03*
X8700Y209800D03*
X7200Y235100D03*
X8500Y245500D03*
X10500Y290000D03*
Y295000D03*
X13500Y304000D03*
X15500Y121500D03*
X23500D03*
X25500Y267000D03*
X22500Y286000D03*
X24000Y290000D03*
X21000Y305500D03*
X25500D03*
X24500Y338500D03*
X15500D03*
X18000Y336500D03*
X14500Y353000D03*
X19500Y349000D03*
X18000Y344000D03*
X15500Y342500D03*
Y345500D03*
X14500Y361500D03*
Y365500D03*
Y369500D03*
X23000D03*
X25000Y372000D03*
Y382000D03*
X28500Y150000D03*
X34500Y267000D03*
X35000Y274000D03*
X33000Y347500D03*
Y351000D03*
X38000D03*
X26500Y362000D03*
X38500Y365000D03*
Y369500D03*
X28500Y372000D03*
Y382000D03*
X47000Y115500D03*
Y128500D03*
X42000Y137000D03*
X45000Y253000D03*
X42000Y270500D03*
X47500Y273000D03*
X46500Y276000D03*
X45000Y278500D03*
X40000Y283000D03*
X44500D03*
X48500Y311500D03*
X44000D03*
X43000Y351000D03*
X48000Y363000D03*
X54500Y70000D03*
Y82000D03*
X57500Y76000D03*
X54500Y95000D03*
Y107000D03*
X57500Y101000D03*
X56000Y142500D03*
X56500Y146500D03*
X53500Y267500D03*
X56500Y264500D03*
X52000Y258000D03*
Y276000D03*
X60000D03*
X53500Y278500D03*
X58000Y283000D03*
X53000D03*
X61000Y281000D03*
X57500Y335000D03*
X53000Y363000D03*
X56000Y369000D03*
X66600Y367000D03*
X85500Y366800D03*
X76900Y367000D03*
X91000Y127400D03*
X98000Y140500D03*
X94500Y152200D03*
X88000Y155500D03*
X97500Y154400D03*
X99200Y158200D03*
X89800Y366800D03*
X104900Y127500D03*
X106700Y158300D03*
X103900Y158000D03*
X115100Y143000D03*
X112400Y141000D03*
X122100Y159000D03*
X121000Y381500D03*
X128500Y11000D03*
X124700Y139200D03*
X124200Y143800D03*
X124300Y152900D03*
X125500Y148400D03*
X126300Y159300D03*
X125000Y381500D03*
X147000Y28500D03*
Y35500D03*
X138000Y384000D03*
X143000D03*
X148000D03*
X152000Y28500D03*
Y35500D03*
X157000Y43000D03*
X156500Y49500D03*
X170000Y34000D03*
X172000Y376000D03*
X180500Y364000D03*
X196500Y376500D03*
X204500Y84500D03*
Y89000D03*
Y361500D03*
X203000Y385000D03*
X207000Y379500D03*
X220000Y294000D03*
X218000Y385000D03*
X213000D03*
X228500Y89000D03*
X230500Y332500D03*
X233500Y351500D03*
Y357500D03*
X228500Y356500D03*
X229500Y361500D03*
X227000Y375000D03*
X223000D03*
Y385000D03*
X231000Y379500D03*
X242500Y60500D03*
Y75500D03*
X241500Y338000D03*
X256000Y170500D03*
X257500Y233500D03*
X258000Y365000D03*
X257500Y355500D03*
X258000Y372000D03*
X263000Y156500D03*
X260600Y252300D03*
X269300Y256500D03*
X269700Y271500D03*
X263000Y307500D03*
X266500Y355500D03*
X265500Y377500D03*
X279000Y104500D03*
Y114500D03*
X273000Y163000D03*
X278900Y202500D03*
Y208000D03*
X273200Y220300D03*
X274000Y229000D03*
Y263100D03*
Y272100D03*
X275000Y355500D03*
X271000D03*
X273000Y368500D03*
G54D18*
X189900Y106900D03*
Y82100D03*
X164700Y97500D03*
G54D27*
X98300Y62200D03*
X108300D03*
X103300Y72200D03*
X113300D03*
X118300Y62200D03*
X123300Y72200D03*
X128300Y62200D03*
X133300Y72200D03*
G54D30*
X252000Y277000D03*
G54D29*
X208700Y135100D03*
Y145500D03*
X218700Y135100D03*
Y145500D03*
G54D26*
X87500Y377500D03*
X94000Y381000D03*
X102500Y377500D03*
X111000Y380500D03*
X111500Y385000D03*
G54D25*
X90800Y113500D03*
X100800D03*
X130800D03*
X140800D03*
G54D23*
X84800Y81900D03*
X146800D03*
G54D22*
X18000Y51500D03*
Y41500D03*
Y83000D03*
Y93000D03*
G54D24*
X93300Y97200D03*
X138300D03*
G54D19*
X10800Y13500D03*
X58200Y381700D03*
X246600Y382300D03*
X270300Y12000D03*
G54D21*
X18000Y31500D03*
Y73000D03*
%LPD*%
G75*
G36*
G01X27500Y209700D02*
X35700Y201500D01*
Y196500D01*
X39700Y192500D01*
X56149D01*
G03X60851I2351J3300D01*
G01X80374D01*
X80451Y192485D01*
G03X81350I449J1115D01*
G01X81386Y192500D01*
X86674D01*
X86751Y192485D01*
G03X87650I450J1115D01*
G01X87686Y192500D01*
X92974D01*
X93051Y192485D01*
G03X93950I449J1115D01*
G01X93986Y192500D01*
X95500D01*
X95741Y192741D01*
X95880Y192638D01*
G03X97562Y194320I720J962D01*
G01X97459Y194459D01*
X98941Y195941D01*
X99080Y195838D01*
G03X100762Y197520I720J962D01*
G01X100659Y197659D01*
X103698Y200698D01*
X103722D01*
X105202Y202178D01*
Y202202D01*
X105300Y202300D01*
Y203500D01*
X105700Y203900D01*
X107300D01*
X107800Y203400D01*
Y198500D01*
X100659Y191359D01*
X100520Y191462D01*
G03X98838Y189780I-720J-962D01*
G01X98941Y189641D01*
X97459Y188159D01*
X97320Y188262D01*
G03X95638Y186580I-720J-962D01*
G01X95741Y186441D01*
X94800Y185500D01*
X66500D01*
X60200Y179200D01*
Y173400D01*
X41600Y154800D01*
Y150200D01*
X41100Y149700D01*
X38400D01*
X37800Y150300D01*
Y165300D01*
X34200Y168900D01*
X21700D01*
X18100Y165300D01*
Y150300D01*
X17500Y149700D01*
X14600D01*
X14100Y150200D01*
Y169815D01*
G02X14650Y170186I400J0D01*
G03Y172414I450J1114D01*
G02X14100Y172785I-150J371D01*
G01Y175000D01*
X18300Y179200D01*
Y185941D01*
G03Y186059I-1200J59D01*
G01Y205300D01*
X21449Y208449D01*
G02X22074Y208375I283J-283D01*
G03X24281Y209225I1026J625D01*
G02X24674Y209700I393J75D01*
G01X27500D01*
G37*
G36*
G01X76200Y292802D02*
G03Y290398I0J-1202D01*
G02X76400Y290198I0J-200D01*
G01Y229400D01*
X83000Y222800D01*
X90700D01*
X95100Y218400D01*
Y209400D01*
X93100Y207400D01*
X90364D01*
G03X90236I-64J-1200D01*
G01X84064D01*
G03X83936I-64J-1200D01*
G01X82400D01*
X68300Y221500D01*
Y279426D01*
G02X68775Y279819I400J0D01*
G03X68571Y282123I225J1181D01*
G01X68537Y282110D01*
X68300D01*
Y282599D01*
X68357Y282658D01*
G03X68300Y284397I-857J842D01*
G01Y331300D01*
X73888Y336888D01*
G02X74503Y336829I283J-283D01*
G03X76171Y338497I997J671D01*
G02X76112Y339112I224J332D01*
G01X81310Y344310D01*
X81402Y344302D01*
G03X82698Y345598I98J1198D01*
G01X82690Y345690D01*
X104000Y367000D01*
X146401D01*
X146459Y366900D01*
G03X148541I1041J600D01*
G01X148599Y367000D01*
X154000D01*
X164500Y356500D01*
Y347497D01*
G03Y345703I800J-897D01*
G01Y333500D01*
X164000Y333000D01*
X162500D01*
X162000Y333500D01*
Y350500D01*
X152500Y360000D01*
X109000D01*
X107651Y358651D01*
X107608Y358636D01*
G03X106864Y357892I392J-1136D01*
G01X106849Y357849D01*
X76400Y327400D01*
Y308999D01*
G02X76025Y308600I-400J0D01*
G03Y306200I75J-1200D01*
G02X76400Y305801I-25J-399D01*
G01Y299302D01*
G02X76200Y299102I-200J0D01*
G03Y296698I0J-1202D01*
G02X76400Y296498I0J-200D01*
G01Y293002D01*
G02X76200Y292802I-200J0D01*
G37*
G36*
G01X89698Y224302D02*
X87500Y226500D01*
X83000D01*
X78500Y231000D01*
Y249403D01*
G03Y251197I-800J897D01*
G01Y252603D01*
G03Y254397I-800J897D01*
G01Y268203D01*
G03Y269997I-800J897D01*
G01Y271278D01*
G02X79025Y271658I400J0D01*
G03Y273942I375J1142D01*
G02X78500Y274322I-125J380D01*
G01Y277449D01*
G02X79000Y277836I400J0D01*
G03Y280164I300J1164D01*
G02X78500Y280551I-100J387D01*
G01Y280649D01*
G02X79000Y281036I400J0D01*
G03Y283364I300J1164D01*
G02X78500Y283751I-100J387D01*
G01Y284233D01*
X78745D01*
X78786Y284214D01*
G03X79000Y286464I514J1086D01*
G02X78500Y286851I-100J387D01*
G01Y286949D01*
G02X79000Y287336I400J0D01*
G03Y289664I300J1164D01*
G02X78500Y290051I-100J387D01*
G01Y290533D01*
X78745D01*
X78786Y290514D01*
G03X79000Y292764I514J1086D01*
G02X78500Y293151I-100J387D01*
G01Y299549D01*
G02X79000Y299936I400J0D01*
G03Y302264I300J1164D01*
G02X78500Y302651I-100J387D01*
G01Y309603D01*
G03Y311397I-800J897D01*
G01Y323000D01*
X107141Y351641D01*
X107280Y351538D01*
G03X108938Y351748I720J962D01*
G02X109562I312J-250D01*
G03X109428Y353044I938J752D01*
G02X109072I-178J91D01*
G03X108962Y353220I-1070J-547D01*
G01X108859Y353359D01*
X113500Y358000D01*
X151000D01*
X158000Y351000D01*
Y331500D01*
X157500Y331000D01*
X156000D01*
X155000Y332000D01*
Y347000D01*
X148000Y354000D01*
X124500D01*
X90500Y320000D01*
Y267500D01*
X86000Y263000D01*
Y256664D01*
G03Y256536I1200J-64D01*
G01Y253564D01*
G03Y253436I1200J-64D01*
G01Y250364D01*
G03Y250236I1200J-64D01*
G01Y247264D01*
G03Y247136I1200J-64D01*
G01Y244064D01*
G03Y243936I1200J-64D01*
G01Y234664D01*
G03Y234536I1200J-64D01*
G01Y232500D01*
X87998Y230502D01*
Y230478D01*
X91198Y227278D01*
Y224798D01*
X90702Y224302D01*
X89698D01*
G37*
G36*
G01X93100Y224300D02*
X92700Y224700D01*
Y227900D01*
X89500Y231100D01*
Y245649D01*
G02X90000Y246036I400J0D01*
G03Y248364I300J1164D01*
G02X89500Y248751I-100J387D01*
G01Y253835D01*
G02X90175Y254126I400J1D01*
G03Y255874I825J874D01*
G02X89500Y256165I-275J290D01*
G01Y257786D01*
X89671Y257810D01*
G03X90698Y259098I-171J1190D01*
G01X90690Y259190D01*
X91046Y259546D01*
X91269Y259323D01*
X91239Y259211D01*
G03X92520Y260096I1161J-311D01*
G02X92277Y260777I40J398D01*
G01X98500Y267000D01*
Y277828D01*
X98629Y277877D01*
G03Y280123I-429J1123D01*
G01X98500Y280172D01*
Y281028D01*
X98629Y281077D01*
G03Y283323I-429J1123D01*
G01X98500Y283372D01*
Y287328D01*
X98629Y287377D01*
G03Y289623I-429J1123D01*
G01X98500Y289672D01*
Y293628D01*
X98629Y293677D01*
G03Y295923I-429J1123D01*
G01X98500Y295972D01*
Y306228D01*
X98629Y306277D01*
G03Y308523I-429J1123D01*
G01X98500Y308572D01*
Y313175D01*
G02X99125Y313506I400J0D01*
G03Y315494I675J994D01*
G02X98500Y315825I-225J331D01*
G01Y322000D01*
X128500Y352000D01*
X131000D01*
X134500Y348500D01*
Y340000D01*
X113500Y319000D01*
Y303744D01*
G02X112834Y303446I-400J0D01*
G03Y301354I-934J-1046D01*
G02X113500Y301056I266J-298D01*
G01Y262600D01*
X104800Y253900D01*
Y243600D01*
X106900Y241500D01*
Y237400D01*
X105600Y236100D01*
X103961D01*
G02X103696Y236800I0J400D01*
G03X102104I-796J900D01*
G02X101839Y236100I-265J-300D01*
G01X100861D01*
G02X100596Y236800I0J400D01*
G03X99004I-796J900D01*
G02X98739Y236100I-265J-300D01*
G01X98200D01*
X96200Y234100D01*
Y226700D01*
X93800Y224300D01*
X93100D01*
G37*
G36*
G01X111800Y199100D02*
X110400Y200500D01*
Y203800D01*
X108700Y205500D01*
X104800D01*
X103700Y204400D01*
Y202800D01*
X103100Y202200D01*
X99400D01*
X98900Y202700D01*
Y203800D01*
X101000Y205900D01*
Y218736D01*
G03Y218864I-1200J64D01*
G01Y221936D01*
G03Y222064I-1200J64D01*
G01Y225500D01*
X108400Y232900D01*
Y236777D01*
X108402Y236778D01*
Y238102D01*
X108900Y238600D01*
X109600D01*
X110100Y238100D01*
Y234900D01*
X111600Y233400D01*
X112336D01*
G03X112464I64J1200D01*
G01X115436D01*
G03X115564I64J1200D01*
G01X116100D01*
X116700Y234000D01*
Y234536D01*
G03Y234664I-1200J64D01*
G01Y240836D01*
G03Y240964I-1200J64D01*
G01Y243936D01*
G03Y244064I-1200J64D01*
G01Y304200D01*
X119000Y306500D01*
X127000D01*
X129000Y304500D01*
Y295500D01*
X134000Y290500D01*
X153000D01*
X155000Y288500D01*
Y284500D01*
X148553Y278053D01*
G02X147877Y278261I-283J283D01*
G03X146239Y276623I-1377J-261D01*
G02X146447Y275947I-75J-393D01*
G01X128900Y258400D01*
Y232951D01*
G02X128400Y232564I-400J0D01*
G03X128991Y230593I-300J-1164D01*
G02X129570Y230607I296J-269D01*
G01X130500Y229677D01*
Y229400D01*
X126900Y225800D01*
X124600D01*
X122500Y223700D01*
Y210200D01*
X125798Y206802D01*
Y202198D01*
X123631Y200031D01*
G02X122961Y200210I-283J282D01*
G03X120714Y200416I-1161J-310D01*
G02X120115Y200266I-361J172D01*
G03X118198Y199300I-715J-966D01*
G02X117998Y199100I-200J0D01*
G01X111800D01*
G37*
G36*
G01X162600Y159300D02*
X160851Y161049D01*
X160836Y161092D01*
G03X160092Y161836I-1136J-392D01*
G01X160049Y161851D01*
X129051Y192849D01*
X129131Y192983D01*
G03X127800Y194764I-1031J617D01*
G02X127300Y195151I-100J387D01*
G01Y195249D01*
G02X127800Y195636I400J0D01*
G03Y197964I300J1164D01*
G02X127300Y198351I-100J387D01*
G01Y214149D01*
G02X127800Y214536I400J0D01*
G03X127321Y216615I300J1164D01*
G02X126775Y216642I-259J305D01*
G01X124100Y219400D01*
Y222500D01*
X125300Y223800D01*
X129100D01*
X132200Y226900D01*
Y230100D01*
X130500Y231800D01*
Y239700D01*
X136968Y246168D01*
X137095Y246109D01*
G03X138691Y247705I505J1091D01*
G01X138632Y247832D01*
X154446Y263646D01*
X154552Y263624D01*
G03X155976Y265048I248J1176D01*
G01X155954Y265154D01*
X158247Y267447D01*
G02X158897Y267323I283J-283D01*
G03X160477Y268903I1103J477D01*
G02X160353Y269553I159J367D01*
G01X166600Y275800D01*
X181800D01*
X191500Y285500D01*
Y326500D01*
X193500Y328500D01*
X209000D01*
X212000Y325500D01*
Y307167D01*
G03Y305833I1000J-667D01*
G01Y289985D01*
G02X211450Y289614I-400J0D01*
G03Y287386I-450J-1114D01*
G02X212000Y287015I150J-371D01*
G01Y284400D01*
X245700Y250700D01*
Y184500D01*
X220500Y159300D01*
X162600D01*
G37*
G36*
G01X146000Y295500D02*
X141000Y300500D01*
Y325500D01*
X147000Y331500D01*
X152500D01*
X155000Y329000D01*
X173811D01*
G02X174207Y328550I-1J-400D01*
G03X176593I1193J-150D01*
G02X176989Y329000I397J50D01*
G01X182000D01*
Y323241D01*
G02X181425Y322881I-400J0D01*
G03X180000Y322596I-525J-1081D01*
G02X179400I-300J265D01*
G03Y321004I-900J-796D01*
G02X180000I300J-265D01*
G03X181425Y320719I900J796D01*
G02X182000Y320359I175J-360D01*
G01Y320325D01*
G02X181375Y319994I-400J0D01*
G03Y318006I-675J-994D01*
G02X182000Y317675I225J-331D01*
G01Y298000D01*
X179500Y295500D01*
X146000D01*
G37*
%LPC*%
G75*
G36*
G01X43847Y171841D02*
G02X41499Y172236I-1147J360D01*
G03X40999Y172636I-400J13D01*
G02X41901Y173764I-299J1164D01*
G03X42401Y173364I400J-13D01*
G02X42904Y173385I301J-1164D01*
G03X43353Y173659I68J394D01*
G02X44296Y172115I1147J-359D01*
G03X43847Y171841I-68J-394D01*
G37*
G36*
G01X25100Y194304D02*
G03X24500I-300J-265D01*
G02Y195896I-900J796D01*
G03X25100I300J265D01*
G02Y194304I900J-796D01*
G37*
G36*
G01X85624Y209700D02*
G03X85200Y209326I-25J-399D01*
G02X84076Y210600I-1200J74D01*
G03X84500Y210974I25J399D01*
G02X84515Y211101I1200J-77D01*
G03X84272Y211329I-197J33D01*
G02X85202Y212499I-272J1171D01*
G03X85626Y212100I400J0D01*
G02X85624Y209700I74J-1200D01*
G37*
G36*
G01X75184Y254850D02*
G02X74016I-584J-1050D01*
G03Y255550I-195J350D01*
G02X75184I584J1050D01*
G03Y254850I195J-350D01*
G37*
G36*
G01X93438Y331748D02*
G02Y333252I-938J752D01*
G03X94062I312J250D01*
G02X95938I938J-752D01*
G03X96562I312J250D01*
G02X98438I938J-752D01*
G03X99062I312J250D01*
G02Y331748I938J-752D01*
G03X98438I-312J-250D01*
G02X96562I-938J752D01*
G03X95938I-312J-250D01*
G02X94062I-938J752D01*
G03X93438I-312J-250D01*
G37*
G36*
G01X164692Y260229D02*
G03X164142Y260154I-236J-323D01*
G02X163908Y261871I-942J746D01*
G03X164458Y261946I236J323D01*
G02X164692Y260229I942J-746D01*
G37*
G36*
G01X193002Y255701D02*
G03X193401Y255302I400J1D01*
G02X192198Y254099I-1J-1202D01*
G03X191799Y254498I-400J-1D01*
G02X193002Y255701I1J1202D01*
G37*
G36*
G01X171580Y255526D02*
G03X171980Y255202I393J76D01*
G02X170820Y253774I20J-1202D01*
G03X170420Y254098I-393J-76D01*
G02X171580Y255526I-20J1202D01*
G37*
G36*
G01X188450Y252561D02*
G03X187950I-250J-313D01*
G02Y254439I-750J939D01*
G03X188450I250J313D01*
G02Y252561I750J-939D01*
G37*
G36*
G01X182696Y235700D02*
G03Y235100I265J-300D01*
G02X181104I-796J-900D01*
G03Y235700I-265J300D01*
G02X182696I796J900D01*
G37*
G36*
G01X185903Y234300D02*
G02X187697I897J800D01*
G02X185903I-897J-800D01*
G37*
G36*
G01X184975Y217626D02*
G03X184425I-275J-291D01*
G02Y219374I-825J874D01*
G03X184975I275J291D01*
G02Y217626I825J-874D01*
G37*
G36*
G01X184655Y203356D02*
G03X184131Y203332I-248J-314D01*
G02X184045Y205144I-831J869D01*
G03X184569Y205168I248J314D01*
G02X184655Y203356I831J-869D01*
G37*
G36*
G01X156031Y199741D02*
G03X155532Y199641I-189J-353D01*
G02X155169Y201459I-932J759D01*
G03X155668Y201559I189J353D01*
G02X156031Y199741I932J-759D01*
G37*
G36*
G01X232777Y184300D02*
G03X232402Y183901I25J-399D01*
G02X229998Y183899I-1202J-1D01*
G03X229599Y184298I-400J-1D01*
G02X230802Y185501I1J1202D01*
G03X231201Y185102I400J1D01*
G02X231297Y185098I-2J-1202D01*
G03X231511Y185326I16J199D01*
G02X232777Y184300I1189J174D01*
G37*
G36*
G01X175481Y185226D02*
G03X175980Y185026I360J175D01*
G02X175319Y183374I420J-1126D01*
G03X174820Y183574I-360J-175D01*
G02X175481Y185226I-420J1126D01*
G37*
G36*
G01X204938Y320748D02*
G02Y322252I-938J752D01*
G03X205562I312J250D01*
G02Y320748I938J-752D01*
G03X204938I-312J-250D01*
G37*
G36*
G01X201474Y294225D02*
G02X199735Y292565I-874J-825D01*
G03X199186Y292590I-288J-278D01*
G02X197526Y294325I-787J909D01*
G03Y294875I-291J275D01*
G02X197492Y296488I874J825D01*
G03Y297012I-302J262D01*
G02X197526Y298625I908J788D01*
G03Y299175I-291J275D01*
G02Y300825I874J825D01*
G03Y301375I-291J275D01*
G02X197648Y303138I874J825D01*
G03Y303762I-250J312D01*
G02X199225Y305574I752J938D01*
G03X199775I275J291D01*
G02X201352Y303762I825J-874D01*
G03Y303138I250J-312D01*
G02X201474Y301375I-752J-938D01*
G03Y300825I291J-275D01*
G02Y299175I-874J-825D01*
G03Y298625I291J-275D01*
G02Y296975I-874J-825D01*
G03Y296425I291J-275D01*
G02Y294775I-874J-825D01*
G03Y294225I291J-275D01*
G37*
G36*
G01X205938Y287248D02*
G02X204248Y288938I-938J752D01*
G03Y289562I-250J312D01*
G02X205752I752J938D01*
G03Y288938I250J-312D01*
G02X205938Y288752I-752J-938D01*
G03X206562I312J250D01*
G02Y287248I938J-752D01*
G03X205938I-312J-250D01*
G37*
G36*
G01X206960Y269014D02*
G02X205990Y269887I-1160J-314D01*
G03X206440Y270386I64J395D01*
G02X207410Y269513I1160J314D01*
G03X206960Y269014I-64J-395D01*
G37*
G36*
G01X164850Y266616D02*
G02X163859Y268401I-1050J584D01*
G03X164258Y268925I19J399D01*
G02X166535Y268903I1142J375D01*
G03X166834Y268379I377J-132D01*
G02X165550Y266616I-234J-1179D01*
G03X164850I-350J-195D01*
G37*
G36*
G01X178461Y252090D02*
G02X178165Y253235I-1161J311D01*
G03X178839Y253410I288J278D01*
G02X180037Y254301I1161J-310D01*
G03X180436Y254601I12J400D01*
G02X181563Y253099I1164J-301D01*
G03X181164Y252799I-12J-400D01*
G02X179135Y252265I-1164J301D01*
G03X178461Y252090I-288J-278D01*
G37*
G36*
G01X160771Y245098D02*
G02X159279Y244978I-671J-998D01*
G03X159229Y245602I-273J292D01*
G02X160721Y245722I671J998D01*
G03X160771Y245098I273J-292D01*
G37*
G36*
G01X206752Y238438D02*
G02X205248I-752J-938D01*
G03Y239062I-250J312D01*
G02X206752I752J938D01*
G03Y238438I250J-312D01*
G37*
G36*
G01X152142Y226325D02*
G02X151584Y227751I-1142J375D01*
G03X152158Y227975I194J349D01*
G02X152356Y228345I1143J-374D01*
G03X152332Y228869I-314J248D01*
G02X154144Y228955I869J831D01*
G03X154168Y228431I314J-248D01*
G02X152716Y226549I-868J-831D01*
G03X152142Y226325I-194J-349D01*
G37*
G36*
G01X178138Y225348D02*
G02Y226852I-938J752D01*
G03X178762I312J250D01*
G02Y225348I938J-752D01*
G03X178138I-312J-250D01*
G37*
G36*
G01X192242Y225225D02*
G02X191684Y226651I-1142J375D01*
G03X192258Y226875I194J349D01*
G02X192816Y225449I1142J-375D01*
G03X192242Y225225I-194J-349D01*
G37*
G36*
G01X200780Y224827D02*
G02X199695Y225798I-1180J-227D01*
G03X200120Y226273I32J399D01*
G02X201205Y225302I1180J227D01*
G03X200780Y224827I-32J-399D01*
G37*
G36*
G01X227593Y221849D02*
G02X226408Y222902I-1193J-149D01*
G03X226807Y223351I2J400D01*
G02X227992Y222298I1193J149D01*
G03X227593Y221849I-2J-400D01*
G37*
G36*
G01X238700Y219426D02*
G02X236358Y219875I-1200J74D01*
G03X235959Y220399I-380J125D01*
G02X236908Y220945I-59J1201D01*
G03X237136Y220646I168J-108D01*
G02X237426Y220700I363J-1146D01*
G03X237800Y221074I-25J399D01*
G02X239074Y219800I1200J-74D01*
G03X238700Y219426I25J-399D01*
G37*
G36*
G01X220296Y219663D02*
G02X219403Y218613I304J-1163D01*
G03X218904Y219037I-398J37D01*
G02X219797Y220087I-304J1163D01*
G03X220296Y219663I398J-37D01*
G37*
G36*
G01X186394Y181659D02*
G02X185357Y182992I-1194J141D01*
G03X185806Y183341I52J396D01*
G02X187934Y183957I1194J-141D01*
G03X188533Y183932I311J252D01*
G02X189820Y184226I867J-832D01*
G03X190319Y184426I139J375D01*
G02X191699Y185064I1081J-526D01*
G03X192199Y185464I100J387D01*
G02X193101Y184336I1201J36D01*
G03X192601Y183936I-100J-387D01*
G02X190980Y182774I-1201J-36D01*
G03X190481Y182574I-139J-375D01*
G02X188466Y182343I-1081J526D01*
G03X187867Y182368I-311J-252D01*
G02X186843Y182008I-868J832D01*
G03X186394Y181659I-52J-396D01*
G37*
G36*
G01X149429Y180379D02*
G02X149172Y181921I-1029J621D01*
G03X149771Y182021I257J307D01*
G02X150028Y180479I1029J-621D01*
G03X149429Y180379I-257J-307D01*
G37*
G36*
G01X169275Y311826D02*
G03X168725I-275J-291D01*
G02Y313574I-825J874D01*
G03X169275I275J291D01*
G02Y311826I825J-874D01*
G37*
G36*
G01Y308026D02*
G03X168725I-275J-291D01*
G02Y309774I-825J874D01*
G03X169275I275J291D01*
G02Y308026I825J-874D01*
G37*
G36*
G01X160873Y322780D02*
G02X159902Y321695I227J-1180D01*
G03X159427Y322120I-399J32D01*
G02X160398Y323205I-227J1180D01*
G03X160873Y322780I399J-32D01*
G37*
G36*
G01X145671Y319627D02*
G02X145130Y320924I-1171J273D01*
G03X145729Y321173I210J340D01*
G02X146270Y319876I1171J-273D01*
G03X145671Y319627I-210J-340D01*
G37*
G36*
G01X145252Y310338D02*
G02X143748I-752J-938D01*
G03Y310962I-250J312D01*
G02X144222Y313069I752J938D01*
G03X144456Y313690I-92J389D01*
G02X145815Y313115I1144J810D01*
G03X145533Y312515I62J-395D01*
G02X145252Y310962I-1033J-615D01*
G03Y310338I250J-312D01*
G37*
G36*
G01X162001Y308759D02*
G02X161175Y309842I-1201J-59D01*
G03X161699Y310241I125J380D01*
G02X164102Y310299I1201J59D01*
G03X164526Y309900I400J0D01*
G02X163398Y308701I74J-1200D01*
G03X162974Y309100I-400J0D01*
G02X162525Y309158I-73J1200D01*
G03X162001Y308759I-125J-380D01*
G37*
G36*
G01X169980Y297727D02*
G02X169274Y299579I-1280J573D01*
G03X169778Y299733I164J365D01*
G02X170457Y300252I1022J-633D01*
G03X170706Y300801I-115J383D01*
G02X172143Y300148I1094J499D01*
G03X171894Y299599I115J-383D01*
G02X170458Y297948I-1094J-499D01*
G03X169980Y297727I-113J-384D01*
G37*
G36*
G01X165484Y298214D02*
G02X163716I-884J-814D01*
G03Y298486I-147J136D01*
G02X165050Y300414I884J814D01*
G03X165600Y300764I150J371D01*
G02X166350Y299586I1200J-64D01*
G03X165800Y299236I-150J-371D01*
G02X165484Y298486I-1200J64D01*
G03Y298214I147J-136D01*
G37*
G54D28*
X121700Y293400D03*
G54D20*
X106100Y199900D03*
X87200Y190500D03*
Y187300D03*
X80900D03*
X51100Y173200D03*
X50600Y169500D03*
X27100Y205000D03*
X31100Y201000D03*
X29100Y198900D03*
X36800Y172500D03*
X26900Y181500D03*
X38700Y169900D03*
X25200Y199000D03*
X25000Y203000D03*
X25100Y186000D03*
X21200D03*
X17100Y173400D03*
X25000Y171600D03*
X19100Y169500D03*
X96700Y190500D03*
X93500D03*
X70000Y266600D03*
X70500Y283500D03*
X80900Y215700D03*
X74300Y225400D03*
X77700Y218800D03*
X74600D03*
X84000Y215700D03*
Y218800D03*
X74600Y237700D03*
X73500Y240800D03*
Y244000D03*
X73600Y247600D03*
X74600Y266500D03*
X72200Y269800D03*
X73000Y291600D03*
Y307300D03*
X74600Y311200D03*
X72500Y301700D03*
X87200Y215700D03*
X86000Y345500D03*
X118000Y362000D03*
X123000D03*
X132000D03*
X136500D03*
X141500D03*
X150000D03*
X84100Y228200D03*
X80900Y231400D03*
X84000Y240900D03*
Y244000D03*
X80900D03*
X84000Y250300D03*
X80900D03*
X84000Y247200D03*
X81500Y269500D03*
X84400Y263700D03*
X82500Y282200D03*
Y275900D03*
Y272700D03*
Y285300D03*
Y294800D03*
Y297900D03*
Y301100D03*
X88800Y279000D03*
X85600Y282200D03*
Y279000D03*
X88800Y275900D03*
Y282200D03*
Y294800D03*
Y291600D03*
X85600Y294800D03*
X88800Y288500D03*
X85600D03*
Y291600D03*
X88800Y297900D03*
Y304200D03*
X85600D03*
Y297900D03*
X107000Y343500D03*
X96600Y244000D03*
X96700Y250300D03*
X96600Y256900D03*
X102900Y253500D03*
Y250300D03*
X110800Y282200D03*
X101400Y272700D03*
Y275900D03*
Y282200D03*
Y279000D03*
X104500Y282200D03*
Y279000D03*
X107700D03*
X106100Y271900D03*
X107700Y285300D03*
X104500D03*
Y288500D03*
X101400D03*
Y307400D03*
X104500D03*
X107700Y304200D03*
X104500D03*
X101400D03*
X109200Y209400D03*
X106100Y212500D03*
X109200D03*
X102900Y222000D03*
Y218800D03*
Y215700D03*
X106100D03*
X109200D03*
Y218800D03*
X106100D03*
Y222000D03*
X109200D03*
X106100Y228300D03*
X109200D03*
Y225100D03*
X106100D03*
X109200Y231400D03*
X115500Y206200D03*
X112400Y212500D03*
X115500Y203100D03*
X125000Y228300D03*
X115500Y215700D03*
X112400D03*
X118700Y218800D03*
X115500D03*
X112400D03*
Y222000D03*
X115500D03*
X121800Y228300D03*
X118700Y222000D03*
Y225100D03*
Y228300D03*
X115500D03*
X112400D03*
X115500Y225100D03*
X112400D03*
X118700Y240900D03*
X121800Y234600D03*
Y231400D03*
X112400D03*
X118700Y244000D03*
X123000Y273000D03*
X134400Y190500D03*
Y193600D03*
X131300D03*
Y199900D03*
X134400D03*
X134300Y196900D03*
X134400Y209400D03*
Y212500D03*
Y215700D03*
X128100Y218800D03*
X134400Y222000D03*
Y237700D03*
Y234600D03*
Y240900D03*
X137600Y190500D03*
X143900Y184200D03*
X140700D03*
Y193600D03*
X137600D03*
Y199900D03*
Y203100D03*
Y206200D03*
X140700Y200000D03*
X137600Y215700D03*
X140700Y209400D03*
X137600Y212500D03*
X140700D03*
X137600Y218800D03*
X140700D03*
X137600Y209400D03*
Y228300D03*
X140700Y225100D03*
X137600D03*
Y237700D03*
Y240900D03*
X144700Y239300D03*
X140700Y234600D03*
Y240900D03*
X137600Y234600D03*
X148600Y242400D03*
X137600Y244000D03*
X140700D03*
X152000Y174300D03*
X152800Y178300D03*
X160800Y185500D03*
X156800Y185900D03*
X153200Y194700D03*
X149600Y205500D03*
X158400Y195500D03*
X155200Y205500D03*
X155400Y232000D03*
X152100Y252100D03*
X154800Y261000D03*
X158600Y260700D03*
X152800Y258200D03*
X169600Y169600D03*
X172900Y176100D03*
Y172900D03*
X169700Y176100D03*
X164400Y182600D03*
X172900Y191800D03*
X169700D03*
X172900Y195000D03*
X167200Y183500D03*
X164400Y188700D03*
X166800Y187100D03*
X172900Y198100D03*
X171500Y204500D03*
X168200Y196500D03*
X170300Y228300D03*
X172900Y240000D03*
X166600Y232000D03*
X172900Y243100D03*
Y246300D03*
X169700Y262000D03*
X172900Y265200D03*
Y268300D03*
X176000Y169800D03*
X182300Y172900D03*
X180400Y181000D03*
X176000Y172900D03*
X179200Y176100D03*
X182300Y195000D03*
X179600Y187000D03*
X183600D03*
X176000Y191800D03*
X179200D03*
X183400Y201000D03*
X178700Y214700D03*
X182300Y240000D03*
X173300Y233200D03*
X182300Y243100D03*
X176000Y246300D03*
X179200D03*
X184400Y253900D03*
X179200Y249400D03*
X182300Y265200D03*
X176000Y262000D03*
Y265200D03*
X178800Y257600D03*
X179200Y262000D03*
X176000Y268300D03*
X188600Y169800D03*
X188800Y175900D03*
X194900Y176100D03*
Y182400D03*
X188600Y172900D03*
X191800Y176100D03*
Y172900D03*
X185500Y176100D03*
X194900Y191800D03*
X191800Y195000D03*
X185500D03*
Y191800D03*
X188600Y198100D03*
X195000Y202100D03*
X196500Y199700D03*
X195000Y217500D03*
X196500Y225800D03*
X191800Y243100D03*
X185500D03*
X196500Y255700D03*
X185500Y246300D03*
X194900D03*
X191800D03*
X188600Y262000D03*
X185500Y265200D03*
X188600D03*
X191800D03*
X194900Y262000D03*
X185500D03*
X189000Y280300D03*
X193400D03*
X188600Y268300D03*
X206000Y169500D03*
X206900Y162100D03*
X198100Y169800D03*
X207600Y165900D03*
X202800D03*
X206000Y182400D03*
X199700D03*
X204400Y176100D03*
X209100Y182400D03*
X198100Y172900D03*
X202800Y180800D03*
X207500Y195000D03*
X198100D03*
X207500Y185500D03*
X204400D03*
X209000Y203700D03*
X201200Y204400D03*
X198000Y208600D03*
X203200Y210800D03*
X207500Y229600D03*
X209200Y224700D03*
X208400Y233100D03*
X198200Y236800D03*
X198100Y246300D03*
X206000Y252600D03*
X199700Y255700D03*
X209100Y252600D03*
X207500Y255700D03*
X204400D03*
X198100Y252600D03*
X202800D03*
X198100Y265200D03*
X204400Y262000D03*
X207300Y280300D03*
X197900D03*
X207000Y306500D03*
X204000Y318500D03*
X220100Y172900D03*
X213800D03*
X215400Y182400D03*
X221700D03*
X212300D03*
X218600D03*
X213800Y195000D03*
X210700Y185500D03*
X213800D03*
X217000D03*
X220100D03*
Y198100D03*
X220900Y206300D03*
X210600Y206500D03*
Y211500D03*
X215400Y210500D03*
X213800Y222100D03*
X217000Y223300D03*
X212200Y225000D03*
X220100Y240000D03*
X213800D03*
X210600Y235800D03*
X215400Y252600D03*
X221700D03*
X210700Y255700D03*
X212300Y252600D03*
X213800Y255700D03*
X218600Y252600D03*
X217000Y255700D03*
X220100D03*
X213800Y268300D03*
X220100D03*
X224900Y182400D03*
X228000D03*
X226400Y185500D03*
X223300D03*
X232700Y217700D03*
X229600Y217900D03*
X231200Y209900D03*
X224900Y218600D03*
X223200Y221700D03*
X226400Y255700D03*
X229600D03*
X223300D03*
X224900Y252600D03*
X231200D03*
X232700Y255700D03*
X228000Y252600D03*
X234300Y212600D03*
X145900Y300900D03*
X160200Y298100D03*
X155600Y315500D03*
X157800Y317900D03*
X155600Y320300D03*
X170100Y320600D03*
G54D26*
X121700Y297400D03*
X146500Y282500D03*
X141500Y278000D03*
Y282500D03*
Y287500D03*
%LPD*%
G75*
G54D10*
X10800Y13500D03*
X58200Y381700D03*
X246600Y382300D03*
X270300Y12000D03*
G54D11*
X8800Y151200D03*
X3500Y240400D03*
X25500Y130000D03*
Y132500D03*
Y135000D03*
X17100Y151100D03*
X15100D03*
X23000Y159500D03*
X19200Y187200D03*
X23200D03*
X21200Y206200D03*
Y195200D03*
X25700Y208800D03*
X30500Y132500D03*
X28000D03*
Y135000D03*
X30900Y159500D03*
X31000Y195200D03*
X34900Y199000D03*
X28900Y246400D03*
X26700Y298300D03*
X40700Y151100D03*
X38700D03*
X47300Y151200D03*
X50400Y247400D03*
X45000Y304000D03*
X54800Y162000D03*
X56400D03*
X58800Y177000D03*
X56400D03*
Y173900D03*
X58400Y174800D03*
X60900Y273100D03*
X51500Y340000D03*
Y334500D03*
Y344500D03*
X71600Y161700D03*
Y163400D03*
X64500Y191100D03*
X66300Y250200D03*
X93500Y209400D03*
X90300Y218800D03*
Y215700D03*
X93500D03*
X90300Y212500D03*
Y222000D03*
X93500Y228300D03*
Y225100D03*
X90300Y231400D03*
X93500D03*
X90300Y225100D03*
X93500Y240300D03*
Y234600D03*
X91200Y240300D03*
X93500Y237700D03*
X96600D03*
X99800Y203100D03*
X102900D03*
X106100D03*
X109200Y237700D03*
X106100D03*
Y240900D03*
X102900Y244000D03*
X99800D03*
X112400Y199900D03*
Y203100D03*
X121800D03*
X122300Y304200D03*
Y302000D03*
X123900Y299800D03*
Y302000D03*
Y304200D03*
X130900Y176800D03*
X125300Y181000D03*
X135400D03*
X125000Y206200D03*
Y203100D03*
X128100Y206200D03*
Y203100D03*
X131300Y212500D03*
X129700Y229800D03*
X125000Y222000D03*
X134400Y228300D03*
X131300Y231400D03*
Y222000D03*
X128100Y237700D03*
X125000D03*
X131300Y234600D03*
X128000Y290000D03*
Y282500D03*
X130500Y290000D03*
Y282500D03*
X125500Y299800D03*
Y302000D03*
Y304200D03*
X127300Y347900D03*
Y346200D03*
Y349500D03*
X128900Y349100D03*
Y350700D03*
X130500Y349100D03*
Y350700D03*
X147200Y297800D03*
X148100Y299300D03*
X144400Y317100D03*
X153800Y287000D03*
X149000Y297800D03*
X151600Y329000D03*
X153100Y327800D03*
Y329500D03*
X151600Y330700D03*
X156900Y332000D03*
X162000Y49500D03*
X169700Y172900D03*
Y195000D03*
Y243100D03*
Y268300D03*
X162400Y296600D03*
X163300Y334000D03*
X167000Y374500D03*
Y386500D03*
Y380500D03*
X172900Y169800D03*
X179300Y161300D03*
X182000Y161100D03*
X176000Y176100D03*
X179200Y172900D03*
X176000Y195000D03*
X179200D03*
X179300Y198000D03*
X182300Y198100D03*
X179000Y203200D03*
X177200Y204800D03*
X175300Y203300D03*
X176000Y243100D03*
X179200D03*
X172900Y262000D03*
X182300D03*
X179200Y265200D03*
X182300Y268300D03*
X179200D03*
X176700Y296800D03*
X178400Y297900D03*
X176700Y299000D03*
X175000Y297900D03*
X179400Y316500D03*
X180500Y354000D03*
X193800Y161300D03*
X189100D03*
X185500Y169800D03*
X191700Y179200D03*
X194900Y172900D03*
X191800Y191800D03*
X191200Y204500D03*
X194900Y195000D03*
Y243100D03*
X187100Y238400D03*
X191700Y249400D03*
X191800Y262000D03*
X185500Y268300D03*
X191800D03*
X198300Y161300D03*
X201200Y172900D03*
X198100Y191800D03*
X207500Y198100D03*
X198100Y243100D03*
Y262000D03*
X197800Y320700D03*
Y318500D03*
X199900Y325300D03*
X197700Y327500D03*
X199900Y323000D03*
X197800D03*
X200000Y320700D03*
X197700Y325300D03*
X199900Y327500D03*
X200000Y318500D03*
X220800Y163000D03*
X210700Y172900D03*
X217000D03*
X213800Y198100D03*
Y243100D03*
X210700Y240000D03*
X217000Y268300D03*
X210700D03*
X211000Y348500D03*
X244200Y205600D03*
Y196600D03*
Y201200D03*
Y218800D03*
Y214000D03*
Y210000D03*
Y227600D03*
Y223200D03*
Y240800D03*
Y236400D03*
Y232000D03*
Y249200D03*
Y245300D03*
X245500Y345000D03*
X243000D03*
Y347500D03*
X245500D03*
Y350000D03*
X243000D03*
Y352500D03*
X245500D03*
X243000Y355000D03*
X245500D03*
X254200Y229900D03*
X261000Y118500D03*
G54D12*
X42500Y26000D03*
X52500D03*
X212500D03*
X222500D03*
G54D13*
X72300Y369800D03*
X85500Y387500D03*
X90500D03*
X88000Y385000D03*
X186000Y273200D03*
X188200D03*
X190200D03*
X195400Y273300D03*
X192800D03*
X198000D03*
X214800Y163000D03*
X218200D03*
X215400Y273500D03*
X220500D03*
X218000D03*
G54D14*
X90800Y113500D03*
X100800D03*
X130800D03*
X140800D03*
G54D15*
X98300Y62200D03*
X108300D03*
X103300Y72200D03*
X113300D03*
X118300Y62200D03*
X123300Y72200D03*
X128300Y62200D03*
X133300Y72200D03*
G54D16*
G01X45000Y304000D02*
X32500D01*
X26800Y298300D01*
X26700D01*
G54D17*
G01X0Y200D02*
Y392700D01*
X282300D01*
Y200D01*
X0D01*
M02*
