G04 ================== begin FILE IDENTIFICATION RECORD ==================*
G04 Layout Name:  layout_12.brd*
G04 Film Name:    Gerber_BOTTOM_RK3188_v2*
G04 File Format:  Gerber RS274X*
G04 File Origin:  Cadence Allegro 16.6-S008*
G04 Origin Date:  Mon Aug 22 09:39:45 2016*
G04 *
G04 Layer:  VIA CLASS/BOTTOM*
G04 Layer:  PIN/BOTTOM*
G04 Layer:  ETCH/BOTTOM*
G04 Layer:  DRAWING FORMAT/BOTTOM*
G04 Layer:  BOARD GEOMETRY/OUTLINE*
G04 Layer:  BOARD GEOMETRY/LOGO_M*
G04 *
G04 Offset:    (0.00 0.00)*
G04 Mirror:    No*
G04 Mode:      Positive*
G04 Rotation:  0*
G04 FullContactRelief:  No*
G04 UndefLineWidth:     5.00*
G04 ================== end FILE IDENTIFICATION RECORD ====================*
%FSLAX25Y25*MOIN*%
%IR0*IPPOS*OFA0.00000B0.00000*MIA0B0*SFA1.00000B1.00000*%
%ADD51O,.06X.125*%
%ADD60R,.11X.047*%
%ADD54O,.118X.063*%
%ADD40C,.02*%
%AMMACRO22*
4,1,4,.008,-.012,
-.008,-.012,
-.008,.012,
.008,.012,
.008,-.012,
0.0*
%
%ADD22MACRO22*%
%AMMACRO21*
4,1,4,.008,-.012,
-.008,-.012,
-.008,.012,
.008,.012,
.008,-.012,
0.0*
%
%ADD21MACRO21*%
%ADD16C,.04*%
%ADD32C,.032*%
%ADD59C,.051*%
%ADD52C,.015*%
%ADD44C,.06*%
%ADD41C,.07*%
%ADD13C,.016*%
%ADD29C,.08*%
%ADD46R,.028X.165*%
%ADD15R,.02X.02*%
%ADD58C,.047*%
%ADD35C,.065*%
%ADD17R,.04X.04*%
%ADD20C,.06693*%
%ADD19R,.06693X.06693*%
%ADD38R,.024X.02*%
%ADD53R,.02X.024*%
%ADD28R,.05X.04*%
%ADD43R,.04X.05*%
%ADD11R,.044X.03*%
%ADD48R,.025X.05*%
%ADD49R,.052X.05*%
%ADD10C,.13*%
%ADD45R,.042X.026*%
%ADD23R,.06X.044*%
%ADD26R,.026X.042*%
%ADD56R,.028X.024*%
%ADD24R,.04X.048*%
%ADD63R,.041X.039*%
%ADD57R,.024X.028*%
%AMMACRO33*
4,1,4,-.008,.012,
.008,.012,
.008,-.012,
-.008,-.012,
-.008,.012,
0.0*
%
%ADD33MACRO33*%
%ADD14R,.054X.062*%
%ADD12R,.072X.044*%
%AMMACRO61*
4,1,4,.012,.008,
.012,-.008,
-.012,-.008,
-.012,.008,
.012,.008,
0.0*
%
%ADD61MACRO61*%
%ADD39O,.026X.049*%
%AMMACRO34*
4,1,4,-.008,.012,
.008,.012,
.008,-.012,
-.008,-.012,
-.008,.012,
0.0*
%
%ADD34MACRO34*%
%ADD27R,.055X.053*%
%ADD25R,.028X.035*%
%AMMACRO64*
4,1,4,.012,.008,
.012,-.008,
-.012,-.008,
-.012,.008,
.012,.008,
0.0*
%
%ADD64MACRO64*%
%ADD62R,.032X.067*%
%ADD42C,.145*%
%ADD37R,.035X.028*%
%ADD50R,.085X.07*%
%ADD65R,.087X.041*%
%ADD36R,.036X.048*%
%ADD30R,.054X.076*%
%ADD47R,.024X.079*%
%ADD31R,.039X.055*%
%ADD55R,.093X.096*%
%ADD18R,.096X.093*%
%ADD66C,.01*%
%ADD67C,.03*%
%ADD68C,.012*%
%ADD69C,.004*%
%ADD70C,.005*%
%ADD71C,.006*%
%ADD72C,.008*%
%ADD73C,.02404*%
%ADD74C,.06704*%
G75*
%LPD*%
G75*
G36*
G01X11000Y104000D02*
X11500Y103500D01*
Y100000D01*
X11000Y99500D01*
X2500D01*
Y104000D01*
X11000D01*
G37*
G36*
G01X27000Y255500D02*
X22500Y260000D01*
X14000D01*
X11500Y262500D01*
Y280500D01*
X12000Y281000D01*
X21000D01*
X22000Y280000D01*
Y273500D01*
X26000Y269500D01*
X32000D01*
Y268123D01*
X31998Y268122D01*
Y259878D01*
X32000Y259877D01*
Y255500D01*
X27000D01*
G37*
G36*
G01X9500Y289000D02*
Y296500D01*
X10000Y297000D01*
X24000D01*
X25000Y296000D01*
Y289500D01*
X24000Y288500D01*
X10000D01*
X9500Y289000D01*
G37*
G36*
G01X35000Y48500D02*
X44000D01*
X45000Y47500D01*
Y30000D01*
X46500Y28500D01*
Y19500D01*
X48000Y18000D01*
X73500D01*
X75000Y19500D01*
Y29500D01*
X76000Y30500D01*
X82000D01*
X83000Y29500D01*
Y13000D01*
X80000Y10000D01*
X39000D01*
X33500Y15500D01*
Y47000D01*
X35000Y48500D01*
G37*
G36*
G01X49500Y58500D02*
X56000Y52000D01*
Y41500D01*
X58500Y39000D01*
X74500D01*
X76000Y40500D01*
X82000D01*
X82500Y40000D01*
Y34500D01*
X81500Y33500D01*
X74000D01*
X70500Y30000D01*
Y23500D01*
X68500Y21500D01*
X51000D01*
X48500Y24000D01*
Y50500D01*
X45500Y53500D01*
X38000D01*
X37500Y54000D01*
Y58000D01*
X38000Y58500D01*
X49500D01*
G37*
G36*
G01X35500Y268000D02*
X36000Y267500D01*
Y264500D01*
X37000Y263500D01*
X39000D01*
X39500Y263000D01*
Y256000D01*
X39000Y255500D01*
X35000D01*
Y259000D01*
X33500Y260500D01*
Y267500D01*
X34000Y268000D01*
X35500D01*
G37*
G36*
G01X36000Y283000D02*
X36500Y282500D01*
Y273500D01*
X36000Y273000D01*
X34000D01*
X33500Y273500D01*
Y283000D01*
X36000D01*
G37*
G36*
G01X29500Y300500D02*
X41500D01*
X42000Y300000D01*
Y293500D01*
X41500Y293000D01*
X29000D01*
Y300000D01*
X29500Y300500D01*
G37*
G36*
G01X48500Y303000D02*
X47000Y304500D01*
Y310335D01*
G02X47675Y310626I400J1D01*
G03Y312374I825J874D01*
G02X47000Y312665I-275J290D01*
G01Y324600D01*
X48000Y325600D01*
X53300D01*
X53900Y325000D01*
Y311000D01*
X53500Y310600D01*
Y303300D01*
X53200Y303000D01*
X48500D01*
G37*
G36*
G01X76000Y42500D02*
X61500D01*
X60500Y43500D01*
Y48500D01*
X61500Y49500D01*
X76000D01*
X76500Y49000D01*
Y43000D01*
X76000Y42500D01*
G37*
G36*
G01Y52500D02*
X61500D01*
X60500Y53500D01*
Y58500D01*
X61500Y59500D01*
X76000D01*
X76500Y59000D01*
Y53000D01*
X76000Y52500D01*
G37*
G36*
G01X63500Y300500D02*
X61200Y302800D01*
X57200D01*
X56700Y303300D01*
Y309300D01*
X55600Y310400D01*
Y325000D01*
X71000D01*
X76000Y320000D01*
Y308500D01*
X79500Y305000D01*
X89200D01*
X89700Y304500D01*
Y303900D01*
X88400Y302600D01*
X75400D01*
X72500Y305500D01*
Y315500D01*
X71000Y317000D01*
X67500D01*
X66000Y315500D01*
Y313123D01*
X65438Y312562D01*
G03X65882Y310131I1062J-1062D01*
G01X66000Y310078D01*
Y300500D01*
X63500D01*
G37*
G36*
G01X78500Y344702D02*
Y346500D01*
X81500D01*
X82000Y347000D01*
Y350500D01*
X81000Y351500D01*
X75442D01*
Y352708D01*
G03X75942Y353913I-1202J1205D01*
G01Y356213D01*
G03X72538I-1702J0D01*
G01Y353913D01*
G03X73038Y352708I1702J0D01*
G01Y351500D01*
X60000D01*
X59500Y352000D01*
Y359000D01*
X60000Y359500D01*
X111000D01*
X111500Y359000D01*
Y352000D01*
X111000Y351500D01*
X103442D01*
Y352708D01*
G03X103942Y353913I-1202J1205D01*
G01Y356213D01*
G03X100538I-1702J0D01*
G01Y353913D01*
G03X101038Y352708I1702J0D01*
G01Y351500D01*
X89442D01*
Y352708D01*
G03X89942Y353913I-1202J1205D01*
G01Y356213D01*
G03X86538I-1702J0D01*
G01Y353913D01*
G03X87038Y352708I1702J0D01*
G01Y351500D01*
X86500D01*
X85500Y350500D01*
Y347000D01*
X86000Y346500D01*
X89000D01*
Y344702D01*
X78500D01*
G37*
G36*
G01X80598Y306502D02*
X77502Y309598D01*
Y311400D01*
X78000D01*
X80400Y309000D01*
X88000D01*
Y306502D01*
X80598D01*
G37*
G36*
G01X84500Y389000D02*
X92000D01*
X92500Y388500D01*
Y384000D01*
X84500D01*
X84000Y384500D01*
Y388500D01*
X84500Y389000D01*
G37*
G36*
G01X90000Y41000D02*
X104500D01*
X105500Y40000D01*
Y35000D01*
X104500Y34000D01*
X90000D01*
X89500Y34500D01*
Y40500D01*
X90000Y41000D01*
G37*
G36*
G01X113500Y24000D02*
X99500D01*
X98500Y25000D01*
Y30000D01*
X99500Y31000D01*
X113500D01*
X114000Y30500D01*
Y24500D01*
X113500Y24000D01*
G37*
G36*
G01X87100Y154900D02*
Y159400D01*
X96000Y168300D01*
X111300D01*
X113200Y166400D01*
X116400D01*
X118300Y168300D01*
X119400D01*
X119900Y167800D01*
Y167100D01*
X115100Y162300D01*
Y156100D01*
X125900Y145300D01*
X129100D01*
Y142500D01*
X121400D01*
X105900Y158000D01*
Y160400D01*
X105000Y161300D01*
X95600D01*
X88600Y154400D01*
X87600D01*
X87100Y154900D01*
G37*
G36*
G01X91800Y303400D02*
X91202Y303998D01*
Y305122D01*
X90200Y306123D01*
Y312198D01*
X92602D01*
X93400Y311400D01*
X95900D01*
X96100Y311200D01*
Y304100D01*
X95400Y303400D01*
X91800D01*
G37*
G36*
G01X101000Y317000D02*
Y313800D01*
X100900Y313700D01*
X90800D01*
X90100Y314400D01*
Y317000D01*
X101000D01*
G37*
G36*
G01X105900Y126600D02*
X103800D01*
X103200Y127200D01*
Y130300D01*
X103700Y130800D01*
X106200D01*
X106600Y130400D01*
Y127300D01*
X105900Y126600D01*
G37*
G36*
G01X100100Y150500D02*
X102400Y152800D01*
X107700D01*
X110200Y150300D01*
Y144400D01*
X109200Y143400D01*
X101000D01*
X100100Y144300D01*
Y150500D01*
G37*
G36*
G01X108000Y346500D02*
Y343000D01*
X107500Y342500D01*
X106500D01*
X106000Y343000D01*
Y346500D01*
X108000D01*
G37*
G36*
G01X130500Y231100D02*
Y237100D01*
X132100D01*
Y233700D01*
X135200Y230600D01*
Y227900D01*
X134800Y227500D01*
X133500D01*
X132100Y226100D01*
Y221700D01*
X131600Y221200D01*
X127800D01*
X127300Y221700D01*
Y225300D01*
X131300Y229300D01*
Y230300D01*
X130500Y231100D01*
G37*
G36*
G01X138500Y315000D02*
X139000Y314500D01*
Y311600D01*
X138500Y311100D01*
X132900D01*
X132500Y311500D01*
Y314500D01*
X133000Y315000D01*
X138500D01*
G37*
G36*
G01X136000Y260700D02*
X138556Y263000D01*
X141800D01*
X142300Y262500D01*
Y253900D01*
X141100Y252700D01*
X140400D01*
X137500Y255500D01*
Y257700D01*
X136000Y259200D01*
Y260700D01*
G37*
G36*
G01X204000Y69500D02*
X218500Y55000D01*
X259000D01*
X260000Y54000D01*
Y40000D01*
X258500Y38500D01*
X207500D01*
X190000Y56000D01*
X165000D01*
X160500Y60500D01*
Y68500D01*
X161500Y69500D01*
X204000D01*
G37*
G36*
G01X169000Y104000D02*
X170000Y103000D01*
Y78000D01*
X169500Y77500D01*
X160500D01*
X160000Y78000D01*
Y103000D01*
X161000Y104000D01*
X169000D01*
G37*
G36*
G01X179343Y195857D02*
X179357Y195828D01*
G03X180010Y195166I1343J672D01*
G01X181500Y193677D01*
Y193100D01*
X181100Y192700D01*
X180500D01*
X178700Y194400D01*
X178500Y194700D01*
X176000D01*
X175600Y195100D01*
Y195475D01*
X175647Y195531D01*
G03X175699Y195596I-1146J970D01*
G01X175708Y195608D01*
X176100Y196000D01*
Y200400D01*
X174400Y202100D01*
Y206800D01*
X174800Y207200D01*
X180000D01*
X180400Y206800D01*
Y199900D01*
X181000Y199300D01*
X182500D01*
X183100Y198700D01*
Y197923D01*
X182577Y197400D01*
X182023D01*
X181422Y198002D01*
X180700D01*
G03X180637Y198000I16J-1501D01*
G01X179700D01*
X179300Y197600D01*
Y197044D01*
X179288Y197011D01*
G03Y195989I1412J-511D01*
G01X179300Y195956D01*
Y195900D01*
X179343Y195857D01*
G37*
G36*
G01X176298Y230602D02*
X176100Y230800D01*
Y242000D01*
X175300Y242800D01*
Y243300D01*
X175900Y243900D01*
X176300D01*
X177200Y243000D01*
X180277D01*
X181238Y242038D01*
G03X181400Y241898I1060J1063D01*
G01Y241202D01*
G03X181101Y240904I900J-1202D01*
G01X181092Y240892D01*
X179900Y239700D01*
Y234100D01*
X181300Y232600D01*
Y230800D01*
X181141Y230602D01*
X176298D01*
G37*
G36*
G01X179000Y267800D02*
X178500Y268300D01*
Y268600D01*
X184200Y274300D01*
X191300D01*
Y272600D01*
X190800Y272100D01*
X189200D01*
X186200Y269100D01*
Y268100D01*
X185900Y267800D01*
X185023D01*
X184622Y268202D01*
X183900D01*
G03X182878Y267800I1J-1502D01*
G01X181823D01*
X181422Y268202D01*
X180700D01*
G03X179678Y267800I1J-1502D01*
G01X179000D01*
G37*
G36*
G01X195500Y243400D02*
Y242700D01*
X194900Y242200D01*
Y232000D01*
X193501Y230602D01*
X190399D01*
X190200Y230800D01*
Y239500D01*
X190843Y240143D01*
X190872Y240157D01*
G03X191262Y240438I-672J1343D01*
G01X192862Y242038D01*
G03X193143Y242428I-1062J1062D01*
G01X193157Y242457D01*
X194500Y243800D01*
X195100D01*
X195500Y243400D01*
G37*
G36*
G01X214500Y308000D02*
X215500Y307000D01*
Y300500D01*
X214000Y299000D01*
X204500D01*
X203000Y300500D01*
Y307000D01*
X204000Y308000D01*
X214500D01*
G37*
G36*
G01X239000Y30000D02*
X239500Y29500D01*
Y22500D01*
X239000Y22000D01*
X219500D01*
X218500Y23000D01*
Y29000D01*
X219500Y30000D01*
X239000D01*
G37*
G36*
G01X216400Y171400D02*
Y170300D01*
X221700Y165000D01*
Y162400D01*
X221100Y161900D01*
X214500D01*
X208800Y167600D01*
Y171900D01*
X210500Y173600D01*
X210900D01*
X211300Y173100D01*
Y172800D01*
X210300Y171800D01*
Y170200D01*
X211100Y169500D01*
X213700D01*
X214500Y170200D01*
Y171300D01*
X215700Y172600D01*
X216300D01*
X216700Y172200D01*
Y171700D01*
X216400Y171400D01*
G37*
G36*
G01X279000Y100000D02*
X279500Y99500D01*
Y93500D01*
X279000Y93000D01*
X245500D01*
X232000Y106500D01*
Y117000D01*
X233000Y118000D01*
X243000D01*
X244000Y119000D01*
Y127000D01*
X245000Y128000D01*
X253500D01*
X257000Y124500D01*
Y101000D01*
X258000Y100000D01*
X279000D01*
G37*
G36*
G01X281200Y296200D02*
X249800D01*
X243100Y302900D01*
Y339900D01*
X249900Y346700D01*
X281200D01*
Y296200D01*
G37*
G36*
G01X259000Y30500D02*
X260000Y29500D01*
Y15000D01*
X259000Y14000D01*
X249000D01*
X248000Y15000D01*
Y29500D01*
X249000Y30500D01*
X259000D01*
G37*
G36*
G01X281000Y86000D02*
Y79000D01*
X268000D01*
X267500Y79500D01*
Y85500D01*
X268000Y86000D01*
X281000D01*
G37*
G36*
G01X261200Y184200D02*
Y189400D01*
X263600D01*
X264400Y188600D01*
Y180900D01*
X263800Y180300D01*
X259800D01*
X259100Y181000D01*
Y182100D01*
X261200Y184200D01*
G37*
%LPC*%
G75*
G36*
G01X273900Y314400D02*
X275200Y313100D01*
Y308800D01*
X274000Y307600D01*
X263900D01*
X262500Y309000D01*
Y312100D01*
X260000Y314600D01*
Y319500D01*
X262500Y322000D01*
Y324400D01*
X261300Y325600D01*
X251100D01*
X249500Y327200D01*
Y333600D01*
X251600Y335700D01*
X263300D01*
X269000Y330000D01*
Y315500D01*
X270100Y314400D01*
X273900D01*
G37*
G54D73*
X25500Y267000D03*
X63500Y316000D03*
G54D74*
X252000Y306500D03*
%LPD*%
G75*
G54D10*
X10800Y13500D03*
X58200Y381700D03*
X246600Y382300D03*
X270300Y12000D03*
G54D11*
X4700Y106600D03*
Y110900D03*
Y115300D03*
Y119600D03*
Y123900D03*
Y128300D03*
Y132600D03*
Y136900D03*
G54D20*
X18000Y51500D03*
Y41500D03*
Y83000D03*
Y93000D03*
G54D30*
X47100Y109800D03*
Y133300D03*
G54D12*
X6100Y101800D03*
G54D21*
X25000Y375000D03*
X28500D03*
G54D31*
X51500Y306100D03*
X55200Y297500D03*
X58900Y306100D03*
X256100Y203500D03*
X266300Y171400D03*
X262600Y162800D03*
X270000D03*
X266300Y195600D03*
X262600Y187000D03*
X270000D03*
X263500Y203500D03*
X259800Y212100D03*
G54D13*
X10500Y102000D03*
X8000Y107000D03*
Y115000D03*
Y119500D03*
Y111000D03*
Y132500D03*
Y128500D03*
Y124000D03*
Y137000D03*
X5000Y150500D03*
X8800Y151200D03*
X5300Y159500D03*
X13200Y183600D03*
X6500Y215600D03*
X8700Y209800D03*
X7200Y235100D03*
X3500Y240400D03*
X8500Y245500D03*
X13000Y275000D03*
Y277500D03*
Y280000D03*
X10500Y290000D03*
Y295000D03*
X13500Y304000D03*
X20500Y107500D03*
X23000D03*
X18000D03*
X23000Y110000D03*
X20500D03*
X18000D03*
X15500Y121500D03*
X23500D03*
X18000Y132500D03*
Y130000D03*
Y127500D03*
Y125000D03*
X15500Y130000D03*
Y125000D03*
X25500Y130000D03*
Y132500D03*
X18000Y137500D03*
Y135000D03*
X15500D03*
X25500D03*
X17100Y151100D03*
X15100D03*
X19100Y169500D03*
X23000Y159500D03*
X25000Y171600D03*
X17100Y173400D03*
X15100Y171300D03*
X21200Y186000D03*
X25100D03*
X17100D03*
X19200Y187200D03*
X23200D03*
X25000Y203000D03*
X23600Y195100D03*
X25200Y199000D03*
X21200Y206200D03*
Y195200D03*
X26000Y195100D03*
X23100Y209000D03*
X17200Y218400D03*
X25700Y208800D03*
X15300Y217000D03*
X23900Y217900D03*
X19100Y227100D03*
X19500Y222400D03*
X21800Y220200D03*
X22500Y224100D03*
X25500Y267000D03*
X18000Y275000D03*
X15500D03*
Y277500D03*
X18000D03*
Y280000D03*
X15500D03*
X22500Y286000D03*
X24000Y290000D03*
X21000Y305500D03*
X25500D03*
X22500Y327000D03*
X21000Y328500D03*
X25500Y324000D03*
X18000Y328500D03*
X24000Y325500D03*
X24500Y338500D03*
X15500D03*
X18000Y336500D03*
X19500Y330000D03*
X14500Y353000D03*
X19500Y349000D03*
X18000Y344000D03*
X15500Y342500D03*
Y345500D03*
X14500Y361500D03*
Y365500D03*
Y369500D03*
X23000D03*
X25000Y372000D03*
Y382000D03*
X30500Y132500D03*
X28000D03*
Y135000D03*
X28500Y150000D03*
X26900Y159500D03*
X30900D03*
X26900Y181500D03*
X36800Y172500D03*
X29100Y198900D03*
X31100Y201000D03*
X27100Y205000D03*
X31000Y195200D03*
X34900Y199000D03*
X36900Y218400D03*
X32800Y227100D03*
X36700D03*
X27900D03*
X34900Y220100D03*
X33000Y221900D03*
X26900Y234700D03*
X28900Y246400D03*
X34500Y267000D03*
X35000Y274000D03*
X26700Y298300D03*
X38000Y299500D03*
X38500Y314000D03*
X36000D03*
X28500Y321000D03*
X27000Y322500D03*
X33000Y347500D03*
Y351000D03*
X38000D03*
X26500Y362000D03*
X38500Y365000D03*
Y369500D03*
X28500Y372000D03*
Y382000D03*
X47000Y115500D03*
Y128500D03*
X42000Y137000D03*
X40700Y151100D03*
X38700D03*
X47300Y151200D03*
X50600Y169500D03*
X38700Y169900D03*
X44500Y173300D03*
X42700Y172200D03*
X40700Y173800D03*
X38900Y217000D03*
X44600Y227000D03*
X46400Y234300D03*
X45000Y253000D03*
X50400Y247400D03*
X42000Y270500D03*
X48000Y278500D03*
X50500D03*
X47500Y273000D03*
X46500Y276000D03*
X45000Y278500D03*
X40000Y283000D03*
X44500D03*
X45000Y304000D03*
X40500Y299500D03*
X48500Y311500D03*
X44000D03*
X41000Y314000D03*
X48700Y320300D03*
X43000Y351000D03*
X48000Y363000D03*
X54500Y70000D03*
Y82000D03*
X57500Y76000D03*
X54500Y95000D03*
Y107000D03*
X57500Y101000D03*
X56000Y142500D03*
X58500Y155900D03*
Y157800D03*
X56500Y146500D03*
X60900Y158400D03*
X54800Y162000D03*
X56400D03*
X58800Y177000D03*
X56400D03*
Y173900D03*
X58400Y174800D03*
X51100Y173200D03*
X57500Y228300D03*
X58200Y226800D03*
X53500Y267500D03*
X56500Y264500D03*
X52000Y258000D03*
X57000Y276000D03*
X52000D03*
X56500Y278500D03*
X60000Y276000D03*
X53500Y278500D03*
X60900Y273100D03*
X58000Y283000D03*
X53000D03*
X63000Y283500D03*
X61000Y281000D03*
X57500Y335000D03*
X51500Y340000D03*
Y334500D03*
X60500Y352500D03*
X63000D03*
X51500Y344500D03*
X53000Y363000D03*
X63000Y357500D03*
X60500D03*
X56000Y369000D03*
X73000Y43500D03*
Y46000D03*
X70500Y43500D03*
X68000D03*
Y46000D03*
X70500D03*
X73000Y48500D03*
X70500D03*
X68000D03*
X73000Y53500D03*
Y56000D03*
Y58500D03*
X70500D03*
Y56000D03*
Y53500D03*
X68000D03*
Y56000D03*
Y58500D03*
X64500Y75000D03*
Y77500D03*
X67000Y75000D03*
Y77500D03*
X69500Y75000D03*
Y77500D03*
Y100000D03*
X64500D03*
Y102500D03*
X67000Y100000D03*
Y102500D03*
X69500D03*
X70500Y156000D03*
X72000Y157000D03*
X69000D03*
X71600Y161700D03*
Y163400D03*
X74100Y176000D03*
Y177600D03*
X72400D03*
X70500Y182500D03*
X64500Y191100D03*
X74600Y199900D03*
X64500Y210500D03*
X69500Y208000D03*
X72600D03*
X74600Y218800D03*
X65500Y216500D03*
Y214000D03*
X74300Y225400D03*
X74600Y237700D03*
X66300Y243400D03*
X73500Y240800D03*
X66300Y245000D03*
X74600Y253800D03*
X73500Y244000D03*
X73600Y247600D03*
X66300Y250200D03*
X70000Y266600D03*
X74600Y256600D03*
Y266500D03*
X65900Y277100D03*
X72200Y269800D03*
X64500Y281000D03*
X69000D03*
X67500Y283500D03*
X70500D03*
X73000Y291600D03*
X72500Y301700D03*
X66500Y311500D03*
X63500Y316000D03*
X74600Y311200D03*
X73000Y307300D03*
X66500Y332500D03*
X66600Y367000D03*
X75500Y43500D03*
Y46000D03*
Y48500D03*
Y53500D03*
Y56000D03*
Y58500D03*
X85000Y177000D03*
Y174500D03*
Y172000D03*
X80900Y193600D03*
Y187300D03*
X87200D03*
Y193600D03*
Y190500D03*
X84000Y184200D03*
X87200D03*
X84000Y206200D03*
X80900Y203100D03*
X84000Y196800D03*
X80900Y206200D03*
X84000Y203100D03*
Y199900D03*
X87200D03*
X80900Y215700D03*
X85700Y210900D03*
X84000Y218800D03*
Y215700D03*
X77700Y218800D03*
X84000Y212500D03*
Y209400D03*
X87200Y215700D03*
Y225100D03*
X80900Y231400D03*
X84100Y228200D03*
X84000Y240900D03*
X87200Y234600D03*
X80900Y250300D03*
X77700Y253500D03*
X87200Y247200D03*
X84000D03*
Y250300D03*
X87200Y244000D03*
Y250300D03*
Y253500D03*
X77700Y250300D03*
X84000Y244000D03*
X80900D03*
X87200Y256600D03*
X84400Y263700D03*
X79300Y279000D03*
X81500Y269500D03*
X82500Y275900D03*
X79400Y272800D03*
X77700Y269100D03*
X82500Y272700D03*
X85600Y279000D03*
Y288500D03*
Y282200D03*
X82500D03*
X76200Y291600D03*
X79300Y288500D03*
Y285300D03*
X82500D03*
X85600Y291600D03*
X79300Y282200D03*
Y291600D03*
X82500Y297900D03*
X85600Y294800D03*
X79300Y301100D03*
X82500D03*
Y294800D03*
X85600Y304200D03*
Y297900D03*
X76200D03*
X77700Y310500D03*
X76100Y307400D03*
X75500Y337500D03*
X81500Y345500D03*
X86000D03*
X85500Y366800D03*
X76900Y367000D03*
X98000Y35000D03*
X90500D03*
X93000D03*
X95500D03*
X90500Y37500D03*
X93000D03*
X95500D03*
X98000D03*
Y40000D03*
X95500D03*
X93000D03*
X90500D03*
X91000Y127400D03*
X98000Y140500D03*
X94300Y148900D03*
X94500Y152200D03*
X88000Y155500D03*
X97500Y154400D03*
X99200Y158200D03*
X94300Y146600D03*
X96400Y167400D03*
X96600Y193600D03*
X93500D03*
X96700Y184200D03*
X93500Y190500D03*
X96700D03*
X96600Y187300D03*
Y206200D03*
X96700Y196800D03*
X91900Y201500D03*
X90300Y206200D03*
X96600Y203100D03*
X93500Y196800D03*
X96600Y215700D03*
Y218800D03*
X93500Y209400D03*
X90300Y218800D03*
Y215700D03*
X93500D03*
X90300Y212500D03*
X96600Y209400D03*
X90300Y222000D03*
X93500Y228300D03*
Y225100D03*
X90300Y231400D03*
X93500D03*
X90300Y225100D03*
X93500Y240300D03*
Y234600D03*
X91200Y240300D03*
X93500Y237700D03*
X96600D03*
X90300Y247200D03*
X96600Y244000D03*
X96700Y250300D03*
X91000Y255000D03*
X88500Y263600D03*
X89500Y259000D03*
X92400Y258900D03*
X96600Y256900D03*
X94400Y267300D03*
X88800Y279000D03*
X95100D03*
X98200D03*
X88800Y275900D03*
Y291600D03*
X95100Y282200D03*
X98200D03*
X88800D03*
Y288500D03*
X98200D03*
X95100D03*
Y294700D03*
X91900Y294800D03*
X88800D03*
X91900Y301100D03*
X88800Y297900D03*
X98200Y294800D03*
X91900Y297900D03*
X88800Y304200D03*
X92100D03*
X95100D03*
X97200Y314500D03*
X98200Y307400D03*
X95000Y332500D03*
X92500D03*
X97500D03*
X89800Y366800D03*
X110500Y27500D03*
X108000D03*
X105500D03*
Y30000D03*
X108000D03*
X110500D03*
Y25000D03*
X108000D03*
X105500D03*
X104900Y127500D03*
Y146200D03*
X103100Y147900D03*
X104900Y149800D03*
X106700Y147900D03*
X104900D03*
X106700Y158300D03*
X103900Y158000D03*
X110200Y167300D03*
X101000Y167400D03*
X104500Y178900D03*
X106000Y190500D03*
X109200Y184200D03*
Y193700D03*
X102900Y190400D03*
X106100Y193600D03*
X99800Y190500D03*
X102900Y187300D03*
X99800D03*
X102900Y184200D03*
X99800Y196800D03*
X109200D03*
X110800Y195200D03*
X99800Y203100D03*
X102900D03*
X106100D03*
Y199900D03*
X109200Y209400D03*
X99800Y218800D03*
X102900D03*
X106100Y215700D03*
Y212500D03*
X109200D03*
Y215700D03*
Y218800D03*
X106100D03*
X102900Y215700D03*
X99800Y222000D03*
X102900D03*
X106100D03*
X109200D03*
Y231400D03*
X106100Y228300D03*
X109200D03*
Y225100D03*
X106100D03*
X99800Y237700D03*
X102900D03*
Y234600D03*
X109200Y237700D03*
X106100D03*
Y240900D03*
Y244100D03*
X102900Y250300D03*
Y253500D03*
X106100D03*
Y250300D03*
Y247200D03*
X109200D03*
X110800Y254100D03*
X102900Y244000D03*
X99800D03*
X104500Y279000D03*
X106100Y271900D03*
X107700Y279000D03*
X101400Y272700D03*
Y275900D03*
Y279000D03*
Y288500D03*
X104500D03*
Y285300D03*
Y282200D03*
X101400D03*
X110800D03*
X107700Y285300D03*
Y304200D03*
X101400D03*
X104500D03*
X99800Y314500D03*
X101400Y307400D03*
X104500D03*
X100000Y332500D03*
X110500Y352500D03*
X108000D03*
X107000Y343500D03*
X110500Y357500D03*
X108000D03*
X103600Y368800D03*
X113000Y25000D03*
Y27500D03*
Y30000D03*
X115100Y143000D03*
X112400Y141000D03*
X122100Y159000D03*
X114500Y168300D03*
X118700Y167300D03*
X112500Y180800D03*
X118700D03*
X121800Y193600D03*
X119400Y199300D03*
X121800Y196800D03*
X112400Y199900D03*
Y203100D03*
X121800D03*
X115500D03*
X121800Y199900D03*
X115500Y206200D03*
X112400Y212500D03*
X115500Y215700D03*
X112400D03*
X118700Y218800D03*
X115500D03*
X112400D03*
X121800Y231400D03*
X112400Y222000D03*
X115500D03*
X112400Y231400D03*
X121800Y228300D03*
X118700Y222000D03*
Y225100D03*
Y228300D03*
X115500D03*
X112400D03*
X115500Y225100D03*
X112400D03*
X118700Y240900D03*
X115500D03*
X112400Y237700D03*
X115500Y234600D03*
X112400D03*
X121800D03*
X118700Y244000D03*
X112400Y250300D03*
X115500Y244000D03*
X112400D03*
Y247200D03*
X114000Y257600D03*
X123000Y273000D03*
X122300Y304200D03*
Y302000D03*
X123900Y299800D03*
Y302000D03*
Y304200D03*
X118000Y362000D03*
X123000D03*
X115500Y369500D03*
X120500D03*
X118000D03*
X121000Y381500D03*
X128500Y11000D03*
X124700Y139200D03*
X124200Y143800D03*
X124300Y152900D03*
X125500Y148400D03*
X128000Y151900D03*
Y154400D03*
X126300Y159300D03*
X133900Y159800D03*
X135400Y172700D03*
X130900Y176800D03*
X125300Y181000D03*
X135400D03*
X134400Y190500D03*
Y193600D03*
X128100Y187300D03*
X125000Y193600D03*
X131300D03*
X128100D03*
X131300Y199900D03*
X134400D03*
X128100Y196800D03*
X125000D03*
Y206200D03*
Y203100D03*
X134300Y196900D03*
X128100Y206200D03*
Y203100D03*
X134400Y209400D03*
X125000Y215700D03*
Y209400D03*
X134400Y212500D03*
Y215700D03*
X128100Y218800D03*
Y215700D03*
X131300Y212500D03*
X128100Y231400D03*
X125000Y228300D03*
X134400Y222000D03*
X129700Y229800D03*
X125000Y222000D03*
X134400Y228300D03*
X131300Y231400D03*
Y222000D03*
Y228300D03*
X134400Y237700D03*
Y234600D03*
Y240900D03*
X128100Y237700D03*
X125000D03*
X131300Y234600D03*
Y244000D03*
X128000Y290000D03*
Y282500D03*
X130500Y290000D03*
Y282500D03*
X125500Y299800D03*
Y302000D03*
Y304200D03*
X135500Y312000D03*
X133400D03*
X135500Y314000D03*
X133500D03*
X127300Y347900D03*
Y346200D03*
Y349500D03*
X128900Y349100D03*
Y350700D03*
X130500Y349100D03*
Y350700D03*
X132000Y362000D03*
X127500Y369500D03*
X132500D03*
X130000D03*
X125000Y381500D03*
X147000Y28500D03*
Y35500D03*
X147900Y160700D03*
X138600Y159800D03*
X148400Y181000D03*
X137600Y190500D03*
X143900Y184200D03*
X140700D03*
Y193600D03*
X137600D03*
Y199900D03*
Y203100D03*
Y206200D03*
X140700Y200000D03*
X137600Y215700D03*
X140700Y209400D03*
X137600Y212500D03*
X140700D03*
X137600Y218800D03*
X140700D03*
X137600Y209400D03*
Y228300D03*
X140700Y225100D03*
X137600D03*
Y237700D03*
Y240900D03*
X144700Y239300D03*
X140700Y234600D03*
Y240900D03*
X137600Y234600D03*
X140700Y253500D03*
X137600Y247200D03*
Y244000D03*
X140700D03*
X139100Y259700D03*
X141400Y258100D03*
X145900Y300900D03*
X147200Y297800D03*
X148100Y299300D03*
X138000Y314000D03*
X144500Y309400D03*
Y311900D03*
X146900Y320900D03*
X144400Y317100D03*
X144500Y319900D03*
X142900Y345800D03*
X136700Y343100D03*
X142600Y343000D03*
X138200Y349400D03*
X136500Y362000D03*
X141500D03*
X147500Y367500D03*
X141000Y369500D03*
X144500D03*
X138500D03*
X138000Y384000D03*
X143000D03*
X148000D03*
X152000Y28500D03*
Y35500D03*
X157000Y43000D03*
X156500Y49500D03*
X159700Y160700D03*
X152000Y174300D03*
X150800Y181400D03*
X152800Y178300D03*
X156800Y185900D03*
X153200Y194700D03*
X149600Y205500D03*
X154600Y200400D03*
X158400Y195500D03*
X155200Y205500D03*
X156600Y200800D03*
X153300Y227600D03*
X151000Y226700D03*
X153200Y229700D03*
X155400Y232000D03*
X148600Y242400D03*
X152100Y252100D03*
X160100Y244100D03*
X159900Y246600D03*
X160000Y267800D03*
X154800Y261000D03*
X154400Y267600D03*
X158600Y260700D03*
X152800Y258200D03*
X154800Y264800D03*
X153800Y287000D03*
X158400Y286400D03*
X160200Y298100D03*
X149000Y297800D03*
X155600Y315500D03*
Y320300D03*
X159200Y323300D03*
X157800Y317900D03*
X151600Y329000D03*
X153100Y327800D03*
X159500Y331900D03*
X153100Y329500D03*
X151600Y330700D03*
X156900Y332000D03*
X152400Y344500D03*
X159500Y345500D03*
X150000Y362000D03*
X149500Y369500D03*
X154500D03*
X159500D03*
X157000D03*
X152000D03*
X170000Y34000D03*
X162000Y49500D03*
X166600Y157500D03*
X169600Y169600D03*
X169700Y176100D03*
X164400Y182600D03*
X169700Y172900D03*
X160800Y185500D03*
X169700Y191800D03*
X167200Y183500D03*
X164400Y188700D03*
X166800Y187100D03*
X171500Y204500D03*
X168200Y196500D03*
X169700Y195000D03*
X170300Y228300D03*
X166600Y232000D03*
X169700Y243100D03*
X172000Y254000D03*
X170400Y255300D03*
X163800Y267200D03*
X165400Y261200D03*
X169700Y262000D03*
X163200Y260900D03*
X166600Y267200D03*
X165200Y277100D03*
X167600D03*
Y279400D03*
X165200D03*
X165400Y269300D03*
X169700Y268300D03*
X170800Y299100D03*
X171800Y301300D03*
X164600Y297400D03*
Y299300D03*
X162400Y296600D03*
X166800Y300700D03*
X164600Y308700D03*
X160800D03*
X167900Y312700D03*
X170100Y308900D03*
X162900Y310300D03*
X167900Y308900D03*
X170100Y312700D03*
X161100Y321600D03*
X170100Y320600D03*
Y333700D03*
X161800Y331900D03*
X163300Y334000D03*
X166100Y333800D03*
X169900Y345500D03*
X165300Y346600D03*
X166000Y362000D03*
X172000Y376000D03*
X167000Y374500D03*
Y386500D03*
Y380500D03*
X176000Y169800D03*
X172900D03*
X179300Y161300D03*
X182000Y161100D03*
X182300Y172900D03*
X172900Y176100D03*
Y172900D03*
X180400Y181000D03*
X176000Y172900D03*
X179200Y176100D03*
X176000D03*
X179200Y172900D03*
X172900Y191800D03*
X179600Y187000D03*
X174400Y184700D03*
X183600Y187000D03*
X176400Y183900D03*
X176000Y191800D03*
X179200D03*
X172900Y198100D03*
X183300Y204200D03*
X182300Y195000D03*
X183400Y201000D03*
X172900Y195000D03*
X176000D03*
X179200D03*
X179300Y198000D03*
X182300Y198100D03*
X179000Y203200D03*
X177200Y204800D03*
X175300Y203300D03*
X178700Y214700D03*
X183600Y218500D03*
X177200Y226100D03*
X179700D03*
X182300Y240000D03*
X172900D03*
X181900Y234200D03*
X173300Y233200D03*
X182300Y243100D03*
X181900Y236600D03*
X172900Y243100D03*
X176000D03*
X179200D03*
X176000Y246300D03*
X179200D03*
X180000Y253100D03*
X184400Y253900D03*
X181600Y254300D03*
X172900Y246300D03*
X179200Y249400D03*
X177300Y252400D03*
X182300Y265200D03*
X176000Y262000D03*
Y265200D03*
X178800Y257600D03*
X172900Y265200D03*
X179200Y262000D03*
X172900D03*
X182300D03*
X179200Y265200D03*
X172900Y268300D03*
X176000D03*
X182300D03*
X179200D03*
X180500Y284100D03*
X176700Y296800D03*
X178400Y297900D03*
X176700Y299000D03*
X175000Y297900D03*
X179400Y316500D03*
X178500Y321800D03*
X180900D03*
X175400Y328400D03*
X180700Y319000D03*
X184500Y332500D03*
X174800Y334500D03*
Y332900D03*
X174100Y345500D03*
X180500Y364000D03*
Y354000D03*
X186900Y155600D03*
X191300D03*
X195900D03*
X188600Y169800D03*
X193800Y161300D03*
X189100D03*
X185500Y169800D03*
X188800Y175900D03*
X194900Y176100D03*
X185200Y181800D03*
X194900Y182400D03*
X188600Y172900D03*
X191800Y176100D03*
Y172900D03*
X185500Y176100D03*
X191700Y179200D03*
X194900Y172900D03*
Y191800D03*
X187000Y183200D03*
X191400Y183900D03*
X185500Y191800D03*
X193400Y185500D03*
X189400Y183100D03*
X191800Y191800D03*
X188600Y198100D03*
X185400Y204300D03*
X195000Y202100D03*
X191800Y195000D03*
X185500D03*
X196500Y199700D03*
X191200Y204500D03*
X194900Y195000D03*
X195000Y217500D03*
X185800Y218500D03*
X193400Y226500D03*
X191100Y225600D03*
X196500Y225800D03*
X186800Y233500D03*
Y235100D03*
X191800Y243100D03*
X185500D03*
X194900D03*
X187100Y238400D03*
X196500Y255700D03*
X189200Y253500D03*
X185500Y246300D03*
X194900D03*
X193400Y254100D03*
X191800Y246300D03*
Y255700D03*
X187200Y253500D03*
X191700Y249400D03*
X188600Y262000D03*
X185500Y265200D03*
X188600D03*
X191800D03*
X194900Y262000D03*
X185500D03*
X191800D03*
X189000Y280300D03*
X193400D03*
X188600Y268300D03*
X185500D03*
X191800D03*
X187500Y289200D03*
X186100Y286100D03*
X186700Y332600D03*
X196500Y376500D03*
X204500Y84500D03*
Y89000D03*
X209300Y155500D03*
X200800Y155600D03*
X205100D03*
X206000Y169500D03*
X206900Y162100D03*
X198100Y169800D03*
X207600Y165900D03*
X202800D03*
X198300Y161300D03*
X206000Y182400D03*
X199700D03*
X204400Y176100D03*
X209100Y182400D03*
X198100Y172900D03*
X202800Y180800D03*
X201200Y172900D03*
X207500Y185500D03*
X204400D03*
X198100Y191800D03*
X207500Y195000D03*
X209000Y203700D03*
X198100Y195000D03*
X201200Y204400D03*
X207500Y198100D03*
X198000Y208600D03*
X203200Y210800D03*
X201300Y226500D03*
X199600Y224600D03*
X207500Y229600D03*
X209200Y224700D03*
X206000Y240000D03*
X208400Y233100D03*
X206000Y237500D03*
X198200Y236800D03*
X198100Y243100D03*
Y246300D03*
X206000Y252600D03*
X199700Y255700D03*
X209100Y252600D03*
X207500Y255700D03*
X204400D03*
X198100Y252600D03*
X202800D03*
X198100Y265200D03*
X204400Y262000D03*
X198100D03*
X207300Y280300D03*
X205800Y268700D03*
X197900Y280300D03*
X207600Y270700D03*
X205000Y290500D03*
Y288000D03*
X207500D03*
X198400Y304700D03*
X200600D03*
Y293400D03*
Y295600D03*
X198400Y297800D03*
X200600Y300000D03*
Y302200D03*
X198400D03*
Y300000D03*
X200600Y297800D03*
X198400Y293500D03*
Y295700D03*
X207000Y306500D03*
X206500Y321500D03*
X204000Y318500D03*
Y321500D03*
X197800Y320700D03*
Y318500D03*
X199900Y325300D03*
X197700Y327500D03*
X199900Y323000D03*
X197800D03*
X200000Y320700D03*
X197700Y325300D03*
X199900Y327500D03*
X200000Y318500D03*
X201500Y337000D03*
X204500Y361500D03*
X203000Y385000D03*
Y390000D03*
X208000D03*
X207000Y379500D03*
X220800Y163000D03*
X220100Y172900D03*
X213800D03*
X215400Y182400D03*
X212300D03*
X218600D03*
X210700Y172900D03*
X217000D03*
X210700Y185500D03*
X213800D03*
X217000D03*
X220100D03*
Y198100D03*
X213800Y195000D03*
X220900Y206300D03*
X210600Y206500D03*
X213800Y198100D03*
X210600Y211500D03*
X220600Y218500D03*
X215400Y210500D03*
X213800Y222100D03*
X217000Y223300D03*
X218600Y220200D03*
X212200Y225000D03*
X220100Y240000D03*
X213800D03*
X210600Y235800D03*
X213800Y243100D03*
X210700Y240000D03*
X215400Y252600D03*
X210700Y255700D03*
X212300Y252600D03*
X213800Y255700D03*
X218600Y252600D03*
X217000Y255700D03*
X220100D03*
X213800Y268300D03*
X220100D03*
X217000D03*
X210700D03*
X211000Y288500D03*
X214000Y285500D03*
X220000Y294000D03*
X217500Y315500D03*
X213000Y306500D03*
X218000Y321000D03*
X220500D03*
X218000Y347500D03*
X220500D03*
X211000Y348500D03*
X218000Y385000D03*
Y390000D03*
X213000Y385000D03*
Y390000D03*
X233000Y47500D03*
X230500D03*
X232000Y57500D03*
X229500D03*
X227000D03*
Y60000D03*
X229500D03*
X232000D03*
X230500Y52500D03*
X233000D03*
Y50000D03*
X230500D03*
X232000Y65000D03*
Y62500D03*
X229500D03*
X227000D03*
X224500D03*
Y65000D03*
X227000D03*
X229500D03*
X232000Y82500D03*
X229500D03*
X227000D03*
X224500D03*
X228500Y89000D03*
X233000Y116500D03*
X221700Y182400D03*
X224900D03*
X228000D03*
X226400Y185500D03*
X229600D03*
X223300D03*
X231200Y183900D03*
X232700Y185500D03*
Y217700D03*
X229600Y217900D03*
X231200Y209900D03*
X224900Y218600D03*
X228000Y223500D03*
X223200Y221700D03*
X226400D03*
Y255700D03*
X229600D03*
X223300D03*
X221700Y252600D03*
X224900D03*
X231200D03*
X232700Y255700D03*
X228000Y252600D03*
X223500Y321000D03*
X230500Y332500D03*
X233500Y351500D03*
Y357500D03*
X228500Y356500D03*
X229500Y361500D03*
X227000Y375000D03*
X223000D03*
X233000Y390000D03*
X228000D03*
X223000Y385000D03*
Y390000D03*
X231000Y379500D03*
X245500Y40000D03*
X243000D03*
X240500D03*
Y42500D03*
X243000D03*
X245500D03*
Y45000D03*
X243000D03*
X240500D03*
X245500Y47500D03*
X243000D03*
X240500D03*
X238000D03*
X235500D03*
Y52500D03*
X238000D03*
X240500D03*
X243000D03*
X245500D03*
Y50000D03*
X243000D03*
X240500D03*
X238000D03*
X235500D03*
X242500Y60500D03*
X234500Y82500D03*
X242500Y75500D03*
X245500Y109000D03*
X243000D03*
X240500D03*
X243000Y106500D03*
X245500D03*
Y104000D03*
Y121500D03*
Y119000D03*
Y116500D03*
X243000D03*
X240500D03*
X238000D03*
X235500D03*
Y114000D03*
X238000D03*
X240500D03*
X243000D03*
X245500D03*
Y111500D03*
X243000D03*
X240500D03*
X238000D03*
X245500Y126500D03*
Y124000D03*
X235000Y152500D03*
X244200Y205600D03*
Y196600D03*
Y201200D03*
X234300Y212600D03*
X244200Y218800D03*
Y214000D03*
Y210000D03*
X235900Y221600D03*
X237500Y219500D03*
X239000Y221000D03*
X244200Y227600D03*
Y223200D03*
Y240800D03*
Y236400D03*
Y232000D03*
Y249200D03*
Y245300D03*
X245500Y307500D03*
Y310000D03*
Y312500D03*
Y337500D03*
Y340000D03*
X241500Y338000D03*
X245500Y345000D03*
X243000D03*
Y347500D03*
X245500D03*
Y350000D03*
X243000D03*
Y352500D03*
X245500D03*
X243000Y355000D03*
X245500D03*
X258000Y15000D03*
X255500D03*
X253000D03*
X250500D03*
X258000Y17500D03*
X255500D03*
X253000D03*
X250500D03*
Y20000D03*
X253000D03*
X255500D03*
X258000D03*
Y45000D03*
X255500D03*
X253000D03*
X250500D03*
X253000Y40000D03*
X255500D03*
X258000D03*
Y42500D03*
X255500D03*
X253000D03*
X250500D03*
Y40000D03*
X248000D03*
Y42500D03*
Y45000D03*
Y47500D03*
Y50000D03*
Y52500D03*
X253000Y109000D03*
X250500D03*
X248000D03*
Y106500D03*
X250500D03*
X253000D03*
X255500D03*
X248000Y104000D03*
X250500D03*
X253000D03*
X255500D03*
X248000Y101500D03*
X250500D03*
X253000D03*
X255500D03*
X250500Y99000D03*
X253000D03*
X255500D03*
X258000D03*
X248000Y121500D03*
X250500D03*
X253000D03*
X248000Y119000D03*
X250500D03*
X253000D03*
Y116500D03*
X250500D03*
X248000D03*
Y114000D03*
X250500D03*
X253000D03*
Y111500D03*
X250500D03*
X248000D03*
Y126500D03*
X250500D03*
X253000D03*
Y124000D03*
X250500D03*
X248000D03*
Y166700D03*
X256000Y170500D03*
X248000Y170900D03*
Y175300D03*
Y179800D03*
Y188500D03*
Y184100D03*
Y196900D03*
Y201000D03*
Y205400D03*
Y209800D03*
Y214200D03*
Y218600D03*
X254200Y216700D03*
X248000Y227400D03*
X254200Y229900D03*
X248000Y231700D03*
Y236200D03*
Y240600D03*
X254400Y239700D03*
X257500Y233500D03*
X248000Y245000D03*
Y249200D03*
X247000Y269000D03*
X249500D03*
X252000D03*
X254500D03*
X257000D03*
X253000Y302500D03*
X250500D03*
X255500D03*
X258000Y297500D03*
X255500D03*
X258000Y300000D03*
X255500D03*
X253000D03*
X258000Y302500D03*
Y305000D03*
Y307500D03*
X248000Y305000D03*
Y307500D03*
X255500Y310000D03*
X248000D03*
X250500Y312500D03*
X253000D03*
X248000D03*
X250500Y337500D03*
X248000D03*
Y340000D03*
X250500D03*
X253000Y342500D03*
X248000D03*
X250500D03*
Y345000D03*
X253000D03*
X255500D03*
X258000D03*
Y365000D03*
X257500Y355500D03*
X258000Y372000D03*
X269500Y80000D03*
X260500Y82500D03*
X263000D03*
X265500D03*
Y85000D03*
X260500Y99000D03*
X263000D03*
X265500D03*
X268000D03*
X261000Y118500D03*
X263000Y156500D03*
X262100Y181200D03*
Y183000D03*
X260600Y252300D03*
X269300Y256500D03*
X269700Y271500D03*
X268000Y302500D03*
Y297500D03*
X265500D03*
Y300000D03*
X263000Y302500D03*
Y297500D03*
X260500D03*
X263000Y300000D03*
X260500D03*
Y302500D03*
X263000Y307500D03*
X265500Y305000D03*
X268000D03*
X260500D03*
X268000Y332500D03*
X265500Y335000D03*
X268000D03*
Y337500D03*
X265500D03*
Y340000D03*
X268000D03*
Y342500D03*
X265500D03*
X263000D03*
X260500Y345000D03*
X263000D03*
X265500D03*
X268000D03*
X266500Y355500D03*
X265500Y377500D03*
X279500Y55000D03*
X274500Y52500D03*
X277000D03*
X279500D03*
Y57500D03*
Y60000D03*
Y62500D03*
Y65000D03*
X274500Y67500D03*
X277000D03*
X279500D03*
Y70000D03*
Y72500D03*
Y75000D03*
Y77500D03*
Y80000D03*
X277000D03*
X274500D03*
X272000D03*
X279000Y104500D03*
X270500Y99000D03*
X273000D03*
X275500D03*
X278000D03*
X279000Y114500D03*
X273000Y163000D03*
X278900Y202500D03*
Y208000D03*
X273200Y220300D03*
X274000Y229000D03*
Y263100D03*
Y272100D03*
X270500Y302500D03*
Y300000D03*
X273000D03*
Y297500D03*
X275500D03*
X278000Y302500D03*
Y297500D03*
Y300000D03*
X275500D03*
Y302500D03*
X273000D03*
X270500Y305000D03*
X280500Y307500D03*
Y312500D03*
Y310000D03*
X278000Y312500D03*
Y310000D03*
Y327500D03*
X273000D03*
X275500D03*
X270500D03*
X278000Y325000D03*
X273000D03*
X275500D03*
X270500D03*
X278000Y322500D03*
X273000D03*
X275500D03*
X270500D03*
Y320000D03*
X275500D03*
X273000D03*
X278000D03*
Y332500D03*
X273000D03*
X275500D03*
X270500D03*
X278000Y330000D03*
X273000D03*
X275500D03*
X270500D03*
Y335000D03*
X273000D03*
X275500D03*
X278000D03*
Y337500D03*
X275500D03*
X273000D03*
X270500D03*
Y340000D03*
X273000D03*
X275500D03*
X278000D03*
X273000Y342500D03*
X278000D03*
X275500D03*
X270500D03*
Y345000D03*
X273000D03*
X275500D03*
X278000D03*
X275000Y355500D03*
X271000D03*
X273000Y368500D03*
G54D22*
X25000Y379000D03*
X28500D03*
G54D40*
G01X124200Y143800D02*
X120700D01*
Y143900D01*
G01X127500Y143800D02*
X124200D01*
G01X127500Y138300D02*
Y134700D01*
G01Y143900D02*
Y143800D01*
G01D02*
X140500D01*
G01X145600Y314500D02*
X142500D01*
X140500Y316500D01*
Y324000D01*
X153000Y336500D01*
X173500D01*
X188500Y351500D01*
Y363000D01*
X184500Y367000D01*
X171000D01*
X166000Y362000D01*
G01X151800Y143800D02*
X173300D01*
X189600Y127500D01*
X231000D01*
X246000Y142500D01*
Y162500D01*
G01X164600Y303200D02*
Y299300D01*
G01X209100Y337000D02*
X201500D01*
G01X257900Y331100D02*
G02X265300Y323700I0J-7400D01*
G01Y323000D01*
G01X269400Y311000D02*
X269500D01*
X269600Y310900D01*
G01X265300Y311000D02*
X269400D01*
G01X265300Y315100D02*
Y311000D01*
G01Y323000D02*
Y318900D01*
X72300Y369800D03*
X70500Y390000D03*
X87500Y377500D03*
X79000Y380500D03*
X81000Y383000D03*
X85500Y387500D03*
X94000Y381000D03*
X90500Y387500D03*
X88000Y385000D03*
X111900Y302400D03*
X102500Y377500D03*
X111000Y380500D03*
X111500Y385000D03*
X121700Y297400D03*
X146500Y278000D03*
X141500D03*
X146500Y282500D03*
X141500D03*
Y287500D03*
X145600Y314500D03*
X168700Y286400D03*
X163600Y285100D03*
X168700Y298300D03*
X173800Y285300D03*
X186000Y273200D03*
X188200D03*
X190200D03*
X195400Y273300D03*
X192800D03*
X198000D03*
X214800Y163000D03*
X218200D03*
X215400Y273500D03*
X220500D03*
X218000D03*
G54D50*
X165000Y65000D03*
Y81000D03*
X235000Y26000D03*
Y42000D03*
G54D14*
X5200Y146400D03*
G54D23*
X41000Y46000D03*
Y56000D03*
X64000Y46000D03*
Y56000D03*
X79000Y38000D03*
Y28000D03*
X102000D03*
Y38000D03*
G54D41*
X84800Y81900D03*
X90800Y113500D03*
X100800D03*
X130800D03*
X146800Y81900D03*
X140800Y113500D03*
G54D32*
X48700Y323800D03*
X121700Y293400D03*
X127500Y134700D03*
X140500Y143800D03*
X151800D03*
X156500Y149500D03*
X246000Y162500D03*
G54D42*
X93300Y97200D03*
X138300D03*
G54D33*
X54000Y142500D03*
X254400Y233600D03*
X273900Y265800D03*
G54D24*
X28700Y146700D03*
X43300D03*
G54D15*
X6500Y209800D03*
Y213600D03*
X29000Y205000D03*
X36700Y206300D03*
X32900D03*
X36700Y202000D03*
X32900D03*
X29000Y208800D03*
X38600Y262000D03*
X30600D03*
X34400D03*
X30600Y282000D03*
X34400D03*
X42400Y262000D03*
X57500Y70100D03*
Y73900D03*
Y81900D03*
Y78100D03*
Y95100D03*
Y98900D03*
Y106900D03*
Y103100D03*
X56600Y312300D03*
X52800D03*
Y316300D03*
X56600D03*
X52800Y320300D03*
X56600D03*
X52800Y324300D03*
X56600D03*
X70300Y191100D03*
X66500D03*
X71000Y240800D03*
Y244600D03*
X69600Y297900D03*
Y301700D03*
X64700D03*
Y297900D03*
X74200Y294700D03*
X86300Y203700D03*
Y208100D03*
X87400Y217500D03*
Y221300D03*
X77500Y282500D03*
Y286300D03*
X85300Y299700D03*
X78000Y294700D03*
X87000Y307200D03*
X81000Y385100D03*
X84800D03*
X91000Y121600D03*
Y125400D03*
X91800Y146500D03*
X88000D03*
X97200Y148500D03*
X90100Y203700D03*
X94800Y202800D03*
Y206600D03*
X95900Y212500D03*
X92100D03*
X95900Y217500D03*
X92100D03*
X90100Y208100D03*
X91700Y227600D03*
X87900D03*
X95900Y221600D03*
X92100D03*
X97100Y235900D03*
Y240300D03*
X95100Y290300D03*
X90500Y291600D03*
Y287800D03*
X89100Y299700D03*
X95100Y294100D03*
X91300Y315300D03*
Y311500D03*
X90800Y307200D03*
X95100Y306000D03*
X98900D03*
X99400Y310300D03*
X95600D03*
X100500Y144300D03*
Y140500D03*
X109400Y144300D03*
Y140500D03*
X104900Y144300D03*
Y140500D03*
X102900Y155700D03*
Y151900D03*
X107300Y155700D03*
Y151900D03*
X101000Y148500D03*
X107200Y204900D03*
X111500D03*
X107200Y208700D03*
X111500D03*
X110500Y230400D03*
X106300D03*
X110500Y234200D03*
X106300D03*
X109300Y239500D03*
Y243300D03*
X100900Y235900D03*
Y240300D03*
X108000Y302400D03*
X104200D03*
X108000Y293900D03*
X104200D03*
X108000Y298100D03*
X104200D03*
X104900Y384900D03*
X108700D03*
X115200Y188700D03*
X119000D03*
X115200Y192800D03*
X119000D03*
X115200Y196800D03*
X119000D03*
X123600Y199900D03*
X119000Y201100D03*
X115200D03*
X115500Y211800D03*
Y208000D03*
X121200Y219200D03*
X114800Y230400D03*
X119500D03*
X124100D03*
X114800Y234200D03*
X119500D03*
X122200Y243900D03*
Y239700D03*
X124100Y234200D03*
X114200Y238100D03*
X118000D03*
X122200Y248100D03*
X126300Y161600D03*
Y165400D03*
X135400Y174600D03*
Y178400D03*
Y186800D03*
Y183000D03*
X125300Y186800D03*
Y183000D03*
X130900Y186800D03*
Y183000D03*
X127400Y199900D03*
X134500Y203100D03*
X130700D03*
X134400Y207100D03*
X130600D03*
X126800Y213200D03*
Y209400D03*
X131300Y215000D03*
Y218800D03*
X125000Y219200D03*
X134100Y230100D03*
X126000Y243900D03*
Y239700D03*
X131300Y240200D03*
Y236400D03*
X126000Y248100D03*
X140500Y121600D03*
Y125400D03*
X137900Y230100D03*
X160800Y303100D03*
Y306900D03*
X150000Y315500D03*
X153800D03*
X150000Y320300D03*
X153800D03*
X171500Y206300D03*
X164600Y303200D03*
Y307000D03*
X183300Y206300D03*
X179500D03*
X175300D03*
X184200Y231200D03*
X180400D03*
X173200D03*
X177000D03*
X174600Y349000D03*
X178400D03*
X174600Y354000D03*
X178400D03*
Y364000D03*
X174600D03*
Y359000D03*
X178400D03*
X187400Y206300D03*
X191200D03*
X188000Y231200D03*
X191800D03*
X196500Y370600D03*
Y374400D03*
X201500Y230900D03*
X205300D03*
X244200Y168700D03*
Y173100D03*
Y177500D03*
Y181900D03*
Y190800D03*
Y194600D03*
Y186500D03*
Y198800D03*
Y203200D03*
Y212000D03*
Y216400D03*
Y207600D03*
Y220800D03*
Y229600D03*
Y225200D03*
Y234000D03*
Y238400D03*
Y242800D03*
Y247200D03*
X248000Y168700D03*
X256000Y176500D03*
Y172700D03*
Y180700D03*
X248000Y173100D03*
Y177500D03*
Y181900D03*
Y186500D03*
X253200Y197100D03*
X257000D03*
X248000Y198800D03*
Y203200D03*
Y212000D03*
Y216400D03*
Y207600D03*
X254200Y227300D03*
Y223500D03*
X248000Y220800D03*
Y229600D03*
Y225200D03*
Y234000D03*
Y238400D03*
Y242800D03*
Y247200D03*
X270000Y156400D03*
X266200D03*
X268600Y181100D03*
Y177300D03*
X259800Y180700D03*
X264000Y181100D03*
Y177300D03*
X269700Y265800D03*
Y269600D03*
X265300Y315100D03*
Y311000D03*
X261500D03*
X265300Y318900D03*
Y323000D03*
X261500D03*
G54D60*
X273500Y83600D03*
Y95400D03*
G54D51*
X164700Y97500D03*
X189900Y82100D03*
Y106900D03*
G54D70*
G01X202800Y174500D02*
X204400Y172900D01*
Y164600D01*
X206900Y162100D01*
G01X205900Y174500D02*
X207500Y172900D01*
Y166000D01*
X207600Y165900D01*
G01X205900Y244700D02*
X207500Y243100D01*
Y238900D01*
X210600Y235800D01*
G01X0Y200D02*
Y392700D01*
X282300D01*
Y200D01*
X0D01*
G54D25*
X30700Y257000D03*
X36300D03*
X84700Y377500D03*
X79100D03*
X95700Y226300D03*
Y231400D03*
X94300Y300900D03*
X99900D03*
X101300Y226300D03*
Y231400D03*
X105200Y377500D03*
X110800D03*
X136800Y11000D03*
X131200D03*
X142700D03*
X148300D03*
X160300D03*
X154700D03*
X156700Y46500D03*
X162300D03*
X178900Y329900D03*
X184500D03*
X269200Y202500D03*
X274800D03*
G54D34*
X54000Y146500D03*
X254400Y237600D03*
X273900Y269800D03*
G54D61*
X269300Y218100D03*
G54D43*
X82400Y236300D03*
X90400D03*
X121000Y225100D03*
X129000D03*
G54D52*
G01X5200Y146400D02*
Y150300D01*
X5000Y150500D01*
G01X28700Y146700D02*
Y149800D01*
X28500Y150000D01*
G01X47000Y115500D02*
X47100Y115400D01*
Y109800D01*
G01Y133300D02*
Y128600D01*
X47000Y128500D01*
G01X54000Y142500D02*
X56000D01*
G01X55200Y297500D02*
Y289900D01*
X55300Y289800D01*
G01X64700Y297900D02*
X55600D01*
X55200Y297500D01*
G01X68100Y289800D02*
X71700D01*
X74600Y286900D01*
G01X69600Y297900D02*
X76200D01*
G01X64700D02*
X69600D01*
G01X79100Y377500D02*
Y380400D01*
X79000Y380500D01*
G01X84700Y377500D02*
X87500D01*
G01X81000Y385100D02*
Y383000D01*
G01X101300Y204700D02*
X99800Y203100D01*
G01X99400Y310300D02*
Y309300D01*
X101400Y307400D01*
G01X99200Y377500D02*
X102500D01*
G01X87500D02*
X90600D01*
G01Y381200D02*
X93800D01*
X94000Y381000D01*
G01X99200Y384900D02*
X104900D01*
G01X101300Y204700D02*
X102900Y203100D01*
G01X101300Y205900D02*
Y204700D01*
G01X108000Y302400D02*
Y298100D01*
G01Y293900D02*
Y298100D01*
G01Y302400D02*
X111900D01*
G01X110800Y377500D02*
Y380300D01*
X111000Y380500D01*
G01X102500Y377500D02*
X105200D01*
G01X108700Y384900D02*
X111400D01*
X111500Y385000D01*
G01X170100Y333700D02*
Y324100D01*
X150700Y304700D01*
X142700D01*
X135400Y297400D01*
X121700D01*
G01X168700Y298300D02*
Y296800D01*
X165300Y293400D01*
X121700D01*
G01X131200Y11000D02*
X128500D01*
G01X149800Y155500D02*
Y158800D01*
X147900Y160700D01*
G01X157000Y39000D02*
Y43000D01*
G01X156700Y46500D02*
Y49300D01*
X156500Y49500D01*
G01X170000Y31300D02*
Y34000D01*
G01X162000Y39000D02*
Y46200D01*
X162300Y46500D01*
G01D02*
X162000Y46800D01*
Y49500D01*
G01X173200Y231200D02*
X173300D01*
Y233200D01*
G01X184500Y329900D02*
Y332500D01*
G01X178400Y364000D02*
X180500D01*
G01X178400Y354000D02*
X180500D01*
G01X196500Y374400D02*
Y376500D01*
G01X190728Y370618D02*
X196482D01*
X196500Y370600D01*
G01X205300Y230900D02*
X205500D01*
X207700Y233100D01*
X171300Y177600D03*
Y174500D03*
Y171300D03*
Y193300D03*
Y190200D03*
Y196500D03*
Y241500D03*
Y247800D03*
Y244700D03*
Y266700D03*
Y263500D03*
Y260400D03*
X174400Y177600D03*
Y174500D03*
Y171300D03*
X177600Y177600D03*
Y174500D03*
Y171300D03*
X180700Y177600D03*
Y174500D03*
Y171300D03*
X183900Y177600D03*
Y174500D03*
Y171300D03*
X174400Y193300D03*
Y190200D03*
X177600Y193300D03*
Y190200D03*
X180700Y193300D03*
Y190200D03*
X183900Y193300D03*
Y190200D03*
X174400Y196500D03*
X177600D03*
X180700D03*
X183900D03*
X174400Y241500D03*
X177600D03*
X180700D03*
X183900D03*
X174400Y247800D03*
Y244700D03*
X177600Y247800D03*
Y244700D03*
X180700Y247800D03*
Y244700D03*
X183900Y247800D03*
Y244700D03*
X174400Y266700D03*
Y263500D03*
Y260400D03*
X177600Y266700D03*
Y263500D03*
Y260400D03*
X180700Y266700D03*
Y263500D03*
Y260400D03*
X183900Y266700D03*
Y263500D03*
Y260400D03*
X187000Y177600D03*
Y174500D03*
Y171300D03*
X190200Y177600D03*
Y174500D03*
Y171300D03*
X193300Y177600D03*
Y174500D03*
Y171300D03*
X196500Y177600D03*
Y174500D03*
Y171300D03*
X187000Y193300D03*
Y190200D03*
X190200Y193300D03*
Y190200D03*
X193300Y193300D03*
Y190200D03*
X196500Y193300D03*
Y190200D03*
X187000Y196500D03*
X190200D03*
X193300D03*
X196500D03*
X187000Y241500D03*
X190200D03*
X193300D03*
X196500D03*
X187000Y247800D03*
Y244700D03*
X190200Y247800D03*
Y244700D03*
X193300Y247800D03*
Y244700D03*
X196500Y247800D03*
Y244700D03*
X187000Y266700D03*
Y263500D03*
Y260400D03*
X190200Y266700D03*
Y263500D03*
Y260400D03*
X193300Y266700D03*
Y263500D03*
Y260400D03*
X196500Y266700D03*
Y263500D03*
Y260400D03*
X199600Y177600D03*
Y174500D03*
Y171300D03*
X202800Y177600D03*
Y174500D03*
Y171300D03*
X205900Y177600D03*
Y174500D03*
Y171300D03*
X209100Y177600D03*
Y174500D03*
Y171300D03*
X199600Y193300D03*
Y190200D03*
X202800Y193300D03*
Y190200D03*
X205900Y193300D03*
Y190200D03*
X209100Y193300D03*
Y190200D03*
X199600Y196500D03*
X202800D03*
X205900D03*
X209100D03*
X199600Y241500D03*
X202800D03*
X205900D03*
X209100D03*
X199600Y247800D03*
Y244700D03*
X202800Y247800D03*
Y244700D03*
X205900Y247800D03*
Y244700D03*
X209100Y247800D03*
Y244700D03*
X199600Y266700D03*
Y263500D03*
Y260400D03*
X202800Y266700D03*
Y263500D03*
Y260400D03*
X205900Y266700D03*
Y263500D03*
Y260400D03*
X209100Y266700D03*
Y263500D03*
Y260400D03*
X212200Y177600D03*
Y174500D03*
Y171300D03*
X215400Y177600D03*
Y174500D03*
Y171300D03*
X218500Y177600D03*
Y174500D03*
Y171300D03*
X212200Y193300D03*
Y190200D03*
X215400Y193300D03*
Y190200D03*
X218500Y193300D03*
Y190200D03*
X212200Y196500D03*
X215400D03*
X218500D03*
X212200Y241500D03*
X215400D03*
X218500D03*
X212200Y247800D03*
Y244700D03*
X215400Y247800D03*
Y244700D03*
X218500Y247800D03*
Y244700D03*
X212200Y266700D03*
Y263500D03*
Y260400D03*
X215400Y266700D03*
Y263500D03*
Y260400D03*
X218500Y266700D03*
Y263500D03*
Y260400D03*
G54D16*
X12772Y251539D03*
X9228Y322961D03*
Y340461D03*
X10500Y375000D03*
X37500Y79000D03*
X190728Y375539D03*
Y385382D03*
Y380461D03*
X208000Y372500D03*
X258000Y68000D03*
G54D71*
G01X183900Y241500D02*
X180700D01*
G54D62*
X260600Y233700D03*
Y246100D03*
Y258500D03*
X274000Y233700D03*
Y246100D03*
Y258500D03*
G54D26*
X31200Y267800D03*
X38600D03*
Y276400D03*
X34900D03*
X31200D03*
G54D53*
X164800Y374500D03*
X161200D03*
X164800Y386500D03*
X161200D03*
X164800Y380500D03*
X161200D03*
G54D17*
X12772Y256461D03*
X9228Y318039D03*
Y335539D03*
X120700Y137900D03*
Y143900D03*
X149800Y149500D03*
Y155500D03*
X190728Y370618D03*
G54D35*
X58500Y195800D03*
Y205800D03*
X208700Y135100D03*
Y145500D03*
X218700Y135100D03*
Y145500D03*
G54D44*
X98300Y62200D03*
X108300D03*
X103300Y72200D03*
X113300D03*
X118300Y62200D03*
X123300Y72200D03*
X128300Y62200D03*
X133300Y72200D03*
G54D72*
G01X38600Y276400D02*
Y272600D01*
X37500Y271500D01*
X32500D01*
X31200Y272800D01*
Y276400D01*
G01X30600Y282000D02*
X31200Y281400D01*
Y276400D01*
G01X30600Y282000D02*
Y284100D01*
X31500Y285000D01*
Y288200D01*
G01X70500Y362937D02*
X77437D01*
X88000Y373500D01*
X116500D01*
X123000Y380000D01*
Y383500D01*
X126000Y386500D01*
X130200D01*
G01Y380400D02*
X126900D01*
X118000Y371500D01*
X99000D01*
X90437Y362937D01*
X84500D01*
G01X91000Y121600D02*
Y113700D01*
X90800Y113500D01*
G01X130200Y374300D02*
X125800D01*
X123500Y372000D01*
Y368000D01*
X122000Y366500D01*
X106500D01*
X102937Y362937D01*
X98500D01*
G01X140500Y121600D02*
Y113800D01*
X140800Y113500D01*
G01X140500Y125400D02*
Y143800D01*
G01X152100Y374300D02*
X161000D01*
X161200Y374500D01*
G01Y380500D02*
X152200D01*
X152100Y380400D01*
G01X161200Y386500D02*
X152100D01*
G54D18*
X16500Y268300D03*
Y292700D03*
X254000Y25800D03*
Y50200D03*
G54D36*
X55300Y289800D03*
X68100D03*
G54D27*
X31500Y288200D03*
Y295200D03*
G54D63*
X269400Y311000D03*
G54D45*
X90600Y377500D03*
X99200D03*
X90600Y381200D03*
Y384900D03*
X99200D03*
G54D54*
X209100Y302300D03*
Y313300D03*
Y327100D03*
Y337000D03*
X257900Y331100D03*
Y338900D03*
G54D55*
X250300Y110000D03*
X274700D03*
G54D37*
X69600Y306100D03*
Y311700D03*
X82500Y292600D03*
Y287000D03*
X104900Y130300D03*
Y135900D03*
X127500Y143900D03*
Y138300D03*
X170000Y25700D03*
Y31300D03*
G54D64*
X273300Y218100D03*
G54D28*
X40000Y287500D03*
Y295500D03*
X101300Y205900D03*
Y213900D03*
X91200Y243100D03*
Y251100D03*
X120800Y206200D03*
Y214200D03*
G54D19*
X18000Y31500D03*
Y73000D03*
G54D46*
X119050Y348900D03*
X162450D03*
G54D47*
X123050Y356800D03*
X126950D03*
X130950D03*
X134850D03*
X138750D03*
X142750D03*
X146650D03*
X150550D03*
X154550D03*
X158450D03*
G54D65*
X275400Y305200D03*
Y316800D03*
G54D56*
X257000Y186700D03*
Y192300D03*
G54D38*
X74500Y345700D03*
Y349300D03*
X79500D03*
Y345700D03*
X88000Y349300D03*
Y345700D03*
X93000D03*
Y349300D03*
X102000Y345700D03*
Y349300D03*
X107000D03*
Y345700D03*
G54D29*
X42500Y26000D03*
X52500D03*
X212500D03*
X222500D03*
G54D66*
G01X6500Y213600D02*
Y215600D01*
G01X29000Y208800D02*
X25700D01*
G01X29000Y205000D02*
X27100D01*
G01X32900Y206300D02*
Y202000D01*
G01D02*
X32000Y201000D01*
X31100D01*
G01X36700Y202000D02*
Y206300D01*
G01Y202000D02*
Y200900D01*
X34900Y199000D01*
G01X57500Y78100D02*
Y76000D01*
G01Y73900D02*
Y76000D01*
G01Y103100D02*
Y101000D01*
G01Y98900D02*
Y101000D01*
G01X98000Y140500D02*
X76500D01*
X62500Y126500D01*
Y104000D01*
X59500Y101000D01*
X57500D01*
G01X66500Y191100D02*
X64500D01*
G01X77500Y282500D02*
X75600D01*
X74600Y283500D01*
Y286900D01*
G01D02*
X79300Y291600D01*
G01X74200Y294700D02*
Y293600D01*
X76200Y291600D01*
G01X66500Y311500D02*
X66700Y311700D01*
X69600D01*
G01X86300Y208100D02*
X85900D01*
X84000Y206200D01*
G01X87400Y217500D02*
Y215900D01*
X87200Y215700D01*
G01X87400Y221300D02*
Y224900D01*
X87200Y225100D01*
G01X82400Y236300D02*
X80900Y234800D01*
Y231400D01*
G01X77500Y286300D02*
X78400D01*
X79300Y285300D01*
G01X82500Y287000D02*
Y285300D01*
G01X85600Y291600D02*
X88800Y288500D01*
G01X77500Y282500D02*
X79000D01*
X79300Y282200D01*
G01X78000Y294700D02*
Y293000D01*
X79300Y291600D01*
G01X82500Y292600D02*
Y294800D01*
G01X91000Y125400D02*
Y127400D01*
G01X100500Y140500D02*
X98000D01*
G01X94800Y206600D02*
X96300D01*
X96600Y206200D01*
G01X90100Y208100D02*
X90300Y207800D01*
Y206200D01*
G01D02*
Y204000D01*
X90100Y203700D01*
G01X94800Y202800D02*
X96300D01*
X96600Y203100D01*
G01X95900Y212500D02*
X96600Y213200D01*
Y215700D01*
G01X95900Y217500D02*
X96600Y216800D01*
Y215700D01*
G01Y218800D02*
Y218200D01*
X95900Y217500D01*
G01Y221600D02*
X96600Y220900D01*
Y218800D01*
G01X101300Y213900D02*
X99900Y212500D01*
X95900D01*
G01X92100D02*
Y210700D01*
X93500Y209400D01*
G01X92100Y217500D02*
X91700D01*
X90300Y218800D01*
G01Y212500D02*
X92100D01*
G01Y221600D02*
X90700D01*
X90300Y222000D01*
G01X95700Y226300D02*
X95400D01*
X93500Y228300D01*
G01X91700Y227600D02*
X92800D01*
X93500Y228300D01*
G01X90400Y234600D02*
Y231500D01*
X90300Y231400D01*
G01X95700D02*
X97100Y232800D01*
Y235900D01*
G01X87900Y227600D02*
Y227500D01*
X90300Y225100D01*
G01X90400Y236300D02*
Y234600D01*
G01Y236300D02*
Y239500D01*
X91200Y240300D01*
G01X97100D02*
Y238200D01*
X96600Y237700D01*
G01X97100Y235900D02*
Y237200D01*
X96600Y237700D01*
G01X95700Y231400D02*
X93500D01*
G01X97100Y240300D02*
Y241400D01*
X99800Y244000D01*
G01X90400Y234600D02*
X93500D01*
G01X91200Y243100D02*
Y242600D01*
G01Y240300D02*
Y242600D01*
G01D02*
X93500Y240300D01*
G01X91200Y251100D02*
Y248100D01*
X90300Y247200D01*
G01X90500Y291600D02*
X88800D01*
G01X90500Y287800D02*
Y287900D01*
X89400D01*
X88800Y288500D01*
G01X95100D02*
X98200D01*
G01X95100D02*
Y290300D01*
G01X88800Y297900D02*
Y299300D01*
X89100Y299700D01*
G01X95100Y294100D02*
Y294700D01*
G01X94300Y300900D02*
X92100D01*
X91900Y301100D01*
G01X104200Y293900D02*
X99100D01*
X98200Y294800D01*
G01X91900Y297900D02*
X95100D01*
X98200Y294800D01*
G01X98900Y306000D02*
Y306700D01*
X98200Y307400D01*
G01X98900Y306000D02*
X100000D01*
X101400Y307400D01*
G01X104900Y130300D02*
Y127500D01*
G01X109400Y140500D02*
X111900D01*
X112400Y141000D01*
G01X104900Y140500D02*
X109400D01*
G01X104900Y135900D02*
Y140500D01*
G01X100500D02*
X104900D01*
G01X106700Y158300D02*
X107300Y157700D01*
G01D02*
Y155700D01*
G01X111500Y204900D02*
Y203900D01*
X112400Y203100D01*
G01X107200Y204900D02*
Y204200D01*
X106100Y203100D01*
G01X102900Y215700D02*
X101300Y214100D01*
Y213900D01*
G01X106100Y212500D02*
X104700Y213900D01*
X101300D01*
G01X107200Y208700D02*
X107900Y209400D01*
X109200D01*
G01X111500Y208700D02*
X110800Y209400D01*
X109200D01*
G01Y228300D02*
X110500Y229600D01*
Y230100D01*
G01X101300Y226300D02*
Y223700D01*
X102900Y222000D01*
G01X106300Y230400D02*
Y228500D01*
X106100Y228300D01*
G01X110500Y230100D02*
X112400Y228300D01*
G01X110500Y230400D02*
Y230100D01*
G01X109300Y243300D02*
X106800D01*
X106100Y244100D01*
G01X102900Y234600D02*
X101300Y232900D01*
Y231400D01*
G01X100900Y235900D02*
X101100D01*
X102900Y237700D01*
G01X100900Y240300D02*
Y238800D01*
X99800Y237700D01*
G01X109300Y239500D02*
Y237700D01*
X109200D01*
G01X106300Y234200D02*
Y234800D01*
X109200Y237700D01*
G01X110500Y234200D02*
X112000D01*
X112400Y234600D01*
G01X107700Y304200D02*
Y302700D01*
X108000Y302400D01*
G01X101400Y304200D02*
X99900Y302700D01*
Y300900D01*
G01X104200Y298100D02*
Y293900D01*
G01Y302400D02*
Y298100D01*
G01Y302400D02*
Y303900D01*
X104500Y304200D01*
G01X120700Y137900D02*
X115500D01*
X112400Y141000D01*
G01X115200Y196800D02*
Y192800D01*
G01Y188700D02*
Y192800D01*
G01X119000Y201100D02*
Y199600D01*
X119400Y199300D01*
G01X120800Y206200D02*
X125000D01*
G01X120800D02*
Y204100D01*
X121800Y203100D01*
G01X115200Y201100D02*
Y196800D01*
G01Y201100D02*
X115300D01*
Y202800D01*
X115500Y203100D01*
G01X121800Y199900D02*
X123600D01*
G01X115500Y206200D02*
Y208000D01*
G01Y211800D02*
X114800Y212500D01*
X112400D01*
G01X120800Y214200D02*
X119400Y215700D01*
X115500D01*
G01X121200Y219200D02*
X119100D01*
X118700Y218800D01*
G01Y228300D02*
X119500Y229100D01*
Y230400D01*
G01X114800D02*
Y229000D01*
X115500Y228300D01*
G01X121000Y225100D02*
Y224300D01*
X118700Y222000D01*
G01X122200Y239700D02*
Y243900D01*
G01X118700Y240900D02*
X121000D01*
X122200Y239700D01*
G01X118700Y240900D02*
X118000Y240200D01*
Y238100D01*
G01X114200D02*
X112800D01*
X112400Y237700D01*
G01X124100Y234200D02*
X122200D01*
X121800Y234600D01*
G01X119500Y234200D02*
X115900D01*
X115500Y234600D01*
G01X114800Y234200D02*
X115100D01*
X115500Y234600D01*
G01X114800Y234200D02*
X112800D01*
X112400Y234600D01*
G01X119500Y234200D02*
X121400D01*
X121800Y234600D01*
G01X122200Y248100D02*
Y243900D01*
G01X118700Y244000D02*
X122100D01*
X122200Y243900D01*
G01X135400Y178400D02*
Y181000D01*
G01X125300Y183000D02*
Y181000D01*
G01X135400D02*
Y183000D01*
G01X130900D02*
Y176800D01*
G01X134500Y203100D02*
Y200000D01*
X134400Y199900D01*
G01X127400D02*
X131300D01*
G01X130600Y207100D02*
X129000D01*
X128100Y206200D01*
G01Y203100D02*
X130700D01*
G01X125000Y215700D02*
X126800Y213800D01*
Y213200D01*
G01X134400Y209400D02*
Y207100D01*
G01X125000Y209400D02*
X126800D01*
G01X131300Y212500D02*
Y215000D01*
G01X125000Y228300D02*
X124100Y229100D01*
Y230400D01*
G01X125000Y222000D02*
Y219200D01*
G01X131300Y240200D02*
Y244000D01*
G01X126000Y239700D02*
Y238700D01*
X125000Y237700D01*
G01X126000Y239700D02*
Y243900D01*
G01X131300Y236400D02*
Y234600D01*
G01X126000Y248100D02*
Y243900D01*
G01X137000Y18000D02*
Y11200D01*
X136800Y11000D01*
G01X142000Y18000D02*
Y11700D01*
X142700Y11000D01*
G01X148300D02*
Y13200D01*
X147000Y14500D01*
Y18000D01*
G01X137900Y230100D02*
Y228600D01*
X137600Y228300D01*
G01X145600Y314500D02*
X146600Y315500D01*
X150000D01*
G01Y320300D02*
X147500D01*
X146900Y320900D01*
G01X162000Y18000D02*
Y12700D01*
X160300Y11000D01*
G01X154700D02*
X152000Y13700D01*
Y18000D01*
G01X157000D02*
Y23000D01*
X159700Y25700D01*
X170000D01*
G01X160200Y298100D02*
X160800Y298700D01*
Y303100D01*
G01X153800Y315500D02*
X155600D01*
G01X153800Y320300D02*
X155600D01*
G01X171300Y171300D02*
X169600Y169600D01*
G01X171300Y174500D02*
X169700Y172900D01*
G01X171500Y204500D02*
Y206300D01*
G01X171300Y196500D02*
X171200D01*
X169700Y195000D01*
G01X171300Y241500D02*
X171400D01*
X172900Y240000D01*
G01X169700Y243100D02*
X171300Y244700D01*
G01X169700Y268300D02*
X171300Y266700D01*
G01X164600Y307000D02*
Y308700D01*
G01X160800Y306900D02*
Y308700D01*
G01X174500Y171300D02*
X176000Y169800D01*
G01X174400Y171300D02*
X174500D01*
X176000Y169800D01*
G01X183900Y174500D02*
X182300Y172900D01*
G01X180700Y174500D02*
X182300Y172900D01*
G01X179200D02*
X177600Y171300D01*
G01X180700D02*
X180800D01*
X179200Y172900D01*
G01X183900Y171300D02*
X184000D01*
X185500Y169800D01*
G01X183900Y193300D02*
Y193400D01*
X182300Y195000D01*
G01X174400Y190200D02*
X174500D01*
X172900Y191800D01*
G01X174400Y193300D02*
X174500Y193400D01*
X176000Y195000D01*
G01X172900Y198100D02*
X174500Y196500D01*
G01X174400D02*
X174500D01*
X172900Y198100D01*
G01X182300Y195000D02*
X180800Y196500D01*
X180700D01*
G01X183300Y204200D02*
Y206300D01*
G01X183900Y196500D02*
X183800D01*
X182300Y195000D01*
G01X177600Y196500D02*
X176000Y195000D01*
G01X187000Y196500D02*
X187100D01*
X185100Y198600D01*
X183100D01*
G01D02*
X182500Y198000D01*
X182300Y198100D01*
G01X181900Y234200D02*
X183100D01*
X184200Y233000D01*
Y231200D01*
G01X183900Y244700D02*
X182300Y243100D01*
G01X187000Y241500D02*
X184600Y239100D01*
X183200D01*
X182300Y240000D01*
G01X180700Y244700D02*
X182300Y243100D01*
G01X174400Y241500D02*
X172900Y240000D01*
G01X177600Y241500D02*
X176000Y243100D01*
G01X177600Y241500D02*
X179200Y243100D01*
G01X182300Y265200D02*
X183900Y263600D01*
Y263500D01*
G01X182300Y265200D02*
X180800Y266700D01*
X180700D01*
G01X172900Y268300D02*
X174500Y266700D01*
X174400D01*
G01X183900Y263500D02*
Y263600D01*
X185500Y265200D01*
G01X176000Y262000D02*
X174400Y260400D01*
G01X176000Y268300D02*
X174400Y266700D01*
G01X183900D02*
X184000D01*
X185500Y265200D01*
G01X174400Y263500D02*
X172900Y262000D01*
G01X179200Y265200D02*
X177600Y266700D01*
G01D02*
X179200Y268300D01*
G01X180800Y263600D02*
X179200Y265200D01*
G01X180800Y263600D02*
X180700Y263500D01*
G01X182300Y262000D02*
X180800Y263600D01*
G01X175400Y328400D02*
X176900Y329900D01*
X178900D01*
G01X188600Y169800D02*
X187100Y171300D01*
X187000D01*
G01X190200D02*
X190199D01*
X190193Y171294D01*
X188600Y169800D01*
G01X196500Y174500D02*
X194900Y176100D01*
G01Y172900D02*
X193300Y171300D01*
G01X191700Y179200D02*
Y179100D01*
X190200Y177600D01*
G01X198100Y195000D02*
Y194900D01*
X196500Y193300D01*
G01X194900Y195000D02*
Y194900D01*
X193300Y193300D01*
G01X191800Y191800D02*
X193300Y193300D01*
G01X185400Y204300D02*
X187400Y206300D01*
G01X190200Y196500D02*
X188600Y198100D01*
G01X210600Y206500D02*
X200300D01*
X198600Y204900D01*
X194600D01*
X192500Y202800D01*
Y200600D01*
X193400Y199700D01*
Y196500D01*
X193300D01*
G01X191200Y206300D02*
Y204500D01*
G01X190200Y241500D02*
X191800Y243100D01*
G01X190200Y244700D02*
X191800Y243100D01*
G01X193400Y241500D02*
X194900Y243100D01*
G01X198100Y246300D02*
X196500Y244700D01*
G01X190200Y247800D02*
X191700Y249400D01*
G01X196500Y263500D02*
Y263600D01*
X198100Y265200D01*
G01X190200Y266700D02*
X188600Y268300D01*
G01X191800Y262000D02*
X193300Y263500D01*
G01X187000Y266700D02*
X187100D01*
X185500Y268300D01*
G01X205900Y171300D02*
Y169600D01*
X206000Y169500D01*
G01X210700Y172900D02*
X209100Y171300D01*
G01X199600Y174500D02*
X201200Y172900D01*
G01X199600Y193300D02*
X198100Y191800D01*
G01X207500Y195000D02*
X206000Y196500D01*
X205900D01*
G01X209100D02*
X207500Y198100D01*
G01X205900Y241500D02*
Y240100D01*
X206000Y240000D01*
G01X199600Y244700D02*
X199700D01*
X198100Y243100D01*
G01X209100Y241500D02*
X209200D01*
X210700Y240000D01*
G01X205800Y268700D02*
Y266800D01*
X205900Y266700D01*
G01X209100D02*
X210700Y268300D01*
G01X199600Y263500D02*
X198100Y262000D01*
G01X218500Y171300D02*
X218600D01*
X220100Y172900D01*
G01X213800D02*
X212200Y171300D01*
G01X215400D02*
X217000Y172900D01*
G01X212200Y196500D02*
X212300D01*
X213800Y195000D01*
G01X220100Y198100D02*
X218500Y196500D01*
G01X213800Y198100D02*
X215400Y196500D01*
G01X212200Y241500D02*
X212300D01*
X213800Y240000D01*
G01X218500Y241500D02*
X218600D01*
X220100Y240000D01*
G01X215400Y241500D02*
X213800Y243100D01*
G01Y268300D02*
X212200Y266700D01*
G01X220100Y268300D02*
X218500Y266700D01*
G01X215400D02*
X217000Y268300D01*
G01X244200Y194600D02*
Y196600D01*
G01Y203200D02*
Y205600D01*
G01Y198800D02*
Y201200D01*
G01Y205600D02*
Y207600D01*
G01Y201200D02*
Y203200D01*
G01Y196600D02*
Y198800D01*
G01Y212000D02*
Y210000D01*
G01Y220800D02*
Y218800D01*
G01Y212000D02*
Y214000D01*
G01Y218800D02*
Y216400D01*
G01Y214000D02*
Y216400D01*
G01Y210000D02*
Y207600D01*
G01Y225200D02*
Y223200D01*
G01Y229600D02*
Y232000D01*
G01Y225200D02*
Y227600D01*
G01Y223200D02*
Y220800D01*
G01Y227600D02*
Y229600D01*
G01Y238400D02*
Y240800D01*
G01Y234000D02*
Y236400D01*
G01Y245300D02*
Y242800D01*
G01Y240800D02*
Y242800D01*
G01Y236400D02*
Y238400D01*
G01Y232000D02*
Y234000D01*
G01Y247200D02*
Y245300D01*
G01Y247200D02*
Y249200D01*
G01X248000Y170900D02*
Y168700D01*
G01D02*
Y166700D01*
G01Y173100D02*
Y170900D01*
G01Y177500D02*
Y175300D01*
G01Y181900D02*
Y179800D01*
G01Y184100D02*
Y181900D01*
G01Y179800D02*
Y177500D01*
G01Y175300D02*
Y173100D01*
G01X256000Y172700D02*
Y170500D01*
G01Y180700D02*
Y176500D01*
G01Y180700D02*
Y185900D01*
X256800Y186700D01*
G01X248000Y186500D02*
Y184100D01*
G01Y186500D02*
Y188500D01*
G01X257000Y192300D02*
Y197100D01*
G01X253200D02*
Y187700D01*
X254200Y186700D01*
X256800D01*
G01D02*
X257000D01*
G01X248000Y203200D02*
Y201000D01*
G01Y207600D02*
Y205400D01*
G01D02*
Y203200D01*
G01Y201000D02*
Y198800D01*
G01D02*
Y196900D01*
G01X257000Y197100D02*
X264900D01*
X266300Y195600D01*
G01X253200Y197100D02*
Y200600D01*
X256100Y203500D01*
G01X248000Y212000D02*
Y209800D01*
G01Y216400D02*
Y214200D01*
G01Y220800D02*
Y218600D01*
G01D02*
Y216400D01*
G01Y214200D02*
Y212000D01*
G01Y209800D02*
Y207600D01*
G01Y225200D02*
Y220800D01*
G01Y229600D02*
Y227400D01*
G01Y231700D02*
Y229600D01*
G01Y227400D02*
Y225200D01*
G01X254200Y227300D02*
Y229900D01*
G01X248000Y234000D02*
Y231700D01*
G01Y238400D02*
Y236200D01*
G01Y242800D02*
Y240600D01*
G01Y245000D02*
Y242800D01*
G01Y240600D02*
Y238400D01*
G01Y236200D02*
Y234000D01*
G01X254400Y237600D02*
Y239700D01*
G01X248000Y247200D02*
Y245000D01*
G01Y247200D02*
Y249200D01*
G01X262600Y162800D02*
Y156900D01*
X263000Y156500D01*
G01X266200Y156400D02*
X263100D01*
X263000Y156500D01*
G01X270000Y162800D02*
Y156400D01*
G01Y162800D02*
X272800D01*
X273000Y163000D01*
G01X264000Y177300D02*
X266300Y175100D01*
G01X268600Y177300D02*
X268500D01*
X266300Y175100D01*
G01D02*
Y171400D01*
G01X268600Y181100D02*
Y185500D01*
X270100Y187000D01*
X270000D01*
G01X266300Y195600D02*
X269300Y198600D01*
Y202500D01*
G01D02*
Y208000D01*
G01Y202500D02*
X269200D01*
G01X263500Y203500D02*
X268300D01*
X269300Y202500D01*
G01X260600Y252300D02*
Y258500D01*
G01Y246100D02*
Y252300D01*
G01X274800Y202500D02*
X278900D01*
G01X273300Y218100D02*
X273200Y218000D01*
Y220300D01*
G01X274000Y233700D02*
Y229000D01*
G01X273900Y269800D02*
X274000Y269700D01*
Y272100D01*
G54D39*
X74240Y355063D03*
X66760D03*
X70500Y362937D03*
X88240Y355063D03*
X80760D03*
X84500Y362937D03*
X94760Y355063D03*
X98500Y362937D03*
X102240Y355063D03*
G54D57*
X254200Y218900D03*
X269300Y213400D03*
Y208000D03*
X259800Y218900D03*
X274900Y213400D03*
Y208000D03*
G54D48*
X127000Y18000D03*
X132000D03*
Y39000D03*
X127000D03*
X137000Y18000D03*
X142000D03*
X147000D03*
X137000Y39000D03*
X147000D03*
X142000D03*
X152000Y18000D03*
X157000D03*
X152000Y39000D03*
X157000D03*
X162000Y18000D03*
Y39000D03*
G54D67*
G01X84800Y81900D02*
X146800D01*
G01X149800Y149500D02*
X156500D01*
G54D49*
X130200Y374300D03*
Y380400D03*
Y386500D03*
X152100Y374300D03*
Y380400D03*
Y386500D03*
G54D58*
X252000Y277000D03*
G54D68*
G01X8000Y115000D02*
X7700Y115300D01*
X4700D01*
G01Y123900D02*
X7900D01*
X8000Y124000D01*
G01X25000Y379000D02*
Y382000D01*
G01X28500Y379000D02*
Y382000D01*
G01X38600Y267800D02*
X41200D01*
X42400Y266600D01*
Y262000D01*
G01X40000Y287500D02*
Y283000D01*
G01X164800Y374500D02*
X167000D01*
G01X164800Y386500D02*
X167000D01*
G01X164800Y380500D02*
X167000D01*
G01X190200Y174500D02*
X188800Y175900D01*
G01X188000Y231200D02*
X186800Y232400D01*
Y233500D01*
G01Y235100D02*
Y233500D01*
G01X193300Y266700D02*
X193400D01*
X197300Y270700D01*
X207600D01*
G01X244200Y168700D02*
X235000Y159500D01*
X214100D01*
X207600Y165900D01*
G01X207700Y233100D02*
X208400D01*
G01X207600Y270700D02*
X222300D01*
X236600Y256400D01*
Y246200D01*
X232100Y241700D01*
G01X241500Y190800D02*
X230900Y201400D01*
X215800D01*
X210600Y206500D01*
G01X232100Y241700D02*
X226200Y235800D01*
X210600D01*
G01X241500Y190800D02*
Y232300D01*
X232100Y241700D01*
G01X244200Y168700D02*
Y173100D01*
G01Y181900D02*
Y186500D01*
G01Y177500D02*
Y181900D01*
G01Y173100D02*
Y177500D01*
G01Y186500D02*
Y190800D01*
G01D02*
X241500D01*
G54D59*
X252000Y306500D03*
G54D69*
G01X4700Y106600D02*
X7600D01*
X8000Y107000D01*
G01X4700Y119600D02*
X7900D01*
X8000Y119500D01*
G01X93500Y193600D02*
X92100D01*
X89500Y191000D01*
Y184000D01*
X65500Y160000D01*
Y148000D01*
X58000Y140500D01*
X14000D01*
X10500Y137000D01*
Y119500D01*
X12500Y117500D01*
Y113000D01*
X10500Y111000D01*
X8000D01*
G01X4700Y110900D02*
X7900D01*
X8000Y111000D01*
G01X4700Y132600D02*
X7900D01*
X8000Y132500D01*
G01X99800Y196800D02*
X98250Y195250D01*
Y182750D01*
X74000Y158500D01*
Y154000D01*
X59000Y139000D01*
X40000D01*
X38634Y137634D01*
Y135634D01*
X37500Y134500D01*
X34500D01*
X33534Y135466D01*
Y137966D01*
X32500Y139000D01*
X16000D01*
X13000Y136000D01*
Y124000D01*
X15500Y121500D01*
G01X4700Y128300D02*
X7800D01*
X8000Y128500D01*
G01X4700Y136900D02*
X7900D01*
X8000Y137000D01*
G01X96700Y196800D02*
X94900Y195000D01*
X91000D01*
X88000Y192000D01*
X85500D01*
X83500Y190000D01*
Y187500D01*
X81400Y185400D01*
X28200D01*
X12200Y201400D01*
Y222500D01*
X16800Y227100D01*
X19100D01*
G01X23600Y195100D02*
X13200Y205500D01*
Y222200D01*
X16600Y225600D01*
X27500D01*
X27900Y226000D01*
Y227100D01*
G01X8700Y209800D02*
X6500D01*
G01X80900Y206200D02*
Y207600D01*
X52000Y236500D01*
X15500D01*
X6000Y246000D01*
Y342000D01*
X23500Y359500D01*
Y362000D01*
X28500Y367000D01*
X54000D01*
X56000Y369000D01*
G01X23000Y369500D02*
Y368000D01*
X2500Y347500D01*
Y244000D01*
X16500Y230000D01*
X46500D01*
X64000Y212500D01*
X71000D01*
X79000Y204500D01*
X82600D01*
X84000Y203100D01*
G01X28500Y372000D02*
X27500Y371000D01*
Y369000D01*
X5000Y346500D01*
Y245000D01*
X17500Y232500D01*
X49500D01*
X65500Y216500D01*
G01X25000Y372000D02*
X26300Y370700D01*
Y369498D01*
X3800Y346998D01*
Y244502D01*
X17002Y231300D01*
X49002D01*
X64100Y216202D01*
Y215400D01*
X65500Y214000D01*
G01X8500Y245500D02*
X16000D01*
X20000Y249500D01*
X52000D01*
X55000Y246500D01*
X69100D01*
X71000Y244600D01*
G01X13500Y304000D02*
X42000D01*
X46500Y299500D01*
Y289500D01*
X53000Y283000D01*
G01X18000Y31500D02*
Y21000D01*
X34000Y5000D01*
X102000D01*
X119500Y22500D01*
X125500D01*
X127000Y21000D01*
Y18000D01*
G01X18000Y41500D02*
X23500Y36000D01*
Y19500D01*
X36000Y7000D01*
X100500D01*
X118000Y24500D01*
X129500D01*
X132000Y22000D01*
Y18000D01*
G01X147000Y28500D02*
X124000D01*
X108500Y44000D01*
X96500D01*
X77000Y63500D01*
X34500D01*
X25000Y73000D01*
X18000D01*
G01X152000Y28500D02*
X150500Y30000D01*
X124500D01*
X109000Y45500D01*
X97500D01*
X77500Y65500D01*
X35500D01*
X18000Y83000D01*
G01X51100Y173200D02*
X45600Y167700D01*
X20900D01*
X19100Y169500D01*
G01X23600Y195100D02*
X31400Y187300D01*
X70300D01*
G01X25200Y199100D02*
X26300D01*
X28400Y197000D01*
X32400D01*
X40400Y189000D01*
X58600D01*
X63900Y194300D01*
X73300D01*
X75600Y192000D01*
X81600D01*
X85700Y196100D01*
Y198300D01*
X84100Y199900D01*
X84000D01*
G01X19500Y222400D02*
Y204700D01*
X25200Y199100D01*
G01D02*
Y199000D01*
G01X22500Y224100D02*
X19000D01*
X18100Y223200D01*
Y221400D01*
X18700Y220800D01*
Y202300D01*
X24000Y197000D01*
X26600D01*
X35500Y188100D01*
X58900D01*
X64300Y193500D01*
X72300D01*
X74700Y191100D01*
X82300D01*
X87200Y196000D01*
Y199900D01*
G01X22500Y327000D02*
X26500Y331000D01*
X133000D01*
X144500Y342500D01*
Y348000D01*
X142750Y349750D01*
Y356800D01*
G01X138750D02*
Y351750D01*
X140000Y350500D01*
Y342500D01*
X131500Y334000D01*
X84500D01*
X83000Y332500D01*
X70500D01*
X69000Y334000D01*
X62500D01*
X60500Y332000D01*
X24500D01*
X21000Y328500D01*
G01X25500Y324000D02*
X30500Y329000D01*
X77500D01*
X80000Y326500D01*
X134000D01*
X150550Y343050D01*
Y356800D01*
G01X18000Y328500D02*
Y331500D01*
X21500Y335000D01*
X48000D01*
X49500Y336500D01*
X72000D01*
X73000Y335500D01*
X80500D01*
X81500Y336500D01*
X126500D01*
X132000Y342000D01*
Y351180D01*
X130950Y352230D01*
Y356800D01*
G01X24000Y325500D02*
X28500Y330000D01*
X80000D01*
X82000Y328000D01*
X133000D01*
X146650Y341650D01*
Y356800D01*
G01X15500Y338500D02*
X17500Y340500D01*
X48000D01*
X50000Y338500D01*
X54500D01*
X56500Y340500D01*
X95500D01*
X97500Y338500D01*
X121500D01*
X123050Y340050D01*
Y356800D01*
G01X126950D02*
Y351450D01*
X125500Y350000D01*
Y339000D01*
X124000Y337500D01*
X93500D01*
X92000Y339000D01*
X58000D01*
X56500Y337500D01*
X26500D01*
X25500Y336500D01*
X18000D01*
G01X134850Y356800D02*
Y341850D01*
X128500Y335500D01*
X83000D01*
X81500Y334000D01*
X71500D01*
X70000Y335500D01*
X61500D01*
X59000Y333000D01*
X22500D01*
X19500Y330000D01*
G01X18000Y344000D02*
X39000D01*
X41500Y346500D01*
X66243D01*
X69243Y343500D01*
X92500D01*
X93000Y344000D01*
Y345700D01*
G01X15500Y342500D02*
X16000Y342000D01*
X100499D01*
X102000Y343501D01*
Y345700D01*
G01X15500Y345500D02*
X21000D01*
X24500Y349000D01*
X68000D01*
X71300Y345700D01*
X74500D01*
G01X25000Y375000D02*
Y372000D01*
G01X32800Y227100D02*
X50100Y209800D01*
Y205900D01*
X55200Y200800D01*
X68700D01*
X75800Y193600D01*
X80900D01*
G01X84000Y196800D02*
X74200D01*
X57700Y213300D01*
X50500D01*
X36700Y227100D01*
G01X28500Y321000D02*
X34500Y327000D01*
X73500D01*
X77500Y323000D01*
X135000D01*
X150500Y338500D01*
X172000D01*
X182500Y349000D01*
Y357000D01*
X180500Y359000D01*
X178400D01*
G01X27000Y322500D02*
X32500Y328000D01*
X75500D01*
X78500Y325000D01*
X134500D01*
X149000Y339500D01*
X170500D01*
X178400Y347400D01*
Y349000D01*
G01X28500Y375000D02*
Y372000D01*
G01X102900Y190400D02*
X104500Y188800D01*
Y183500D01*
X77500Y156500D01*
Y152500D01*
X40000Y115000D01*
Y94500D01*
X47000Y87500D01*
X63500D01*
X78000Y73000D01*
Y67500D01*
X98500Y47000D01*
X109500D01*
X123500Y33000D01*
X130000D01*
X132000Y35000D01*
Y39000D01*
G01X106100Y193600D02*
X107500Y192200D01*
Y184500D01*
X79500Y156500D01*
Y152500D01*
X41500Y114500D01*
Y95500D01*
X47500Y89500D01*
X66500D01*
X80500Y75500D01*
Y67500D01*
X99000Y49000D01*
X110000D01*
X124000Y35000D01*
X126500D01*
X127000Y35500D01*
Y39000D01*
G01X106000Y190500D02*
X104500Y192000D01*
X102500D01*
X101500Y191000D01*
Y183500D01*
X76000Y158000D01*
Y153500D01*
X60500Y138000D01*
X43000D01*
X42000Y137000D01*
G01X54000Y146500D02*
X43500D01*
X43300Y146700D01*
G01X44500Y173300D02*
Y171800D01*
X42600Y169900D01*
X38700D01*
G01X91900Y201500D02*
X71500D01*
X54000Y219000D01*
X52600D01*
X44600Y227000D01*
G01X73600Y247600D02*
X72700D01*
X71800Y248500D01*
X56900D01*
X46000Y259400D01*
Y275500D01*
X46500Y276000D01*
G01X80900Y244000D02*
X79400Y245500D01*
X73200D01*
X71200Y247500D01*
X56000D01*
X45000Y258500D01*
Y278500D01*
G01X87200Y244000D02*
X85600Y245600D01*
X83400D01*
X81700Y247300D01*
X78000D01*
X74800Y250500D01*
X70516D01*
X67976Y253000D01*
X59000D01*
X49000Y263000D01*
Y277500D01*
X48000Y278500D01*
G01X84000Y244000D02*
X83500D01*
X81000Y246500D01*
X78332D01*
X78331Y246499D01*
X77001D01*
X74000Y249500D01*
X69515D01*
X67179Y251800D01*
X55700D01*
X47500Y260000D01*
Y273000D01*
G01X54500Y70000D02*
X57400D01*
X57500Y70100D01*
G01Y81900D02*
X57400Y82000D01*
X54500D01*
G01Y95000D02*
X57400D01*
X57500Y95100D01*
G01Y106900D02*
X57400Y107000D01*
X54500D01*
G01X54000Y146500D02*
X56500D01*
G01X52000Y276000D02*
Y263501D01*
X60516Y255000D01*
X69990D01*
X72917Y252100D01*
X79100D01*
X80900Y250300D01*
G01X50500Y278500D02*
Y263000D01*
X59500Y254000D01*
X68976D01*
X71720Y251300D01*
X76700D01*
X77700Y250300D01*
G01X74600Y256600D02*
X73200Y258000D01*
X64500D01*
X60500Y262000D01*
Y267001D01*
X57000Y270501D01*
Y276000D01*
G01X77700Y253500D02*
X76000Y255200D01*
X73300D01*
X71500Y257000D01*
X63500D01*
X58500Y262000D01*
Y266500D01*
X55000Y270000D01*
Y277000D01*
X56500Y278500D01*
G01X61000Y281000D02*
X58500Y278500D01*
Y271500D01*
X62000Y268000D01*
Y262500D01*
X65500Y259000D01*
X74500D01*
X82500Y251000D01*
Y248700D01*
X84000Y247200D01*
G01X53500Y278500D02*
Y270000D01*
X55000Y268500D01*
Y263000D01*
X62000Y256000D01*
X70490D01*
X72714Y253800D01*
X74600D01*
G01X84000Y250300D02*
Y251000D01*
X75000Y260000D01*
X66500D01*
X63500Y263000D01*
Y272500D01*
X60000Y276000D01*
G01X89500Y259000D02*
X86500Y262000D01*
Y265000D01*
X84500Y267000D01*
X82000D01*
X77000Y272000D01*
Y279000D01*
X70500Y285500D01*
X55500D01*
X53000Y283000D01*
G01X80900Y187300D02*
X70300D01*
G01D02*
Y191100D01*
G01X73500Y240800D02*
X71000D01*
G01X87200Y247200D02*
X85600Y248800D01*
Y250900D01*
X75500Y261000D01*
X67500D01*
X65000Y263500D01*
Y273500D01*
X63000Y275500D01*
Y283500D01*
G01X87200Y250300D02*
X87196Y251302D01*
X76403Y262000D01*
X69000D01*
X66500Y264500D01*
Y274500D01*
X64500Y276500D01*
Y281000D01*
G01X69000D02*
X68000Y280000D01*
Y266000D01*
X70500Y263500D01*
X77200D01*
X87200Y253500D01*
G01Y256600D02*
X78800Y265000D01*
X74000D01*
X70500Y268500D01*
Y281500D01*
X68500Y283500D01*
X67500D01*
G01X91000Y255000D02*
X79000Y267000D01*
X76500D01*
X74000Y269500D01*
Y280000D01*
X70500Y283500D01*
G01X69600Y301700D02*
Y306100D01*
G01X72500Y301700D02*
X69600D01*
G01X74240Y355063D02*
Y349560D01*
X74500Y349300D01*
G01X79500D02*
X74500D01*
G01X104500Y178900D02*
X85400Y159800D01*
Y155700D01*
X85000Y155300D01*
X82500D01*
X82100Y154900D01*
Y154100D01*
X82500Y153700D01*
X85000D01*
X85400Y153300D01*
Y152500D01*
X85000Y152100D01*
X82500D01*
X82100Y151700D01*
Y150900D01*
X82500Y150500D01*
X85000D01*
X85400Y150100D01*
Y147100D01*
X86100Y146500D01*
X88000D01*
G01X85000Y177000D02*
X91500Y183500D01*
Y191000D01*
X92500Y192000D01*
X95000D01*
X96600Y193600D01*
G01X85000Y174500D02*
X93000Y182500D01*
Y186800D01*
X96700Y190500D01*
G01X96600Y187300D02*
X95000Y185700D01*
Y182000D01*
X85000Y172000D01*
G01X86300Y203700D02*
X85700Y203100D01*
X84000D01*
G01X85300Y299700D02*
X85600Y299400D01*
Y297900D01*
G01X94300Y148900D02*
X96700D01*
X97200Y148500D01*
G01X94300Y146600D02*
X94100Y146500D01*
X91800D01*
G01X96700Y250300D02*
Y254600D01*
X94500Y256800D01*
Y258800D01*
X91800Y261500D01*
Y283668D01*
X93932Y285800D01*
X101800D01*
X104500Y288500D01*
G01X95100Y279000D02*
Y269500D01*
X95900Y268700D01*
Y266400D01*
X93600Y264100D01*
Y262400D01*
X98000Y258000D01*
Y251200D01*
X100300Y248900D01*
X101400D01*
X101800Y248500D01*
Y247300D01*
X102200Y246900D01*
X103000D01*
X103400Y247300D01*
Y249800D01*
X102900Y250300D01*
G01Y253500D02*
Y252400D01*
X101300Y250800D01*
X99700D01*
X98800Y251700D01*
Y258800D01*
X94900Y262700D01*
Y263800D01*
X96700Y265600D01*
Y269300D01*
X95900Y270100D01*
Y277100D01*
X96700Y277900D01*
Y280800D01*
X95300Y282200D01*
X95100D01*
G01X101400Y288500D02*
Y288100D01*
X100100Y286800D01*
X93800D01*
X91000Y284000D01*
Y260300D01*
X92400Y258900D01*
G01X96600Y256900D02*
Y258100D01*
X92600Y262100D01*
Y283300D01*
X94100Y284800D01*
X104000D01*
X104500Y285300D01*
G01X106100Y253500D02*
X104500Y255000D01*
X101600D01*
X101200Y254600D01*
Y252500D01*
X100800Y252100D01*
X100000D01*
X99600Y252500D01*
Y259132D01*
X98742Y259990D01*
X96900Y261900D01*
Y263600D01*
X97600Y264300D01*
Y270300D01*
X96700Y271200D01*
Y272000D01*
X97100Y272400D01*
X97800D01*
X98200Y272800D01*
Y273600D01*
X97800Y274000D01*
X97100D01*
X96700Y274400D01*
Y275200D01*
X97100Y275600D01*
X97800D01*
X99000Y276800D01*
Y278200D01*
X98200Y279000D01*
G01X106100Y250300D02*
X107500Y251700D01*
Y254400D01*
X105800Y256100D01*
X101668D01*
X100400Y257368D01*
Y259468D01*
X100100Y259768D01*
Y259800D01*
X98600Y261300D01*
Y263900D01*
X99000Y264300D01*
X99600D01*
X100000Y264700D01*
Y265500D01*
X99600Y265900D01*
X99000D01*
X98600Y266300D01*
Y267100D01*
X99000Y267500D01*
X99600D01*
X100000Y267900D01*
Y268700D01*
X99600Y269100D01*
X99000D01*
X98600Y269500D01*
Y270300D01*
X99000Y270700D01*
X99600D01*
X100000Y271100D01*
Y280400D01*
X98200Y282200D01*
G01X107700Y285300D02*
X106300Y283900D01*
X94500D01*
X93400Y282800D01*
Y269700D01*
X94400Y268700D01*
Y267300D01*
G01X93000Y349300D02*
X88000D01*
G01X88240Y355063D02*
Y349540D01*
X88000Y349300D01*
G01X102900Y155700D02*
Y157000D01*
X103900Y158000D01*
G01X114500Y168300D02*
X116100Y169900D01*
Y178100D01*
X115700Y178500D01*
X114800D01*
X114400Y178100D01*
Y170500D01*
X114000Y170100D01*
X107000D01*
X106600Y170500D01*
Y171200D01*
X107000Y171600D01*
X112100D01*
X112500Y172000D01*
Y180800D01*
G01X109200Y193700D02*
Y186800D01*
X113000Y183000D01*
X119500D01*
X120500Y182000D01*
Y180000D01*
X144500Y156000D01*
Y132500D01*
X153000Y124000D01*
Y61500D01*
X165590Y48910D01*
Y35796D01*
X163567Y33773D01*
X143612D01*
X141930Y35455D01*
Y38930D01*
X142000Y39000D01*
G01X110800Y195200D02*
Y187200D01*
X113500Y184500D01*
X120000D01*
X122000Y182500D01*
Y180500D01*
X146500Y156000D01*
Y133500D01*
X155500Y124500D01*
Y61500D01*
X168000Y49000D01*
Y35000D01*
X164500Y31500D01*
X140000D01*
X137000Y34500D01*
Y39000D01*
G01X106100Y199900D02*
X109100D01*
X112500Y196500D01*
Y187500D01*
X114000Y186000D01*
X121000D01*
X123000Y184000D01*
Y181000D01*
X133500Y170500D01*
X162500D01*
X180500Y152500D01*
X235000D01*
G01X106100Y271900D02*
Y264000D01*
X107600Y262500D01*
Y259900D01*
X108100Y259400D01*
X110800D01*
X112400Y257800D01*
Y253300D01*
X110800Y251700D01*
Y246400D01*
X111700Y245500D01*
X113200D01*
X113700Y245000D01*
Y240700D01*
X113300Y240300D01*
X112800D01*
X112400Y240700D01*
Y244000D01*
G01X101400Y272700D02*
X100900Y272300D01*
Y260100D01*
X101200Y259800D01*
Y257700D01*
X102000Y256900D01*
X107900D01*
X108400Y256400D01*
Y250200D01*
X107700Y249500D01*
Y246000D01*
X107300Y245600D01*
X104900D01*
X104500Y246000D01*
Y248400D01*
X104900Y248800D01*
X105700D01*
X106100Y248400D01*
Y247200D01*
G01X109200D02*
X110000Y247900D01*
Y249500D01*
X109200Y250300D01*
Y256800D01*
X108300Y257700D01*
X102400D01*
X102000Y258100D01*
Y260800D01*
X102400Y261200D01*
X102800D01*
X103200Y261600D01*
Y262500D01*
X102800Y262900D01*
X102100D01*
X101700Y263300D01*
Y264100D01*
X102100Y264500D01*
X102800D01*
X103200Y264900D01*
Y265700D01*
X102800Y266100D01*
X102100D01*
X101700Y266500D01*
Y267300D01*
X102100Y267700D01*
X102800D01*
X103200Y268100D01*
Y268900D01*
X102800Y269300D01*
X102100D01*
X101700Y269700D01*
Y270500D01*
X102100Y270900D01*
X102800D01*
X103200Y271300D01*
Y274000D01*
X101400Y275900D01*
G01Y279000D02*
Y278100D01*
X104100Y275400D01*
Y270000D01*
X104500Y269600D01*
X104800D01*
X105200Y269200D01*
Y268400D01*
X104800Y268000D01*
X104500D01*
X104100Y267600D01*
Y266800D01*
X104500Y266400D01*
X104800D01*
X105200Y266000D01*
Y265200D01*
X104800Y264800D01*
X104500D01*
X104100Y264400D01*
Y261100D01*
X102800Y259800D01*
Y258900D01*
X103200Y258500D01*
X104800D01*
X105200Y258900D01*
Y262100D01*
X105600Y262500D01*
X106300D01*
X106700Y262100D01*
Y258900D01*
X107100Y258500D01*
X110200D01*
X110800Y257900D01*
Y254100D01*
G01X112400Y250300D02*
Y249500D01*
X114400Y247400D01*
X115000D01*
X115400Y247800D01*
Y249800D01*
X113500Y251700D01*
Y254800D01*
X113900Y255200D01*
X115000D01*
X115400Y255600D01*
Y261300D01*
X109300Y267400D01*
Y274200D01*
X104500Y279000D01*
G01X112400Y247200D02*
X113100D01*
X114200Y246100D01*
X115800D01*
X116200Y246500D01*
Y250500D01*
X114800Y251900D01*
Y253700D01*
X116200Y255100D01*
Y261700D01*
X110200Y267700D01*
Y275900D01*
X109600Y276500D01*
X108200D01*
X107000Y277700D01*
Y278600D01*
X107400Y279000D01*
X107700D01*
G01X114000Y257600D02*
Y260300D01*
X112100Y262200D01*
X111600D01*
X111100Y261700D01*
Y260800D01*
X110700Y260400D01*
X109200D01*
X108800Y260800D01*
Y261700D01*
X110200Y263100D01*
Y263600D01*
X109600Y264200D01*
X107500D01*
X107100Y264600D01*
Y265600D01*
X108400Y266900D01*
Y268100D01*
X107100Y269300D01*
Y270100D01*
X108300Y271300D01*
Y273700D01*
X107900Y274100D01*
X107300D01*
X106800Y273600D01*
X105600D01*
X105200Y274000D01*
Y274800D01*
X106000Y275700D01*
Y276300D01*
X105300Y277000D01*
X103900D01*
X102900Y278000D01*
Y281800D01*
X102500Y282200D01*
X101400D01*
G01X115500Y244000D02*
Y244500D01*
X117000Y246000D01*
Y262468D01*
X111400Y268068D01*
Y268100D01*
X111000Y268500D01*
Y278400D01*
X107200Y282200D01*
X104500D01*
G01X110800D02*
X112200Y280800D01*
Y268400D01*
X118000Y262600D01*
Y245600D01*
X117100Y244700D01*
Y242400D01*
X115500Y240900D01*
G01X102240Y355063D02*
Y349540D01*
X102000Y349300D01*
G01X107000D02*
X102000D01*
G01X126300Y165400D02*
Y172600D01*
X125900Y173000D01*
X124600D01*
X124200Y172600D01*
Y167600D01*
X123800Y167200D01*
X122700D01*
X122300Y167600D01*
Y176100D01*
X121900Y176500D01*
X121000D01*
X120600Y176100D01*
Y170600D01*
X120200Y170200D01*
X119100D01*
X118700Y170600D01*
Y180800D01*
G01X119000Y188700D02*
X121500D01*
X123400Y190700D01*
Y195200D01*
X125000Y196800D01*
G01X119000Y192800D02*
X121000D01*
X121800Y193600D01*
G01X119000Y196800D02*
X121800D01*
G01X126300Y161600D02*
Y159300D01*
G01X135400Y172700D02*
Y174600D01*
G01X134400Y193600D02*
X138300Y197500D01*
X142200D01*
X143800Y195900D01*
Y188700D01*
X144200Y188300D01*
X146000D01*
X146400Y188700D01*
Y189200D01*
X147000Y189800D01*
X148800D01*
X150400Y188200D01*
X153600D01*
X154100Y188700D01*
Y189100D01*
X153800Y189400D01*
X151400D01*
X151200Y189600D01*
Y190300D01*
X151600Y190700D01*
X165000D01*
X166800Y188900D01*
Y187100D01*
G01X125300Y186800D02*
X126600Y188100D01*
Y195300D01*
X128100Y196800D01*
G01X135400Y186800D02*
X132800Y189400D01*
Y192100D01*
X131300Y193600D01*
G01X128100D02*
X130900Y190800D01*
Y186800D01*
G01X134400Y212500D02*
X136000Y214100D01*
X138700D01*
X140600Y216000D01*
X145700D01*
X149200Y219500D01*
X171100D01*
X172700Y217900D01*
X179700D01*
X182300Y215400D01*
X230900D01*
X231300Y215800D01*
Y221600D01*
X229400Y223500D01*
X228000D01*
G01X217000Y223300D02*
Y222700D01*
X214800Y220500D01*
X212500D01*
X211500Y221500D01*
X183300D01*
X182900Y221900D01*
Y223900D01*
X182500Y224300D01*
X181500D01*
X181100Y223900D01*
Y222900D01*
X180700Y222500D01*
X180000D01*
X179600Y222900D01*
Y223200D01*
X179200Y223600D01*
X148200D01*
X144800Y220200D01*
X138700D01*
X138300Y220600D01*
Y221100D01*
X138600Y221400D01*
X144000D01*
X145400Y222800D01*
Y223300D01*
X145000Y223700D01*
X144200D01*
X143000Y222500D01*
X137000D01*
X135900Y221400D01*
Y216100D01*
X135500Y215700D01*
X134400D01*
G01X237500Y219500D02*
Y224300D01*
X235100Y226700D01*
X217500D01*
X214900Y224100D01*
X213700D01*
X212500Y222900D01*
X185300D01*
X182800Y225400D01*
X181300D01*
X180500Y224600D01*
X175600D01*
X175300Y224900D01*
X143300D01*
X141900Y223500D01*
X135900D01*
X134400Y222000D01*
G01D02*
X131300Y218900D01*
Y218800D01*
G01X163800Y267200D02*
X160400Y263800D01*
Y260000D01*
X159800Y259400D01*
Y252600D01*
X155300Y248200D01*
Y244800D01*
X146800Y236200D01*
X135900D01*
X134400Y237700D01*
G01Y234600D02*
X136100Y232900D01*
X140700D01*
X142200Y231400D01*
X147300D01*
X158100Y242200D01*
Y247200D01*
X162200Y251300D01*
Y257400D01*
X165400Y260600D01*
Y261200D01*
G01X158600Y260700D02*
Y256500D01*
X157800Y255700D01*
Y255200D01*
X158800Y254200D01*
Y253200D01*
X154000Y248400D01*
Y246200D01*
X153400Y245600D01*
X149400D01*
X149200Y245400D01*
Y244800D01*
X149600Y244400D01*
X150300D01*
X150900Y243800D01*
Y242200D01*
X146400Y237700D01*
X143300D01*
X143000Y238000D01*
Y238800D01*
X142600Y239200D01*
X142000D01*
X141600Y238800D01*
Y237700D01*
X141300Y237400D01*
X140600D01*
X140200Y237800D01*
Y238700D01*
X139600Y239300D01*
X136000D01*
X134400Y240900D01*
G01X147000Y39000D02*
Y35500D01*
G01X140700Y193600D02*
X141200Y193100D01*
Y186400D01*
X142300Y185300D01*
Y180100D01*
X142800Y179600D01*
X151500D01*
X152300Y180400D01*
X154200D01*
X154800Y181000D01*
Y182400D01*
X155200Y182800D01*
X155800D01*
X156200Y182400D01*
Y181000D01*
X156800Y180400D01*
X157800D01*
X158600Y181200D01*
Y186500D01*
X160000Y187900D01*
X161400D01*
X163200Y186100D01*
X164600D01*
X167200Y183500D01*
G01X164400Y188700D02*
X164000Y189100D01*
X156600D01*
X154500Y187000D01*
X149600D01*
X148600Y188000D01*
X148000D01*
X147400Y187400D01*
Y186600D01*
X148800Y185200D01*
X154400D01*
X154800Y184800D01*
Y184000D01*
X154400Y183600D01*
X148200D01*
X145600Y186200D01*
X143400D01*
X142500Y187100D01*
Y195500D01*
X142100Y195900D01*
X139800D01*
X137600Y193600D01*
G01X179200Y191800D02*
Y189300D01*
X178600Y188700D01*
X168800D01*
X165600Y191900D01*
X156000D01*
X154800Y193100D01*
Y196400D01*
X154000Y197200D01*
X152000D01*
X151400Y196600D01*
Y192200D01*
X151100Y191900D01*
X150500D01*
X150000Y192400D01*
Y196400D01*
X149600Y196800D01*
X149200D01*
X148800Y196400D01*
Y191700D01*
X148500Y191400D01*
X147800D01*
X147600Y191600D01*
Y196400D01*
X147200Y196800D01*
X146800D01*
X146400Y196400D01*
Y191000D01*
X146200Y190800D01*
X145600D01*
X145200Y191200D01*
Y197000D01*
X142200Y200000D01*
X140700D01*
G01X169700Y191800D02*
X167800D01*
X166100Y193500D01*
X157400D01*
X156600Y194300D01*
Y197600D01*
X155900Y198400D01*
X145600D01*
X145300Y198700D01*
Y199300D01*
X145700Y199700D01*
X152200D01*
X152600Y200100D01*
Y200800D01*
X152300Y201100D01*
X143000D01*
X142600Y201500D01*
Y202100D01*
X143000Y202500D01*
X153200D01*
X153600Y202900D01*
Y203600D01*
X153300Y203900D01*
X141600D01*
X137600Y199900D01*
G01Y203100D02*
X139400Y204900D01*
X142900D01*
X143300Y205300D01*
Y207300D01*
X143700Y207700D01*
X144600D01*
X145000Y207300D01*
Y205700D01*
X145400Y205300D01*
X147000D01*
X147400Y205700D01*
Y206700D01*
X147800Y207100D01*
X150400D01*
X151000Y206500D01*
Y205200D01*
X151300Y204900D01*
X153200D01*
X153700Y205400D01*
Y206600D01*
X154200Y207100D01*
X158100D01*
X160000Y205100D01*
X168800D01*
X169200Y205500D01*
Y208200D01*
X170100Y209100D01*
X195600D01*
X196100Y208600D01*
Y208100D01*
X195700Y207700D01*
X194100D01*
X193700Y207300D01*
Y206700D01*
X194100Y206300D01*
X197900D01*
X199600Y208000D01*
X219700D01*
X220000Y208300D01*
Y210100D01*
X219600Y210500D01*
X215400D01*
G01X137600Y206200D02*
X139100Y207700D01*
X140000D01*
X140400Y207300D01*
Y206700D01*
X140800Y206300D01*
X141600D01*
X142000Y206700D01*
Y207200D01*
X144800Y210000D01*
X145900D01*
X146300Y209600D01*
Y208400D01*
X146700Y208000D01*
X148000D01*
X148400Y208400D01*
Y210400D01*
X149000Y211000D01*
X150900D01*
X151300Y210600D01*
Y207800D01*
X152000Y207100D01*
X152500D01*
X153200Y207800D01*
Y210700D01*
X153600Y211100D01*
X154100D01*
X154400Y210800D01*
Y209100D01*
X154800Y208700D01*
X155200D01*
X155600Y209100D01*
Y210700D01*
X156000Y211100D01*
X156400D01*
X156800Y210700D01*
Y209100D01*
X157200Y208700D01*
X157600D01*
X158000Y209100D01*
Y210900D01*
X158200Y211100D01*
X158800D01*
X159200Y210700D01*
Y208300D01*
X159600Y207900D01*
X160400D01*
X160800Y208400D01*
Y210700D01*
X161200Y211100D01*
X161600D01*
X162000Y210700D01*
Y206700D01*
X162400Y206300D01*
X162800D01*
X163200Y206700D01*
Y210800D01*
X163600Y211100D01*
X164000D01*
X164400Y210700D01*
Y206700D01*
X164800Y206300D01*
X165200D01*
X165600Y206700D01*
Y210700D01*
X166000Y211100D01*
X166500D01*
X166800Y210800D01*
Y206700D01*
X167200Y206300D01*
X167600D01*
X168000Y206700D01*
Y210800D01*
X168400Y211200D01*
X170200D01*
X171200Y210200D01*
X199700D01*
X200100Y209800D01*
Y209200D01*
X199800Y208900D01*
X198300D01*
X198000Y208600D01*
G01X231200Y209900D02*
X233000Y208100D01*
Y205400D01*
X232600Y205000D01*
X226900D01*
X219800Y212100D01*
X213800D01*
X210800Y209100D01*
X202000D01*
X201600Y209500D01*
Y210800D01*
X201200Y211200D01*
X171900D01*
X170700Y212400D01*
X148900D01*
X147700Y211200D01*
X144500D01*
X142600Y209400D01*
X140700D01*
G01X239000Y221000D02*
Y218500D01*
X235000Y214500D01*
X181800D01*
X179600Y216700D01*
X172100D01*
X170300Y218500D01*
X150000D01*
X146300Y214800D01*
X141000D01*
X138700Y212500D01*
X137600D01*
G01X140700D02*
X141800Y213600D01*
X146800D01*
X150600Y217400D01*
X169600D01*
X171500Y215500D01*
X175500D01*
X177700Y213300D01*
X223000D01*
X224300Y212000D01*
X232100D01*
X233800Y210300D01*
X234800D01*
X235200Y210700D01*
Y212200D01*
X234800Y212600D01*
X234300D01*
G01X223200Y221700D02*
X224700Y220200D01*
X226900D01*
X227300Y219800D01*
Y216800D01*
X226900Y216400D01*
X217600D01*
X217200Y216800D01*
Y217700D01*
X216800Y218100D01*
X216000D01*
X215600Y217700D01*
Y216800D01*
X215200Y216400D01*
X214400D01*
X214000Y216800D01*
Y217700D01*
X213600Y218100D01*
X212800D01*
X212400Y217700D01*
Y216800D01*
X212000Y216400D01*
X211200D01*
X210800Y216800D01*
Y217700D01*
X210400Y218100D01*
X209600D01*
X209200Y217700D01*
Y216800D01*
X208800Y216400D01*
X198000D01*
X197400Y217000D01*
Y218800D01*
X197000Y219200D01*
X193500D01*
X193100Y218800D01*
Y217300D01*
X192500Y216700D01*
X182600D01*
X180200Y219100D01*
X173300D01*
X171400Y221000D01*
X149000D01*
X145200Y217200D01*
X139200D01*
X137600Y218800D01*
G01X226400Y221700D02*
X225300D01*
X224800Y222200D01*
Y222900D01*
X225200Y223300D01*
X226000D01*
X226400Y223700D01*
Y224800D01*
X226000Y225200D01*
X220300D01*
X218900Y223800D01*
Y222800D01*
X215500Y219400D01*
X211600D01*
X210700Y220300D01*
X207900D01*
X207500Y219900D01*
Y218200D01*
X207100Y217800D01*
X206300D01*
X205900Y218200D01*
Y219900D01*
X205500Y220300D01*
X204700D01*
X204300Y219900D01*
Y218200D01*
X203900Y217800D01*
X203100D01*
X202700Y218200D01*
Y219900D01*
X202300Y220300D01*
X201500D01*
X201100Y219900D01*
Y218200D01*
X200700Y217800D01*
X199900D01*
X199500Y218200D01*
Y219900D01*
X199100Y220300D01*
X191300D01*
X190900Y219900D01*
Y218400D01*
X190500Y218000D01*
X189700D01*
X189300Y218400D01*
Y219900D01*
X188900Y220300D01*
X174000D01*
X172000Y222300D01*
X148600D01*
X145100Y218800D01*
X140700D01*
G01X203200Y210800D02*
X205000D01*
X205400Y211200D01*
Y212000D01*
X205000Y212400D01*
X175300D01*
X174900Y212800D01*
Y214000D01*
X174700Y214300D01*
X173600D01*
X173300Y214000D01*
Y212500D01*
X172900Y212100D01*
X172500D01*
X171200Y213400D01*
X151500D01*
X151100Y213800D01*
Y214400D01*
X151500Y214800D01*
X169000D01*
X169400Y215200D01*
Y215700D01*
X169000Y216100D01*
X151000D01*
X147300Y212400D01*
X143300D01*
X141800Y210900D01*
X139700D01*
X139300Y210500D01*
Y209000D01*
X138800Y208500D01*
X138000D01*
X137600Y208900D01*
Y209400D01*
G01X199600Y224600D02*
Y226500D01*
X199400Y226700D01*
X198500D01*
X198100Y226300D01*
Y224700D01*
X197700Y224300D01*
X195200D01*
X194800Y224700D01*
Y227300D01*
X194000Y228100D01*
X189800D01*
X189000Y227300D01*
Y224900D01*
X188700Y224600D01*
X187800D01*
X187400Y225000D01*
Y227800D01*
X187000Y228200D01*
X186200D01*
X185800Y227800D01*
Y226100D01*
X185500Y225800D01*
X184300D01*
X181900Y228200D01*
X177000D01*
X174800Y226000D01*
X174100D01*
X173700Y226400D01*
Y227800D01*
X173300Y228200D01*
X172500D01*
X172100Y227800D01*
Y226400D01*
X171700Y226000D01*
X156000D01*
X155600Y226400D01*
Y227100D01*
X156100Y227600D01*
X168200D01*
X168600Y228000D01*
Y228600D01*
X168200Y229000D01*
X156200D01*
X153800Y231400D01*
X151400D01*
X148900Y228900D01*
Y226800D01*
X148500Y226400D01*
X146600D01*
X146200Y226800D01*
Y228400D01*
X145700Y228900D01*
X144500D01*
X140700Y225100D01*
G01X212200Y225000D02*
Y226200D01*
X211800Y226600D01*
X207700D01*
X205900Y228400D01*
X205300D01*
X204900Y228000D01*
Y224700D01*
X204500Y224300D01*
X203700D01*
X203300Y224700D01*
Y228000D01*
X202900Y228400D01*
X200000D01*
X199000Y229400D01*
X171500D01*
X170500Y230400D01*
X157700D01*
X157300Y230800D01*
Y233000D01*
X158000Y233700D01*
X166400D01*
X166800Y234100D01*
Y234800D01*
X166400Y235200D01*
X153300D01*
X148400Y230300D01*
X142800D01*
X137600Y225100D01*
G01X154800Y261000D02*
Y257400D01*
X154000Y256600D01*
X152400D01*
X152200Y256400D01*
Y255800D01*
X152600Y255400D01*
X155000D01*
X155200Y255200D01*
Y254600D01*
X154800Y254200D01*
X151000D01*
X150300Y253500D01*
Y250800D01*
X145400Y245800D01*
Y243000D01*
X145000Y242600D01*
X144400D01*
X144000Y243000D01*
Y245200D01*
X143600Y245600D01*
X143200D01*
X142800Y245200D01*
Y242700D01*
X142500Y242400D01*
X139100D01*
X137600Y240900D01*
G01X163200Y260900D02*
X161000Y258700D01*
Y252000D01*
X156700Y247700D01*
Y243000D01*
X148700Y235000D01*
X147600D01*
X147200Y234600D01*
Y233200D01*
X146800Y232800D01*
X146200D01*
X145600Y233400D01*
Y234600D01*
X145200Y235000D01*
X144200D01*
X143800Y234600D01*
Y233000D01*
X143600Y232800D01*
X142900D01*
X142500Y233200D01*
Y234300D01*
X142200Y234600D01*
X140700D01*
G01X165400Y269300D02*
X159200D01*
X158200Y268300D01*
Y263400D01*
X156600Y261800D01*
Y252600D01*
X154000Y250000D01*
X151600D01*
X150700Y249100D01*
Y248700D01*
X151000Y248400D01*
X152500D01*
X152900Y248000D01*
Y247400D01*
X152600Y247100D01*
X148700D01*
X146700Y245100D01*
Y241400D01*
X146200Y240900D01*
X140700D01*
G01X154400Y267600D02*
X154000D01*
X152400Y266000D01*
Y264200D01*
X152800Y263800D01*
Y262900D01*
X152400Y262500D01*
X151800D01*
X151000Y263300D01*
X149600D01*
X149000Y262700D01*
Y261800D01*
X149400Y261400D01*
X150100D01*
X150500Y261000D01*
Y255500D01*
X150200Y255200D01*
X149600D01*
X149200Y255600D01*
Y259200D01*
X148800Y259600D01*
X148000D01*
X147600Y259200D01*
Y255300D01*
X142200Y249900D01*
Y249300D01*
X142900Y248600D01*
X143700D01*
X148000Y252900D01*
X148600D01*
X149200Y252300D01*
Y251700D01*
X144800Y247200D01*
X142800D01*
X142000Y246400D01*
X140000D01*
X137600Y244000D01*
G01X178500Y321800D02*
X171700Y315000D01*
X164500D01*
X150400Y300900D01*
X145900D01*
G01X159500Y331900D02*
X163000Y328400D01*
Y320000D01*
X154900Y311900D01*
X144500D01*
G01X152000Y39000D02*
Y35500D01*
G01X160800Y185500D02*
X160000Y184700D01*
Y177500D01*
X156800Y174300D01*
X152000D01*
G01X171300Y193300D02*
X168400D01*
X166200Y195500D01*
Y196400D01*
X164800Y197800D01*
X160400D01*
X160000Y197400D01*
Y196800D01*
X160400Y196400D01*
X164000D01*
X164400Y196000D01*
Y195400D01*
X164000Y195000D01*
X158900D01*
X158400Y195500D01*
G01X168200Y196500D02*
X165700Y199000D01*
X158800D01*
X158200Y199600D01*
Y200000D01*
X158500Y200300D01*
X166300D01*
X166700Y200700D01*
Y201100D01*
X166300Y201500D01*
X158900D01*
X158500Y201900D01*
Y202400D01*
X158800Y202700D01*
X167700D01*
X168200Y203200D01*
Y203600D01*
X167900Y203900D01*
X159200D01*
X157600Y205500D01*
X155200D01*
G01X160100Y244100D02*
X161600Y242600D01*
X164400D01*
X168700Y246900D01*
Y249100D01*
X167200Y250600D01*
Y257100D01*
X168400Y258300D01*
X175200D01*
X176000Y257500D01*
X178800D01*
Y257600D01*
G01X159900Y246600D02*
X162700Y243800D01*
X164000D01*
X167300Y247100D01*
Y247700D01*
X166700Y248300D01*
X166200D01*
X164300Y246400D01*
X163800D01*
X163200Y247000D01*
Y247500D01*
X166000Y250300D01*
Y255000D01*
X165600Y255400D01*
X165000D01*
X164600Y255000D01*
Y251400D01*
X164200Y251000D01*
X163700D01*
X163400Y251300D01*
Y256600D01*
X168100Y261300D01*
Y262500D01*
X167700Y262900D01*
X163900D01*
X163500Y263300D01*
Y264800D01*
X163900Y265200D01*
X172900D01*
G01X174600Y354000D02*
X169000D01*
X162000Y361000D01*
X160000D01*
X158450Y359450D01*
Y356800D01*
G01X154550D02*
Y361550D01*
X155500Y362500D01*
X162500D01*
X166000Y359000D01*
X174600D01*
G01X171300Y177600D02*
X171200D01*
X169700Y176100D01*
G01X171300Y190200D02*
X169700Y191800D01*
G01X172900Y195000D02*
X171300Y193400D01*
Y193300D01*
G01X177600Y247800D02*
X176700D01*
X175700Y248800D01*
Y250939D01*
X174339Y252300D01*
X172500D01*
X172000Y252800D01*
Y254000D01*
G01X174400Y247800D02*
Y250400D01*
X173900Y250900D01*
X171900D01*
X170400Y252525D01*
Y255300D01*
G01X171300Y247800D02*
X171400D01*
X172900Y246300D01*
G01X171300Y260400D02*
X169700Y262000D01*
G01X171300Y263500D02*
Y263600D01*
X172900Y265200D01*
G01X170800Y299100D02*
X172100D01*
X194000Y321000D01*
Y338500D01*
X197500Y342000D01*
X214500D01*
X218000Y338500D01*
Y321000D01*
G01X220500D02*
Y339000D01*
X215500Y344000D01*
X196500D01*
X192000Y339500D01*
Y321500D01*
X171800Y301300D01*
G01X174400Y174500D02*
Y174400D01*
X172900Y172900D01*
G01X180700Y190200D02*
X181400Y189500D01*
Y182000D01*
X180400Y181000D01*
G01X174400Y177600D02*
X174500D01*
X174800Y178000D01*
Y184300D01*
X174400Y184700D01*
G01X176000Y172900D02*
X177600Y174500D01*
G01X183900Y177600D02*
X183200Y178300D01*
Y186600D01*
X183600Y187000D01*
G01X177600Y177600D02*
X177100D01*
X176100Y178600D01*
Y183700D01*
X176400Y183900D01*
G01X180700Y177600D02*
X179200Y176100D01*
G01X185500Y191800D02*
X183900Y190200D01*
G01X177600Y193300D02*
X176100Y191800D01*
X176000D01*
G01X179200D02*
X177600Y190200D01*
G01X191800Y195000D02*
Y198700D01*
X190800Y199700D01*
Y201300D01*
X189800Y202300D01*
X186000D01*
X184700Y201000D01*
X183400D01*
G01X191800Y246300D02*
X189300D01*
X188600Y245600D01*
Y237800D01*
X187400Y236600D01*
X181900D01*
G01X174400Y244700D02*
X172900Y243200D01*
Y243100D01*
G01X177600Y244700D02*
X179200Y246300D01*
G01X187000Y260400D02*
X187500Y259900D01*
Y258200D01*
X186700Y257400D01*
X182300D01*
X180000Y255100D01*
Y253100D01*
G01X183900Y247800D02*
Y251800D01*
X184400Y252300D01*
Y253900D01*
G01X190200Y260400D02*
X189400D01*
X188800Y259800D01*
Y257661D01*
X187239Y256100D01*
X182800D01*
X181600Y254900D01*
Y254300D01*
G01X179200Y249400D02*
Y249300D01*
X180700Y247800D01*
G01Y260400D02*
X181900D01*
X182300Y260000D01*
Y258900D01*
X177300Y253900D01*
Y252400D01*
G01X177600Y263500D02*
Y263600D01*
X176000Y265200D01*
G01X183900Y260400D02*
X185500Y262000D01*
G01X177600Y260400D02*
X179200Y262000D01*
G01X174600Y354000D02*
Y349000D01*
G01Y359000D02*
Y364000D01*
G01X199600Y177600D02*
X199400D01*
X198508Y178492D01*
Y179493D01*
X197301Y180700D01*
X194200D01*
X191400Y183500D01*
Y183900D01*
G01X187000Y190200D02*
X187100D01*
X187500Y189800D01*
Y188000D01*
X185200Y185800D01*
Y181800D01*
G01X187000Y174500D02*
X188600Y172900D01*
G01X189400Y183100D02*
X189900D01*
X193600Y179400D01*
X196762D01*
X197208Y178954D01*
Y178000D01*
X196808Y177600D01*
X196500D01*
G01X193300D02*
X191800Y176100D01*
G01X193300Y174500D02*
Y174400D01*
X191800Y172900D01*
G01X187000Y177600D02*
X185500Y176100D01*
G01X194900Y191800D02*
X193300Y190200D01*
G01X190200D02*
X189400D01*
X188800Y189600D01*
Y187500D01*
X186500Y185200D01*
Y183700D01*
X187000Y183200D01*
G01X190200Y193300D02*
Y193400D01*
X191800Y195000D01*
G01X185500D02*
Y194800D01*
X187000Y193300D01*
G01X199600Y190200D02*
X194900Y185500D01*
Y182400D01*
G01X196500Y190200D02*
X193400Y187100D01*
Y185500D01*
G01X195000Y202100D02*
X200600D01*
X201000Y201700D01*
Y200700D01*
X200600Y200300D01*
X198800D01*
X198400Y199900D01*
Y199100D01*
X198800Y198700D01*
X199400D01*
X199700Y198400D01*
Y196500D01*
X199600D01*
G01X185500Y243100D02*
X187000Y244600D01*
Y244700D01*
G01X189200Y253500D02*
Y252600D01*
X189600Y252200D01*
X196239D01*
X198500Y249939D01*
Y248900D01*
X199600Y247800D01*
G01X187000D02*
X185500Y246300D01*
G01X194900D02*
X193400Y247800D01*
X193300D01*
G01X199600Y260400D02*
X197600Y258400D01*
X196100D01*
X193400Y255700D01*
Y254100D01*
G01X191800Y246300D02*
Y246200D01*
X193300Y244700D01*
G01X196500Y247800D02*
X197200Y248500D01*
Y249400D01*
X195700Y250900D01*
X189061D01*
X187900Y252061D01*
Y252800D01*
X187200Y253500D01*
G01X199600Y266700D02*
X201200Y265100D01*
Y259200D01*
X199300Y257300D01*
X198100D01*
X196500Y255700D01*
G01X188600Y265200D02*
X187000Y263600D01*
Y263500D01*
G01X190200D02*
Y263600D01*
X191800Y265200D01*
G01X194900Y262000D02*
X193300Y260400D01*
G01X196500D02*
X194900Y258800D01*
X193400D01*
X191800Y257200D01*
Y255700D01*
G01X205900Y177600D02*
Y182300D01*
X206000Y182400D01*
G01X198100Y172900D02*
Y172800D01*
X199600Y171300D01*
G01X202800Y180800D02*
Y177600D01*
G01Y193300D02*
X201300Y194800D01*
Y198400D01*
X202800Y199900D01*
X205600D01*
X206000Y200300D01*
Y201200D01*
X205600Y201600D01*
X203100D01*
X202600Y202100D01*
Y202700D01*
X203200Y203300D01*
X205400D01*
X205800Y203700D01*
Y204500D01*
X205400Y204900D01*
X201700D01*
X201200Y204400D01*
G01X202800Y190200D02*
X199700Y187100D01*
Y182400D01*
G01X205900Y193300D02*
X207500Y191700D01*
Y185500D01*
G01X205900Y190200D02*
X204400Y188700D01*
Y185500D01*
G01X202800Y244700D02*
X204400Y243100D01*
Y235300D01*
X201500Y232400D01*
Y230900D01*
G01X206000Y237500D02*
Y236500D01*
X206800Y235700D01*
X208100D01*
X210200Y233600D01*
Y231100D01*
X211000Y230300D01*
X219000D01*
X219400Y229900D01*
Y228300D01*
X219000Y227900D01*
X209200D01*
X207500Y229600D01*
G01X201000Y242900D02*
Y249615D01*
X198100Y252600D01*
G01X200972Y242872D02*
X201000D01*
Y242900D01*
G01X200972Y242872D02*
X201000Y242900D01*
G01X199600Y241500D02*
X200972Y242872D01*
G01X205900Y247800D02*
Y252500D01*
X206000Y252600D01*
G01X202800Y247800D02*
Y252600D01*
G01Y263500D02*
X204300Y262000D01*
X204400D01*
G01X199700Y255700D02*
X202800Y258800D01*
Y260400D01*
G01X205900Y263500D02*
X207500Y261900D01*
Y255700D01*
G01X205900Y260400D02*
X204400Y258900D01*
Y255700D01*
G01X204000Y318500D02*
X208500D01*
X209100Y317900D01*
Y313300D01*
G01Y327100D02*
Y320600D01*
X208200Y319700D01*
X205800D01*
X204000Y321500D01*
G01X218500Y177600D02*
X225300D01*
X225800Y178100D01*
Y178700D01*
X225600Y178900D01*
X224600D01*
X224400Y179100D01*
Y180100D01*
X224600Y180300D01*
X225800D01*
X226400Y180900D01*
Y185500D01*
G01X229600D02*
Y180700D01*
X225000Y176100D01*
X217000D01*
X215400Y174500D01*
G01Y177600D02*
X216900Y179100D01*
X221600D01*
X223300Y180800D01*
Y185500D01*
G01X209100Y177600D02*
Y178800D01*
X210700Y180400D01*
Y185500D01*
G01X218500Y174500D02*
X224700D01*
X232700Y182600D01*
Y185500D01*
G01X209100Y174500D02*
X210700Y176100D01*
Y178400D01*
X213800Y181500D01*
Y185500D01*
G01X212200Y177600D02*
Y178300D01*
X214700Y180800D01*
X216300D01*
X217000Y181500D01*
Y185500D01*
G01X212200Y174500D02*
X213800Y176100D01*
Y178200D01*
X215500Y179900D01*
X218300D01*
X220100Y181700D01*
Y185500D01*
G01X209100Y190200D02*
Y182400D01*
G01X212200Y190200D02*
Y189300D01*
X214100Y187400D01*
X215100D01*
X215400Y187100D01*
Y182400D01*
G01Y190200D02*
X216900Y188700D01*
X219100D01*
X221700Y186100D01*
Y182400D01*
G01X218500Y190200D02*
X221700D01*
X224900Y187100D01*
Y182400D01*
G01X218500Y193300D02*
X225000D01*
X231200Y187100D01*
Y183900D01*
G01X209100Y193300D02*
X209700D01*
X210700Y192300D01*
Y188700D01*
X212300Y187100D01*
Y182400D01*
G01X215400Y193300D02*
X216900Y191800D01*
X223300D01*
X228000Y187100D01*
Y182400D01*
G01X212200Y193300D02*
X213800Y191700D01*
Y189600D01*
X214900Y188500D01*
X215600D01*
X216500Y187600D01*
X217600D01*
X218600Y186600D01*
Y182400D01*
G01X218500Y247800D02*
X224000D01*
X226400Y250200D01*
Y255700D01*
G01X215400Y244700D02*
X217000Y246300D01*
X224900D01*
X229600Y251000D01*
Y255700D01*
G01X209100Y252600D02*
Y260400D01*
G01X215400Y247800D02*
X216900Y249400D01*
X221800D01*
X223300Y250900D01*
Y255700D01*
G01X212200Y260400D02*
Y259600D01*
X215400Y256400D01*
Y252600D01*
G01X209100Y247800D02*
Y249300D01*
X210700Y250900D01*
Y255700D01*
G01X218500Y244700D02*
X225700D01*
X232700Y251700D01*
Y255700D01*
G01X209100Y263500D02*
X210800Y261800D01*
Y258900D01*
X212300Y257400D01*
Y252600D01*
G01X209100Y244700D02*
X210700Y246300D01*
Y248700D01*
X213800Y251800D01*
Y255700D01*
G01X212200Y263500D02*
X213800Y261900D01*
Y259800D01*
X215800Y257800D01*
X217400D01*
X218600Y256600D01*
Y252600D01*
G01X212200Y247800D02*
Y248600D01*
X214700Y251100D01*
X216300D01*
X217000Y251800D01*
Y255700D01*
G01X220100D02*
Y251900D01*
X218500Y250300D01*
X215600D01*
X213800Y248500D01*
Y246300D01*
X212300Y244700D01*
X212200D01*
G01X221700Y252600D02*
Y258300D01*
X221300Y258700D01*
X217100D01*
X215400Y260400D01*
G01X218500D02*
X221800D01*
X224900Y257300D01*
Y252600D01*
G01X218500Y263500D02*
X225000D01*
X231200Y257300D01*
Y252600D01*
G01X215400Y263500D02*
X216800Y262100D01*
X223200D01*
X228000Y257300D01*
Y252600D01*
G01X254200Y216700D02*
Y218900D01*
G01D02*
Y223500D01*
G01X260600Y233700D02*
X260400Y233500D01*
X257500D01*
G01X254400Y233600D02*
X254500Y233500D01*
X257500D01*
G01X259800Y218900D02*
Y218000D01*
G01X269300Y256500D02*
Y218100D01*
G01X259800Y213000D02*
X260200Y213400D01*
X269300D01*
G01X259800Y212100D02*
Y213000D01*
G01Y218000D02*
Y213000D01*
G01X269300Y218000D02*
X259800D01*
G01X269300D02*
Y213400D01*
G01Y218100D02*
Y218000D01*
G01X269700Y265800D02*
X273900D01*
G01X269700Y269600D02*
Y271500D01*
G01X274000Y246100D02*
X278300Y241700D01*
Y216900D01*
X274900Y213400D01*
G01Y208000D02*
Y213400D01*
G01X278900Y208000D02*
X274900D01*
G01X274000Y258500D02*
Y263100D01*
G01X273900Y265800D02*
X274000D01*
Y263100D01*
M02*
