G04 ================== begin FILE IDENTIFICATION RECORD ==================*
G04 Layout Name:  layout_12.brd*
G04 Film Name:    Gerber_PASTE_BOTTOM_RK3188_v2*
G04 File Format:  Gerber RS274X*
G04 File Origin:  Cadence Allegro 16.6-S008*
G04 Origin Date:  Mon Aug 22 09:39:46 2016*
G04 *
G04 Layer:  PIN/PASTEMASK_BOTTOM*
G04 Layer:  PACKAGE GEOMETRY/PASTEMASK_BOTTOM*
G04 Layer:  DRAWING FORMAT/PASTEMASK_BOTTOM*
G04 Layer:  BOARD GEOMETRY/OUTLINE*
G04 Layer:  BOARD GEOMETRY/LOGO_M*
G04 *
G04 Offset:    (0.00 0.00)*
G04 Mirror:    No*
G04 Mode:      Positive*
G04 Rotation:  0*
G04 FullContactRelief:  No*
G04 UndefLineWidth:     5.00*
G04 ================== end FILE IDENTIFICATION RECORD ====================*
%FSLAX25Y25*MOIN*%
%IR0*IPPOS*OFA0.00000B0.00000*MIA0B0*SFA1.00000B1.00000*%
%ADD45R,.11X.047*%
%ADD41O,.118X.063*%
%AMMACRO16*
4,1,4,.008,-.012,
-.008,-.012,
-.008,.012,
.008,.012,
.008,-.012,
0.0*
%
%ADD16MACRO16*%
%AMMACRO15*
4,1,4,.008,-.012,
-.008,-.012,
-.008,.012,
.008,.012,
.008,-.012,
0.0*
%
%ADD15MACRO15*%
%ADD39C,.015*%
%ADD34R,.032X.169*%
%ADD13R,.02X.02*%
%ADD33R,.04X.04*%
%ADD37R,.052X.052*%
%ADD29R,.024X.02*%
%ADD40R,.02X.024*%
%ADD22R,.05X.04*%
%ADD31R,.04X.05*%
%ADD10R,.044X.03*%
%ADD36R,.025X.05*%
%ADD32R,.042X.026*%
%ADD17R,.06X.044*%
%ADD20R,.026X.042*%
%ADD43R,.028X.024*%
%ADD18R,.04X.048*%
%ADD48R,.041X.039*%
%ADD44R,.024X.028*%
%ADD12R,.054X.062*%
%ADD11R,.072X.044*%
%ADD30O,.026X.049*%
%AMMACRO25*
4,1,4,-.008,.012,
.008,.012,
.008,-.012,
-.008,-.012,
-.008,.012,
0.0*
%
%ADD25MACRO25*%
%ADD21R,.055X.053*%
%ADD19R,.028X.035*%
%ADD47R,.032X.067*%
%AMMACRO46*
4,1,4,.012,.008,
.012,-.008,
-.012,-.008,
-.012,.008,
.012,.008,
0.0*
%
%ADD46MACRO46*%
%ADD28R,.035X.028*%
%AMMACRO26*
4,1,4,-.008,.012,
.008,.012,
.008,-.012,
-.008,-.012,
-.008,.012,
0.0*
%
%ADD26MACRO26*%
%AMMACRO49*
4,1,4,.012,.008,
.012,-.008,
-.012,-.008,
-.012,.008,
.012,.008,
0.0*
%
%ADD49MACRO49*%
%ADD38R,.085X.07*%
%ADD50R,.087X.041*%
%ADD35R,.028X.083*%
%ADD27R,.036X.048*%
%ADD23R,.054X.076*%
%ADD24R,.039X.055*%
%ADD42R,.093X.096*%
%ADD14R,.096X.093*%
%ADD51C,.005*%
G75*
%LPD*%
G75*
G54D10*
X4700Y106600D03*
Y110900D03*
Y115300D03*
Y119600D03*
Y123900D03*
Y128300D03*
Y132600D03*
Y136900D03*
G54D11*
X6100Y101800D03*
G54D20*
X31200Y267800D03*
X38600D03*
Y276400D03*
X34900D03*
X31200D03*
G54D21*
X31500Y288200D03*
Y295200D03*
G54D30*
X74240Y355063D03*
X66760D03*
X70500Y362937D03*
X88240Y355063D03*
X80760D03*
X84500Y362937D03*
X94760Y355063D03*
X98500Y362937D03*
X102240Y355063D03*
G54D12*
X5200Y146400D03*
G54D31*
X82400Y236300D03*
X90400D03*
X121000Y225100D03*
X129000D03*
G54D22*
X40000Y287500D03*
Y295500D03*
X101300Y205900D03*
Y213900D03*
X91200Y243100D03*
Y251100D03*
X120800Y206200D03*
Y214200D03*
G54D40*
X164800Y374500D03*
X161200D03*
X164800Y386500D03*
X161200D03*
X164800Y380500D03*
X161200D03*
G54D13*
X6500Y209800D03*
Y213600D03*
X29000Y205000D03*
X36700Y206300D03*
X32900D03*
X36700Y202000D03*
X32900D03*
X29000Y208800D03*
X38600Y262000D03*
X30600D03*
X34400D03*
X30600Y282000D03*
X34400D03*
X42400Y262000D03*
X57500Y70100D03*
Y73900D03*
Y81900D03*
Y78100D03*
Y95100D03*
Y98900D03*
Y106900D03*
Y103100D03*
X56600Y312300D03*
X52800D03*
Y316300D03*
X56600D03*
X52800Y320300D03*
X56600D03*
X52800Y324300D03*
X56600D03*
X70300Y191100D03*
X66500D03*
X71000Y240800D03*
Y244600D03*
X69600Y297900D03*
Y301700D03*
X64700D03*
Y297900D03*
X74200Y294700D03*
X86300Y203700D03*
Y208100D03*
X87400Y217500D03*
Y221300D03*
X77500Y282500D03*
Y286300D03*
X85300Y299700D03*
X78000Y294700D03*
X87000Y307200D03*
X81000Y385100D03*
X84800D03*
X91000Y121600D03*
Y125400D03*
X91800Y146500D03*
X88000D03*
X97200Y148500D03*
X90100Y203700D03*
X94800Y202800D03*
Y206600D03*
X95900Y212500D03*
X92100D03*
X95900Y217500D03*
X92100D03*
X90100Y208100D03*
X91700Y227600D03*
X87900D03*
X95900Y221600D03*
X92100D03*
X97100Y235900D03*
Y240300D03*
X95100Y290300D03*
X90500Y291600D03*
Y287800D03*
X89100Y299700D03*
X95100Y294100D03*
X91300Y315300D03*
Y311500D03*
X90800Y307200D03*
X95100Y306000D03*
X98900D03*
X99400Y310300D03*
X95600D03*
X100500Y144300D03*
Y140500D03*
X109400Y144300D03*
Y140500D03*
X104900Y144300D03*
Y140500D03*
X102900Y155700D03*
Y151900D03*
X107300Y155700D03*
Y151900D03*
X101000Y148500D03*
X107200Y204900D03*
X111500D03*
X107200Y208700D03*
X111500D03*
X110500Y230400D03*
X106300D03*
X110500Y234200D03*
X106300D03*
X109300Y239500D03*
Y243300D03*
X100900Y235900D03*
Y240300D03*
X108000Y302400D03*
X104200D03*
X108000Y293900D03*
X104200D03*
X108000Y298100D03*
X104200D03*
X104900Y384900D03*
X108700D03*
X115200Y188700D03*
X119000D03*
X115200Y192800D03*
X119000D03*
X115200Y196800D03*
X119000D03*
X123600Y199900D03*
X119000Y201100D03*
X115200D03*
X115500Y211800D03*
Y208000D03*
X121200Y219200D03*
X114800Y230400D03*
X119500D03*
X124100D03*
X114800Y234200D03*
X119500D03*
X122200Y243900D03*
Y239700D03*
X124100Y234200D03*
X114200Y238100D03*
X118000D03*
X122200Y248100D03*
X126300Y161600D03*
Y165400D03*
X135400Y174600D03*
Y178400D03*
Y186800D03*
Y183000D03*
X125300Y186800D03*
Y183000D03*
X130900Y186800D03*
Y183000D03*
X127400Y199900D03*
X134500Y203100D03*
X130700D03*
X134400Y207100D03*
X130600D03*
X126800Y213200D03*
Y209400D03*
X131300Y215000D03*
Y218800D03*
X125000Y219200D03*
X134100Y230100D03*
X126000Y243900D03*
Y239700D03*
X131300Y240200D03*
Y236400D03*
X126000Y248100D03*
X140500Y121600D03*
Y125400D03*
X137900Y230100D03*
X160800Y303100D03*
Y306900D03*
X150000Y315500D03*
X153800D03*
X150000Y320300D03*
X153800D03*
X171500Y206300D03*
X164600Y303200D03*
Y307000D03*
X183300Y206300D03*
X179500D03*
X175300D03*
X184200Y231200D03*
X180400D03*
X173200D03*
X177000D03*
X174600Y349000D03*
X178400D03*
X174600Y354000D03*
X178400D03*
Y364000D03*
X174600D03*
Y359000D03*
X178400D03*
X187400Y206300D03*
X191200D03*
X188000Y231200D03*
X191800D03*
X196500Y370600D03*
Y374400D03*
X201500Y230900D03*
X205300D03*
X244200Y168700D03*
Y173100D03*
Y177500D03*
Y181900D03*
Y190800D03*
Y194600D03*
Y186500D03*
Y198800D03*
Y203200D03*
Y212000D03*
Y216400D03*
Y207600D03*
Y220800D03*
Y229600D03*
Y225200D03*
Y234000D03*
Y238400D03*
Y242800D03*
Y247200D03*
X248000Y168700D03*
X256000Y176500D03*
Y172700D03*
Y180700D03*
X248000Y173100D03*
Y177500D03*
Y181900D03*
Y186500D03*
X253200Y197100D03*
X257000D03*
X248000Y198800D03*
Y203200D03*
Y212000D03*
Y216400D03*
Y207600D03*
X254200Y227300D03*
Y223500D03*
X248000Y220800D03*
Y229600D03*
Y225200D03*
Y234000D03*
Y238400D03*
Y242800D03*
Y247200D03*
X270000Y156400D03*
X266200D03*
X268600Y181100D03*
Y177300D03*
X259800Y180700D03*
X264000Y181100D03*
Y177300D03*
X269700Y265800D03*
Y269600D03*
X265300Y315100D03*
Y311000D03*
X261500D03*
X265300Y318900D03*
Y323000D03*
X261500D03*
G54D14*
X16500Y268300D03*
Y292700D03*
X254000Y25800D03*
Y50200D03*
G54D23*
X47100Y109800D03*
Y133300D03*
G54D50*
X275400Y305200D03*
Y316800D03*
G54D32*
X90600Y377500D03*
X99200D03*
X90600Y381200D03*
Y384900D03*
X99200D03*
G54D41*
X209100Y302300D03*
Y313300D03*
Y327100D03*
Y337000D03*
X257900Y331100D03*
Y338900D03*
G54D51*
G01X0Y200D02*
Y392700D01*
X282300D01*
Y200D01*
X0D01*
G54D42*
X250300Y110000D03*
X274700D03*
G54D24*
X51500Y306100D03*
X55200Y297500D03*
X58900Y306100D03*
X256100Y203500D03*
X266300Y171400D03*
X262600Y162800D03*
X270000D03*
X266300Y195600D03*
X262600Y187000D03*
X270000D03*
X263500Y203500D03*
X259800Y212100D03*
G54D33*
X120700Y137900D03*
Y143900D03*
X149800Y149500D03*
Y155500D03*
G54D15*
X25000Y375000D03*
X28500D03*
G54D25*
X54000Y142500D03*
X254400Y233600D03*
X273900Y265800D03*
G54D43*
X257000Y186700D03*
Y192300D03*
G54D34*
X119050Y348900D03*
X162450D03*
G54D16*
X25000Y379000D03*
X28500D03*
G54D35*
X123050Y356800D03*
X126950D03*
X130950D03*
X134850D03*
X138750D03*
X142750D03*
X146650D03*
X150550D03*
X154550D03*
X158450D03*
G54D26*
X54000Y146500D03*
X254400Y237600D03*
X273900Y269800D03*
G54D44*
X254200Y218900D03*
X269300Y213400D03*
Y208000D03*
X259800Y218900D03*
X274900Y213400D03*
Y208000D03*
G54D17*
X41000Y46000D03*
Y56000D03*
X64000Y46000D03*
Y56000D03*
X79000Y38000D03*
Y28000D03*
X102000D03*
Y38000D03*
G54D27*
X55300Y289800D03*
X68100D03*
G54D18*
X28700Y146700D03*
X43300D03*
G54D36*
X127000Y18000D03*
X132000D03*
Y39000D03*
X127000D03*
X137000Y18000D03*
X142000D03*
X147000D03*
X137000Y39000D03*
X147000D03*
X142000D03*
X152000Y18000D03*
X157000D03*
X152000Y39000D03*
X157000D03*
X162000Y18000D03*
Y39000D03*
G54D45*
X273500Y83600D03*
Y95400D03*
G54D28*
X69600Y306100D03*
Y311700D03*
X82500Y292600D03*
Y287000D03*
X104900Y130300D03*
Y135900D03*
X127500Y143900D03*
Y138300D03*
X170000Y25700D03*
Y31300D03*
G54D46*
X269300Y218100D03*
G54D19*
X30700Y257000D03*
X36300D03*
X84700Y377500D03*
X79100D03*
X95700Y226300D03*
Y231400D03*
X94300Y300900D03*
X99900D03*
X101300Y226300D03*
Y231400D03*
X105200Y377500D03*
X110800D03*
X136800Y11000D03*
X131200D03*
X142700D03*
X148300D03*
X160300D03*
X154700D03*
X156700Y46500D03*
X162300D03*
X178900Y329900D03*
X184500D03*
X269200Y202500D03*
X274800D03*
G54D37*
X130200Y374300D03*
Y380400D03*
Y386500D03*
X152100Y374300D03*
Y380400D03*
Y386500D03*
G54D38*
X165000Y65000D03*
Y81000D03*
X235000Y26000D03*
Y42000D03*
G54D47*
X260600Y233700D03*
Y246100D03*
Y258500D03*
X274000Y233700D03*
Y246100D03*
Y258500D03*
G54D29*
X74500Y345700D03*
Y349300D03*
X79500D03*
Y345700D03*
X88000Y349300D03*
Y345700D03*
X93000D03*
Y349300D03*
X102000Y345700D03*
Y349300D03*
X107000D03*
Y345700D03*
G54D48*
X269400Y311000D03*
G54D39*
X171300Y177600D03*
Y174500D03*
Y171300D03*
Y193300D03*
Y190200D03*
Y196500D03*
Y241500D03*
Y247800D03*
Y244700D03*
Y266700D03*
Y263500D03*
Y260400D03*
X174400Y177600D03*
Y174500D03*
Y171300D03*
X177600Y177600D03*
Y174500D03*
Y171300D03*
X180700Y177600D03*
Y174500D03*
Y171300D03*
X183900Y177600D03*
Y174500D03*
Y171300D03*
X174400Y193300D03*
Y190200D03*
X177600Y193300D03*
Y190200D03*
X180700Y193300D03*
Y190200D03*
X183900Y193300D03*
Y190200D03*
X174400Y196500D03*
X177600D03*
X180700D03*
X183900D03*
X174400Y241500D03*
X177600D03*
X180700D03*
X183900D03*
X174400Y247800D03*
Y244700D03*
X177600Y247800D03*
Y244700D03*
X180700Y247800D03*
Y244700D03*
X183900Y247800D03*
Y244700D03*
X174400Y266700D03*
Y263500D03*
Y260400D03*
X177600Y266700D03*
Y263500D03*
Y260400D03*
X180700Y266700D03*
Y263500D03*
Y260400D03*
X183900Y266700D03*
Y263500D03*
Y260400D03*
X187000Y177600D03*
Y174500D03*
Y171300D03*
X190200Y177600D03*
Y174500D03*
Y171300D03*
X193300Y177600D03*
Y174500D03*
Y171300D03*
X196500Y177600D03*
Y174500D03*
Y171300D03*
X187000Y193300D03*
Y190200D03*
X190200Y193300D03*
Y190200D03*
X193300Y193300D03*
Y190200D03*
X196500Y193300D03*
Y190200D03*
X187000Y196500D03*
X190200D03*
X193300D03*
X196500D03*
X187000Y241500D03*
X190200D03*
X193300D03*
X196500D03*
X187000Y247800D03*
Y244700D03*
X190200Y247800D03*
Y244700D03*
X193300Y247800D03*
Y244700D03*
X196500Y247800D03*
Y244700D03*
X187000Y266700D03*
Y263500D03*
Y260400D03*
X190200Y266700D03*
Y263500D03*
Y260400D03*
X193300Y266700D03*
Y263500D03*
Y260400D03*
X196500Y266700D03*
Y263500D03*
Y260400D03*
X199600Y177600D03*
Y174500D03*
Y171300D03*
X202800Y177600D03*
Y174500D03*
Y171300D03*
X205900Y177600D03*
Y174500D03*
Y171300D03*
X209100Y177600D03*
Y174500D03*
Y171300D03*
X199600Y193300D03*
Y190200D03*
X202800Y193300D03*
Y190200D03*
X205900Y193300D03*
Y190200D03*
X209100Y193300D03*
Y190200D03*
X199600Y196500D03*
X202800D03*
X205900D03*
X209100D03*
X199600Y241500D03*
X202800D03*
X205900D03*
X209100D03*
X199600Y247800D03*
Y244700D03*
X202800Y247800D03*
Y244700D03*
X205900Y247800D03*
Y244700D03*
X209100Y247800D03*
Y244700D03*
X199600Y266700D03*
Y263500D03*
Y260400D03*
X202800Y266700D03*
Y263500D03*
Y260400D03*
X205900Y266700D03*
Y263500D03*
Y260400D03*
X209100Y266700D03*
Y263500D03*
Y260400D03*
X212200Y177600D03*
Y174500D03*
Y171300D03*
X215400Y177600D03*
Y174500D03*
Y171300D03*
X218500Y177600D03*
Y174500D03*
Y171300D03*
X212200Y193300D03*
Y190200D03*
X215400Y193300D03*
Y190200D03*
X218500Y193300D03*
Y190200D03*
X212200Y196500D03*
X215400D03*
X218500D03*
X212200Y241500D03*
X215400D03*
X218500D03*
X212200Y247800D03*
Y244700D03*
X215400Y247800D03*
Y244700D03*
X218500Y247800D03*
Y244700D03*
X212200Y266700D03*
Y263500D03*
Y260400D03*
X215400Y266700D03*
Y263500D03*
Y260400D03*
X218500Y266700D03*
Y263500D03*
Y260400D03*
G54D49*
X273300Y218100D03*
M02*
