G04 ================== begin FILE IDENTIFICATION RECORD ==================*
G04 Layout Name:  layout_12.brd*
G04 Film Name:    Gerber_GND5_RK3188_v2*
G04 File Format:  Gerber RS274X*
G04 File Origin:  Cadence Allegro 16.6-S008*
G04 Origin Date:  Mon Aug 22 09:39:44 2016*
G04 *
G04 Layer:  VIA CLASS/GND5*
G04 Layer:  PIN/GND5*
G04 Layer:  ETCH/GND5*
G04 Layer:  DRAWING FORMAT/GND5*
G04 Layer:  BOARD GEOMETRY/OUTLINE*
G04 Layer:  BOARD GEOMETRY/LOGO*
G04 *
G04 Offset:    (0.00 0.00)*
G04 Mirror:    No*
G04 Mode:      Positive*
G04 Rotation:  0*
G04 FullContactRelief:  No*
G04 UndefLineWidth:     5.00*
G04 ================== end FILE IDENTIFICATION RECORD ====================*
%FSLAX25Y25*MOIN*%
%IR0*IPPOS*OFA0.00000B0.00000*MIA0B0*SFA1.00000B1.00000*%
%ADD19O,.06X.125*%
%ADD16C,.02*%
%ADD18C,.032*%
%ADD15C,.06*%
%ADD11C,.016*%
%ADD20C,.035*%
%ADD13C,.08*%
%ADD17C,.055*%
%ADD14C,.065*%
%ADD12C,.06693*%
%ADD10C,.12*%
%ADD21C,.015*%
%ADD22C,.005*%
%ADD32C,.04004*%
%ADD25C,.02404*%
%ADD23O,.07604X.14104*%
%ADD31C,.07104*%
%ADD36C,.06304*%
%ADD34C,.08104*%
%ADD35C,.02804*%
%ADD30C,.07604*%
%ADD28C,.08604*%
%ADD33C,.09604*%
%ADD27C,.08296*%
%ADD29C,.15104*%
%ADD24C,.13604*%
%ADD26R,.08296X.08296*%
G75*
%LPD*%
G75*
G36*
G01X1001Y1200D02*
Y391600D01*
X69011D01*
G02X69294Y390917I0J-400D01*
G01X64188Y385812D01*
G02X63589Y385851I-282J283D01*
G03X54049Y376311I-5389J-4151D01*
G02X54088Y375712I-244J-317D01*
G01X29998Y351622D01*
Y322166D01*
G02X29324Y321875I-400J0D01*
G03X28574Y322200I-824J-875D01*
G02X28200Y322574I25J399D01*
G03X27074Y323700I-1200J-74D01*
G02X26700Y324074I25J399D01*
G03X25574Y325200I-1200J-74D01*
G02X25200Y325574I25J399D01*
G03X24074Y326700I-1200J-74D01*
G02X23700Y327074I25J399D01*
G03X22574Y328200I-1200J-74D01*
G02X22200Y328574I25J399D01*
G03X21074Y329700I-1200J-74D01*
G02X20700Y330074I25J399D01*
G03X18300I-1200J-74D01*
G02X17926Y329700I-399J25D01*
G03X19199Y328587I74J-1200D01*
G02X19413Y328801I199J15D01*
G03X19426Y328800I99J1198D01*
G02X19800Y328426I-25J-399D01*
G03X20926Y327300I1200J74D01*
G02X21300Y326926I-25J-399D01*
G03X22426Y325800I1200J74D01*
G02X22800Y325426I-25J-399D01*
G03X23926Y324300I1200J74D01*
G02X24300Y323926I-25J-399D01*
G03X25426Y322800I1200J74D01*
G02X25800Y322426I-25J-399D01*
G03X26926Y321300I1200J74D01*
G02X27300Y320926I-25J-399D01*
G03X29324Y320125I1200J74D01*
G02X29998Y319834I274J-291D01*
G01Y247842D01*
G02X29424Y247482I-400J0D01*
G03Y245318I-524J-1082D01*
G02X29998Y244958I174J-360D01*
G01Y195865D01*
G03Y194535I1002J-665D01*
G01Y160295D01*
G03X31608Y158529I902J-795D01*
G01X31747Y158630D01*
X36878Y153498D01*
X62622D01*
X64802Y155678D01*
Y158822D01*
X62622Y161002D01*
X57886D01*
G02X57515Y161551I0J400D01*
G03X55600Y162897I-1115J449D01*
G03X54876Y163200I-801J-897D01*
G02X54502Y163599I26J399D01*
G01Y193179D01*
G02X55225Y193414I400J0D01*
G03Y198186I3275J2386D01*
G02X54502Y198421I-323J235D01*
G01Y277835D01*
G03X54501Y279165I-1002J664D01*
G01Y326378D01*
X99622Y371498D01*
X134909D01*
G02X135192Y370816I0J-400D01*
G01X134246Y369869D01*
G02X133598Y369989I-283J283D01*
G03X131562Y370252I-1098J-489D01*
G02X130938I-312J250D01*
G03X129062I-938J-752D01*
G02X128438I-312J250D01*
G03Y368748I-938J-752D01*
G02X129062I312J-250D01*
G03X130938I938J752D01*
G02X131562I312J-250D01*
G03X132011Y368402I938J752D01*
G02X132131Y367754I-163J-365D01*
G01X131878Y367502D01*
X118378D01*
X108998Y358122D01*
Y286626D01*
G02X108374Y286295I-400J0D01*
G03Y284305I-674J-995D01*
G02X108998Y283974I224J-331D01*
G01Y280326D01*
G02X108374Y279995I-400J0D01*
G03Y278005I-674J-995D01*
G02X108998Y277674I224J-331D01*
G01Y248394D01*
X108856Y248352D01*
G03Y246048I344J-1152D01*
G01X108998Y246006D01*
Y238894D01*
X108856Y238852D01*
G03X108019Y237476I344J-1152D01*
G02X107626Y237002I-393J-74D01*
G01X107210D01*
Y237238D01*
X107223Y237273D01*
G03X104919Y237476I-1123J427D01*
G02X104526Y237002I-393J-74D01*
G01X98174D01*
G02X97781Y237476I0J400D01*
G03X96164Y236580I-1181J224D01*
G02X96301Y235925I-146J-372D01*
G01X95275Y234899D01*
G02X94620Y235036I-283J283D01*
G03X93064Y233480I-1120J-436D01*
G02X93201Y232825I-146J-372D01*
G01X92075Y231699D01*
G02X91420Y231836I-283J283D01*
G03X89864Y230280I-1120J-436D01*
G02X90001Y229625I-146J-372D01*
G01X79298Y218922D01*
Y218699D01*
X78912D01*
X78899Y218885D01*
G03X78599Y218002I-1199J-85D01*
G02X79298Y217737I299J-265D01*
G01Y194478D01*
X79765Y194012D01*
X79736Y193901D01*
G03X81201Y192436I1164J-301D01*
G01X81312Y192465D01*
X86065Y187712D01*
X86036Y187601D01*
G03X87501Y186136I1164J-301D01*
G01X87612Y186165D01*
X97178Y176598D01*
X129706D01*
X129748Y176456D01*
G03X132052I1152J344D01*
G01X132094Y176598D01*
X136422D01*
X143114Y183291D01*
G03X144809Y184986I786J909D01*
G01X149102Y189278D01*
Y203901D01*
G02X149526Y204300I400J0D01*
G03Y206700I74J1200D01*
G02X149102Y207099I-24J399D01*
G01Y241302D01*
X149201Y241359D01*
G03Y243441I-601J1041D01*
G01X149102Y243498D01*
Y265275D01*
X164919Y280998D01*
X199122D01*
X203500Y285377D01*
X203878Y284998D01*
X208622D01*
X210502Y286878D01*
Y311122D01*
X206622Y315002D01*
X196622D01*
X196002Y315622D01*
Y332378D01*
X199122Y335498D01*
X227378D01*
X229591Y333286D01*
G03X231286Y331591I909J-786D01*
G01X237998Y324878D01*
Y221665D01*
G03X237800Y221074I1002J-664D01*
G02X237426Y220700I-399J25D01*
G03X237136Y220646I73J-1200D01*
G02X236908Y220945I-60J191D01*
G03X235959Y220399I-1008J655D01*
G02X236358Y219875I19J-399D01*
G03X237574Y218300I1142J-375D01*
G02X237998Y217901I24J-399D01*
G01Y125622D01*
X225998Y113622D01*
Y87878D01*
X227378Y86498D01*
X281200D01*
Y1200D01*
X1001D01*
G37*
G36*
G01X228000Y88000D02*
X227500Y88500D01*
Y113000D01*
X239500Y125000D01*
Y219901D01*
X239600Y219959D01*
G03Y222041I-600J1041D01*
G01X239500Y222099D01*
Y325500D01*
X228000Y337000D01*
X202714D01*
X202690Y337171D01*
G03X200310I-1190J-171D01*
G01X200286Y337000D01*
X198500D01*
X194500Y333000D01*
Y315000D01*
X196000Y313500D01*
X206000D01*
X209000Y310500D01*
Y287500D01*
X208000Y286500D01*
X204500D01*
X203500Y287500D01*
Y307000D01*
X202500Y308000D01*
X195500D01*
X194500Y307000D01*
Y298000D01*
X192500Y296000D01*
X175500D01*
X173500Y298000D01*
Y321000D01*
X178500Y326000D01*
Y350500D01*
X167190Y361810D01*
X167198Y361902D01*
G03X165902Y363198I-1198J98D01*
G01X165810Y363190D01*
X160359Y368641D01*
X160462Y368780D01*
G03X158650Y370350I-963J720D01*
G01X156000Y373000D01*
X99000D01*
X53000Y327000D01*
Y284214D01*
X52829Y284190D01*
G03Y281810I171J-1190D01*
G01X53000Y281786D01*
Y279599D01*
X52900Y279541D01*
G03Y277459I600J-1041D01*
G01X53000Y277401D01*
Y277151D01*
G02X52686Y276987I-200J0D01*
G03X52450Y274886I-686J-987D01*
G02X53000Y274515I150J-371D01*
G01Y268599D01*
X52900Y268541D01*
G03Y266459I600J-1041D01*
G01X53000Y266401D01*
Y259485D01*
G02X52450Y259114I-400J0D01*
G03Y256886I-450J-1114D01*
G02X53000Y256515I150J-371D01*
G01Y161000D01*
X54500Y159500D01*
X62000D01*
X63300Y158200D01*
Y156300D01*
X62000Y155000D01*
X37500D01*
X31500Y161000D01*
Y194101D01*
X31600Y194159D01*
G03Y196241I-600J1041D01*
G01X31500Y196299D01*
Y199859D01*
X31614Y199914D01*
G03Y202086I-514J1086D01*
G01X31500Y202141D01*
Y220735D01*
G02X32175Y221026I400J1D01*
G03X33236Y220721I826J874D01*
G02X33710Y220272I78J-392D01*
G03X35204Y218937I1190J-172D01*
G02X35703Y218513I101J-387D01*
G03X37204Y217237I1197J-113D01*
G02X37703Y216888I101J-387D01*
G03X38596Y218163I1197J112D01*
G02X38097Y218512I-101J387D01*
G03X36596Y219563I-1197J-112D01*
G02X36097Y219987I-101J387D01*
G03X34664Y221279I-1197J113D01*
G02X34190Y221728I-78J392D01*
G03X32175Y222774I-1190J172D01*
G02X31500Y223065I-275J290D01*
G01Y225775D01*
G02X32125Y226106I400J0D01*
G03Y228094I675J994D01*
G02X31500Y228425I-225J331D01*
G01Y351000D01*
X55825Y375325D01*
X55944Y375283D01*
G03X64617Y383956I2256J6417D01*
G01X64575Y384075D01*
X69501Y389001D01*
X69640Y388893D01*
G03X71607Y390860I860J1107D01*
G01X71499Y390999D01*
X72000Y391500D01*
X188000D01*
X190886Y388614D01*
G02X190620Y387932I-283J-282D01*
G03X189318Y383255I108J-2550D01*
G02Y382588I-221J-334D01*
G03X189319Y378333I1410J-2127D01*
G02Y377667I-221J-333D01*
G03X192137I1409J-2128D01*
G02Y378333I221J333D01*
G03X192138Y382588I-1409J2128D01*
G02Y383255I221J333D01*
G03X193278Y385274I-1410J2127D01*
G02X193960Y385540I400J-17D01*
G01X212000Y367500D01*
X272333D01*
G03X273667I667J1000D01*
G01X281000D01*
Y314099D01*
G02X280575Y313700I-400J0D01*
G03X279562Y313252I-75J-1200D01*
G02X278938I-312J250D01*
G03X277248Y311562I-938J-752D01*
G02Y310938I-250J-312D01*
G03X278938Y309248I752J-938D01*
G02X279562I312J-250D01*
G03X279748Y309062I938J752D01*
G02Y308438I-250J-312D01*
G03X280575Y306300I752J-938D01*
G02X281000Y305901I25J-399D01*
G01Y88000D01*
X228000D01*
G37*
G36*
G01X97800Y178100D02*
X88384Y187516D01*
X88371Y187572D01*
G03X87472Y188471I-1171J-272D01*
G01X87416Y188484D01*
X87250Y188650D01*
G02X87450Y189324I283J283D01*
G03X86024Y190750I-250J1176D01*
G02X85350Y190550I-391J83D01*
G01X82084Y193816D01*
X82071Y193872D01*
G03X81172Y194771I-1171J-272D01*
G01X81116Y194784D01*
X80800Y195100D01*
Y201702D01*
G02X80986Y201901I200J0D01*
G03Y204299I-86J1199D01*
G02X80800Y204498I14J199D01*
G01Y204802D01*
G02X80986Y205001I200J0D01*
G03Y207399I-86J1199D01*
G02X80800Y207598I14J199D01*
G01Y214302D01*
G02X80986Y214501I200J0D01*
G03Y216899I-86J1199D01*
G02X80800Y217098I14J199D01*
G01Y218300D01*
X86568Y224068D01*
X86695Y224009D01*
G03X88291Y225605I505J1091D01*
G01X88232Y225732D01*
X92868Y230368D01*
X92995Y230309D01*
G03X94591Y231905I505J1091D01*
G01X94532Y232032D01*
X98000Y235500D01*
X101378D01*
G02X101758Y234975I0J-400D01*
G03X104042I1142J-375D01*
G02X104422Y235500I380J125D01*
G01X121523D01*
X122500Y234523D01*
Y232974D01*
G02X122025Y232581I-400J0D01*
G03X120598Y231400I-225J-1181D01*
G02X120198Y231000I-400J0D01*
G01X114002D01*
G02X113602Y231400I0J400D01*
G03X111198I-1202J0D01*
G02X110798Y231000I-400J0D01*
G01X110388D01*
Y231214D01*
X110390Y231229D01*
G03X107998Y231400I-1190J171D01*
G02X107598Y231000I-400J0D01*
G01X106900D01*
X92022Y216122D01*
G02X91380Y216229I-283J283D01*
G03X89771Y214620I-1080J-529D01*
G02X89878Y213978I-176J-359D01*
G01X88500Y212600D01*
Y204500D01*
X89900Y203100D01*
X90839D01*
G02X91104Y202400I0J-400D01*
G03X92696I796J-900D01*
G02X92961Y203100I265J300D01*
G01X93800D01*
X94700Y204000D01*
Y208500D01*
X96300Y210100D01*
X97800D01*
X103000Y204900D01*
X107700D01*
X111300Y201300D01*
X111875D01*
Y200987D01*
X111778Y200929D01*
G03X113339Y200650I622J-1029D01*
G02X113651Y201300I312J250D01*
G01X116300D01*
X117500Y202500D01*
Y203600D01*
X114900Y206200D01*
Y206600D01*
X115200Y206900D01*
X122500D01*
X124578Y204822D01*
G02X124471Y204180I-283J-283D01*
G03X126142Y203475I529J-1080D01*
G02X126522Y204000I380J125D01*
G01X126578D01*
G02X126958Y203475I0J-400D01*
G03X128725Y204126I1142J-375D01*
G02X128651Y204751I209J342D01*
G01X132500Y208600D01*
Y212436D01*
G03Y212564I-1200J64D01*
G01Y221936D01*
G03Y222064I-1200J64D01*
G01Y228236D01*
G03Y228364I-1200J64D01*
G01Y231336D01*
G03Y231464I-1200J64D01*
G01Y234536D01*
G03Y234664I-1200J64D01*
G01Y243936D01*
G03Y244064I-1200J64D01*
G01Y270400D01*
X139596Y277496D01*
G02X140239Y277388I283J-283D01*
G03X142112Y279261I1261J612D01*
G02X142004Y279904I175J360D01*
G01X144464Y282364D01*
G02X145136Y282174I283J-282D01*
G03X146826Y283864I1364J326D01*
G02X146636Y284536I92J389D01*
G01X156000Y293900D01*
Y314359D01*
X156114Y314414D01*
G03Y316586I-514J1086D01*
G01X156000Y316641D01*
Y319159D01*
X156114Y319214D01*
G03Y321386I-514J1086D01*
G01X156000Y321441D01*
Y330478D01*
G02X156525Y330858I400J0D01*
G03X157848Y331262I374J1142D01*
G02X158498Y331237I316J-246D01*
G03X160363Y331063I1002J663D01*
G02X160937I287J-278D01*
G03X162942Y332274I863J837D01*
G02X163317Y332798I380J124D01*
G03X162158Y333626I-17J1202D01*
G02X161783Y333102I-380J-124D01*
G03X160937Y332737I17J-1202D01*
G02X160363I-287J278D01*
G03X158552Y332638I-862J-837D01*
G02X157902Y332663I-316J246D01*
G03X156525Y333142I-1002J-663D01*
G02X156000Y333522I-125J380D01*
G01Y335000D01*
X157000Y336000D01*
X167500D01*
X169000Y334500D01*
Y334186D01*
X168985Y334150D01*
G03Y333250I1115J-450D01*
G01X169000Y333214D01*
Y321086D01*
X168985Y321050D01*
G03Y320150I1115J-450D01*
G01X169000Y320114D01*
Y314141D01*
G02X168425Y313781I-400J0D01*
G03Y311619I-525J-1081D01*
G02X169000Y311259I175J-360D01*
G01Y310341D01*
G02X168425Y309981I-400J0D01*
G03Y307819I-525J-1081D01*
G02X169000Y307459I175J-360D01*
G01Y300099D01*
G02X168622Y299700I-400J0D01*
G03Y296900I78J-1400D01*
G02X169000Y296501I-22J-399D01*
G01Y295900D01*
X171900Y293000D01*
X193500D01*
X196500Y296000D01*
Y305000D01*
X197000Y305500D01*
X201500D01*
X201998Y305002D01*
Y286878D01*
X202000Y286877D01*
Y286000D01*
X198500Y282500D01*
X181561D01*
G02X181296Y283200I0J400D01*
G03X179704I-796J900D01*
G02X179439Y282500I-265J-300D01*
G01X164300D01*
X147600Y265900D01*
Y243067D01*
G03Y241733I1000J-667D01*
G01Y189900D01*
X142387Y184687D01*
G02X141754Y184778I-282J283D01*
G03X140122Y183146I-1054J-578D01*
G02X140213Y182513I-192J-351D01*
G01X135800Y178100D01*
X106051D01*
G02X105664Y178600I0J400D01*
G03X103336I-1164J300D01*
G02X102949Y178100I-387J-100D01*
G01X97800D01*
G37*
G36*
G01X106225Y208652D02*
X100625Y214252D01*
X94711D01*
G02X94409Y214913I0J400D01*
G03X94539Y216305I-909J787D01*
G01X94461Y216438D01*
X107522Y229498D01*
X122122D01*
X123323Y230700D01*
X125248Y228775D01*
Y227725D01*
X120748Y223225D01*
Y218425D01*
X110975Y208652D01*
X106225D01*
G37*
G36*
G01X111998Y237002D02*
X110500Y238500D01*
Y252501D01*
G02X110875Y252900I400J0D01*
G03Y255300I-75J1200D01*
G02X110500Y255699I25J399D01*
G01Y280601D01*
G02X110875Y281000I400J0D01*
G03Y283400I-75J1200D01*
G02X110500Y283799I25J399D01*
G01Y300901D01*
G02X111122Y301234I400J0D01*
G03Y303566I778J1166D01*
G02X110500Y303899I-222J333D01*
G01Y351286D01*
X110671Y351310D01*
G03Y353690I-171J1190D01*
G01X110500Y353714D01*
Y356286D01*
X110671Y356310D01*
G03X111462Y358220I-171J1190D01*
G01X111359Y358359D01*
X119000Y366000D01*
X132500D01*
X137000Y370500D01*
X139515D01*
G02X139886Y369950I0J-400D01*
G03X142114I1114J-450D01*
G02X142485Y370500I371J150D01*
G01X143015D01*
G02X143386Y369950I0J-400D01*
G03X145614I1114J-450D01*
G02X145985Y370500I371J150D01*
G01X148015D01*
G02X148386Y369950I0J-400D01*
G03X150438Y368748I1115J-450D01*
G02X151062I312J-250D01*
G03X152938I938J752D01*
G02X153562I312J-250D01*
G03X154598Y368302I938J752D01*
G01X154690Y368310D01*
X176000Y347000D01*
Y332000D01*
X175500Y331500D01*
X173500D01*
X173000Y332000D01*
Y343000D01*
X171000Y345000D01*
X171039Y345117D01*
G03X169517Y346639I-1139J383D01*
G01X169400Y346600D01*
X155000Y361000D01*
X151485D01*
G02X151114Y361550I0J400D01*
G03X148886I-1114J450D01*
G02X148515Y361000I-371J-150D01*
G01X142985D01*
G02X142614Y361550I0J400D01*
G03X140386I-1114J450D01*
G02X140015Y361000I-371J-150D01*
G01X137985D01*
G02X137614Y361550I0J400D01*
G03X135386I-1114J450D01*
G02X135015Y361000I-371J-150D01*
G01X133485D01*
G02X133114Y361550I0J400D01*
G03X130886I-1114J450D01*
G02X130515Y361000I-371J-150D01*
G01X120500D01*
X114500Y355000D01*
Y259199D01*
G02X114075Y258800I-400J0D01*
G03Y256400I-75J-1200D01*
G02X114500Y256001I25J-399D01*
G01Y244667D01*
G03Y243333I1000J-667D01*
G01Y241567D01*
G03Y240233I1000J-667D01*
G01Y238500D01*
X113002Y237002D01*
X111998D01*
G37*
G36*
G01X130998Y211328D02*
Y209222D01*
X128894Y207117D01*
X128758Y207206D01*
G03X126919Y205976I-658J-1006D01*
G02X126526Y205502I-393J-74D01*
G01X126110D01*
Y205738D01*
X126123Y205773D01*
G03X124451Y207269I-1123J427D01*
G01X124321Y207202D01*
X123122Y208402D01*
X116644D01*
G02X116361Y209084I0J400D01*
G01X124252Y216975D01*
Y220436D01*
G02X124738Y220827I400J1D01*
G03X125866Y222834I262J1173D01*
G02X125871Y223394I288J277D01*
G01X128752Y226275D01*
Y228295D01*
G02X129288Y228671I400J0D01*
G03X129701Y228598I412J1129D01*
G02X130100Y228223I0J-400D01*
G03X130870Y227178I1200J78D01*
G01X130998Y227128D01*
Y223172D01*
X130870Y223122D01*
G03Y220878I430J-1122D01*
G01X130998Y220828D01*
Y213672D01*
X130870Y213622D01*
G03Y211378I430J-1122D01*
G01X130998Y211328D01*
G37*
G36*
G01X128866Y230666D02*
G02X128306Y230671I-277J288D01*
G01X126752Y232225D01*
Y235225D01*
X125769Y236208D01*
G02X125789Y236793I282J283D01*
G03X124093Y238489I-789J907D01*
G02X123508Y238469I-302J262D01*
G01X123252Y238725D01*
Y267775D01*
X137252Y281775D01*
Y298775D01*
X142752Y304275D01*
Y317275D01*
X143006Y317529D01*
X143214Y317320D01*
X143205Y317225D01*
G03X144187Y315917I1195J-125D01*
G02X144446Y315296I-70J-394D01*
G03X144456Y313690I1154J-796D01*
G02X144222Y313069I-326J-232D01*
G03X143748Y310962I278J-1169D01*
G02Y310338I-250J-312D01*
G03X145252I752J-938D01*
G02Y310962I250J312D01*
G03X145533Y312515I-752J938D01*
G02X145815Y313115I344J205D01*
G03X145743Y315895I-215J1385D01*
G02X145438Y316494I41J398D01*
G03X145346Y317842I-1038J606D01*
G02X145445Y318425I315J246D01*
G03X146189Y319437I-945J1474D01*
G02X146656Y319723I386J-106D01*
G03X145893Y321556I244J1177D01*
G02X145361Y321425I-336J218D01*
G03X144500Y321652I-862J-1525D01*
G01X142175D01*
X139248Y318725D01*
Y305725D01*
X133748Y300225D01*
Y283225D01*
X124394Y273871D01*
G02X123834Y273866I-283J283D01*
G03X122134Y272166I-834J-866D01*
G02X122129Y271606I-288J-277D01*
G01X119748Y269225D01*
Y237002D01*
X116091D01*
G02X115808Y237684I0J400D01*
G01X116002Y237878D01*
Y239802D01*
X116101Y239859D01*
G03Y241941I-601J1041D01*
G01X116002Y241998D01*
Y242902D01*
X116101Y242959D01*
G03Y245041I-601J1041D01*
G01X116002Y245098D01*
Y354378D01*
X121122Y359498D01*
X154378D01*
X171498Y342378D01*
Y334953D01*
G02X170849Y334640I-400J0D01*
G03X170616Y334786I-751J-939D01*
G01X170502Y334840D01*
Y335122D01*
X168122Y337502D01*
X156378D01*
X154498Y335622D01*
Y330753D01*
G02X153849Y330440I-400J0D01*
G03X153004Y330698I-749J-940D01*
G02X152790Y330869I-16J199D01*
G03X150750Y329850I-1190J-169D01*
G03X151696Y327802I850J-850D01*
G02X151910Y327631I16J-199D01*
G03X153849Y326860I1190J169D01*
G02X154498Y326547I249J-313D01*
G01Y294522D01*
X130998Y271022D01*
Y235772D01*
X130870Y235722D01*
G03Y233478I430J-1122D01*
G01X130998Y233428D01*
Y232572D01*
X130870Y232522D01*
G03X130098Y231401I430J-1122D01*
G02X129699Y231002I-400J1D01*
G03X128866Y230666I1J-1202D01*
G37*
G36*
G01X212622Y369002D02*
X190706Y390917D01*
G02X190989Y391600I283J283D01*
G01X281200D01*
Y369002D01*
X212622D01*
G37*
%LPC*%
G75*
G36*
G01X10637Y338333D02*
G03Y337667I221J-333D01*
G02X7819I-1409J-2128D01*
G03Y338333I-221J333D01*
G02X10637I1409J2128D01*
G37*
G36*
G01X196927Y323827D02*
G03X196902Y324401I-290J275D01*
G02X196826Y326125I798J899D01*
G03Y326675I-291J275D01*
G02X198525Y328374I874J825D01*
G03X199075I275J291D01*
G02X200774Y326675I825J-874D01*
G03Y326125I291J-275D01*
G02X200737Y324437I-874J-825D01*
G03Y323863I278J-287D01*
G02X200773Y322173I-837J-863D01*
G03X200798Y321599I290J-275D01*
G02X200874Y319875I-798J-899D01*
G03Y319325I291J-275D01*
G02X199175Y317626I-874J-825D01*
G03X198625I-275J-291D01*
G02X196926Y319325I-825J874D01*
G03Y319875I-291J275D01*
G02X196963Y321563I874J825D01*
G03Y322137I-278J287D01*
G02X196927Y323827I837J863D01*
G37*
G36*
G01X10637Y320833D02*
G03Y320167I221J-333D01*
G02X7819I-1409J-2128D01*
G03Y320833I-221J333D01*
G02X10637I1409J2128D01*
G37*
G36*
G01X216989Y272529D02*
G03X216411I-289J-277D01*
G02Y274471I-1011J971D01*
G03X216989I289J277D01*
G02X218973Y274510I1011J-971D01*
G03X219527I277J288D01*
G02Y272490I973J-1010D01*
G03X218973I-277J-288D01*
G02X216989Y272529I-973J1010D01*
G37*
G36*
G01X186963Y274219D02*
G03X187237I137J146D01*
G02X189075Y274295I963J-1019D01*
G03X189325I125J157D01*
G02X191174Y274208I875J-1095D01*
G03X191751Y274230I278J288D01*
G02X193811Y274271I1049J-930D01*
G03X194389I289J277D01*
G02X196411I1011J-971D01*
G03X196989I289J277D01*
G02Y272329I1011J-971D01*
G03X196411I-289J-277D01*
G02X194389I-1011J971D01*
G03X193811I-289J-277D01*
G02X191826Y272292I-1011J971D01*
G03X191249Y272270I-278J-288D01*
G02X189325Y272105I-1049J930D01*
G03X189075I-125J-157D01*
G02X187237Y272181I-875J1095D01*
G03X186963I-137J-146D01*
G02Y274219I-963J1019D01*
G37*
G36*
G01X164692Y260229D02*
G03X164142Y260154I-236J-323D01*
G02X163908Y261871I-942J746D01*
G03X164458Y261946I236J323D01*
G02X164692Y260229I942J-746D01*
G37*
G36*
G01X193002Y255701D02*
G03X193401Y255302I400J1D01*
G02X192198Y254099I-1J-1202D01*
G03X191799Y254498I-400J-1D01*
G02X193002Y255701I1J1202D01*
G37*
G36*
G01X171580Y255526D02*
G03X171980Y255202I393J76D01*
G02X170820Y253774I20J-1202D01*
G03X170420Y254098I-393J-76D01*
G02X171580Y255526I-20J1202D01*
G37*
G36*
G01X188450Y252561D02*
G03X187950I-250J-313D01*
G02Y254439I-750J939D01*
G03X188450I250J313D01*
G02Y252561I750J-939D01*
G37*
G36*
G01X14181Y254333D02*
G03Y253667I221J-333D01*
G02X11363I-1409J-2128D01*
G03Y254333I-221J333D01*
G02X14181I1409J2128D01*
G37*
G36*
G01X184975Y217626D02*
G03X184425I-275J-291D01*
G02Y219374I-825J874D01*
G03X184975I275J291D01*
G02Y217626I825J-874D01*
G37*
G36*
G01X16969Y217220D02*
G03X16495Y216871I-77J-392D01*
G02X15531Y218180I-1195J129D01*
G03X16005Y218529I77J392D01*
G02X16969Y217220I1195J-129D01*
G37*
G36*
G01X156031Y199741D02*
G03X155532Y199641I-189J-353D01*
G02X155169Y201459I-932J759D01*
G03X155668Y201559I189J353D01*
G02X156031Y199741I932J-759D01*
G37*
G36*
G01X25100Y194304D02*
G03X24500I-300J-265D01*
G02X22666Y194343I-900J796D01*
G03X22067Y194368I-311J-252D01*
G02X22134Y195957I-867J832D01*
G03X22733Y195932I311J252D01*
G02X24500Y195896I867J-832D01*
G03X25100I300J265D01*
G02Y194304I900J-796D01*
G37*
G36*
G01X169400Y196574D02*
G03X169774Y196200I399J25D01*
G02X168500Y194926I-74J-1200D01*
G03X168126Y195300I-399J-25D01*
G02X169400Y196574I74J1200D01*
G37*
G36*
G01X232777Y184300D02*
G03X232402Y183901I25J-399D01*
G02X229998Y183899I-1202J-1D01*
G03X229599Y184298I-400J-1D01*
G02X230802Y185501I1J1202D01*
G03X231201Y185102I400J1D01*
G02X231297Y185098I-2J-1202D01*
G03X231511Y185326I16J199D01*
G02X232777Y184300I1189J174D01*
G37*
G36*
G01X175481Y185226D02*
G03X175980Y185026I360J175D01*
G02X175319Y183374I420J-1126D01*
G03X174820Y183574I-360J-175D01*
G02X175481Y185226I-420J1126D01*
G37*
G36*
G01X57858Y175873D02*
G03X57915Y176187I-90J179D01*
G02X57900Y176204I894J804D01*
G03X57300I-300J-265D01*
G02Y177796I-900J796D01*
G03X57900I300J265D01*
G02X59497Y176021I901J-795D01*
G03X59397Y175471I232J-326D01*
G02X58009Y173663I-997J-671D01*
G03X57510Y173439I-130J-378D01*
G02X56791Y175037I-1110J461D01*
G03X57290Y175261I130J378D01*
G02X57858Y175873I1110J-461D01*
G37*
G36*
G01X219923Y162178D02*
G03X219313Y162148I-292J-273D01*
G02Y163852I-1113J852D01*
G03X219923Y163822I318J243D01*
G02Y162178I877J-822D01*
G37*
G36*
G01X70750Y162550D02*
G02X72450I850J850D01*
G02X70750I-850J-850D01*
G37*
G36*
G01X39450Y152039D02*
G03X39950I250J313D01*
G02Y150161I750J-939D01*
G03X39450I-250J-313D01*
G02Y152039I-750J939D01*
G37*
G36*
G01X15850D02*
G03X16350I250J313D01*
G02Y150161I750J-939D01*
G03X15850I-250J-313D01*
G02Y152039I-750J939D01*
G37*
G36*
G01X95137Y148037D02*
G03Y147463I278J-287D01*
G02X93463I-837J-863D01*
G03Y148037I-278J287D01*
G02X95137I837J863D01*
G37*
G36*
G01X116438Y368748D02*
G02Y370252I-938J752D01*
G03X117062I312J250D01*
G02X118938I938J-752D01*
G03X119562I312J250D01*
G02Y368748I938J-752D01*
G03X118938I-312J-250D01*
G02X117062I-938J752D01*
G03X116438I-312J-250D01*
G37*
G36*
G01X93438Y331748D02*
G02Y333252I-938J752D01*
G03X94062I312J250D01*
G02X95938I938J-752D01*
G03X96562I312J250D01*
G02X98438I938J-752D01*
G03X99062I312J250D01*
G02Y331748I938J-752D01*
G03X98438I-312J-250D01*
G02X96562I-938J752D01*
G03X95938I-312J-250D01*
G02X94062I-938J752D01*
G03X93438I-312J-250D01*
G37*
G36*
G01X218938Y320248D02*
G02Y321752I-938J752D01*
G03X219562I312J250D01*
G02Y320248I938J-752D01*
G03X218938I-312J-250D01*
G37*
G36*
G01X57526Y277081D02*
G02X56099Y276795I-526J-1081D01*
G03X55974Y277419I-300J264D01*
G02X57401Y277705I526J1081D01*
G03X57526Y277081I300J-264D01*
G37*
G36*
G01X13938Y274248D02*
G02X12248Y275938I-938J752D01*
G03Y276562I-250J312D01*
G02Y278438I752J938D01*
G03Y279062I-250J312D01*
G02X13938Y280752I752J938D01*
G03X14562I312J250D01*
G02X16438I938J-752D01*
G03X17062I312J250D01*
G02X18752Y279062I938J-752D01*
G03Y278438I250J-312D01*
G02Y276562I-752J-938D01*
G03Y275938I250J-312D01*
G02X17062Y274248I-752J-938D01*
G03X16438I-312J-250D01*
G02X14562I-938J752D01*
G03X13938I-312J-250D01*
G37*
G36*
G01X164850Y266616D02*
G02X163859Y268401I-1050J584D01*
G03X164258Y268925I19J399D01*
G02X166535Y268903I1142J375D01*
G03X166834Y268379I377J-132D01*
G02X165550Y266616I-234J-1179D01*
G03X164850I-350J-195D01*
G37*
G36*
G01X75184Y254850D02*
G02X74016I-584J-1050D01*
G03Y255550I-195J350D01*
G02X75184I584J1050D01*
G03Y254850I195J-350D01*
G37*
G36*
G01X178461Y252090D02*
G02X178165Y253235I-1161J311D01*
G03X178839Y253410I288J278D01*
G02X180037Y254301I1161J-310D01*
G03X180436Y254601I12J400D01*
G02X181563Y253099I1164J-301D01*
G03X181164Y252799I-12J-400D01*
G02X179135Y252265I-1164J301D01*
G03X178461Y252090I-288J-278D01*
G37*
G36*
G01X160771Y245098D02*
G02X159279Y244978I-671J-998D01*
G03X159229Y245602I-273J292D01*
G02X160721Y245722I671J998D01*
G03X160771Y245098I273J-292D01*
G37*
G36*
G01X94202Y238675D02*
G02X92798I-702J-975D01*
G03Y239325I-234J325D01*
G02X92637Y239463I699J978D01*
G03X92063I-287J-278D01*
G02Y241137I-863J837D01*
G03X92637I287J278D01*
G02X94202Y239325I863J-836D01*
G03Y238675I234J-325D01*
G37*
G36*
G01X152142Y226325D02*
G02X151584Y227751I-1142J375D01*
G03X152158Y227975I194J349D01*
G02X152356Y228345I1143J-374D01*
G03X152332Y228869I-314J248D01*
G02X154144Y228955I869J831D01*
G03X154168Y228431I314J-248D01*
G02X152716Y226549I-868J-831D01*
G03X152142Y226325I-194J-349D01*
G37*
G36*
G01X178138Y225348D02*
G02Y226852I-938J752D01*
G03X178762I312J250D01*
G02Y225348I938J-752D01*
G03X178138I-312J-250D01*
G37*
G36*
G01X192242Y225225D02*
G02X191684Y226651I-1142J375D01*
G03X192258Y226875I194J349D01*
G02X192816Y225449I1142J-375D01*
G03X192242Y225225I-194J-349D01*
G37*
G36*
G01X200780Y224827D02*
G02X199695Y225798I-1180J-227D01*
G03X200120Y226273I32J399D01*
G02X201205Y225302I1180J227D01*
G03X200780Y224827I-32J-399D01*
G37*
G36*
G01X227593Y221849D02*
G02X226408Y222902I-1193J-149D01*
G03X226807Y223351I2J400D01*
G02X227992Y222298I1193J149D01*
G03X227593Y221849I-2J-400D01*
G37*
G36*
G01X220296Y219663D02*
G02X219403Y218613I304J-1163D01*
G03X218904Y219037I-398J37D01*
G02X219797Y220087I-304J1163D01*
G03X220296Y219663I398J-37D01*
G37*
G36*
G01X66252Y214938D02*
G02X64748I-752J-938D01*
G03Y215562I-250J312D01*
G02X66252I752J938D01*
G03Y214938I250J-312D01*
G37*
G36*
G01X178851Y204393D02*
G02X177798Y203208I149J-1193D01*
G03X177349Y203607I-400J2D01*
G02X176975Y203619I-149J1193D01*
G03X176501Y203245I-75J-393D01*
G02X175525Y204481I-1201J55D01*
G03X175999Y204855I75J393D01*
G02X178402Y204792I1201J-55D01*
G03X178851Y204393I400J-2D01*
G37*
G36*
G01X186394Y181659D02*
G02X185357Y182992I-1194J141D01*
G03X185806Y183341I52J396D01*
G02X187934Y183957I1194J-141D01*
G03X188533Y183932I311J252D01*
G02X189820Y184226I867J-832D01*
G03X190319Y184426I139J375D01*
G02X191699Y185064I1081J-526D01*
G03X192199Y185464I100J387D01*
G02X193101Y184336I1201J36D01*
G03X192601Y183936I-100J-387D01*
G02X190980Y182774I-1201J-36D01*
G03X190481Y182574I-139J-375D01*
G02X188466Y182343I-1081J526D01*
G03X187867Y182368I-311J-252D01*
G02X186843Y182008I-868J832D01*
G03X186394Y181659I-52J-396D01*
G37*
G36*
G01X149429Y180379D02*
G02X149172Y181921I-1029J621D01*
G03X149771Y182021I257J307D01*
G02X150028Y180479I1029J-621D01*
G03X149429Y180379I-257J-307D01*
G37*
G36*
G01X85752Y172938D02*
G02X84248I-752J-938D01*
G03Y173562I-250J312D01*
G02Y175438I752J938D01*
G03Y176062I-250J312D01*
G02X85752I752J938D01*
G03Y175438I250J-312D01*
G02Y173562I-752J-938D01*
G03Y172938I250J-312D01*
G37*
G36*
G01X181035Y161816D02*
G02X180940Y160534I965J-716D01*
G03X180265Y160584I-353J-188D01*
G02X180360Y161866I-965J716D01*
G03X181035Y161816I353J188D01*
G37*
G36*
G01X128752Y152838D02*
G02X127248I-752J-938D01*
G03Y153462I-250J312D01*
G02X128752I752J938D01*
G03Y152838I250J-312D01*
G37*
G36*
G01X26252Y130938D02*
G02X24748I-752J-938D01*
G03Y131562I-250J312D01*
G02Y133438I752J938D01*
G03Y134062I-250J312D01*
G02X26438Y135752I752J938D01*
G03X27062I312J250D01*
G02X28752Y134062I938J-752D01*
G03Y133438I250J-312D01*
G02X28938Y133252I-752J-938D01*
G03X29562I312J250D01*
G02Y131748I938J-752D01*
G03X28938I-312J-250D01*
G02X27062I-938J752D01*
G03X26438I-312J-250D01*
G02X26252Y131562I-938J752D01*
G03Y130938I250J-312D01*
G37*
G36*
G01X65438Y99248D02*
G02X63748Y100938I-938J752D01*
G03Y101562I-250J312D01*
G02X65438Y103252I752J938D01*
G03X66062I312J250D01*
G02X67938I938J-752D01*
G03X68562I312J250D01*
G02X70252Y101562I938J-752D01*
G03Y100938I250J-312D01*
G02X68562Y99248I-752J-938D01*
G03X67938I-312J-250D01*
G02X66062I-938J752D01*
G03X65438I-312J-250D01*
G37*
G36*
G01Y74248D02*
G02X63748Y75938I-938J752D01*
G03Y76562I-250J312D01*
G02X65438Y78252I752J938D01*
G03X66062I312J250D01*
G02X67938I938J-752D01*
G03X68562I312J250D01*
G02X70252Y76562I938J-752D01*
G03Y75938I250J-312D01*
G02X68562Y74248I-752J-938D01*
G03X67938I-312J-250D01*
G02X66062I-938J752D01*
G03X65438I-312J-250D01*
G37*
G36*
G01X68938Y52748D02*
G02X67248Y54438I-938J752D01*
G03Y55062I-250J312D01*
G02Y56938I752J938D01*
G03Y57562I-250J312D01*
G02X68938Y59252I752J938D01*
G03X69562I312J250D01*
G02X71438I938J-752D01*
G03X72062I312J250D01*
G02X73938I938J-752D01*
G03X74562I312J250D01*
G02X76252Y57562I938J-752D01*
G03Y56938I250J-312D01*
G02Y55062I-752J-938D01*
G03Y54438I250J-312D01*
G02X74562Y52748I-752J-938D01*
G03X73938I-312J-250D01*
G02X72062I-938J752D01*
G03X71438I-312J-250D01*
G02X69562I-938J752D01*
G03X68938I-312J-250D01*
G37*
G36*
G01Y42748D02*
G02X67248Y44438I-938J752D01*
G03Y45062I-250J312D01*
G02Y46938I752J938D01*
G03Y47562I-250J312D01*
G02X68938Y49252I752J938D01*
G03X69562I312J250D01*
G02X71438I938J-752D01*
G03X72062I312J250D01*
G02X73938I938J-752D01*
G03X74562I312J250D01*
G02X76252Y47562I938J-752D01*
G03Y46938I250J-312D01*
G02Y45062I-752J-938D01*
G03Y44438I250J-312D01*
G02X74562Y42748I-752J-938D01*
G03X73938I-312J-250D01*
G02X72062I-938J752D01*
G03X71438I-312J-250D01*
G02X69562I-938J752D01*
G03X68938I-312J-250D01*
G37*
G36*
G01X241438Y39248D02*
G02X239748Y40938I-938J752D01*
G03Y41562I-250J312D01*
G02Y43438I752J938D01*
G03Y44062I-250J312D01*
G02Y45938I752J938D01*
G03Y46562I-250J312D01*
G02X239562Y46748I752J938D01*
G03X238938I-312J-250D01*
G02X237062I-938J752D01*
G03X236438I-312J-250D01*
G02X234562I-938J752D01*
G03X233938I-312J-250D01*
G02X232062I-938J752D01*
G03X231438I-312J-250D01*
G02X229748Y48438I-938J752D01*
G03Y49062I-250J312D01*
G02Y50938I752J938D01*
G03Y51562I-250J312D01*
G02X231438Y53252I752J938D01*
G03X232062I312J250D01*
G02X233938I938J-752D01*
G03X234562I312J250D01*
G02X236438I938J-752D01*
G03X237062I312J250D01*
G02X238938I938J-752D01*
G03X239562I312J250D01*
G02X241438I938J-752D01*
G03X242062I312J250D01*
G02X243938I938J-752D01*
G03X244562I312J250D01*
G02X246438I938J-752D01*
G03X247062I312J250D01*
G02X248752Y51562I938J-752D01*
G03Y50938I250J-312D01*
G02Y49062I-752J-938D01*
G03Y48438I250J-312D01*
G02Y46562I-752J-938D01*
G03Y45938I250J-312D01*
G02X248938Y45752I-752J-938D01*
G03X249562I312J250D01*
G02X251438I938J-752D01*
G03X252062I312J250D01*
G02X253938I938J-752D01*
G03X254562I312J250D01*
G02X256438I938J-752D01*
G03X257062I312J250D01*
G02X258752Y44062I938J-752D01*
G03Y43438I250J-312D01*
G02Y41562I-752J-938D01*
G03Y40938I250J-312D01*
G02X257062Y39248I-752J-938D01*
G03X256438I-312J-250D01*
G02X254562I-938J752D01*
G03X253938I-312J-250D01*
G02X252062I-938J752D01*
G03X251438I-312J-250D01*
G02X249562I-938J752D01*
G03X248938I-312J-250D01*
G02X247062I-938J752D01*
G03X246438I-312J-250D01*
G02X244562I-938J752D01*
G03X243938I-312J-250D01*
G02X242062I-938J752D01*
G03X241438I-312J-250D01*
G37*
G36*
G01X91438Y34248D02*
G02X89748Y35938I-938J752D01*
G03Y36562I-250J312D01*
G02Y38438I752J938D01*
G03Y39062I-250J312D01*
G02X91438Y40752I752J938D01*
G03X92062I312J250D01*
G02X93938I938J-752D01*
G03X94562I312J250D01*
G02X96438I938J-752D01*
G03X97062I312J250D01*
G02X98752Y39062I938J-752D01*
G03Y38438I250J-312D01*
G02Y36562I-752J-938D01*
G03Y35938I250J-312D01*
G02X97062Y34248I-752J-938D01*
G03X96438I-312J-250D01*
G02X94562I-938J752D01*
G03X93938I-312J-250D01*
G02X92062I-938J752D01*
G03X91438I-312J-250D01*
G37*
G36*
G01X106438Y24248D02*
G02X104748Y25938I-938J752D01*
G03Y26562I-250J312D01*
G02Y28438I752J938D01*
G03Y29062I-250J312D01*
G02X106438Y30752I752J938D01*
G03X107062I312J250D01*
G02X108938I938J-752D01*
G03X109562I312J250D01*
G02X111438I938J-752D01*
G03X112062I312J250D01*
G02X113752Y29062I938J-752D01*
G03Y28438I250J-312D01*
G02Y26562I-752J-938D01*
G03Y25938I250J-312D01*
G02X112062Y24248I-752J-938D01*
G03X111438I-312J-250D01*
G02X109562I-938J752D01*
G03X108938I-312J-250D01*
G02X107062I-938J752D01*
G03X106438I-312J-250D01*
G37*
G36*
G01X47116Y24675D02*
G02Y27325I-4616J1325D01*
G03X47884I384J110D01*
G02Y24675I4616J-1325D01*
G03X47116I-384J-110D01*
G37*
G36*
G01X185914Y331690D02*
G03X185365Y331665I-261J-303D01*
G02X185286Y333410I-865J835D01*
G03X185835Y333435I261J303D01*
G02X185914Y331690I865J-835D01*
G37*
G36*
G01X180000Y321004D02*
G03X179400I-300J-265D01*
G02Y322596I-900J796D01*
G03X180000I300J265D01*
G02Y321004I900J-796D01*
G37*
G36*
G01X263022Y182228D02*
G03Y181972I153J-128D01*
G02X261178I-922J-772D01*
G03Y182228I-153J128D01*
G02X263022I922J772D01*
G37*
G36*
G01X80281Y381070D02*
G02X79275Y381875I-1281J-570D01*
G03X79719Y382430I79J392D01*
G02X80725Y381625I1281J570D01*
G03X80281Y381070I-79J-392D01*
G37*
G36*
G01X61438Y356748D02*
G02Y358252I-938J752D01*
G03X62062I312J250D01*
G02Y356748I938J-752D01*
G03X61438I-312J-250D01*
G37*
G36*
G01Y351748D02*
G02Y353252I-938J752D01*
G03X62062I312J250D01*
G02Y351748I938J-752D01*
G03X61438I-312J-250D01*
G37*
G36*
G01X218938Y346748D02*
G02Y348252I-938J752D01*
G03X219562I312J250D01*
G02Y346748I938J-752D01*
G03X218938I-312J-250D01*
G37*
G36*
G01X243938Y344248D02*
G02X242248Y345938I-938J752D01*
G03Y346562I-250J312D01*
G02Y348438I752J938D01*
G03Y349062I-250J312D01*
G02Y350938I752J938D01*
G03Y351562I-250J312D01*
G02Y353438I752J938D01*
G03Y354062I-250J312D01*
G02X243938Y355752I752J938D01*
G03X244562I312J250D01*
G02X246252Y354062I938J-752D01*
G03Y353438I250J-312D01*
G02Y351562I-752J-938D01*
G03Y350938I250J-312D01*
G02Y349062I-752J-938D01*
G03Y348438I250J-312D01*
G02Y346562I-752J-938D01*
G03Y345938I250J-312D01*
G02X244562Y344248I-752J-938D01*
G03X243938I-312J-250D01*
G37*
G36*
G01X49410Y321270D02*
G02X47990I-710J-970D01*
G03X47911Y321960I-237J322D01*
G02X49489I789J1840D01*
G03X49410Y321270I158J-368D01*
G37*
G36*
G01X271438Y319248D02*
G02X269748Y320938I-938J752D01*
G03Y321562I-250J312D01*
G02Y323438I752J938D01*
G03Y324062I-250J312D01*
G02Y325938I752J938D01*
G03Y326562I-250J312D01*
G02Y328438I752J938D01*
G03Y329062I-250J312D01*
G02Y330938I752J938D01*
G03Y331562I-250J312D01*
G02X269562Y331748I752J938D01*
G03X268938I-312J-250D01*
G02X267248Y333438I-938J752D01*
G03Y334062I-250J312D01*
G02X267062Y334248I752J938D01*
G03X266438I-312J-250D01*
G02X264748Y335938I-938J752D01*
G03Y336562I-250J312D01*
G02Y338438I752J938D01*
G03Y339062I-250J312D01*
G02Y340938I752J938D01*
G03Y341562I-250J312D01*
G02X264562Y341748I752J938D01*
G03X263938I-312J-250D01*
G02X262248Y343438I-938J752D01*
G03Y344062I-250J312D01*
G02X262062Y344248I752J938D01*
G03X261438I-312J-250D01*
G02X259562I-938J752D01*
G03X258938I-312J-250D01*
G02X257062I-938J752D01*
G03X256438I-312J-250D01*
G02X254562I-938J752D01*
G03X253938I-312J-250D01*
G02X253752Y344062I-938J752D01*
G03Y343438I250J-312D01*
G02X252062Y341748I-752J-938D01*
G03X251438I-312J-250D01*
G02X251252Y341562I-938J752D01*
G03Y340938I250J-312D01*
G02Y339062I-752J-938D01*
G03Y338438I250J-312D01*
G02X249562Y336748I-752J-938D01*
G03X248938I-312J-250D01*
G02X247062I-938J752D01*
G03X246438I-312J-250D01*
G02X244748Y338438I-938J752D01*
G03Y339062I-250J312D01*
G02X246438Y340752I752J938D01*
G03X247062I312J250D01*
G02X247248Y340938I938J-752D01*
G03Y341562I-250J312D01*
G02X248938Y343252I752J938D01*
G03X249562I312J250D01*
G02X249748Y343438I938J-752D01*
G03Y344062I-250J312D01*
G02X251438Y345752I752J938D01*
G03X252062I312J250D01*
G02X253938I938J-752D01*
G03X254562I312J250D01*
G02X256438I938J-752D01*
G03X257062I312J250D01*
G02X258938I938J-752D01*
G03X259562I312J250D01*
G02X261438I938J-752D01*
G03X262062I312J250D01*
G02X263938I938J-752D01*
G03X264562I312J250D01*
G02X266438I938J-752D01*
G03X267062I312J250D01*
G02X268938I938J-752D01*
G03X269562I312J250D01*
G02X271438I938J-752D01*
G03X272062I312J250D01*
G02X273938I938J-752D01*
G03X274562I312J250D01*
G02X276438I938J-752D01*
G03X277062I312J250D01*
G02X278752Y344062I938J-752D01*
G03Y343438I250J-312D01*
G02Y341562I-752J-938D01*
G03Y340938I250J-312D01*
G02Y339062I-752J-938D01*
G03Y338438I250J-312D01*
G02Y336562I-752J-938D01*
G03Y335938I250J-312D01*
G02Y334062I-752J-938D01*
G03Y333438I250J-312D01*
G02Y331562I-752J-938D01*
G03Y330938I250J-312D01*
G02Y329062I-752J-938D01*
G03Y328438I250J-312D01*
G02Y326562I-752J-938D01*
G03Y325938I250J-312D01*
G02Y324062I-752J-938D01*
G03Y323438I250J-312D01*
G02Y321562I-752J-938D01*
G03Y320938I250J-312D01*
G02X277062Y319248I-752J-938D01*
G03X276438I-312J-250D01*
G02X274562I-938J752D01*
G03X273938I-312J-250D01*
G02X272062I-938J752D01*
G03X271438I-312J-250D01*
G37*
G36*
G01X273938Y296748D02*
G02X272248Y298438I-938J752D01*
G03Y299062I-250J312D01*
G02X272062Y299248I752J938D01*
G03X271438I-312J-250D01*
G02X269748Y300938I-938J752D01*
G03Y301562I-250J312D01*
G02X269562Y301748I752J938D01*
G03X268938I-312J-250D01*
G02X267248Y303438I-938J752D01*
G03Y304062I-250J312D01*
G02X267062Y304248I752J938D01*
G03X266438I-312J-250D01*
G02Y305752I-938J752D01*
G03X267062I312J250D01*
G02X268938I938J-752D01*
G03X269562I312J250D01*
G02X271252Y304062I938J-752D01*
G03Y303438I250J-312D01*
G02X271438Y303252I-752J-938D01*
G03X272062I312J250D01*
G02X273938I938J-752D01*
G03X274562I312J250D01*
G02X276438I938J-752D01*
G03X277062I312J250D01*
G02X278752Y301562I938J-752D01*
G03Y300938I250J-312D01*
G02Y299062I-752J-938D01*
G03Y298438I250J-312D01*
G02X277062Y296748I-752J-938D01*
G03X276438I-312J-250D01*
G02X274562I-938J752D01*
G03X273938I-312J-250D01*
G37*
G36*
G01X256438D02*
G02X254748Y298438I-938J752D01*
G03Y299062I-250J312D01*
G02X254562Y299248I752J938D01*
G03X253938I-312J-250D01*
G02X252248Y300938I-938J752D01*
G03Y301562I-250J312D01*
G02X252062Y301748I752J938D01*
G03X251438I-312J-250D01*
G02X249728Y303421I-938J752D01*
G03X249741Y304024I-256J307D01*
G02X249524Y304241I2259J2476D01*
G03X248921Y304228I-296J-269D01*
G02X247248Y305938I-921J772D01*
G03Y306562I-250J312D01*
G02X247062Y306748I752J938D01*
G03X246438I-312J-250D01*
G02X244748Y308438I-938J752D01*
G03Y309062I-250J312D01*
G02Y310938I752J938D01*
G03Y311562I-250J312D01*
G02X246438Y313252I752J938D01*
G03X247062I312J250D01*
G02X248938I938J-752D01*
G03X249562I312J250D01*
G02X251438I938J-752D01*
G03X252062I312J250D01*
G02Y311748I938J-752D01*
G03X251438I-312J-250D01*
G02X249562I-938J752D01*
G03X248938I-312J-250D01*
G02X248752Y311562I-938J752D01*
G03Y310938I250J-312D01*
G02X248544Y308928I-752J-938D01*
G03Y308572I91J-178D01*
G02X248750Y308440I-542J-1073D01*
G03X249319Y308512I250J312D01*
G02X253717Y309379I2681J-2012D01*
G03X254316Y309791I205J343D01*
G02X255291Y308816I1184J209D01*
G03X254879Y308217I-69J-394D01*
G02X254012Y303819I-2879J-1717D01*
G03X253940Y303250I240J-319D01*
G02X254072Y303044I-941J-748D01*
G03X254428I178J91D01*
G02X256438Y303252I1072J-544D01*
G03X257062I312J250D01*
G02X257248Y303438I938J-752D01*
G03Y304062I-250J312D01*
G02Y305938I752J938D01*
G03Y306562I-250J312D01*
G02X258752I752J938D01*
G03Y305938I250J-312D01*
G02X258938Y305752I-752J-938D01*
G03X259562I312J250D01*
G02X261252Y304062I938J-752D01*
G03Y303438I250J-312D01*
G02X261438Y303252I-752J-938D01*
G03X262062I312J250D01*
G02X263752Y301562I938J-752D01*
G03Y300938I250J-312D01*
G02X263938Y300752I-752J-938D01*
G03X264562I312J250D01*
G02X266252Y299062I938J-752D01*
G03Y298438I250J-312D01*
G02X266438Y298252I-752J-938D01*
G03X267062I312J250D01*
G02Y296748I938J-752D01*
G03X266438I-312J-250D01*
G02X264562I-938J752D01*
G03X263938I-312J-250D01*
G02X262062I-938J752D01*
G03X261438I-312J-250D01*
G02X259562I-938J752D01*
G03X258938I-312J-250D01*
G02X257062I-938J752D01*
G03X256438I-312J-250D01*
G37*
G36*
G01X48938Y277748D02*
G02Y279252I-938J752D01*
G03X49562I312J250D01*
G02Y277748I938J-752D01*
G03X48938I-312J-250D01*
G37*
G36*
G01X247938Y268248D02*
G02Y269752I-938J752D01*
G03X248562I312J250D01*
G02X250438I938J-752D01*
G03X251062I312J250D01*
G02X252938I938J-752D01*
G03X253562I312J250D01*
G02X255438I938J-752D01*
G03X256062I312J250D01*
G02Y268248I938J-752D01*
G03X255438I-312J-250D01*
G02X253562I-938J752D01*
G03X252938I-312J-250D01*
G02X251062I-938J752D01*
G03X250438I-312J-250D01*
G02X248562I-938J752D01*
G03X247938I-312J-250D01*
G37*
G36*
G01X43847Y171841D02*
G02X41499Y172236I-1147J360D01*
G03X40999Y172636I-400J13D01*
G02X41901Y173764I-299J1164D01*
G03X42401Y173364I400J-13D01*
G02X42904Y173385I301J-1164D01*
G03X43353Y173659I68J394D01*
G02X44296Y172115I1147J-359D01*
G03X43847Y171841I-68J-394D01*
G37*
G36*
G01X85202Y212499D02*
G03X85626Y212100I400J0D01*
G02X84498Y210901I74J-1200D01*
G03X84074Y211300I-400J0D01*
G02X85202Y212499I-74J1200D01*
G37*
G36*
G01X110799Y193998D02*
G03X110400Y193623I0J-400D01*
G02X109201Y194902I-1200J77D01*
G03X109600Y195277I0J400D01*
G02X109612Y195384I1200J-80D01*
G03X109384Y195612I-197J31D01*
G02X110402Y196801I-184J1188D01*
G03X110801Y196402I400J1D01*
G02X110799Y193998I-1J-1202D01*
G37*
G36*
G01X160873Y322780D02*
G02X159902Y321695I227J-1180D01*
G03X159427Y322120I-399J32D01*
G02X160398Y323205I-227J1180D01*
G03X160873Y322780I399J-32D01*
G37*
G36*
G01X162001Y308759D02*
G02X161175Y309842I-1201J-59D01*
G03X161699Y310241I125J380D01*
G02X164102Y310299I1201J59D01*
G03X164526Y309900I400J0D01*
G02X163398Y308701I74J-1200D01*
G03X162974Y309100I-400J0D01*
G02X162525Y309158I-73J1200D01*
G03X162001Y308759I-125J-380D01*
G37*
G36*
G01X163506Y296129D02*
G02X161198Y296610I-1106J471D01*
G03X160649Y296985I-400J4D01*
G02X161402Y298090I-449J1115D01*
G03X161951Y297715I400J-4D01*
G02X162945Y297671I449J-1115D01*
G03X163494Y297871I181J357D01*
G02X163716Y298214I1105J-472D01*
G03Y298486I-147J136D01*
G02X165484I884J814D01*
G03Y298214I147J-136D01*
G02X164055Y296329I-884J-814D01*
G03X163506Y296129I-181J-357D01*
G37*
G36*
G01X140870Y259179D02*
G02X140204Y258222I530J-1079D01*
G03X139630Y258621I-398J40D01*
G02X140296Y259578I-530J1079D01*
G03X140870Y259179I398J-40D01*
G37*
G36*
G01X127337Y350701D02*
G03X127736Y351001I12J400D01*
G02X129700Y351597I1164J-301D01*
G02X131397Y349900I800J-897D01*
G02X129700Y348203I-897J-800D01*
G02X128863Y347899I-800J897D01*
G03X128464Y347599I-12J-400D01*
G02X128150Y347050I-1164J301D01*
G02X126450I-850J-850D01*
G02X126403Y348700I850J850D01*
G02X127337Y350701I897J800D01*
G37*
G36*
G01X122786Y300252D02*
G03X122387Y300801I-371J150D01*
G02X121426Y302825I-87J1199D01*
G03Y303375I-291J275D01*
G02X123100Y305097I875J824D01*
G02X124700I800J-897D01*
G02X126374Y303375I799J-898D01*
G03Y302825I291J-275D01*
G02Y301175I-874J-825D01*
G03Y300625I291J-275D01*
G02X124700Y298903I-875J-824D01*
G02X122786Y300252I-800J897D01*
G37*
G36*
G01X147972Y296878D02*
G02X146780Y298926I-772J922D01*
G03X146909Y299140I-69J188D01*
G02X146901Y299387I1191J162D01*
G03X146352Y299786I-399J28D01*
G02X147099Y300813I-452J1114D01*
G03X147648Y300414I399J-28D01*
G02X149291Y299140I452J-1114D01*
G03X149420Y298926I198J-26D01*
G02X148228Y296878I-420J-1126D01*
G03X147972I-128J-153D01*
G37*
G36*
G01X128938Y289248D02*
G02Y290752I-938J752D01*
G03X129562I312J250D01*
G02Y289248I938J-752D01*
G03X128938I-312J-250D01*
G37*
G36*
G01Y281748D02*
G02Y283252I-938J752D01*
G03X129562I312J250D01*
G02Y281748I938J-752D01*
G03X128938I-312J-250D01*
G37*
G54D32*
X140500Y143800D03*
X151800D03*
X156500Y149500D03*
X246000Y162500D03*
X121700Y293400D03*
G54D25*
X8000Y107000D03*
Y119500D03*
Y111000D03*
Y132500D03*
Y128500D03*
Y124000D03*
Y137000D03*
X8800Y151200D03*
X13200Y183600D03*
X8700Y209800D03*
X3500Y240400D03*
X8500Y245500D03*
X13500Y304000D03*
X15500Y121500D03*
X23500D03*
X19100Y169500D03*
X23000Y159500D03*
X25000Y171600D03*
X17100Y173400D03*
X15100Y171300D03*
X19200Y187200D03*
X23200D03*
X25200Y199000D03*
X21200Y206200D03*
X25700Y208800D03*
X23900Y217900D03*
X19100Y227100D03*
X19500Y222400D03*
X21800Y220200D03*
X22500Y224100D03*
X15500Y338500D03*
X18000Y336500D03*
X19500Y349000D03*
X18000Y344000D03*
X15500Y342500D03*
Y345500D03*
X23000Y369500D03*
X25000Y372000D03*
X26900Y181500D03*
X27900Y227100D03*
X26700Y298300D03*
X28500Y372000D03*
X42000Y137000D03*
X47300Y151200D03*
X54500Y70000D03*
Y82000D03*
X57500Y76000D03*
X54500Y95000D03*
Y107000D03*
X57500Y101000D03*
X56500Y146500D03*
X60000Y276000D03*
X60900Y273100D03*
X63000Y283500D03*
X61000Y281000D03*
X70500Y182500D03*
X64500Y191100D03*
X74600Y199900D03*
X69500Y208000D03*
X72600D03*
X74600Y218800D03*
X74300Y225400D03*
X73500Y240800D03*
Y244000D03*
X73600Y247600D03*
X66300Y250200D03*
X74600Y266500D03*
X72200Y269800D03*
X64500Y281000D03*
X69000D03*
X67500Y283500D03*
X70500D03*
X73000Y291600D03*
X72500Y301700D03*
X74600Y311200D03*
X73000Y307300D03*
X80900Y187300D03*
X84000Y184200D03*
X87200D03*
X84100Y228200D03*
X84000Y240900D03*
X87200Y234600D03*
X80900Y250300D03*
X77700Y253500D03*
X87200Y247200D03*
X84000D03*
Y250300D03*
X87200Y244000D03*
Y250300D03*
Y253500D03*
X77700Y250300D03*
X84000Y244000D03*
X80900D03*
X87200Y256600D03*
X84400Y263700D03*
X81500Y269500D03*
X82500Y275900D03*
X79400Y272800D03*
X77700Y269100D03*
X82500Y272700D03*
X85600Y279000D03*
Y291600D03*
X79300Y282200D03*
Y291600D03*
X82500Y301100D03*
Y294800D03*
X85600Y304200D03*
Y297900D03*
X76200D03*
X76100Y307400D03*
X75500Y337500D03*
X98000Y140500D03*
X94500Y152200D03*
X88000Y155500D03*
X97500Y154400D03*
X99200Y158200D03*
X96400Y167400D03*
X96600Y244000D03*
X96700Y250300D03*
X91000Y255000D03*
X89500Y259000D03*
X92400Y258900D03*
X96600Y256900D03*
X94400Y267300D03*
X95100Y279000D03*
X98200D03*
X88800Y275900D03*
X95100Y282200D03*
X98200D03*
X88800D03*
Y288500D03*
X98200D03*
X95100D03*
X98200Y294800D03*
X91900Y297900D03*
X88800Y304200D03*
X92100D03*
X95100D03*
X106700Y158300D03*
X103900Y158000D03*
X110200Y167300D03*
X101000Y167400D03*
X106100Y240900D03*
X102900Y250300D03*
Y253500D03*
X106100D03*
Y250300D03*
Y247200D03*
X102900Y244000D03*
X99800D03*
X104500Y279000D03*
X106100Y271900D03*
X101400Y272700D03*
Y275900D03*
Y279000D03*
Y288500D03*
X104500D03*
Y285300D03*
Y282200D03*
X101400D03*
Y304200D03*
X104500D03*
X115100Y143000D03*
X112400Y141000D03*
X114500Y168300D03*
X118700Y167300D03*
X124200Y143800D03*
X126300Y159300D03*
X133900Y159800D03*
X135400Y172700D03*
X147000Y28500D03*
Y35500D03*
X138600Y159800D03*
X152000Y28500D03*
Y35500D03*
Y174300D03*
X152800Y178300D03*
X156800Y185900D03*
X153200Y194700D03*
X158400Y195500D03*
X155200Y205500D03*
X155400Y232000D03*
X152100Y252100D03*
X160000Y267800D03*
X154800Y261000D03*
X154400Y267600D03*
X158600Y260700D03*
X152800Y258200D03*
X154800Y264800D03*
X162000Y49500D03*
X169700Y176100D03*
X164400Y182600D03*
X169700Y172900D03*
X160800Y185500D03*
X169700Y191800D03*
X167200Y183500D03*
X164400Y188700D03*
X166800Y187100D03*
X170300Y228300D03*
X166600Y232000D03*
X169700Y243100D03*
Y262000D03*
Y268300D03*
X172900Y169800D03*
Y172900D03*
X180400Y181000D03*
X176000Y172900D03*
X179200Y176100D03*
X176000D03*
X179200Y172900D03*
X179600Y187000D03*
X183600D03*
X176000Y191800D03*
X179200D03*
X183400Y201000D03*
X172900Y195000D03*
X176000D03*
X179200D03*
X179300Y198000D03*
X182300Y198100D03*
X178700Y214700D03*
X181900Y236600D03*
X172900Y243100D03*
X176000D03*
X179200D03*
Y246300D03*
X184400Y253900D03*
X172900Y246300D03*
X179200Y249400D03*
X176000Y265200D03*
X178800Y257600D03*
X172900Y265200D03*
X179200Y262000D03*
X172900D03*
X182300D03*
X179200Y265200D03*
X182300Y268300D03*
X179200D03*
X193800Y161300D03*
X189100D03*
X185500Y169800D03*
X194900Y182400D03*
X188600Y172900D03*
X191800Y176100D03*
Y172900D03*
X185500Y176100D03*
X191700Y179200D03*
X194900Y172900D03*
Y191800D03*
X185500D03*
X191800D03*
X195000Y202100D03*
X191800Y195000D03*
X185500D03*
X196500Y199700D03*
X191200Y204500D03*
X194900Y195000D03*
X195000Y217500D03*
X196500Y225800D03*
X185500Y243100D03*
X194900D03*
X187100Y238400D03*
X196500Y255700D03*
X185500Y246300D03*
X194900D03*
X191800D03*
X191700Y249400D03*
X188600Y265200D03*
X191800D03*
X194900Y262000D03*
X185500D03*
X191800D03*
X185500Y268300D03*
X191800D03*
X206900Y162100D03*
X198100Y169800D03*
X207600Y165900D03*
X202800D03*
X198300Y161300D03*
X206000Y182400D03*
X199700D03*
X204400Y176100D03*
X209100Y182400D03*
X198100Y172900D03*
X202800Y180800D03*
X201200Y172900D03*
X207500Y185500D03*
X204400D03*
X198100Y191800D03*
X201200Y204400D03*
X207500Y198100D03*
X198000Y208600D03*
X203200Y210800D03*
X207500Y229600D03*
X209200Y224700D03*
X206000Y237500D03*
X198200Y236800D03*
X198100Y243100D03*
X206000Y252600D03*
X199700Y255700D03*
X209100Y252600D03*
X207500Y255700D03*
X204400D03*
X198100Y252600D03*
X202800D03*
X204400Y262000D03*
X198100D03*
X207600Y270700D03*
X204000Y318500D03*
Y321500D03*
X215400Y182400D03*
X212300D03*
X218600D03*
X210700Y172900D03*
X217000D03*
X210700Y185500D03*
X213800D03*
X217000D03*
X220100D03*
X210600Y206500D03*
X213800Y198100D03*
X210600Y211500D03*
X215400Y210500D03*
X213800Y222100D03*
X217000Y223300D03*
X212200Y225000D03*
X210600Y235800D03*
X213800Y243100D03*
X210700Y240000D03*
X215400Y252600D03*
X210700Y255700D03*
X212300Y252600D03*
X213800Y255700D03*
X218600Y252600D03*
X217000Y255700D03*
X220100D03*
X217000Y268300D03*
X210700D03*
X213000Y306500D03*
X221700Y182400D03*
X224900D03*
X228000D03*
X226400Y185500D03*
X223300D03*
X232700Y217700D03*
X229600Y217900D03*
X231200Y209900D03*
X224900Y218600D03*
X223200Y221700D03*
X226400Y255700D03*
X229600D03*
X223300D03*
X221700Y252600D03*
X224900D03*
X231200D03*
X232700Y255700D03*
X228000Y252600D03*
X223500Y321000D03*
X242500Y60500D03*
Y75500D03*
X235000Y152500D03*
X234300Y212600D03*
X36800Y172500D03*
X34900Y199000D03*
X36700Y227100D03*
X34500Y267000D03*
X35000Y274000D03*
X50600Y169500D03*
X38700Y169900D03*
X44600Y227000D03*
X46400Y234300D03*
X45000Y253000D03*
X50400Y247400D03*
X42000Y270500D03*
X47500Y273000D03*
X46500Y276000D03*
X45000Y278500D03*
X40000Y283000D03*
X44500D03*
X45000Y304000D03*
X48000Y363000D03*
X51100Y173200D03*
X57500Y335000D03*
X51500Y340000D03*
Y334500D03*
Y344500D03*
X53000Y363000D03*
X56000Y369000D03*
X66600Y367000D03*
X85500Y366800D03*
X76900Y367000D03*
X89800Y366800D03*
X121000Y381500D03*
X125000D03*
X138000Y384000D03*
X143000D03*
X148000D03*
X172000Y376000D03*
X167000Y374500D03*
Y386500D03*
Y380500D03*
X180700Y319000D03*
X180500Y364000D03*
Y354000D03*
X196500Y376500D03*
X207000Y306500D03*
X204500Y361500D03*
X211000Y348500D03*
X233500Y351500D03*
Y357500D03*
X228500Y356500D03*
X229500Y361500D03*
X244200Y205600D03*
Y196600D03*
Y201200D03*
Y218800D03*
Y214000D03*
Y210000D03*
Y227600D03*
Y223200D03*
Y240800D03*
Y236400D03*
Y232000D03*
Y249200D03*
Y245300D03*
X248000Y166700D03*
Y170900D03*
Y175300D03*
Y179800D03*
Y188500D03*
Y184100D03*
Y196900D03*
Y201000D03*
Y205400D03*
Y209800D03*
Y214200D03*
Y218600D03*
X254200Y216700D03*
X248000Y227400D03*
X254200Y229900D03*
X248000Y231700D03*
Y236200D03*
Y240600D03*
X254400Y239700D03*
X257500Y233500D03*
X248000Y245000D03*
Y249200D03*
X261000Y118500D03*
X263000Y156500D03*
X260600Y252300D03*
X269300Y256500D03*
X269700Y271500D03*
X263000Y307500D03*
X266500Y355500D03*
X279000Y104500D03*
Y114500D03*
X273000Y163000D03*
X278900Y202500D03*
Y208000D03*
X273200Y220300D03*
X274000Y229000D03*
Y263100D03*
Y272100D03*
X275000Y355500D03*
X271000D03*
X87200Y193600D03*
X84000Y206200D03*
Y196800D03*
Y203100D03*
Y199900D03*
X87200D03*
X84000Y218800D03*
Y215700D03*
X96700Y190500D03*
X96600Y187300D03*
Y193600D03*
X93500D03*
X96700Y184200D03*
X99800Y190500D03*
X93500D03*
X99800Y187300D03*
X96600Y206200D03*
X96700Y196800D03*
X99800D03*
Y203100D03*
X93500Y196800D03*
X90300Y218800D03*
Y222000D03*
X93500Y228300D03*
Y225100D03*
X90300D03*
X106000Y190500D03*
X109200Y184200D03*
X102900Y190400D03*
X106100Y193600D03*
X102900Y187300D03*
Y184200D03*
Y203100D03*
X106100D03*
Y199900D03*
X112500Y180800D03*
X118700D03*
X121800Y193600D03*
X119400Y199300D03*
X121800Y196800D03*
Y203100D03*
X134400Y190500D03*
Y193600D03*
X128100Y187300D03*
X125000Y193600D03*
X131300D03*
X128100D03*
X131300Y199900D03*
X134400D03*
X128100Y196800D03*
X125000D03*
X134300Y196900D03*
X134400Y209400D03*
Y212500D03*
Y215700D03*
Y222000D03*
Y228300D03*
Y237700D03*
Y234600D03*
Y240900D03*
X137600Y190500D03*
X140700Y193600D03*
X137600D03*
Y199900D03*
Y203100D03*
Y206200D03*
X140700Y200000D03*
X137600Y215700D03*
X140700Y209400D03*
X137600Y212500D03*
X140700D03*
X137600Y218800D03*
X140700D03*
X137600Y209400D03*
Y228300D03*
X140700Y225100D03*
X137600D03*
Y237700D03*
Y240900D03*
X144700Y239300D03*
X140700Y234600D03*
Y240900D03*
X137600Y234600D03*
X140700Y253500D03*
X137600Y247200D03*
Y244000D03*
X140700D03*
X153800Y287000D03*
X157800Y317900D03*
X187500Y289200D03*
X186100Y286100D03*
X112400Y244000D03*
Y250300D03*
Y247200D03*
X147500Y367500D03*
X174100Y345500D03*
X125000Y209400D03*
X128100Y218800D03*
Y215700D03*
Y237700D03*
X258000Y372000D03*
G54D23*
X189900Y106900D03*
X164700Y97500D03*
G54D31*
X98300Y62200D03*
X108300D03*
X103300Y72200D03*
X113300D03*
X118300Y62200D03*
X123300Y72200D03*
X128300Y62200D03*
X133300Y72200D03*
G54D36*
X252000Y277000D03*
G54D34*
X218700Y135100D03*
Y145500D03*
G54D35*
X214800Y163000D03*
X72300Y369800D03*
X85500Y387500D03*
X94000Y381000D03*
X90500Y387500D03*
X88000Y385000D03*
X102500Y377500D03*
X111000Y380500D03*
X111500Y385000D03*
X146500Y278000D03*
X168700Y286400D03*
X163600Y285100D03*
X173800Y285300D03*
X121700Y297400D03*
G54D30*
X90800Y113500D03*
X100800D03*
X130800D03*
X140800D03*
G54D28*
X84800Y81900D03*
X146800D03*
G54D33*
X222500Y26000D03*
G54D27*
X18000Y41500D03*
Y83000D03*
G54D29*
X93300Y97200D03*
X138300D03*
G54D24*
X10800Y13500D03*
X270300Y12000D03*
X246600Y382300D03*
G54D26*
X18000Y31500D03*
Y73000D03*
%LPD*%
G75*
G54D10*
X10800Y13500D03*
X58200Y381700D03*
X246600Y382300D03*
X270300Y12000D03*
G54D20*
X190728Y370618D03*
G54D11*
X10500Y102000D03*
X8000Y115000D03*
X5000Y150500D03*
X5300Y159500D03*
X6500Y215600D03*
X7200Y235100D03*
X10500Y290000D03*
Y295000D03*
X20500Y107500D03*
X23000D03*
X18000D03*
X23000Y110000D03*
X20500D03*
X18000D03*
Y132500D03*
Y130000D03*
Y127500D03*
Y125000D03*
X15500Y130000D03*
Y125000D03*
X18000Y137500D03*
Y135000D03*
X15500D03*
X21200Y186000D03*
X25100D03*
X17100D03*
X25000Y203000D03*
X23100Y209000D03*
X25500Y267000D03*
X22500Y286000D03*
X24000Y290000D03*
X21000Y305500D03*
X25500D03*
X24500Y338500D03*
X14500Y353000D03*
Y361500D03*
Y365500D03*
Y369500D03*
X25000Y382000D03*
X28500Y150000D03*
X26900Y159500D03*
X29100Y198900D03*
X27100Y205000D03*
X26900Y234700D03*
X38000Y299500D03*
X38500Y314000D03*
X36000D03*
X33000Y347500D03*
Y351000D03*
X38000D03*
X26500Y362000D03*
X38500Y365000D03*
Y369500D03*
X28500Y382000D03*
X47000Y115500D03*
Y128500D03*
X40500Y299500D03*
X48500Y311500D03*
X44000D03*
X41000Y314000D03*
X43000Y351000D03*
X56000Y142500D03*
X58500Y155900D03*
Y157800D03*
X60900Y158400D03*
X57500Y228300D03*
X58200Y226800D03*
X56500Y264500D03*
X58000Y283000D03*
X70500Y156000D03*
X72000Y157000D03*
X69000D03*
X74100Y176000D03*
Y177600D03*
X72400D03*
X64500Y210500D03*
X74600Y237700D03*
X66300Y243400D03*
Y245000D03*
X70000Y266600D03*
X65900Y277100D03*
X66500Y311500D03*
X63500Y316000D03*
X66500Y332500D03*
X84000Y209400D03*
X87200Y215700D03*
X80900Y231400D03*
X79300Y279000D03*
X85600Y288500D03*
Y282200D03*
X82500D03*
X76200Y291600D03*
X79300Y288500D03*
Y285300D03*
X82500D03*
Y297900D03*
X85600Y294800D03*
X79300Y301100D03*
X77700Y310500D03*
X81500Y345500D03*
X86000D03*
X91000Y127400D03*
X90300Y206200D03*
X96600Y203100D03*
Y215700D03*
Y209400D03*
X90300Y247200D03*
X88500Y263600D03*
X88800Y279000D03*
Y291600D03*
X95100Y294700D03*
X91900Y294800D03*
X88800D03*
X91900Y301100D03*
X88800Y297900D03*
X97200Y314500D03*
X98200Y307400D03*
X104900Y127500D03*
Y146200D03*
X103100Y147900D03*
X104900Y149800D03*
X106700Y147900D03*
X104900D03*
X109200Y209400D03*
X99800Y218800D03*
X102900D03*
X106100Y215700D03*
Y212500D03*
X109200D03*
Y215700D03*
Y218800D03*
X106100D03*
X102900Y215700D03*
Y222000D03*
X106100D03*
X109200D03*
Y228300D03*
Y225100D03*
X106100D03*
X99800Y237700D03*
X102900D03*
X106100Y244100D03*
X107700Y304200D03*
X99800Y314500D03*
X101400Y307400D03*
X104500D03*
X108000Y352500D03*
X107000Y343500D03*
X108000Y357500D03*
X103600Y368800D03*
X122100Y159000D03*
X115500Y203100D03*
X121800Y199900D03*
X115500Y206200D03*
X112400Y212500D03*
X115500Y215700D03*
X112400D03*
X118700Y218800D03*
X115500D03*
X112400D03*
Y222000D03*
X115500D03*
X121800Y228300D03*
X118700Y222000D03*
Y225100D03*
Y228300D03*
X115500D03*
X112400D03*
X115500Y225100D03*
X112400D03*
X118700Y240900D03*
X112400Y237700D03*
X115500Y234600D03*
X112400D03*
X121800D03*
X118700Y244000D03*
X118000Y362000D03*
X123000D03*
X128500Y11000D03*
X124700Y139200D03*
X124300Y152900D03*
X125500Y148400D03*
X125300Y181000D03*
X135400D03*
X125000Y215700D03*
X128100Y231400D03*
X125000Y228300D03*
X135500Y312000D03*
X133400D03*
X135500Y314000D03*
X133500D03*
X147900Y160700D03*
X138000Y314000D03*
X144500Y319900D03*
X142900Y345800D03*
X136700Y343100D03*
X142600Y343000D03*
X138200Y349400D03*
X138500Y369500D03*
X157000Y43000D03*
X156500Y49500D03*
X159700Y160700D03*
X158400Y286400D03*
X152400Y344500D03*
X159500Y345500D03*
X170000Y34000D03*
X166600Y157500D03*
X169600Y169600D03*
X171500Y204500D03*
X165200Y277100D03*
X167600D03*
Y279400D03*
X165200D03*
X166800Y300700D03*
X166100Y333800D03*
X165300Y346600D03*
X176000Y169800D03*
X182300Y172900D03*
X172900Y176100D03*
Y191800D03*
Y198100D03*
X183300Y204200D03*
X182300Y195000D03*
Y240000D03*
X172900D03*
X181900Y234200D03*
X173300Y233200D03*
X182300Y243100D03*
X176000Y246300D03*
X182300Y265200D03*
X176000Y262000D03*
X172900Y268300D03*
X176000D03*
X176700Y296800D03*
X178400Y297900D03*
X176700Y299000D03*
X175000Y297900D03*
X179400Y316500D03*
X174800Y334500D03*
Y332900D03*
X186900Y155600D03*
X191300D03*
X195900D03*
X188600Y169800D03*
X188800Y175900D03*
X194900Y176100D03*
X188600Y198100D03*
X185400Y204300D03*
X186800Y233500D03*
Y235100D03*
X191800Y243100D03*
X188600Y262000D03*
X185500Y265200D03*
X189000Y280300D03*
X193400D03*
X188600Y268300D03*
X204500Y84500D03*
Y89000D03*
X209300Y155500D03*
X200800Y155600D03*
X205100D03*
X206000Y169500D03*
X207500Y195000D03*
X209000Y203700D03*
X198100Y195000D03*
X206000Y240000D03*
X208400Y233100D03*
X198100Y246300D03*
Y265200D03*
X207300Y280300D03*
X205800Y268700D03*
X197900Y280300D03*
X205000Y290500D03*
Y288000D03*
X207500D03*
X198400Y304700D03*
X200600D03*
Y293400D03*
Y295600D03*
X198400Y297800D03*
X200600Y300000D03*
Y302200D03*
X198400D03*
Y300000D03*
X200600Y297800D03*
X198400Y293500D03*
Y295700D03*
X206500Y321500D03*
X203000Y385000D03*
Y390000D03*
X208000D03*
X207000Y379500D03*
X220100Y172900D03*
X213800D03*
X220100Y198100D03*
X213800Y195000D03*
X220900Y206300D03*
X220100Y240000D03*
X213800D03*
Y268300D03*
X220100D03*
X211000Y288500D03*
X214000Y285500D03*
X220000Y294000D03*
X217500Y315500D03*
X218000Y385000D03*
Y390000D03*
X213000Y385000D03*
Y390000D03*
X232000Y57500D03*
X229500D03*
X227000D03*
Y60000D03*
X229500D03*
X232000D03*
Y65000D03*
Y62500D03*
X229500D03*
X227000D03*
X224500D03*
Y65000D03*
X227000D03*
X229500D03*
X232000Y82500D03*
X229500D03*
X227000D03*
X224500D03*
X228500Y89000D03*
X233000Y116500D03*
X227000Y375000D03*
X223000D03*
X233000Y390000D03*
X228000D03*
X223000Y385000D03*
Y390000D03*
X231000Y379500D03*
X234500Y82500D03*
X245500Y109000D03*
X243000D03*
X240500D03*
X243000Y106500D03*
X245500D03*
Y104000D03*
Y121500D03*
Y119000D03*
Y116500D03*
X243000D03*
X240500D03*
X238000D03*
X235500D03*
Y114000D03*
X238000D03*
X240500D03*
X243000D03*
X245500D03*
Y111500D03*
X243000D03*
X240500D03*
X238000D03*
X245500Y126500D03*
Y124000D03*
X241500Y338000D03*
X258000Y15000D03*
X255500D03*
X253000D03*
X250500D03*
X258000Y17500D03*
X255500D03*
X253000D03*
X250500D03*
Y20000D03*
X253000D03*
X255500D03*
X258000D03*
X253000Y109000D03*
X250500D03*
X248000D03*
Y106500D03*
X250500D03*
X253000D03*
X255500D03*
X248000Y104000D03*
X250500D03*
X253000D03*
X255500D03*
X248000Y101500D03*
X250500D03*
X253000D03*
X255500D03*
X250500Y99000D03*
X253000D03*
X255500D03*
X258000D03*
X248000Y121500D03*
X250500D03*
X253000D03*
X248000Y119000D03*
X250500D03*
X253000D03*
Y116500D03*
X250500D03*
X248000D03*
Y114000D03*
X250500D03*
X253000D03*
Y111500D03*
X250500D03*
X248000D03*
Y126500D03*
X250500D03*
X253000D03*
Y124000D03*
X250500D03*
X248000D03*
X256000Y170500D03*
X258000Y365000D03*
X257500Y355500D03*
X269500Y80000D03*
X260500Y82500D03*
X263000D03*
X265500D03*
Y85000D03*
X260500Y99000D03*
X263000D03*
X265500D03*
X268000D03*
X265500Y377500D03*
X279500Y55000D03*
X274500Y52500D03*
X277000D03*
X279500D03*
Y57500D03*
Y60000D03*
Y62500D03*
Y65000D03*
X274500Y67500D03*
X277000D03*
X279500D03*
Y70000D03*
Y72500D03*
Y75000D03*
Y77500D03*
Y80000D03*
X277000D03*
X274500D03*
X272000D03*
X270500Y99000D03*
X273000D03*
X275500D03*
X278000D03*
G54D21*
G01X90300Y206200D02*
Y209300D01*
X93500Y212500D01*
X99900D01*
X105500Y206900D01*
X111700D01*
G01X144500Y319900D02*
X142900D01*
X141000Y318000D01*
Y305000D01*
X135500Y299500D01*
Y282500D01*
X121500Y268500D01*
Y238000D01*
X125000Y234500D01*
Y231500D01*
X127000Y229500D01*
Y227000D01*
X122500Y222500D01*
Y217700D01*
X111700Y206900D01*
G01D02*
X115500Y203100D01*
G54D12*
X18000Y51500D03*
Y93000D03*
G54D22*
G01X0Y200D02*
Y392700D01*
X282300D01*
Y200D01*
X0D01*
G54D13*
X42500Y26000D03*
X52500D03*
X212500D03*
X222500D03*
G54D14*
X58500Y205800D03*
X208700Y135100D03*
Y145500D03*
G54D15*
X90800Y113500D03*
X100800D03*
X130800D03*
X140800D03*
G54D16*
X87500Y377500D03*
X141500Y282500D03*
Y287500D03*
G54D17*
X98300Y62200D03*
X108300D03*
X103300Y72200D03*
X113300D03*
X118300Y62200D03*
X123300Y72200D03*
X128300Y62200D03*
X133300Y72200D03*
G54D18*
X127500Y134700D03*
G54D19*
X189900Y82100D03*
M02*
