G04 ================== begin FILE IDENTIFICATION RECORD ==================*
G04 Layout Name:  layout_12.brd*
G04 Film Name:    Gerber_SIG4_RK3188_v2*
G04 File Format:  Gerber RS274X*
G04 File Origin:  Cadence Allegro 16.6-S008*
G04 Origin Date:  Mon Aug 22 09:39:44 2016*
G04 *
G04 Layer:  VIA CLASS/SIG4*
G04 Layer:  PIN/SIG4*
G04 Layer:  ETCH/SIG4*
G04 Layer:  DRAWING FORMAT/SIG4*
G04 Layer:  BOARD GEOMETRY/OUTLINE*
G04 Layer:  BOARD GEOMETRY/LOGO*
G04 *
G04 Offset:    (0.00 0.00)*
G04 Mirror:    No*
G04 Mode:      Positive*
G04 Rotation:  0*
G04 FullContactRelief:  No*
G04 UndefLineWidth:     5.00*
G04 ================== end FILE IDENTIFICATION RECORD ====================*
%FSLAX25Y25*MOIN*%
%IR0*IPPOS*OFA0.00000B0.00000*MIA0B0*SFA1.00000B1.00000*%
%ADD15C,.032*%
%ADD13C,.06*%
%ADD11C,.016*%
%ADD16C,.035*%
%ADD12C,.08*%
%ADD14C,.055*%
%ADD10C,.12*%
%ADD17C,.01*%
%ADD18C,.02*%
%ADD19C,.012*%
%ADD20C,.015*%
%ADD21C,.004*%
%ADD22C,.005*%
%ADD23C,.02404*%
G75*
%LPD*%
G75*
G36*
G01X52500Y103500D02*
X70000D01*
X70500Y103000D01*
Y96500D01*
X69500Y95500D01*
X63000D01*
X61000Y93500D01*
Y51000D01*
X62500Y49500D01*
X76000D01*
X76500Y49000D01*
Y43000D01*
X76000Y42500D01*
X52500D01*
X50000Y45000D01*
Y101000D01*
X52500Y103500D01*
G37*
G36*
G01X75500Y78500D02*
X76500Y77500D01*
Y53000D01*
X76000Y52500D01*
X65000D01*
X63500Y54000D01*
Y78000D01*
X64000Y78500D01*
X75500D01*
G37*
G36*
G01X79971Y284303D02*
G03X78303Y285971I-671J997D01*
G02X77688Y285912I-332J224D01*
G01X72300Y291300D01*
Y299300D01*
X80200Y307200D01*
X93900D01*
X96100Y305000D01*
Y303800D01*
X95400Y303100D01*
X92000D01*
X90100Y305000D01*
X89697D01*
G03X87903I-897J-800D01*
G01X86497D01*
G03X84703I-897J-800D01*
G01X83000D01*
X80500Y302500D01*
Y302423D01*
X80086Y302009D01*
G03X79776Y299996I-786J-909D01*
G01X79897Y300048D01*
X80500Y299474D01*
Y293300D01*
X82198Y291602D01*
Y291478D01*
X84559Y289117D01*
X84503Y288991D01*
G03X86091Y287403I1097J-491D01*
G01X86217Y287459D01*
X87678Y285998D01*
X89822D01*
X89823Y286000D01*
X91400D01*
X96900Y291500D01*
X100000D01*
X104000Y295500D01*
X122500D01*
X124000Y294000D01*
Y292000D01*
X118500Y286500D01*
X107759D01*
G03X107641I-59J-1200D01*
G01X104559D01*
G03X104441I-59J-1200D01*
G01X103500D01*
X100500Y283500D01*
X80100D01*
X79912Y283688D01*
G02X79971Y284303I283J283D01*
G37*
G36*
G01X83700Y297970D02*
Y298500D01*
X81600Y300500D01*
Y301400D01*
X82100Y301900D01*
X85500D01*
X87700Y299700D01*
X97600D01*
X100400Y302500D01*
Y304600D01*
X100900Y305100D01*
X104900D01*
X105500Y304500D01*
Y300700D01*
X98600Y293800D01*
X96622D01*
G02X96242Y294325I0J400D01*
G03X94059Y294100I-1142J375D01*
G01X94085Y294053D01*
Y293800D01*
X93800D01*
X89800Y289800D01*
Y288100D01*
X89200Y287500D01*
X88300D01*
X83700Y292100D01*
Y294736D01*
G03Y294864I-1200J64D01*
G01Y297836D01*
G03Y297964I-1200J64D01*
G01Y297970D01*
G37*
G36*
G01X91500Y75000D02*
X105000D01*
X106500Y73500D01*
Y70000D01*
X102500Y66000D01*
Y36000D01*
X100500Y34000D01*
X89500D01*
X88000Y35500D01*
Y71500D01*
X91500Y75000D01*
G37*
G36*
G01X99500Y129000D02*
Y128900D01*
X95400Y124900D01*
X91900D01*
X91300Y125400D01*
Y126228D01*
X91429Y126277D01*
G03X91837Y128263I-429J1123D01*
G02X91833Y128833I279J287D01*
G01X97000Y134000D01*
Y140800D01*
X97700Y141500D01*
X111400D01*
X113900Y144000D01*
X115500D01*
X116500Y143000D01*
Y128100D01*
X118100Y126500D01*
Y125500D01*
X117500Y124900D01*
X113700D01*
X109500Y129000D01*
X99500D01*
G37*
G36*
G01X112000Y75000D02*
X117000D01*
X119000Y73000D01*
Y69500D01*
X123500Y65000D01*
Y28000D01*
X119500Y24000D01*
X105000D01*
X104500Y24500D01*
Y30500D01*
X110500Y36500D01*
Y55000D01*
X113000Y57500D01*
Y65500D01*
X110500Y68000D01*
Y73500D01*
X112000Y75000D01*
G37*
%LPC*%
G75*
G54D23*
X54500Y70000D03*
Y82000D03*
Y95000D03*
X57500Y76000D03*
Y101000D03*
X101400Y288500D03*
X104500D03*
X79300Y291600D03*
X76200D03*
X79300Y288500D03*
X82500Y285300D03*
X91900Y294800D03*
X88800D03*
Y291600D03*
X85600Y294800D03*
X88800Y297900D03*
X85600D03*
%LPD*%
G75*
G54D10*
X10800Y13500D03*
X58200Y381700D03*
X246600Y382300D03*
X270300Y12000D03*
G54D20*
G01X8000Y124000D02*
X13000Y119000D01*
X21000D01*
X23500Y121500D01*
G01X170100Y333700D02*
Y330100D01*
X165500Y325500D01*
X125800D01*
X104500Y304200D01*
G01X242500Y60500D02*
Y75500D01*
G54D11*
X8000Y124000D03*
X13200Y183600D03*
X8500Y245500D03*
X23500Y121500D03*
X19100Y169500D03*
X25000Y171600D03*
X17100Y173400D03*
X15100Y171300D03*
X26000Y195100D03*
X17200Y218400D03*
X15300Y217000D03*
X23900Y217900D03*
X21800Y220200D03*
X22500Y327000D03*
X21000Y328500D03*
X25500Y324000D03*
X18000Y328500D03*
X24000Y325500D03*
X15500Y338500D03*
X18000Y336500D03*
X19500Y330000D03*
Y349000D03*
X18000Y344000D03*
X15500Y342500D03*
Y345500D03*
X26900Y181500D03*
X36800Y172500D03*
X36900Y218400D03*
X34900Y220100D03*
X33000Y221900D03*
X28500Y321000D03*
X27000Y322500D03*
X38700Y169900D03*
X42700Y172200D03*
X40700Y173800D03*
X38900Y217000D03*
X48000Y278500D03*
X50500D03*
X47500Y273000D03*
X46500Y276000D03*
X45000Y278500D03*
X52000Y258000D03*
X57000Y276000D03*
X52000D03*
X56500Y278500D03*
X60000Y276000D03*
X53500Y278500D03*
X63000Y283500D03*
X61000Y281000D03*
X73000Y43500D03*
Y46000D03*
X70500Y43500D03*
X68000D03*
Y46000D03*
X70500D03*
X73000Y48500D03*
X70500D03*
X68000D03*
X73000Y53500D03*
Y56000D03*
Y58500D03*
X70500D03*
Y56000D03*
Y53500D03*
X68000D03*
Y56000D03*
Y58500D03*
X64500Y75000D03*
Y77500D03*
X67000Y75000D03*
Y77500D03*
X69500Y75000D03*
Y77500D03*
Y100000D03*
X64500D03*
Y102500D03*
X67000Y100000D03*
Y102500D03*
X69500D03*
X70500Y182500D03*
X74600Y199900D03*
X69500Y208000D03*
X72600D03*
X74600Y218800D03*
X73500Y244000D03*
X74600Y266500D03*
X72200Y269800D03*
X64500Y281000D03*
X69000D03*
X67500Y283500D03*
X70500D03*
X73000Y291600D03*
X75500Y43500D03*
Y46000D03*
Y48500D03*
Y53500D03*
Y56000D03*
Y58500D03*
X85000Y174500D03*
Y172000D03*
X87200Y187300D03*
Y193600D03*
Y190500D03*
X84000Y184200D03*
X87200D03*
X85700Y210900D03*
X84000Y218800D03*
Y215700D03*
X77700Y218800D03*
X84100Y228200D03*
X84000Y240900D03*
X87200Y234600D03*
X84400Y263700D03*
X81500Y269500D03*
X82500Y275900D03*
X79400Y272800D03*
X77700Y269100D03*
X82500Y272700D03*
X85600Y279000D03*
Y291600D03*
X82500Y301100D03*
X76200Y297900D03*
X75500Y337500D03*
X98000Y35000D03*
X90500D03*
X93000D03*
X95500D03*
X90500Y37500D03*
X93000D03*
X95500D03*
X98000D03*
Y40000D03*
X95500D03*
X93000D03*
X90500D03*
X98000Y140500D03*
X94500Y152200D03*
X97500Y154400D03*
X99200Y158200D03*
X96700Y184200D03*
X93500Y190500D03*
Y196800D03*
X88800Y275900D03*
Y282200D03*
Y288500D03*
X98200D03*
X95100D03*
X98200Y294800D03*
X91900Y297900D03*
X92100Y304200D03*
X95100D03*
X95000Y332500D03*
X92500D03*
X97500D03*
X110500Y27500D03*
X108000D03*
X105500D03*
Y30000D03*
X108000D03*
X110500D03*
Y25000D03*
X108000D03*
X105500D03*
X103900Y158000D03*
X109200Y184200D03*
X99800Y190500D03*
X102900Y187300D03*
X99800D03*
X102900Y184200D03*
X109200Y196800D03*
X101400Y304200D03*
X104500D03*
X100000Y332500D03*
X113000Y25000D03*
Y27500D03*
Y30000D03*
X115100Y143000D03*
X112400Y141000D03*
X123000Y273000D03*
X115500Y369500D03*
X120500D03*
X118000D03*
X128000Y151900D03*
Y154400D03*
X133900Y159800D03*
X135400Y172700D03*
X128100Y187300D03*
X125000Y193600D03*
X131300D03*
X128100D03*
Y196800D03*
X125000D03*
X134300Y196900D03*
X128100Y218800D03*
Y215700D03*
X127500Y369500D03*
X132500D03*
X130000D03*
X125000Y381500D03*
X138600Y159800D03*
X148400Y181000D03*
X143900Y184200D03*
X140700D03*
X144700Y239300D03*
X137600Y234600D03*
X140700Y244000D03*
X145900Y300900D03*
X144500Y309400D03*
Y311900D03*
X141500Y362000D03*
X141000Y369500D03*
X144500D03*
X143000Y384000D03*
X148000D03*
X150800Y181400D03*
X152800Y178300D03*
X156800Y185900D03*
X153200Y194700D03*
X149600Y205500D03*
X154600Y200400D03*
X156600Y200800D03*
X153300Y227600D03*
X151000Y226700D03*
X153200Y229700D03*
X155400Y232000D03*
X148600Y242400D03*
X152100Y252100D03*
X160000Y267800D03*
X154800Y261000D03*
X154400Y267600D03*
X158600Y260700D03*
X152800Y258200D03*
X154800Y264800D03*
X150000Y362000D03*
X149500Y369500D03*
X154500D03*
X159500D03*
X157000D03*
X169700Y176100D03*
X164400Y182600D03*
X160800Y185500D03*
X167200Y183500D03*
X164400Y188700D03*
X166800Y187100D03*
X168200Y196500D03*
X170300Y228300D03*
X166600Y232000D03*
X163800Y267200D03*
X165400Y261200D03*
X169700Y262000D03*
X163200Y260900D03*
X166600Y267200D03*
X165400Y269300D03*
X170800Y299100D03*
X171800Y301300D03*
X164600Y297400D03*
Y299300D03*
X170100Y333700D03*
X161800Y331900D03*
X166000Y362000D03*
X172900Y172900D03*
X180400Y181000D03*
X176000Y172900D03*
X179200Y176100D03*
X179600Y187000D03*
X183600D03*
X176000Y191800D03*
X183400Y201000D03*
X178700Y214700D03*
X183600Y218500D03*
X177200Y226100D03*
X179700D03*
X181900Y236600D03*
X172900Y243100D03*
X179200Y246300D03*
X184400Y253900D03*
X172900Y246300D03*
X179200Y249400D03*
X177300Y252400D03*
X176000Y265200D03*
X178800Y257600D03*
X179200Y262000D03*
X180900Y321800D03*
X180700Y319000D03*
X194900Y182400D03*
X188600Y172900D03*
X191800Y176100D03*
Y172900D03*
X185500Y176100D03*
X191400Y183900D03*
X185500Y191800D03*
X193400Y185500D03*
X189400Y183100D03*
X195000Y202100D03*
X185500Y195000D03*
X196500Y199700D03*
X195000Y217500D03*
X185800Y218500D03*
X193400Y226500D03*
X191100Y225600D03*
X196500Y225800D03*
X185500Y243100D03*
X196500Y255700D03*
X189200Y253500D03*
X185500Y246300D03*
X194900D03*
X193400Y254100D03*
X191800Y255700D03*
X187200Y253500D03*
X188600Y265200D03*
X191800D03*
X194900Y262000D03*
X185500D03*
X198100Y169800D03*
X202800Y165900D03*
X206000Y182400D03*
X199700D03*
X204400Y176100D03*
X209100Y182400D03*
X198100Y172900D03*
X202800Y180800D03*
X207500Y185500D03*
X204400D03*
X201200Y204400D03*
X198000Y208600D03*
X203200Y210800D03*
X201300Y226500D03*
X199600Y224600D03*
X207500Y229600D03*
X209200Y224700D03*
X198200Y236800D03*
X206000Y252600D03*
X199700Y255700D03*
X209100Y252600D03*
X207500Y255700D03*
X204400D03*
X198100Y252600D03*
X202800D03*
X204400Y262000D03*
X204000Y318500D03*
Y321500D03*
X215400Y182400D03*
X212300D03*
X218600D03*
X210700Y185500D03*
X213800D03*
X217000D03*
X220100D03*
X210600Y211500D03*
X220600Y218500D03*
X215400Y210500D03*
X213800Y222100D03*
X217000Y223300D03*
X218600Y220200D03*
X212200Y225000D03*
X215400Y252600D03*
X210700Y255700D03*
X212300Y252600D03*
X213800Y255700D03*
X218600Y252600D03*
X217000Y255700D03*
X220100D03*
X220500Y347500D03*
X221700Y182400D03*
X224900D03*
X228000D03*
X226400Y185500D03*
X229600D03*
X223300D03*
X231200Y183900D03*
X232700Y185500D03*
Y217700D03*
X229600Y217900D03*
X231200Y209900D03*
X224900Y218600D03*
X228000Y223500D03*
X223200Y221700D03*
X226400D03*
Y255700D03*
X229600D03*
X223300D03*
X221700Y252600D03*
X224900D03*
X231200D03*
X232700Y255700D03*
X228000Y252600D03*
X223500Y321000D03*
X230500Y332500D03*
X242500Y60500D03*
Y75500D03*
X234300Y212600D03*
X235900Y221600D03*
X237500Y219500D03*
X239000Y221000D03*
X254200Y216700D03*
X257500Y233500D03*
X258000Y372000D03*
X263000Y156500D03*
X269300Y256500D03*
X269700Y271500D03*
X273000Y163000D03*
G54D21*
G01X23900Y217900D02*
X20700D01*
X18800Y219800D01*
X14000D01*
X11500Y217300D01*
Y179000D01*
X17100Y173400D01*
G01X15100Y171300D02*
X10700Y175700D01*
Y217800D01*
X13500Y220600D01*
X21400D01*
X21800Y220200D01*
G01X13200Y183600D02*
Y217700D01*
X13900Y218400D01*
X17200D01*
G01X19500Y349000D02*
X5500D01*
X2000Y345500D01*
Y254000D01*
X25810Y230190D01*
X27690D01*
X41000Y216880D01*
Y179000D01*
X46000Y174000D01*
Y164500D01*
X50500Y160000D01*
X86000D01*
X98500Y172500D01*
X101500D01*
X107000Y178000D01*
Y185500D01*
X108800Y187300D01*
X128100D01*
G01X8500Y245500D02*
X26000Y228000D01*
Y215500D01*
X29500Y212000D01*
Y203500D01*
X27500Y201500D01*
Y196500D01*
X29500Y194500D01*
Y166000D01*
X51000Y144500D01*
X109500D01*
X111500Y146500D01*
X145500D01*
X151500Y140500D01*
X243000D01*
X268500Y166000D01*
Y252500D01*
X276000Y260000D01*
Y273500D01*
X228500Y321000D01*
X223500D01*
G01X102900Y187300D02*
X101000Y185400D01*
Y179500D01*
X88000Y166500D01*
X51500D01*
X49000Y169000D01*
Y177500D01*
X44000Y182500D01*
Y222000D01*
X29000Y237000D01*
X23000D01*
X4000Y256000D01*
Y342500D01*
X7000Y345500D01*
X13000D01*
X14500Y344000D01*
X18000D01*
G01X15500Y345500D02*
X14000Y347000D01*
X6000D01*
X3000Y344000D01*
Y255000D01*
X25000Y233000D01*
X29500D01*
X34500Y228000D01*
Y226500D01*
X42500Y218500D01*
Y182000D01*
X47500Y177000D01*
Y168000D01*
X50500Y165000D01*
X88500D01*
X102900Y179400D01*
Y184200D01*
G01X15500Y338500D02*
Y337500D01*
X6500Y328500D01*
Y268500D01*
X24000Y251000D01*
Y245500D01*
X46000Y223500D01*
Y185000D01*
X53500Y177500D01*
Y172500D01*
X57500Y168500D01*
X86000D01*
X96700Y179200D01*
Y184200D01*
G01X99800Y190500D02*
X98300Y189000D01*
X96000D01*
X95000Y188000D01*
Y179500D01*
X85500Y170000D01*
X58000D01*
X55000Y173000D01*
Y178000D01*
X47000Y186000D01*
Y227000D01*
X43500Y230500D01*
X41500D01*
X26500Y245500D01*
Y251000D01*
X8000Y269500D01*
Y312000D01*
X12000Y316000D01*
Y330500D01*
X18000Y336500D01*
G01X15500Y342500D02*
X13000D01*
X11500Y344000D01*
X8000D01*
X5000Y341000D01*
Y268000D01*
X22000Y251000D01*
Y245500D01*
X45000Y222500D01*
Y184000D01*
X52500Y176500D01*
Y171000D01*
X56000Y167500D01*
X87000D01*
X99800Y180300D01*
Y187300D01*
G01X85000Y172000D02*
X84500Y171500D01*
X66500D01*
X48000Y190000D01*
Y227500D01*
X41500Y234000D01*
Y238000D01*
X10500Y269000D01*
Y283000D01*
X12000Y284500D01*
Y297000D01*
X10000Y299000D01*
Y310000D01*
X14500Y314500D01*
Y329500D01*
X21000Y336000D01*
Y341500D01*
X21500Y342000D01*
Y371500D01*
X40500Y390500D01*
X64500D01*
X68000Y387000D01*
X81000D01*
X84500Y390500D01*
X185610D01*
X190728Y385382D01*
G01Y380461D02*
X182189Y389000D01*
X118500D01*
X112500Y383000D01*
X84500D01*
X82500Y385000D01*
X66500D01*
X62500Y389000D01*
X48500D01*
X25000Y365500D01*
Y343500D01*
X22500Y341000D01*
Y335500D01*
X16000Y329000D01*
Y313500D01*
X12000Y309500D01*
Y301500D01*
X13500Y300000D01*
Y288000D01*
X20250Y281250D01*
Y261250D01*
X44000Y237500D01*
Y234500D01*
X49000Y229500D01*
Y191000D01*
X67500Y172500D01*
X83000D01*
X85000Y174500D01*
G01X15300Y217000D02*
Y184500D01*
X19100Y180700D01*
Y169500D01*
G01X26900Y181500D02*
X25000Y179700D01*
Y171600D01*
G01X93500Y190500D02*
Y181000D01*
X91000Y178500D01*
X82000D01*
X77000Y173500D01*
X68499D01*
X50000Y191999D01*
Y233500D01*
X22000Y261500D01*
Y282000D01*
X15000Y289000D01*
Y309500D01*
X18000Y312500D01*
Y328500D01*
G01X93500Y196800D02*
X92000Y195300D01*
Y182500D01*
X89000Y179500D01*
X80000D01*
X75000Y174500D01*
X69501D01*
X51090Y192911D01*
Y234411D01*
X24000Y261501D01*
Y282000D01*
X16500Y289500D01*
Y308500D01*
X19500Y311500D01*
Y330000D01*
G01X22500Y327000D02*
Y309500D01*
X19500Y306500D01*
Y296500D01*
X29000Y287000D01*
Y266000D01*
X53000Y242000D01*
Y195000D01*
X68000Y180000D01*
X75000D01*
X76500Y181500D01*
X87500D01*
X89000Y183000D01*
Y185500D01*
X87200Y187300D01*
G01Y193600D02*
X90500Y190300D01*
Y183000D01*
X88000Y180500D01*
X78500D01*
X77000Y179000D01*
X67000D01*
X52090Y193910D01*
Y237910D01*
X27500Y262500D01*
Y284000D01*
X18000Y293500D01*
Y307500D01*
X21000Y310500D01*
Y328500D01*
G01X70500Y182500D02*
Y190500D01*
X65000Y196000D01*
Y206500D01*
X56000Y215500D01*
Y246500D01*
X38000Y264500D01*
Y273500D01*
X31500Y280000D01*
Y288500D01*
X24000Y296000D01*
Y306500D01*
X25500Y308000D01*
Y324000D01*
G01X87200Y184200D02*
X85500Y182500D01*
X74500D01*
X73000Y181000D01*
X69000D01*
X68000Y182000D01*
Y190500D01*
X63500Y195000D01*
Y198000D01*
X60500Y201000D01*
X56000D01*
X54000Y203000D01*
Y246500D01*
X36500Y264000D01*
Y270000D01*
X30000Y276500D01*
Y288000D01*
X22500Y295500D01*
Y307000D01*
X24000Y308500D01*
Y325500D01*
G01X26000Y195100D02*
X26900Y194300D01*
Y181500D01*
G01X34900Y220100D02*
Y216100D01*
X36500Y214500D01*
Y176000D01*
X38700Y173800D01*
Y169900D01*
G01X36800Y172500D02*
X33000Y176300D01*
Y221900D01*
G01X40700Y173800D02*
X38000Y176500D01*
Y215000D01*
X36900Y216100D01*
Y218400D01*
G01X87200Y190500D02*
X74500D01*
X68000Y197000D01*
Y209500D01*
X61500Y216000D01*
Y246000D01*
X47000Y260500D01*
Y268500D01*
X34500Y281000D01*
Y289500D01*
X30750Y293250D01*
Y305750D01*
X28500Y308000D01*
Y321000D01*
G01X84000Y184200D02*
X78800D01*
X66500Y196500D01*
Y206500D01*
X60000Y213000D01*
Y245000D01*
X40000Y265000D01*
Y273500D01*
X33000Y280500D01*
Y289000D01*
X29500Y292500D01*
Y304500D01*
X27000Y307000D01*
Y322500D01*
G01X115500Y369500D02*
X110500Y374500D01*
X36500D01*
X30000Y368000D01*
Y342020D01*
X29600Y341620D01*
X28800D01*
X28400Y342020D01*
Y359100D01*
X28000Y359500D01*
X27200D01*
X26800Y359100D01*
Y339700D01*
X30000Y336500D01*
Y309000D01*
X32000Y307000D01*
Y294000D01*
X36500Y289500D01*
Y281500D01*
X43500Y274500D01*
X55500D01*
X57000Y276000D01*
G01X45000Y278500D02*
X42000D01*
X38250Y282250D01*
Y289750D01*
X33500Y294500D01*
Y308500D01*
X31500Y310500D01*
Y365000D01*
X39500Y373000D01*
X108000D01*
X113000Y368000D01*
X116500D01*
X118000Y369500D01*
G01X48000Y278500D02*
Y284500D01*
X36500Y296000D01*
Y311000D01*
X34500Y313000D01*
Y343500D01*
X36500Y345500D01*
Y357000D01*
X50000Y370500D01*
X66500D01*
X69500Y367500D01*
X74000D01*
X76000Y369500D01*
X99000D01*
X102500Y366000D01*
X119500D01*
X135500Y382000D01*
X141000D01*
X143000Y384000D01*
G01X120500Y369500D02*
X118000Y367000D01*
X110000D01*
X105500Y371500D01*
X42500D01*
X35000Y364000D01*
Y346500D01*
X33000Y344500D01*
Y312000D01*
X35000Y310000D01*
Y295000D01*
X42000Y288000D01*
Y283500D01*
X46500Y279000D01*
Y276000D01*
G01X148000Y384000D02*
X145000Y381000D01*
X136500D01*
X120500Y365000D01*
X83288D01*
X82888Y365400D01*
Y367100D01*
X82488Y367500D01*
X81188D01*
X80788Y367100D01*
Y365400D01*
X80388Y365000D01*
X62494D01*
X62094Y365400D01*
Y367100D01*
X61694Y367500D01*
X60894D01*
X60494Y367100D01*
Y365400D01*
X60094Y365000D01*
X59294D01*
X58894Y365400D01*
Y367100D01*
X58494Y367500D01*
X57694D01*
X57294Y367100D01*
Y365400D01*
X56894Y365000D01*
X56094D01*
X55694Y365400D01*
Y367100D01*
X55294Y367500D01*
X54494D01*
X54094Y367100D01*
Y365400D01*
X53694Y365000D01*
X52894D01*
X52494Y365400D01*
Y367100D01*
X52094Y367500D01*
X51294D01*
X50894Y367100D01*
Y365400D01*
X50494Y365000D01*
X48000D01*
X40000Y357000D01*
Y346500D01*
X36500Y343000D01*
Y321000D01*
X42500Y315000D01*
Y292000D01*
X49500Y285000D01*
Y279500D01*
X50500Y278500D01*
G01X38900Y217000D02*
X39500Y216400D01*
Y177300D01*
X42700Y174100D01*
Y172200D01*
G01X141500Y362000D02*
X132534Y353034D01*
Y352468D01*
X133086Y351916D01*
X133652D01*
X139736Y358000D01*
X140356D01*
X140895Y357461D01*
Y356895D01*
X128500Y344500D01*
X125501D01*
X122001Y348000D01*
X107000D01*
X106000Y347000D01*
X81001D01*
X77801Y350200D01*
X71400D01*
X71000Y349800D01*
Y349000D01*
X71400Y348600D01*
X76441D01*
X76841Y348200D01*
Y347400D01*
X76441Y347000D01*
X68500D01*
X62000Y340500D01*
Y332500D01*
X59000Y329500D01*
Y291500D01*
X66000Y284500D01*
Y279500D01*
X61000Y274500D01*
X59000D01*
X54300Y269800D01*
X49400D01*
X49000Y270200D01*
Y271000D01*
X49400Y271400D01*
X53024D01*
X53424Y271800D01*
Y272600D01*
X53024Y273000D01*
X47500D01*
G01X127500Y369500D02*
X121500Y363500D01*
X56000D01*
X54000Y361500D01*
X48000D01*
X41500Y355000D01*
Y345500D01*
X38300Y342300D01*
Y321900D01*
X38700Y321500D01*
X39266D01*
X39666Y321900D01*
Y340908D01*
X40066Y341308D01*
X40866D01*
X41266Y340908D01*
Y319734D01*
X47000Y314000D01*
Y302001D01*
X46084Y301085D01*
X44400D01*
X44000Y300685D01*
Y299885D01*
X44400Y299485D01*
X46600D01*
X47000Y299085D01*
Y298285D01*
X46600Y297885D01*
X44400D01*
X44000Y297485D01*
Y296685D01*
X44400Y296285D01*
X46216D01*
X47000Y295501D01*
Y289500D01*
X51000Y285500D01*
Y280500D01*
X52000Y279500D01*
Y276000D01*
G01X130000Y369500D02*
Y366500D01*
X123500Y360000D01*
X116500D01*
X114500Y362000D01*
X57293D01*
X54972Y359679D01*
X49179D01*
X44500Y355000D01*
Y350000D01*
X43000Y348500D01*
Y320837D01*
X43400Y320437D01*
X44200D01*
X44600Y320837D01*
Y347600D01*
X45000Y348000D01*
X45800D01*
X46200Y347600D01*
Y319800D01*
X50000Y316000D01*
Y310500D01*
X48500Y309000D01*
Y290500D01*
X55000Y284000D01*
Y280000D01*
X53500Y278500D01*
G01X56500D02*
Y284500D01*
X51500Y289500D01*
Y326500D01*
X47500Y330500D01*
Y349500D01*
X53678Y355678D01*
Y356244D01*
X53112Y356810D01*
X52046D01*
X47151Y351915D01*
X46585D01*
X46019Y352481D01*
Y353047D01*
X51472Y358500D01*
X56500D01*
X58500Y360500D01*
X62499D01*
X65699Y357300D01*
X85100D01*
X85500Y357700D01*
Y358500D01*
X85100Y358900D01*
X66283D01*
X65883Y359300D01*
Y360100D01*
X66283Y360500D01*
X113500D01*
X115500Y358500D01*
X123500D01*
X132500Y367500D01*
Y369500D01*
G01X149500D02*
X146000Y373000D01*
X137560D01*
X137160Y373400D01*
Y374200D01*
X137560Y374600D01*
X145600D01*
X146000Y375000D01*
Y375800D01*
X145600Y376200D01*
X137600D01*
X137200Y376600D01*
Y377400D01*
X137600Y377800D01*
X145200D01*
X145600Y378200D01*
Y379000D01*
X145200Y379400D01*
X137400D01*
X135000Y377000D01*
Y368500D01*
X123500Y357000D01*
X114000D01*
X112000Y359000D01*
X89000D01*
X86000Y356000D01*
X57000D01*
X49000Y348000D01*
Y331000D01*
X53000Y327000D01*
Y290000D01*
X59500Y283500D01*
Y276500D01*
X60000Y276000D01*
G01X52000Y258000D02*
X61500Y267500D01*
Y270000D01*
X72000Y280500D01*
Y286000D01*
X68000Y290000D01*
Y318000D01*
X75500Y325500D01*
Y337500D01*
G01X63000Y283500D02*
Y284000D01*
X56000Y291000D01*
Y329104D01*
X54500Y330604D01*
Y336939D01*
X54900Y337339D01*
X57600D01*
X58000Y337739D01*
Y338539D01*
X57600Y338939D01*
X54900D01*
X54500Y339339D01*
Y343528D01*
X61759Y350787D01*
X62325D01*
X63023Y350089D01*
Y349523D01*
X56500Y343000D01*
Y342434D01*
X57268Y341666D01*
X57834D01*
X69168Y353000D01*
X104500D01*
X106500Y351000D01*
X122977D01*
X123377Y351400D01*
Y352200D01*
X122977Y352600D01*
X112900D01*
X112500Y353000D01*
Y353800D01*
X112900Y354200D01*
X126700D01*
X127656Y355156D01*
Y355722D01*
X126722Y356656D01*
Y357222D01*
X127288Y357788D01*
X127854D01*
X128788Y356854D01*
X129354D01*
X129920Y357420D01*
Y357986D01*
X128986Y358920D01*
Y359486D01*
X129552Y360052D01*
X130118D01*
X131052Y359118D01*
X131618D01*
X135431Y362931D01*
Y363497D01*
X134747Y364181D01*
Y364747D01*
X135313Y365313D01*
X135879D01*
X136563Y364629D01*
X137129D01*
X137695Y365195D01*
Y365761D01*
X137011Y366445D01*
Y367011D01*
X137577Y367577D01*
X138143D01*
X138827Y366893D01*
X139393D01*
X141000Y368500D01*
Y369500D01*
G01X144500D02*
X142500Y371500D01*
X137500D01*
X136500Y370500D01*
Y368500D01*
X123500Y355500D01*
X108000D01*
X105800Y357700D01*
X89900D01*
X89500Y357300D01*
Y356500D01*
X89900Y356100D01*
X104700D01*
X105100Y355700D01*
Y354900D01*
X104700Y354500D01*
X57945D01*
X51256Y347811D01*
Y347245D01*
X51822Y346679D01*
X52388D01*
X57664Y351955D01*
X58230D01*
X58796Y351389D01*
Y350823D01*
X53000Y345027D01*
Y329500D01*
X54500Y328000D01*
Y290500D01*
X61000Y284000D01*
Y281000D01*
G01X64500D02*
Y284500D01*
X57500Y291500D01*
Y332000D01*
X59500Y334000D01*
Y341000D01*
X70000Y351500D01*
X103308D01*
X103708Y351100D01*
Y350300D01*
X103308Y349900D01*
X82400D01*
X82000Y349500D01*
Y348700D01*
X82400Y348300D01*
X104800D01*
X106000Y349500D01*
X124000D01*
X127000Y352500D01*
X129500D01*
X130379Y353379D01*
Y353945D01*
X129695Y354629D01*
Y355195D01*
X130261Y355761D01*
X130827D01*
X131511Y355077D01*
X132077D01*
X132643Y355643D01*
Y356209D01*
X131959Y356893D01*
Y357459D01*
X132525Y358025D01*
X133091D01*
X133775Y357341D01*
X134341D01*
X134907Y357907D01*
Y358473D01*
X134223Y359157D01*
Y359723D01*
X134789Y360289D01*
X135355D01*
X136039Y359605D01*
X136605D01*
X139742Y362742D01*
Y363308D01*
X139058Y363992D01*
Y364558D01*
X139624Y365124D01*
X140190D01*
X140874Y364440D01*
X141440D01*
X142800Y365800D01*
Y367600D01*
X143200Y368000D01*
X144000D01*
X144400Y367600D01*
Y366400D01*
X144800Y366000D01*
X151000D01*
X154500Y369500D01*
G01X69000Y281000D02*
Y285000D01*
X62000Y292000D01*
Y324500D01*
X68000Y330500D01*
Y338500D01*
X70500Y341000D01*
X106500D01*
X109700Y344200D01*
X121100D01*
X121500Y343800D01*
Y343000D01*
X121100Y342600D01*
X111076D01*
X110676Y342200D01*
Y341400D01*
X111076Y341000D01*
X144000D01*
X148200Y345200D01*
Y360100D01*
X147800Y360500D01*
X147000D01*
X146600Y360100D01*
Y346600D01*
X146200Y346200D01*
X145400D01*
X145000Y346600D01*
Y361000D01*
X147500Y363500D01*
X153500D01*
X159500Y369500D01*
G01X67500Y283500D02*
Y284500D01*
X60500Y291500D01*
Y327500D01*
X64000Y331000D01*
Y339000D01*
X67500Y342500D01*
X77033D01*
X77433Y342900D01*
Y343700D01*
X77033Y344100D01*
X69900D01*
X69500Y344500D01*
Y345300D01*
X69900Y345700D01*
X78633D01*
X81833Y342500D01*
X104506D01*
X104906Y342900D01*
Y343700D01*
X104506Y344100D01*
X88400D01*
X88000Y344500D01*
Y345300D01*
X88400Y345700D01*
X121800D01*
X124500Y343000D01*
X134500D01*
X136647Y345147D01*
Y345713D01*
X134963Y347397D01*
Y347963D01*
X135529Y348529D01*
X136095D01*
X137779Y346845D01*
X138345D01*
X140677Y349177D01*
Y349743D01*
X139243Y351177D01*
Y351743D01*
X139809Y352309D01*
X140375D01*
X141684Y351000D01*
X142500D01*
X143500Y352000D01*
Y362000D01*
X146000Y364500D01*
X152000D01*
X157000Y369500D01*
G01X74600Y199900D02*
Y201600D01*
X79000Y206000D01*
Y207500D01*
X79500Y208000D01*
X85812D01*
X87400Y209500D01*
Y212400D01*
X85600Y214100D01*
Y223900D01*
X84000Y225500D01*
X80900D01*
X78500Y227900D01*
Y245500D01*
X82400Y249400D01*
Y253200D01*
X81000Y254600D01*
Y266200D01*
X84100Y269300D01*
Y274200D01*
X82500Y275900D01*
G01X88800Y282200D02*
X87200Y280600D01*
X77600D01*
X66100Y269100D01*
Y261881D01*
X67800Y260081D01*
Y219636D01*
X74500Y212936D01*
Y207500D01*
X70500Y203500D01*
Y197000D01*
X72500Y195000D01*
X86500D01*
X90500Y199000D01*
X101500D01*
X103700Y196800D01*
X109200D01*
G01X254200Y216700D02*
Y164700D01*
X248500Y159000D01*
X155000D01*
X132900Y181100D01*
Y200900D01*
X129100Y204600D01*
X79600D01*
X77500Y202500D01*
Y199000D01*
X76500Y198000D01*
X74000D01*
X72900Y199100D01*
Y201400D01*
X78000Y206500D01*
Y208500D01*
X79500Y210000D01*
Y219500D01*
X78200Y220800D01*
X75700D01*
X72000Y224500D01*
Y242500D01*
X73500Y244000D01*
G01X82500Y272700D02*
X80900Y274300D01*
X74300D01*
X68500Y268500D01*
Y261700D01*
X69400Y260800D01*
Y220300D01*
X76500Y213200D01*
Y206500D01*
X72100Y202100D01*
Y198268D01*
X73368Y197000D01*
X77000D01*
X81500Y201500D01*
X86500D01*
X88000Y203000D01*
X94000D01*
X95500Y201500D01*
X127400D01*
X131300Y197600D01*
Y193600D01*
G01X128100D02*
X129900Y195400D01*
Y197500D01*
X127500Y199900D01*
X124100D01*
X122600Y198400D01*
X121000D01*
X120200Y197600D01*
X117300D01*
X116400Y198500D01*
X104500D01*
X103000Y200000D01*
X89500D01*
X87712Y198212D01*
X80212D01*
X78000Y196000D01*
X73000D01*
X71300Y197700D01*
Y202800D01*
X75500Y207000D01*
Y213068D01*
X68600Y219968D01*
Y260468D01*
X67447Y261621D01*
X66900Y262200D01*
Y268400D01*
X76000Y277500D01*
X84100D01*
X85600Y279000D01*
G01X95000Y332500D02*
X93483Y334017D01*
X89219D01*
X69800Y314598D01*
Y290002D01*
X73300Y286502D01*
Y279498D01*
X63300Y269498D01*
Y221002D01*
X70450Y213852D01*
Y208950D01*
X69500Y208000D01*
G01X72600D02*
X71650Y208950D01*
Y214350D01*
X64500Y221500D01*
Y269000D01*
X74500Y279000D01*
Y287000D01*
X71000Y290500D01*
Y314100D01*
X74210Y317310D01*
X75625D01*
X76190Y317875D01*
Y319290D01*
X77210Y320310D01*
X78625D01*
X79190Y320875D01*
Y322290D01*
X80460Y323560D01*
X81875D01*
X82440Y324125D01*
Y325540D01*
X83460Y326560D01*
X84875D01*
X85440Y327125D01*
Y328540D01*
X86460Y329560D01*
X87875D01*
X88440Y330125D01*
Y331540D01*
X89717Y332817D01*
X92183D01*
X92500Y332500D01*
G01X77700Y218800D02*
X76200Y217300D01*
X73700D01*
X70200Y220800D01*
Y260632D01*
X72200Y262632D01*
Y269800D01*
G01X74600Y218800D02*
X71000Y222400D01*
Y260300D01*
X73000Y262300D01*
Y267700D01*
X78000Y272800D01*
X79400D01*
G01X74600Y266500D02*
Y262200D01*
X73200Y260800D01*
Y250700D01*
X76100Y247800D01*
Y223900D01*
X78000Y222000D01*
X79500D01*
X81000Y220500D01*
Y217925D01*
X82500Y216500D01*
Y211700D01*
X83300Y210900D01*
X85700D01*
G01X150000Y362000D02*
Y350172D01*
X150400Y349772D01*
X151200D01*
X151600Y350172D01*
Y360100D01*
X152000Y360500D01*
X152800D01*
X153200Y360100D01*
Y350172D01*
X153600Y349772D01*
X154400D01*
X155300Y350672D01*
Y360600D01*
X155700Y361000D01*
X156500D01*
X156900Y360600D01*
Y349400D01*
X155172Y347672D01*
X152172D01*
X150000Y345500D01*
Y344000D01*
X145000Y339000D01*
X71501D01*
X69800Y337299D01*
Y330400D01*
X70200Y330000D01*
X71000D01*
X71400Y330400D01*
Y335619D01*
X71800Y336019D01*
X72600D01*
X73000Y335619D01*
Y326971D01*
X67832Y321803D01*
X67266D01*
X66700Y322369D01*
Y322935D01*
X69964Y326199D01*
Y326765D01*
X69398Y327331D01*
X68832D01*
X65000Y323499D01*
Y291000D01*
X70500Y285500D01*
Y283500D01*
G01X84000Y215700D02*
Y216500D01*
X82400Y218100D01*
Y222100D01*
X81500Y223000D01*
X78700D01*
X76900Y224800D01*
Y248100D01*
X76800Y248200D01*
Y248400D01*
X76200Y249000D01*
Y264600D01*
X77700Y266200D01*
Y269100D01*
G01X84000Y218800D02*
Y223000D01*
X83000Y224000D01*
X80000D01*
X77700Y226300D01*
Y247200D01*
X79300Y248800D01*
Y267300D01*
X81500Y269500D01*
G01X88800Y275900D02*
Y271800D01*
X82500Y265600D01*
Y256100D01*
X85600Y252900D01*
Y249200D01*
X85100Y248700D01*
X83100D01*
X79300Y244900D01*
Y230200D01*
X83000Y226500D01*
X91000D01*
X91900Y225600D01*
Y221400D01*
X95100Y218200D01*
Y214100D01*
X101500Y207700D01*
X129400D01*
X136000Y201100D01*
Y198600D01*
X134300Y196900D01*
G01X84100Y228200D02*
Y235600D01*
X94500Y246000D01*
X102000D01*
X104500Y248500D01*
Y254500D01*
X123000Y273000D01*
G01X144500Y309400D02*
X117500Y282400D01*
Y276500D01*
X100000Y259000D01*
Y249000D01*
X98000Y247000D01*
X93500D01*
X87400Y240900D01*
X84000D01*
G01X258000Y372000D02*
X225000D01*
X195250Y342250D01*
X153750D01*
X149000Y337500D01*
X75500D01*
G01X128000Y151900D02*
X126800Y150700D01*
X112000D01*
X110500Y152200D01*
X94500D01*
G01X128000Y154400D02*
X121800D01*
X121400Y154000D01*
Y152400D01*
X121000Y152000D01*
X120200D01*
X119800Y152400D01*
Y154000D01*
X119400Y154400D01*
X118600D01*
X118200Y154000D01*
Y152400D01*
X117800Y152000D01*
X117000D01*
X116600Y152400D01*
Y154000D01*
X116200Y154400D01*
X115400D01*
X115000Y154000D01*
Y152400D01*
X114600Y152000D01*
X113800D01*
X113400Y152400D01*
Y154000D01*
X113000Y154400D01*
X97500D01*
G01X87200Y234600D02*
X88600Y236000D01*
X94000D01*
X95000Y237000D01*
Y238500D01*
X96000Y239500D01*
X108000D01*
X109500Y241000D01*
Y244000D01*
X111000Y245500D01*
X121000D01*
X143500Y268000D01*
Y298500D01*
X145900Y300900D01*
G01X204000Y318500D02*
X202500Y320000D01*
Y330802D01*
X195002Y338300D01*
X155998D01*
X146498Y328800D01*
X99502D01*
X98150Y330152D01*
Y331850D01*
X97500Y332500D01*
G01X99200Y158200D02*
X101900Y155500D01*
X125600D01*
X126700Y156500D01*
X135300D01*
X138600Y159800D01*
G01X133900D02*
X131500Y157300D01*
X126100D01*
X125100Y156300D01*
X105600D01*
X103900Y158000D01*
G01X109200Y184200D02*
X125800D01*
X128000Y182000D01*
Y173000D01*
X154500Y146500D01*
X188000D01*
X191000Y149500D01*
X249000D01*
X267000Y167500D01*
Y273500D01*
X229500Y311000D01*
X177500D01*
X173000Y306500D01*
X152000D01*
X146600Y311900D01*
X144500D01*
G01X204000Y321500D02*
X203700Y321800D01*
Y331300D01*
X195500Y339500D01*
X155500D01*
X146000Y330000D01*
X100000D01*
X99350Y330650D01*
Y331850D01*
X100000Y332500D01*
G01X171800Y301300D02*
X180000Y309500D01*
X228500D01*
X265500Y272500D01*
Y169000D01*
X247500Y151000D01*
X160536D01*
X159036Y152500D01*
X153000D01*
X129500Y176000D01*
Y188500D01*
X128500Y189500D01*
X126500D01*
X123500Y192500D01*
Y197500D01*
X124500Y198500D01*
X126400D01*
X128100Y196800D01*
G01X170800Y299100D02*
X173100D01*
X182000Y308000D01*
X227500D01*
X264000Y271500D01*
Y170000D01*
X248000Y154000D01*
X157300D01*
X135400Y175900D01*
G01X125000Y193600D02*
Y192500D01*
X126743Y190757D01*
X128743D01*
X131000Y188500D01*
Y180300D01*
X135400Y175900D01*
G01D02*
Y172700D01*
G01X125000Y196800D02*
X126600Y195100D01*
Y192700D01*
X127300Y192000D01*
X129000D01*
X131900Y189100D01*
Y180700D01*
X157100Y155500D01*
X182500D01*
X184500Y157500D01*
X249500D01*
X260500Y168500D01*
Y230500D01*
X257500Y233500D01*
G01X150800Y181400D02*
Y179800D01*
X149900Y178900D01*
X147000D01*
X146700Y178600D01*
Y178100D01*
X148500Y176300D01*
X153100D01*
X154400Y175000D01*
Y170400D01*
X155600Y169200D01*
X157700D01*
X158200Y168700D01*
Y166800D01*
X158600Y166400D01*
X159600D01*
X159800Y166600D01*
Y168800D01*
X160200Y169200D01*
X160600D01*
X161000Y168800D01*
Y167000D01*
X161600Y166400D01*
X188400D01*
X190200Y168300D01*
Y174500D01*
X191800Y176100D01*
G01Y172900D02*
Y167200D01*
X189800Y165200D01*
X157600D01*
X143800Y179000D01*
Y179800D01*
X144400Y180400D01*
X147800D01*
X148400Y181000D01*
G01X143900Y184200D02*
X147500Y187800D01*
Y201000D01*
X150000Y203500D01*
X156400D01*
X158800Y205800D01*
X165400D01*
X165600Y205600D01*
Y204900D01*
X165300Y204600D01*
X163800D01*
X163400Y204200D01*
Y203800D01*
X164000Y203200D01*
X166500D01*
X168800Y201000D01*
X183400D01*
G01X185500Y195000D02*
X184100Y196400D01*
X181500D01*
X180800Y197100D01*
Y199400D01*
X180300Y199900D01*
X167800D01*
X166200Y201400D01*
X160500D01*
X160100Y201800D01*
Y202300D01*
X160600Y202800D01*
X161600D01*
X162200Y203400D01*
Y204000D01*
X161800Y204400D01*
X159400D01*
X157400Y202400D01*
X151000D01*
X148900Y200300D01*
Y185500D01*
X145600Y182300D01*
X141500D01*
X140700Y183100D01*
Y184200D01*
G01X151000Y226700D02*
Y230900D01*
X150600Y231300D01*
X144500D01*
X144100Y230900D01*
Y229800D01*
X144500Y229400D01*
X148700D01*
X149100Y229000D01*
Y228000D01*
X148700Y227600D01*
X144500D01*
X144100Y227200D01*
Y226300D01*
X144500Y225900D01*
X148700D01*
X149100Y225500D01*
Y224600D01*
X148700Y224200D01*
X144400D01*
X144000Y223800D01*
Y223000D01*
X144400Y222600D01*
X153600D01*
X154000Y222200D01*
Y221400D01*
X153600Y221000D01*
X146200D01*
X145800Y220600D01*
Y219700D01*
X146200Y219300D01*
X179300D01*
X179700Y219700D01*
Y226100D01*
G01X185500Y243100D02*
X183900Y241500D01*
X180800D01*
X179800Y240400D01*
Y238800D01*
X179000Y238100D01*
X178200D01*
X177800Y238400D01*
Y240600D01*
X177600Y240900D01*
X176800D01*
X176400Y240400D01*
Y239100D01*
X175300Y238000D01*
X169400D01*
X167200Y240200D01*
X155400D01*
X155000Y239800D01*
Y239400D01*
X155400Y239000D01*
X166700D01*
X167100Y238600D01*
Y238300D01*
X166700Y237900D01*
X155000D01*
X154600Y237500D01*
Y236500D01*
X154400Y236200D01*
X153600D01*
X153400Y236400D01*
Y237600D01*
X153200Y237800D01*
X152600D01*
X152200Y237500D01*
Y235900D01*
X151800Y235500D01*
X151400D01*
X151000Y235800D01*
Y237400D01*
X150200Y238300D01*
X145800D01*
X144800Y239300D01*
X144700D01*
G01X137600Y234600D02*
X139300Y232900D01*
X143000D01*
X143400Y233300D01*
Y236400D01*
X143800Y236800D01*
X144400D01*
X144800Y236400D01*
Y233500D01*
X145400Y232900D01*
X146000D01*
X146300Y233200D01*
Y236200D01*
X146600Y236500D01*
X147200D01*
X147500Y236200D01*
Y233400D01*
X147900Y233000D01*
X148400D01*
X148800Y233400D01*
Y235600D01*
X149200Y236000D01*
X149600D01*
X150000Y235600D01*
Y233800D01*
X150200Y233600D01*
X153700D01*
X156700Y236600D01*
X181900D01*
G01X172900Y243100D02*
X170500Y240700D01*
X169000D01*
X167600Y242100D01*
Y245600D01*
X167200Y246000D01*
X166800D01*
X166400Y245600D01*
Y241800D01*
X166200Y241600D01*
X165600D01*
X165200Y242000D01*
Y245400D01*
X165000Y245600D01*
X164400D01*
X164000Y245200D01*
Y242000D01*
X163600Y241600D01*
X159000D01*
X158600Y241200D01*
X156800D01*
X156400Y241600D01*
Y244200D01*
X156200Y244400D01*
X155800D01*
X155400Y244000D01*
Y242000D01*
X155000Y241600D01*
X154600D01*
X154200Y242000D01*
Y244000D01*
X153800Y244400D01*
X153400D01*
X153000Y244000D01*
Y242000D01*
X152600Y241600D01*
X152200D01*
X151800Y242000D01*
Y244000D01*
X151400Y244400D01*
X151000D01*
X150600Y244000D01*
Y241600D01*
X150200Y241200D01*
Y240700D01*
X150400Y240400D01*
X153400D01*
X153600Y240200D01*
Y239600D01*
X153200Y239200D01*
X148200D01*
X146400Y241000D01*
Y244400D01*
X146000Y244800D01*
X145000D01*
X144600Y244400D01*
Y242000D01*
X144200Y241600D01*
X143600D01*
X143200Y242000D01*
Y243400D01*
X142600Y244000D01*
X140700D01*
G01X179200Y246300D02*
Y246900D01*
X178000Y248100D01*
X162900D01*
X159400Y251600D01*
X157400D01*
X154600Y254400D01*
X150600D01*
X148400Y252200D01*
X143800D01*
X143400Y251800D01*
Y251400D01*
X143800Y251000D01*
X147000D01*
X147200Y250800D01*
Y250200D01*
X146800Y249800D01*
X141800D01*
X141400Y249400D01*
Y249000D01*
X141800Y248600D01*
X148200D01*
X148800Y249200D01*
Y251000D01*
X149900Y252100D01*
X152100D01*
G01X172900Y246300D02*
X168800D01*
X168100Y247000D01*
X164000D01*
X162600Y245600D01*
Y243100D01*
X162200Y242700D01*
X157900D01*
X157500Y243100D01*
Y249600D01*
X157100Y250000D01*
X156300D01*
X155900Y249600D01*
Y245900D01*
X155500Y245500D01*
X154700D01*
X154400Y245800D01*
Y250000D01*
X154000Y250400D01*
X153400D01*
X153000Y250000D01*
Y245800D01*
X152700Y245500D01*
X151900D01*
X151600Y245800D01*
Y250600D01*
X151200Y251000D01*
X150600D01*
X150200Y250600D01*
Y246200D01*
X149800Y245800D01*
X149200D01*
X147500Y247500D01*
X139600D01*
X139200Y247100D01*
Y246600D01*
X139600Y246200D01*
X147000D01*
X148600Y244600D01*
Y242400D01*
G01X179200Y249400D02*
X163200D01*
X159000Y253600D01*
X157600D01*
X155400Y255800D01*
X148000D01*
X147600Y256200D01*
Y257000D01*
X148000Y257400D01*
X150400D01*
X150800Y257800D01*
Y258600D01*
X150400Y259000D01*
X149200D01*
X148800Y259400D01*
Y263900D01*
X149200Y264300D01*
X150000D01*
X150400Y263900D01*
Y260200D01*
X150800Y259800D01*
X151200D01*
X151600Y260200D01*
Y264200D01*
X152000Y264600D01*
X152400D01*
X152800Y264200D01*
Y258200D01*
G01X172900Y172900D02*
X171300Y174500D01*
X168100D01*
X166100Y172600D01*
X159400D01*
X158200Y173800D01*
Y178300D01*
X154800Y181700D01*
Y187200D01*
X155800Y188200D01*
X157400D01*
X163700Y194600D01*
Y195100D01*
X163100Y195800D01*
X162300D01*
X160300Y193800D01*
X156100D01*
X155600Y194200D01*
Y196600D01*
X155200Y197000D01*
X152300D01*
X151600Y197800D01*
Y199400D01*
X152600Y200400D01*
X154600D01*
G01X169700Y176100D02*
Y176200D01*
X171000Y177500D01*
Y178000D01*
X170200Y178800D01*
X162200D01*
X161800Y178400D01*
Y177800D01*
X162000Y177600D01*
X166800D01*
X167200Y177200D01*
Y176800D01*
X166800Y176400D01*
X161000D01*
X160800Y176200D01*
Y175600D01*
X161000Y175400D01*
X165400D01*
X165700Y175000D01*
Y174400D01*
X165300Y174000D01*
X160000D01*
X159200Y174800D01*
Y179000D01*
X155800Y182400D01*
Y182800D01*
X156200Y183200D01*
X157000D01*
X160700Y179500D01*
X161200D01*
X161500Y179900D01*
Y180500D01*
X156800Y185200D01*
Y185900D01*
G01X153200Y194700D02*
X151400D01*
X150500Y193800D01*
Y193000D01*
X151300Y192200D01*
X156600D01*
X157000Y191800D01*
Y191200D01*
X156600Y190800D01*
X150400D01*
X150200Y190600D01*
Y190000D01*
X150600Y189600D01*
X154200D01*
X154400Y189400D01*
Y188800D01*
X154000Y188400D01*
X151000D01*
X150600Y188000D01*
Y187600D01*
X151000Y187200D01*
X153000D01*
X153400Y186900D01*
Y186200D01*
X153200Y186000D01*
X150600D01*
X150400Y185800D01*
Y185200D01*
X150700Y184800D01*
X153000D01*
X153400Y184500D01*
Y181100D01*
X157100Y177300D01*
Y173200D01*
X158700Y171600D01*
X167800D01*
X168000Y171400D01*
X174500D01*
X176000Y172900D01*
G01X185500Y176100D02*
Y172700D01*
X184000Y171200D01*
Y168300D01*
X183300Y167600D01*
X167800D01*
X167200Y168200D01*
Y170000D01*
X166800Y170400D01*
X166200D01*
X165800Y170000D01*
Y168600D01*
X165400Y168200D01*
X164800D01*
X164600Y168400D01*
Y170000D01*
X164200Y170400D01*
X163600D01*
X163400Y170200D01*
Y168800D01*
X163000Y168400D01*
X162400D01*
X162200Y168600D01*
Y169800D01*
X161600Y170400D01*
X157800D01*
X155600Y172600D01*
Y176900D01*
X154200Y178300D01*
X152800D01*
G01X179200Y176100D02*
X175100Y180200D01*
X163800D01*
X158600Y185400D01*
Y186800D01*
X159600Y187800D01*
X161400D01*
X162600Y189000D01*
Y190800D01*
X165800Y194000D01*
Y196800D01*
X165200Y197400D01*
X158600D01*
X158200Y197800D01*
Y198400D01*
X158600Y198800D01*
X164400D01*
X164700Y199100D01*
Y199800D01*
X164200Y200300D01*
X157000D01*
Y200400D01*
X156600Y200800D01*
G01X178700Y214700D02*
X178100Y214100D01*
X172600D01*
X172000Y213500D01*
Y211300D01*
X171200Y210500D01*
X170200D01*
X169800Y210900D01*
Y213700D01*
X169400Y214100D01*
X168000D01*
X167600Y213700D01*
Y209700D01*
X167000Y209200D01*
X165800D01*
X165200Y209800D01*
Y212300D01*
X164800Y212700D01*
X163600D01*
X163000Y212100D01*
Y209700D01*
X162400Y209100D01*
X161600D01*
X160800Y209900D01*
Y212300D01*
X160400Y212700D01*
X158800D01*
X158400Y212300D01*
Y209500D01*
X157800Y208900D01*
X156600D01*
X155600Y209900D01*
Y212300D01*
X155200Y212700D01*
X154200D01*
X153800Y212300D01*
Y209300D01*
X153200Y208700D01*
X152000D01*
X151500Y209300D01*
Y214600D01*
X151100Y215000D01*
X150000D01*
X149600Y214600D01*
Y205500D01*
G01X153300Y227600D02*
Y224900D01*
X153700Y224500D01*
X166900D01*
X167200Y224200D01*
Y223300D01*
X166800Y222900D01*
X155800D01*
X155400Y222500D01*
Y221800D01*
X155900Y221400D01*
X175000D01*
X175400Y221800D01*
Y230700D01*
X175800Y231100D01*
X182300D01*
X182700Y230700D01*
Y228400D01*
X182300Y228000D01*
X177600D01*
X177200Y227600D01*
Y226100D01*
G01X153200Y229700D02*
X155600D01*
X156000Y229300D01*
Y226700D01*
X156400Y226300D01*
X157200D01*
X157600Y226700D01*
Y230300D01*
X158000Y230700D01*
X158800D01*
X159200Y230300D01*
Y226700D01*
X159600Y226300D01*
X160300D01*
X160700Y226700D01*
Y230300D01*
X161100Y230700D01*
X161900D01*
X162300Y230300D01*
Y226300D01*
X162700Y225900D01*
X163500D01*
X163900Y226300D01*
Y230100D01*
X164300Y230500D01*
X165100D01*
X165500Y230100D01*
Y226500D01*
X165900Y226100D01*
X166700D01*
X167100Y226500D01*
Y229600D01*
X167600Y230100D01*
X168200D01*
X168600Y229700D01*
Y227200D01*
X169000Y226800D01*
X173800D01*
X174300Y227300D01*
Y229900D01*
X173800Y230400D01*
X170700D01*
X170300Y230000D01*
Y228300D01*
G01X166600Y232000D02*
X166900Y231700D01*
X174500D01*
X176600Y233800D01*
Y234900D01*
X176200Y235300D01*
X165300D01*
X164900Y234900D01*
Y232300D01*
X164500Y231900D01*
X163800D01*
X163400Y232300D01*
Y234700D01*
X163000Y235100D01*
X162200D01*
X161800Y234700D01*
Y232300D01*
X161400Y231900D01*
X160900D01*
X160500Y232300D01*
Y234700D01*
X160100Y235100D01*
X159500D01*
X159100Y234700D01*
Y232300D01*
X158700Y231900D01*
X158100D01*
X157700Y232300D01*
Y234200D01*
X157300Y234600D01*
X156700D01*
X155400Y233300D01*
Y232000D01*
G01X185500Y246300D02*
X180900Y250900D01*
X178200D01*
X177700Y250400D01*
X164000D01*
X159500Y254900D01*
X158600D01*
X155600Y257900D01*
Y260200D01*
X154800Y261000D01*
G01X176000Y265200D02*
Y265600D01*
X174900Y266700D01*
X170600D01*
X168500Y264600D01*
X160400D01*
X157800Y267200D01*
Y268400D01*
X158200Y268800D01*
X159000D01*
X160000Y267800D01*
G01X169700Y262000D02*
X168700Y263000D01*
X160000D01*
X155400Y267600D01*
X154400D01*
G01X158600Y260700D02*
X160900D01*
X164200Y257400D01*
X174100D01*
X175900Y255600D01*
X179400D01*
X180000Y256200D01*
X183400D01*
X184400Y255200D01*
Y253900D01*
G01X154800Y264800D02*
Y263266D01*
X155200Y262866D01*
X155766D01*
X156900Y264000D01*
X157500D01*
X158000Y263500D01*
Y262800D01*
X156600Y261400D01*
Y259200D01*
X157700Y258100D01*
X161300D01*
X162600Y256800D01*
Y253400D01*
X163000Y253000D01*
X163800D01*
X164200Y253400D01*
Y255800D01*
X164600Y256200D01*
X165400D01*
X165800Y255800D01*
Y252200D01*
X166200Y251800D01*
X167000D01*
X167400Y252200D01*
Y253200D01*
X167800Y253600D01*
X168400D01*
X168800Y253200D01*
Y252400D01*
X169400Y251800D01*
X174500D01*
X174900Y252200D01*
Y254000D01*
X175300Y254400D01*
X177600D01*
X178000Y253900D01*
Y253100D01*
X177300Y252400D01*
G01X188600Y172900D02*
X187100Y174400D01*
Y177600D01*
X186500Y178200D01*
X179600D01*
X176400Y181400D01*
X165200D01*
X164400Y182200D01*
Y182600D01*
G01X179600Y187000D02*
X179100Y187500D01*
X171100D01*
X169100Y185500D01*
X160800D01*
G01X180400Y181000D02*
Y182900D01*
X177000Y186300D01*
X172300D01*
X169500Y183500D01*
X167200D01*
G01X185500Y191800D02*
X185200Y192100D01*
X182400D01*
X180100Y189900D01*
X165600D01*
X164400Y188700D01*
G01X183600Y187000D02*
Y187100D01*
X182000Y188700D01*
X168500D01*
X166800Y187100D01*
G01X176000Y191800D02*
X177600Y193400D01*
Y195800D01*
X176900Y196500D01*
X168200D01*
G01X163800Y267200D02*
Y270000D01*
X166200Y272400D01*
X183600D01*
X187100Y268900D01*
Y266700D01*
X188600Y265200D01*
G01X191800D02*
X190200Y263500D01*
Y260800D01*
X189600Y260200D01*
X166400D01*
X165400Y261200D01*
G01X163200Y260900D02*
X165100Y259000D01*
X192000D01*
X194900Y262000D01*
G01X166600Y267200D02*
X169400Y270000D01*
X176600D01*
X177800Y268800D01*
Y263400D01*
X179200Y262000D01*
G01X165400Y269300D02*
X167300Y271200D01*
X182200D01*
X183900Y269500D01*
Y263600D01*
X185500Y262000D01*
G01X223500Y321000D02*
X220714Y318214D01*
X213933D01*
X211719Y316000D01*
X196500D01*
X176500Y336000D01*
X163000D01*
X161800Y334800D01*
Y331900D01*
G01X187200Y253500D02*
X187500Y253200D01*
Y252100D01*
X186040Y250641D01*
Y248996D01*
X187201Y247835D01*
X187202D01*
X187500Y247537D01*
Y242749D01*
X183800Y239049D01*
Y218700D01*
X183600Y218500D01*
G01X189400Y183100D02*
Y183261D01*
X188600Y184061D01*
Y185961D01*
X187500Y187061D01*
Y195400D01*
X185300Y197500D01*
Y200200D01*
X187000Y201800D01*
Y206000D01*
X184000Y209000D01*
Y218200D01*
X183600Y218500D01*
G01X178800Y257600D02*
Y257500D01*
X188200D01*
X188300Y257600D01*
X194300D01*
X194900Y257000D01*
Y246300D01*
G01X180700Y319000D02*
X187200Y312500D01*
X231000D01*
X269700Y273800D01*
Y271500D01*
G01X180900Y321800D02*
X188700Y314000D01*
X232500D01*
X271500Y275000D01*
Y258700D01*
X269300Y256500D01*
G01X198100Y172900D02*
X196500Y174500D01*
Y199700D01*
G01X191400Y183900D02*
X190600D01*
X189900Y184600D01*
Y186500D01*
X188700Y187700D01*
Y195900D01*
X186600Y198000D01*
Y199600D01*
X188300Y201300D01*
Y206500D01*
X185300Y209500D01*
Y218000D01*
X185800Y218500D01*
G01X194900Y182400D02*
Y189820D01*
X193500Y191220D01*
Y195800D01*
X194800Y197100D01*
Y199700D01*
X193300Y201200D01*
Y206300D01*
X189800Y209800D01*
Y220600D01*
X193400Y224100D01*
Y226500D01*
G01X191100Y225600D02*
X188400Y222900D01*
Y207900D01*
X189400Y206900D01*
Y202100D01*
X190200Y201300D01*
Y188700D01*
X193400Y185500D01*
G01X195000Y217500D02*
X193200D01*
X192800Y217900D01*
Y220100D01*
X192400Y220500D01*
X191600D01*
X191200Y220100D01*
Y215900D01*
X191600Y215500D01*
X194800D01*
X195200Y215100D01*
Y214500D01*
X194800Y214100D01*
X191600D01*
X191200Y213700D01*
Y213000D01*
X191600Y212600D01*
X194800D01*
X195200Y212200D01*
Y211300D01*
X194800Y210900D01*
X191800D01*
X191400Y210500D01*
Y209900D01*
X191800Y209500D01*
X194600D01*
X195000Y209100D01*
Y202100D01*
G01X196500Y225800D02*
Y199700D01*
G01X195000Y217500D02*
Y230300D01*
X194600Y230700D01*
X193800D01*
X193400Y231100D01*
Y231900D01*
X193800Y232300D01*
X194900D01*
X195300Y232700D01*
Y233500D01*
X194900Y233900D01*
X193800D01*
X193400Y234300D01*
Y235100D01*
X193800Y235500D01*
X194500D01*
X194900Y235900D01*
Y241100D01*
X196400Y242500D01*
Y255700D01*
X196500D01*
G01X189200Y253500D02*
X188800Y253100D01*
Y251561D01*
X187340Y250102D01*
Y249535D01*
X187740Y249135D01*
X187741D01*
X188800Y248076D01*
Y242210D01*
X185100Y238510D01*
Y219300D01*
X185800Y218500D01*
G01X193400Y254100D02*
Y237300D01*
X192100Y236100D01*
Y230300D01*
X191700Y230000D01*
X191200D01*
X190900Y230300D01*
Y235900D01*
X190700Y236100D01*
X190000D01*
X189700Y235800D01*
Y228300D01*
X190100Y227800D01*
X192000D01*
X193400Y226500D01*
G01X191800Y255700D02*
Y251700D01*
X190200Y250100D01*
Y241300D01*
X189200Y240300D01*
Y239700D01*
X189600Y239300D01*
X191400D01*
X192000Y238700D01*
Y238100D01*
X191400Y237500D01*
X189100D01*
X188300Y236700D01*
Y228700D01*
X187600Y228000D01*
Y226000D01*
X188000Y225600D01*
X191100D01*
G01X198100Y252600D02*
X197300Y251800D01*
Y248700D01*
X197800Y248200D01*
X199100D01*
X199500Y247800D01*
Y238900D01*
X199100Y238500D01*
X198500D01*
X198100Y238900D01*
Y240700D01*
X197600Y241100D01*
X196900D01*
X196500Y240700D01*
Y225800D01*
G01X198000Y208600D02*
Y203100D01*
X200100Y201000D01*
Y190300D01*
X197900Y188000D01*
Y177000D01*
X199600Y175300D01*
Y171300D01*
X198100Y169800D01*
G01X204400Y176100D02*
Y182100D01*
X202500Y184000D01*
Y186800D01*
X203600Y188000D01*
Y202000D01*
X204800Y203300D01*
Y226900D01*
X207500Y229600D01*
G01X202800Y180800D02*
Y178500D01*
X202000Y177700D01*
X201000D01*
X200300Y178400D01*
Y180600D01*
X201400Y181700D01*
Y187700D01*
X202500Y188800D01*
Y202500D01*
X203200Y203200D01*
Y210800D01*
G01X210600Y211500D02*
X209400D01*
X209000Y211900D01*
Y216466D01*
X208599Y216867D01*
X207701D01*
X207300Y216466D01*
Y202600D01*
X206000Y201300D01*
Y182400D01*
G01X199600Y224600D02*
Y203500D01*
X201300Y201800D01*
Y189600D01*
X199700Y188000D01*
Y182400D01*
G01X212200Y225000D02*
Y204300D01*
X209100Y201200D01*
Y193800D01*
X207500Y192300D01*
Y185500D01*
G01X209200Y224700D02*
X206000Y221500D01*
Y202900D01*
X204800Y201600D01*
Y185900D01*
X204400Y185500D01*
G01X201300Y226500D02*
Y226400D01*
X201200Y204400D01*
G01X198000Y208600D02*
Y236800D01*
X198200D01*
G01X203200Y210800D02*
Y250400D01*
X202800Y250800D01*
Y252600D01*
G01X201300Y226500D02*
X202000Y227300D01*
Y249400D01*
X201200Y250100D01*
Y263600D01*
X201800Y264200D01*
X203800D01*
X204400Y263600D01*
Y262000D01*
G01X199600Y224600D02*
Y227000D01*
X199100Y227500D01*
Y228500D01*
X199500Y228900D01*
X200400D01*
X200800Y229300D01*
Y230300D01*
X200400Y230700D01*
X199600D01*
X199200Y231100D01*
Y231900D01*
X199600Y232300D01*
X200400D01*
X200800Y232700D01*
Y233400D01*
X200400Y233800D01*
X199600D01*
X199200Y234200D01*
Y235000D01*
X199600Y235400D01*
X200500D01*
X200900Y235800D01*
Y248900D01*
X199700Y250100D01*
Y255700D01*
G01X209200Y224700D02*
X206700D01*
X206300Y225100D01*
Y225700D01*
X209200Y228700D01*
Y230800D01*
X208700Y231300D01*
X204800D01*
X204400Y231700D01*
Y233100D01*
X204800Y233500D01*
X205500D01*
X206100Y234100D01*
Y234700D01*
X205600Y235300D01*
X204800D01*
X204400Y235700D01*
Y255700D01*
G01X206000Y252600D02*
Y244700D01*
X207600Y243100D01*
Y236400D01*
X210600Y233300D01*
Y211500D01*
G01X212200Y225000D02*
Y237100D01*
X211400Y237800D01*
X209300D01*
X208900Y238200D01*
Y241800D01*
X209600Y242500D01*
Y244000D01*
X209200Y244400D01*
X207900D01*
X207500Y244800D01*
Y245800D01*
X207900Y246200D01*
X209300D01*
X209700Y246600D01*
Y247400D01*
X209300Y247800D01*
X207900D01*
X207500Y248200D01*
Y255700D01*
G01X209100Y182400D02*
Y192000D01*
X210700Y193600D01*
Y201200D01*
X213800Y204300D01*
Y222100D01*
G01X215400Y182400D02*
Y188900D01*
X221800Y195300D01*
Y199400D01*
X221400Y199800D01*
X219700D01*
X219300Y200200D01*
Y201600D01*
X219700Y202000D01*
X221400D01*
X221800Y202400D01*
Y203200D01*
X221400Y203600D01*
X219700D01*
X219300Y204000D01*
Y211000D01*
X219700Y211400D01*
X221000D01*
X221400Y211800D01*
Y212600D01*
X221000Y213000D01*
X219700D01*
X219300Y213400D01*
Y216200D01*
X220600Y217500D01*
Y218500D01*
G01X210700Y185500D02*
Y188900D01*
X211300Y189500D01*
Y190600D01*
X210700Y191200D01*
Y191700D01*
X211100Y192100D01*
X213700D01*
X214100Y192500D01*
Y193200D01*
X213700Y193600D01*
X212200D01*
X211900Y193800D01*
Y196100D01*
X212300Y196500D01*
X215500D01*
X216000Y196900D01*
Y199500D01*
X215600Y199900D01*
X212600D01*
X212200Y200300D01*
Y201300D01*
X212600Y201700D01*
X215600D01*
X216000Y202100D01*
Y203600D01*
X215400Y204100D01*
Y210500D01*
G01X217000Y223300D02*
Y194100D01*
X212300Y189400D01*
Y182400D01*
G01X218600Y220200D02*
Y217600D01*
X218300Y217300D01*
Y193700D01*
X213800Y189200D01*
Y185500D01*
G01X224900Y218600D02*
Y195100D01*
X218600Y188800D01*
Y182400D01*
G01X223200Y221700D02*
Y195100D01*
X217000Y188900D01*
Y185500D01*
G01X226400Y221700D02*
Y195000D01*
X220100Y188700D01*
Y185500D01*
G01X220600Y218500D02*
Y220600D01*
X219800Y221400D01*
Y223700D01*
X220200Y224100D01*
X221800D01*
X222200Y224500D01*
Y225300D01*
X221800Y225700D01*
X220200D01*
X219800Y226100D01*
Y227500D01*
X220400Y228100D01*
X221500D01*
X222300Y228800D01*
Y229300D01*
X221900Y229700D01*
X220900D01*
X220500Y230100D01*
Y230900D01*
X220900Y231300D01*
X221900D01*
X222300Y231700D01*
Y232500D01*
X221900Y232900D01*
X220900D01*
X220500Y233300D01*
Y234100D01*
X220900Y234500D01*
X221900D01*
X222300Y234900D01*
Y235700D01*
X221900Y236100D01*
X220900D01*
X220500Y236500D01*
Y237300D01*
X220900Y237700D01*
X221900D01*
X222300Y238100D01*
Y242800D01*
X221500Y243500D01*
X219800D01*
X219400Y243900D01*
Y246200D01*
X215400Y250200D01*
Y252600D01*
G01Y210500D02*
Y245100D01*
X210700Y249900D01*
Y255700D01*
G01X213800Y222100D02*
Y223900D01*
X214300Y224400D01*
Y226500D01*
X213900Y226900D01*
X213500D01*
X213100Y227300D01*
Y228100D01*
X213500Y228500D01*
X214000D01*
X214400Y228900D01*
Y229700D01*
X214000Y230100D01*
X213500D01*
X213100Y230500D01*
Y231300D01*
X213500Y231700D01*
X214000D01*
X214400Y232100D01*
Y232900D01*
X214000Y233300D01*
X213500D01*
X213100Y233700D01*
Y234500D01*
X213500Y234900D01*
X214100D01*
X214500Y235300D01*
Y236800D01*
X212400Y238900D01*
Y243300D01*
X212000Y243700D01*
X211300D01*
X210900Y244100D01*
Y244900D01*
X211300Y245300D01*
X212000D01*
X212400Y245700D01*
Y246600D01*
X209100Y249900D01*
Y252600D01*
G01X212300D02*
Y250300D01*
X217000Y245500D01*
Y244300D01*
X217800Y243500D01*
Y242700D01*
X217000Y241900D01*
Y241100D01*
X217800Y240300D01*
Y239500D01*
X217000Y238700D01*
Y237900D01*
X217400Y237500D01*
X218400D01*
X218800Y237100D01*
Y236300D01*
X218400Y235900D01*
X217400D01*
X217000Y235500D01*
Y234700D01*
X217400Y234300D01*
X218400D01*
X218800Y233900D01*
Y233100D01*
X218400Y232700D01*
X217400D01*
X217000Y232300D01*
Y231500D01*
X217400Y231100D01*
X218400D01*
X218800Y230700D01*
Y229900D01*
X218400Y229500D01*
X217400D01*
X217000Y229100D01*
Y228300D01*
X217800Y227500D01*
Y226700D01*
X217000Y225900D01*
Y223300D01*
G01X218600Y220200D02*
X219000Y220600D01*
Y228100D01*
X219700Y228800D01*
Y238420D01*
X218600Y239520D01*
Y245400D01*
X213800Y250100D01*
Y255700D01*
G01X218600Y252600D02*
Y250100D01*
X224900Y243800D01*
Y218600D01*
G01X217000Y255700D02*
Y250100D01*
X223200Y243800D01*
Y239300D01*
X224000Y238600D01*
Y237700D01*
X223200Y237000D01*
Y236100D01*
X224000Y235400D01*
Y234500D01*
X223200Y233800D01*
Y232900D01*
X224000Y232200D01*
Y231700D01*
X223500Y231100D01*
Y230600D01*
X224100Y229900D01*
Y229100D01*
X223700Y228700D01*
X223600D01*
X223200Y228300D01*
Y221700D01*
G01X226400D02*
Y243800D01*
X220100Y250100D01*
Y255700D01*
G01X220500Y347500D02*
X229500D01*
X243000Y334000D01*
X250000D01*
X280000Y304000D01*
Y217000D01*
X275500Y212500D01*
Y165500D01*
X273000Y163000D01*
G01X228000Y182400D02*
Y181900D01*
X226200Y180100D01*
Y179100D01*
X226700Y178600D01*
X227900D01*
X229600Y180300D01*
Y183200D01*
X228000Y184800D01*
Y187700D01*
X234300Y194000D01*
Y212600D01*
G01X232700Y217700D02*
Y211500D01*
X233400Y210900D01*
Y194900D01*
X226400Y188000D01*
Y185500D01*
G01X229600D02*
Y187600D01*
X235900Y193900D01*
Y221600D01*
G01X229600Y217900D02*
Y215600D01*
X228800Y214800D01*
Y214000D01*
X229600Y213200D01*
Y211100D01*
X228800Y210300D01*
Y209500D01*
X229600Y208700D01*
Y207000D01*
X228800Y206200D01*
Y205400D01*
X229600Y204600D01*
Y202700D01*
X229100Y202100D01*
Y194200D01*
X223300Y188500D01*
Y185500D01*
G01X228000Y223500D02*
Y195000D01*
X221700Y188700D01*
Y182400D01*
G01X224900D02*
Y188200D01*
X232300Y195600D01*
Y196200D01*
X231900Y196600D01*
X230600D01*
X230200Y197000D01*
Y197800D01*
X230600Y198200D01*
X232200D01*
X232600Y198600D01*
Y199300D01*
X232200Y199700D01*
X230500D01*
X230100Y200100D01*
Y201000D01*
X230500Y201400D01*
X232200D01*
X232600Y201800D01*
Y202600D01*
X232200Y203000D01*
X231000D01*
X230600Y203400D01*
Y204200D01*
X231000Y204600D01*
X232200D01*
X232600Y205000D01*
Y205900D01*
X232200Y206300D01*
X231000D01*
X230600Y206700D01*
Y207500D01*
X231000Y207900D01*
X232200D01*
X232600Y208300D01*
Y209500D01*
X232200Y209900D01*
X231200D01*
G01Y183900D02*
Y187300D01*
X237500Y193700D01*
Y219500D01*
G01X239000Y221000D02*
Y191800D01*
X232700Y185500D01*
G01Y217700D02*
Y244200D01*
X226400Y250500D01*
Y255700D01*
G01X229600Y217900D02*
Y221900D01*
X230300Y222600D01*
Y243100D01*
X223300Y250100D01*
Y255700D01*
G01X224900Y252600D02*
Y250100D01*
X231200Y243800D01*
Y209900D01*
G01X228000Y223500D02*
Y229200D01*
X228400Y229600D01*
X229000D01*
X229400Y230000D01*
Y230800D01*
X229000Y231200D01*
X228400D01*
X228000Y231600D01*
Y232400D01*
X228400Y232800D01*
X229000D01*
X229400Y233200D01*
Y234000D01*
X229000Y234400D01*
X228400D01*
X228000Y234800D01*
Y235600D01*
X228400Y236000D01*
X229000D01*
X229400Y236400D01*
Y237200D01*
X229000Y237600D01*
X228400D01*
X228000Y238000D01*
Y238800D01*
X228400Y239200D01*
X229000D01*
X229400Y239600D01*
Y240400D01*
X229000Y240800D01*
X228400D01*
X228000Y241200D01*
Y243800D01*
X221700Y250100D01*
Y252600D01*
G01X235900Y221600D02*
Y244700D01*
X229600Y251000D01*
Y255700D01*
G01X231200Y252600D02*
Y251200D01*
X237500Y244900D01*
Y219500D01*
G01X232700Y255700D02*
Y251700D01*
X239000Y245400D01*
Y221000D01*
G01X234300Y212600D02*
Y244400D01*
X228000Y250700D01*
Y252600D01*
G54D12*
X42500Y26000D03*
X52500D03*
X212500D03*
X222500D03*
G54D22*
G01X0Y200D02*
Y392700D01*
X282300D01*
Y200D01*
X0D01*
G54D13*
X90800Y113500D03*
X100800D03*
X130800D03*
X140800D03*
G54D14*
X98300Y62200D03*
X108300D03*
X103300Y72200D03*
X113300D03*
X118300Y62200D03*
X123300Y72200D03*
X128300Y62200D03*
X133300Y72200D03*
G54D15*
X121700Y293400D03*
X246000Y162500D03*
G54D16*
X190728Y385382D03*
Y380461D03*
G54D17*
G01X92100Y284100D02*
Y271400D01*
X84400Y263700D01*
G01X230500Y332500D02*
X235500D01*
X278000Y290000D01*
Y258500D01*
X271000Y251500D01*
Y164500D01*
X263000Y156500D01*
G54D18*
G01X166000Y362000D02*
X163000Y365000D01*
Y378000D01*
X154500Y386500D01*
X130000D01*
X125000Y381500D01*
G01X246000Y162500D02*
X248000D01*
X251500Y166000D01*
Y249000D01*
X217500Y283000D01*
X185500D01*
X178000Y290500D01*
X167000D01*
X164600Y292900D01*
Y297400D01*
G01Y299300D02*
Y297400D01*
G54D19*
G01X128100Y215700D02*
Y218800D01*
G01D02*
X134600D01*
X136900Y221100D01*
X142300D01*
X143900Y219500D01*
Y191500D01*
X138600Y186100D01*
Y181200D01*
X156400Y163400D01*
X195100D01*
X197600Y165900D01*
X202800D01*
M02*
