G04 ================== begin FILE IDENTIFICATION RECORD ==================*
G04 Layout Name:  layout_12.brd*
G04 Film Name:    Gerber_PASTE_TOP_RK3188_v2*
G04 File Format:  Gerber RS274X*
G04 File Origin:  Cadence Allegro 16.6-S008*
G04 Origin Date:  Mon Aug 22 09:39:46 2016*
G04 *
G04 Layer:  PIN/PASTEMASK_TOP*
G04 Layer:  PACKAGE GEOMETRY/PASTEMASK_TOP*
G04 Layer:  DRAWING FORMAT/PASTEMASK_TOP*
G04 Layer:  BOARD GEOMETRY/OUTLINE*
G04 Layer:  BOARD GEOMETRY/LOGO*
G04 *
G04 Offset:    (0.00 0.00)*
G04 Mirror:    No*
G04 Mode:      Positive*
G04 Rotation:  0*
G04 FullContactRelief:  No*
G04 UndefLineWidth:     5.00*
G04 ================== end FILE IDENTIFICATION RECORD ====================*
%FSLAX25Y25*MOIN*%
%IR0*IPPOS*OFA0.00000B0.00000*MIA0B0*SFA1.00000B1.00000*%
%ADD64R,.047X.11*%
%ADD65R,.11X.047*%
%ADD45R,.073X.102*%
%ADD21C,.01*%
%AMMACRO68*
4,1,4,.008,.012,
-.008,.012,
-.008,-.012,
.008,-.012,
.008,.012,
0.0*
%
%ADD68MACRO68*%
%ADD54R,.043X.118*%
%AMMACRO12*
4,1,4,.012,-.008,
.012,.008,
-.012,.008,
-.012,-.008,
.012,-.008,
0.0*
%
%ADD12MACRO12*%
%AMMACRO69*
4,1,4,.008,.012,
-.008,.012,
-.008,-.012,
.008,-.012,
.008,.012,
0.0*
%
%ADD69MACRO69*%
%ADD61R,.11X.079*%
%AMMACRO18*
4,1,4,.012,-.008,
.012,.008,
-.012,.008,
-.012,-.008,
.012,-.008,
0.0*
%
%ADD18MACRO18*%
%ADD53C,.015*%
%ADD38C,.016*%
%ADD11R,.02X.02*%
%ADD35R,.03X.03*%
%ADD33R,.04X.04*%
%ADD48R,.059X.157*%
%ADD42R,.043X.043*%
%ADD36R,.047X.047*%
%ADD23O,.01181X.00787*%
%ADD22O,.00787X.01181*%
%ADD63R,.122X.16*%
%ADD52R,.043X.01*%
%ADD50R,.01X.043*%
%ADD49R,.05X.04*%
%ADD47R,.04X.05*%
%ADD30R,.011X.044*%
%ADD14R,.01X.072*%
%ADD41R,.027X.011*%
%ADD20R,.013X.024*%
%ADD67R,.042X.026*%
%ADD25R,.026X.042*%
%ADD59R,.016X.035*%
%ADD58R,.063X.024*%
%ADD57R,.06X.09*%
%ADD37R,.028X.024*%
%ADD28R,.076X.03*%
%ADD56R,.024X.028*%
%ADD13R,.019X.024*%
%ADD46R,.012X.059*%
%ADD32O,.059X.016*%
%ADD31R,.028X.035*%
%ADD26R,.018X.054*%
%AMMACRO17*
4,1,4,-.012,.008,
-.012,-.008,
.012,-.008,
.012,.008,
-.012,.008,
0.0*
%
%ADD17MACRO17*%
%ADD66R,.036X.036*%
%ADD60O,.024X.079*%
%ADD55R,.075X.043*%
%ADD24O,.016X.059*%
%ADD19R,.035X.028*%
%AMMACRO10*
4,1,4,-.012,.008,
-.012,-.008,
.012,-.008,
.012,.008,
-.012,.008,
0.0*
%
%ADD10MACRO10*%
%ADD62R,.07X.085*%
%ADD34R,.048X.036*%
%ADD27R,.046X.075*%
%ADD29R,.039X.055*%
%ADD15R,.058X.083*%
%ADD16R,.094X.075*%
%ADD39R,.017X.089*%
%ADD51R,.173X.173*%
%ADD40R,.067X.094*%
%AMMACRO44*
4,1,4,-.006,-.014,
.005,-.014,
.006,.014,
-.005,.014,
-.006,-.014,
0.0*
%
%ADD44MACRO44*%
%AMMACRO43*
4,1,4,.006,.014,
-.006,.014,
-.006,-.014,
.006,-.014,
.006,.014,
0.0*
%
%ADD43MACRO43*%
%ADD70C,.005*%
G75*
%LPD*%
G75*
G36*
G01X227400Y72900D02*
Y67700D01*
X224000D01*
Y72900D01*
X227400D01*
G37*
G36*
G01X232000D02*
Y67700D01*
X228600D01*
Y72900D01*
X232000D01*
G37*
G36*
G01X227400Y79300D02*
Y74100D01*
X224000D01*
Y79300D01*
X227400D01*
G37*
G36*
G01X232000D02*
Y74100D01*
X228600D01*
Y79300D01*
X232000D01*
G37*
G54D10*
X11500Y107000D03*
Y111000D03*
Y128000D03*
Y132500D03*
Y137000D03*
X223000Y361500D03*
G54D20*
X17100Y157000D03*
X15100D03*
Y153000D03*
X17100D03*
X40700Y157000D03*
X38700D03*
Y153000D03*
X40700D03*
G54D11*
X11600Y119500D03*
X8800Y153100D03*
Y156900D03*
X13500Y306100D03*
Y309900D03*
X15400Y119500D03*
X23500Y123600D03*
Y127400D03*
X23000Y252600D03*
Y256400D03*
X22500Y271600D03*
Y275400D03*
Y280100D03*
Y283900D03*
X18500Y306100D03*
Y309900D03*
X23000D03*
Y306100D03*
X17000Y349100D03*
Y352900D03*
Y357600D03*
Y361400D03*
X38100Y135000D03*
X30100D03*
X33900D03*
X36500Y252600D03*
X32000D03*
X27500D03*
X36500Y256400D03*
X32000D03*
X27500D03*
X27600Y305500D03*
X31400D03*
X35600D03*
X27600Y310000D03*
X31400D03*
X35600D03*
X32600Y365000D03*
X36400D03*
X32600Y369500D03*
X36400D03*
X41900Y135000D03*
X47300Y153100D03*
Y156900D03*
X44600Y247400D03*
X48400D03*
X42000Y264600D03*
Y268400D03*
Y273100D03*
Y276900D03*
X46500Y283100D03*
Y286900D03*
X42000D03*
Y283100D03*
X39400Y305500D03*
X48500Y313600D03*
X39400Y310000D03*
X44000Y313600D03*
X48500Y317400D03*
X44000D03*
X43000Y365100D03*
X48000D03*
X43000Y368900D03*
X48000D03*
X60000Y225500D03*
X59900Y246300D03*
X59300Y267500D03*
X55500D03*
X59200Y273100D03*
X55400D03*
X51100Y283100D03*
Y286900D03*
X56000Y283100D03*
Y286900D03*
X60500Y291100D03*
X56000D03*
X60500Y294900D03*
X55400Y299700D03*
X59200D03*
X56000Y294900D03*
X51900Y342500D03*
X55700D03*
X51900Y347000D03*
X55700D03*
X53000Y365100D03*
Y368900D03*
X73700Y158000D03*
Y161800D03*
X74100Y170600D03*
Y174400D03*
X70300Y191100D03*
X66500D03*
X70900Y204700D03*
X67100D03*
X70900Y211000D03*
X67100D03*
X70700Y229200D03*
Y225400D03*
X63800Y225500D03*
X70700Y236900D03*
Y233100D03*
X69700Y252400D03*
Y248600D03*
X63700Y246300D03*
X69100Y272500D03*
Y276300D03*
X69400Y316000D03*
X65600D03*
X66600Y360100D03*
Y363900D03*
X84400Y265600D03*
Y269400D03*
X76900Y360500D03*
Y364300D03*
X81200D03*
Y360500D03*
X85500Y364300D03*
Y360500D03*
X91800Y144400D03*
X88000D03*
X91800Y140300D03*
X88000D03*
X91800Y153500D03*
X88000D03*
X91800Y149000D03*
X88000D03*
X96400Y161700D03*
Y165500D03*
X94400Y261600D03*
Y265400D03*
X88500Y265500D03*
Y269300D03*
X94200Y360500D03*
Y364300D03*
X98600Y360500D03*
Y364300D03*
X89800Y360500D03*
Y364300D03*
X101000Y161700D03*
Y165500D03*
X110200Y161700D03*
Y165500D03*
X105600Y161700D03*
Y165500D03*
X122900Y139200D03*
X119100D03*
X122100Y143800D03*
X118300D03*
X122100Y148400D03*
X118300D03*
X122100Y157200D03*
X118300D03*
X122100Y152900D03*
X118300D03*
X118700Y161700D03*
Y165500D03*
X123200Y161700D03*
Y165500D03*
X114500Y161700D03*
Y165500D03*
X122500Y308000D03*
Y311800D03*
X115250Y365700D03*
Y361900D03*
X120250Y365700D03*
Y361900D03*
X129400Y161600D03*
Y165400D03*
X133900Y161600D03*
Y165400D03*
X125250Y361900D03*
Y365700D03*
X134250Y361900D03*
Y365700D03*
X129750D03*
Y361900D03*
X138600Y161600D03*
Y165400D03*
X142000Y311900D03*
X138200D03*
Y316400D03*
X142000D03*
Y320800D03*
X138200D03*
X143250Y365700D03*
Y361900D03*
X147750D03*
Y365700D03*
X138750D03*
Y361900D03*
X158400Y288800D03*
Y292600D03*
X153800Y288800D03*
Y292600D03*
X155700Y339800D03*
X160200D03*
X155700Y343600D03*
X160200D03*
X152250Y365700D03*
Y361900D03*
X171500Y206300D03*
X168700Y292600D03*
Y288800D03*
X170400Y339800D03*
Y343600D03*
X163500Y365900D03*
Y362100D03*
X184300Y155500D03*
Y159300D03*
X175300Y206300D03*
X183300D03*
X179500D03*
X182800Y218600D03*
X179300Y339800D03*
Y335500D03*
X183100D03*
X174800Y339800D03*
X179300Y343600D03*
X174800D03*
X189100Y155500D03*
X193800D03*
X189100Y159300D03*
X193800D03*
X187400Y206300D03*
X191200D03*
X186600Y218600D03*
X191200Y280300D03*
Y276500D03*
X195600Y280300D03*
Y276500D03*
X186800Y280300D03*
Y276500D03*
X189700Y335500D03*
X193500D03*
X206500Y72100D03*
Y84400D03*
Y80600D03*
Y75900D03*
X206600Y89000D03*
X206800Y155500D03*
X202800D03*
X198300D03*
X206800Y159300D03*
X202800D03*
X198300D03*
X203800Y206300D03*
X207600D03*
X204400Y276500D03*
Y280300D03*
X200000D03*
Y276500D03*
X207600Y285500D03*
X209000Y307100D03*
Y310900D03*
X208600Y317000D03*
Y321500D03*
X208900Y348500D03*
X205100D03*
X218400Y89000D03*
X214600D03*
X210400D03*
X218500Y206300D03*
X214700D03*
X211400Y285500D03*
X220000Y300400D03*
Y296600D03*
X212400Y317000D03*
Y321500D03*
X226400Y89000D03*
X222600D03*
X228500Y350600D03*
Y354400D03*
X242400Y58500D03*
X238600D03*
X268700Y359200D03*
Y355400D03*
X259800D03*
Y359200D03*
X264200D03*
Y355400D03*
X259600Y377500D03*
X263400D03*
X267600D03*
X273100Y104500D03*
X276900D03*
Y114500D03*
X273100D03*
X271400Y377500D03*
G54D30*
X36500Y262600D03*
X34500D03*
X32500D03*
X30500D03*
X28500D03*
Y279400D03*
X30500D03*
X32500D03*
X34500D03*
X36500D03*
G54D12*
X11500Y115000D03*
X17000Y365500D03*
Y369500D03*
X207000Y361500D03*
G54D21*
X15305Y181331D03*
X17273Y177394D03*
X21210Y175425D03*
X25147D03*
Y193142D03*
X23179D03*
X21210D03*
Y191173D03*
X17273D03*
X23179D03*
X17273Y193142D03*
X19242D03*
Y191173D03*
X25147D03*
X23179Y197079D03*
X25147Y206921D03*
X23179Y204953D03*
Y202984D03*
X19242Y195110D03*
X17273D03*
X25147Y197079D03*
X19242D03*
X17273D03*
X23179Y199047D03*
X19242D03*
X17273D03*
X23179Y201016D03*
X19242D03*
X17273D03*
X19242Y202984D03*
X17273D03*
X19242Y204953D03*
X17273D03*
X23179Y206921D03*
X19242D03*
X17273D03*
X19242Y212827D03*
X17273D03*
X25147D03*
X23179D03*
X21210D03*
X25147Y210858D03*
X21210D03*
X17273D03*
X21210Y208890D03*
X19242D03*
X17273D03*
X23179Y210858D03*
X19242D03*
X15305Y222669D03*
X17273Y226606D03*
X25147Y228575D03*
X21210D03*
X31053Y175425D03*
X34990D03*
X27116Y193142D03*
X29084D03*
X31053D03*
X33021D03*
X34990D03*
X36958D03*
X27116Y191173D03*
X29084D03*
X31053D03*
X33021D03*
X34990D03*
X36958D03*
X33021Y199047D03*
X31053Y197079D03*
X27116Y206921D03*
X33021Y201016D03*
X29084Y197079D03*
X36958Y195110D03*
Y197079D03*
X33021D03*
X27116D03*
X36958Y199047D03*
Y201016D03*
Y202984D03*
X33021D03*
X36958Y204953D03*
X33021D03*
X36958Y206921D03*
X33021D03*
X31053D03*
X29084D03*
X36958Y208890D03*
Y210858D03*
X34990D03*
X33021D03*
X31053D03*
X29084D03*
X27116D03*
X36958Y212827D03*
X34990D03*
X33021D03*
X31053D03*
X29084D03*
X27116D03*
X34990Y228575D03*
X31053D03*
X40895Y181331D03*
X38927Y177394D03*
Y193142D03*
Y191173D03*
Y195110D03*
Y197079D03*
Y199047D03*
Y201016D03*
Y202984D03*
Y204953D03*
Y206921D03*
Y208890D03*
Y210858D03*
Y212827D03*
X40895Y222669D03*
X38927Y226606D03*
G54D40*
X79700Y374400D03*
X94300D03*
G54D31*
X36800Y285500D03*
X31200D03*
X46300Y331500D03*
X40700D03*
X61100Y155700D03*
X61500Y176800D03*
X57300Y332000D03*
X51700D03*
X57300Y337500D03*
X51700D03*
X66700Y155700D03*
X67100Y176800D03*
X188600Y286100D03*
X194200D03*
X217700Y58500D03*
X223300D03*
X233700Y349000D03*
Y354500D03*
X239300Y349000D03*
Y354500D03*
G54D13*
X12900Y157000D03*
Y153000D03*
X19300Y157000D03*
Y153000D03*
X36500Y157000D03*
Y153000D03*
X42900Y157000D03*
Y153000D03*
G54D22*
X19242Y189205D03*
X23179D03*
X21210D03*
X25147D03*
X17273D03*
X19242Y214795D03*
X21210D03*
X23179D03*
X25147D03*
X17273D03*
X27116Y189205D03*
X29084D03*
X31053D03*
X33021D03*
X34990D03*
X36958D03*
Y214795D03*
X34990D03*
X33021D03*
X31053D03*
X29084D03*
X27116D03*
X38927Y189205D03*
Y214795D03*
G54D32*
X31700Y292000D03*
Y294500D03*
Y297100D03*
Y299600D03*
X49500Y292000D03*
Y299600D03*
Y297100D03*
Y294500D03*
G54D41*
X97500Y143000D03*
Y145000D03*
Y147000D03*
Y148900D03*
Y150900D03*
Y152900D03*
X112400Y145000D03*
Y143000D03*
Y152900D03*
Y150900D03*
Y148900D03*
Y147000D03*
G54D14*
X13100Y164500D03*
X11200D03*
X9200D03*
X7200D03*
X5300D03*
Y240100D03*
X7200D03*
X9200D03*
X11200D03*
X13100D03*
X24900Y164500D03*
X23000D03*
X21000D03*
X19000D03*
X17100D03*
X15100D03*
Y240100D03*
X17100D03*
X19000D03*
X21000D03*
X23000D03*
X24900D03*
X36800Y164500D03*
X34800D03*
X32800D03*
X30900D03*
X28900D03*
X26900D03*
Y240100D03*
X28900D03*
X30900D03*
X32800D03*
X34800D03*
X36800D03*
X50500Y164500D03*
X48600D03*
X46600D03*
X44600D03*
X42700D03*
X40700D03*
X38700D03*
Y240100D03*
X40700D03*
X42700D03*
X44600D03*
X46600D03*
X48600D03*
X50500D03*
G54D50*
X159300Y304300D03*
X157700D03*
X156100D03*
X154500D03*
Y328300D03*
X156100D03*
X157700D03*
X159300D03*
X171900Y304300D03*
X170300D03*
X168700D03*
X167100D03*
X165600D03*
X164000D03*
X162400D03*
X160800D03*
Y328300D03*
X162400D03*
X164000D03*
X165600D03*
X167100D03*
X168700D03*
X170300D03*
X171900D03*
G54D23*
X15305Y193142D03*
Y191173D03*
Y189205D03*
Y195110D03*
Y197079D03*
Y199047D03*
Y201016D03*
Y202984D03*
Y204953D03*
Y206921D03*
Y208890D03*
Y210858D03*
Y212827D03*
Y214795D03*
X40895Y193142D03*
Y191173D03*
Y189205D03*
Y195110D03*
Y197079D03*
Y199047D03*
Y201016D03*
Y202984D03*
Y204953D03*
Y206921D03*
Y208890D03*
Y210858D03*
Y212827D03*
Y214795D03*
G54D51*
X163200Y316300D03*
G54D15*
X15800Y377700D03*
X35200D03*
G54D24*
X24700Y316100D03*
X22200D03*
Y333900D03*
X24700D03*
X29800Y316100D03*
X27300D03*
Y333900D03*
X29800D03*
X220700Y325600D03*
X218200D03*
Y343400D03*
X220700D03*
X225800Y325600D03*
X223300D03*
Y343400D03*
X225800D03*
G54D60*
X211200Y369300D03*
X215100D03*
X219100D03*
X223000D03*
X226900D03*
G54D42*
X102200Y145200D03*
X107700D03*
Y150700D03*
X102200D03*
G54D33*
X37500Y318000D03*
Y324000D03*
X45000Y307000D03*
X51000D03*
G54D70*
G01X0Y200D02*
Y392700D01*
X282300D01*
Y200D01*
X0D01*
G54D43*
X109800Y140500D03*
X107900D03*
X105900D03*
X103900D03*
X102000D03*
X100000D03*
G54D16*
X14000Y386700D03*
X37000D03*
G54D34*
Y346600D03*
Y359400D03*
X44500Y346600D03*
Y359400D03*
G54D25*
X22800Y350200D03*
Y358800D03*
X26500D03*
X30200Y350200D03*
Y358800D03*
X61600Y170500D03*
Y161900D03*
X69000Y170500D03*
Y161900D03*
X65300D03*
X207300Y291700D03*
Y300300D03*
X214700Y291700D03*
X211000D03*
X214700Y300300D03*
G54D52*
X151200Y307600D03*
Y309200D03*
Y310800D03*
Y312400D03*
Y313900D03*
Y315500D03*
Y317100D03*
Y318700D03*
Y320200D03*
Y321800D03*
Y323400D03*
Y325000D03*
X175200Y315500D03*
Y313900D03*
Y312400D03*
Y310800D03*
Y309200D03*
Y307600D03*
Y325000D03*
Y323400D03*
Y321800D03*
Y320200D03*
Y318700D03*
Y317100D03*
G54D61*
X239000Y91600D03*
Y123400D03*
G54D44*
X100000Y155400D03*
X102000D03*
X103900D03*
X105900D03*
X107900D03*
X109800D03*
G54D62*
X257500Y73000D03*
X273500D03*
G54D17*
X15500Y107000D03*
Y111000D03*
Y128000D03*
Y132500D03*
Y137000D03*
X227000Y361500D03*
G54D26*
X25500Y376300D03*
X22900D03*
X20400D03*
X28100D03*
X30600D03*
G54D35*
X56300Y170500D03*
Y164300D03*
X72300Y360500D03*
Y366700D03*
G54D53*
X171300Y171300D03*
Y174500D03*
Y177600D03*
Y190200D03*
Y193300D03*
Y196500D03*
Y241500D03*
Y244700D03*
Y247800D03*
Y260400D03*
Y263500D03*
Y266700D03*
X174400Y171300D03*
Y174500D03*
Y177600D03*
X177600Y171300D03*
Y174500D03*
Y177600D03*
X180700Y171300D03*
Y174500D03*
Y177600D03*
X183900Y171300D03*
Y174500D03*
Y177600D03*
X174400Y190200D03*
Y193300D03*
X177600Y190200D03*
Y193300D03*
X180700Y190200D03*
Y193300D03*
X183900Y190200D03*
Y193300D03*
X174400Y196500D03*
X177600D03*
X180700D03*
X183900D03*
X174400Y241500D03*
X177600D03*
X180700D03*
X183900D03*
X174400Y244700D03*
Y247800D03*
X177600Y244700D03*
Y247800D03*
X180700Y244700D03*
Y247800D03*
X183900Y244700D03*
Y247800D03*
X174400Y260400D03*
Y263500D03*
Y266700D03*
X177600Y260400D03*
Y263500D03*
Y266700D03*
X180700Y260400D03*
Y263500D03*
Y266700D03*
X183900Y260400D03*
Y263500D03*
Y266700D03*
X187000Y171300D03*
Y174500D03*
Y177600D03*
X190200Y171300D03*
Y174500D03*
Y177600D03*
X193300Y171300D03*
Y174500D03*
Y177600D03*
X196500Y171300D03*
Y174500D03*
Y177600D03*
X187000Y190200D03*
Y193300D03*
X190200Y190200D03*
Y193300D03*
X193300Y190200D03*
Y193300D03*
X196500Y190200D03*
Y193300D03*
X187000Y196500D03*
X190200D03*
X193300D03*
X196500D03*
X187000Y241500D03*
X190200D03*
X193300D03*
X196500D03*
X187000Y244700D03*
Y247800D03*
X190200Y244700D03*
Y247800D03*
X193300Y244700D03*
Y247800D03*
X196500Y244700D03*
Y247800D03*
X187000Y260400D03*
Y263500D03*
Y266700D03*
X190200Y260400D03*
Y263500D03*
Y266700D03*
X193300Y260400D03*
Y263500D03*
Y266700D03*
X196500Y260400D03*
Y263500D03*
Y266700D03*
X199600Y171300D03*
Y174500D03*
Y177600D03*
X202800Y171300D03*
Y174500D03*
Y177600D03*
X205900Y171300D03*
Y174500D03*
Y177600D03*
X209100Y171300D03*
Y174500D03*
Y177600D03*
X199600Y190200D03*
Y193300D03*
X202800Y190200D03*
Y193300D03*
X205900Y190200D03*
Y193300D03*
X209100Y190200D03*
Y193300D03*
X199600Y196500D03*
X202800D03*
X205900D03*
X209100D03*
X199600Y241500D03*
X202800D03*
X205900D03*
X209100D03*
X199600Y244700D03*
Y247800D03*
X202800Y244700D03*
Y247800D03*
X205900Y244700D03*
Y247800D03*
X209100Y244700D03*
Y247800D03*
X199600Y260400D03*
Y263500D03*
Y266700D03*
X202800Y260400D03*
Y263500D03*
Y266700D03*
X205900Y260400D03*
Y263500D03*
Y266700D03*
X209100Y260400D03*
Y263500D03*
Y266700D03*
X212200Y171300D03*
Y174500D03*
Y177600D03*
X215400Y171300D03*
Y174500D03*
Y177600D03*
X218500Y171300D03*
Y174500D03*
Y177600D03*
X212200Y190200D03*
Y193300D03*
X215400Y190200D03*
Y193300D03*
X218500Y190200D03*
Y193300D03*
X212200Y196500D03*
X215400D03*
X218500D03*
X212200Y241500D03*
X215400D03*
X218500D03*
X212200Y244700D03*
Y247800D03*
X215400Y244700D03*
Y247800D03*
X218500Y244700D03*
Y247800D03*
X212200Y260400D03*
Y263500D03*
Y266700D03*
X215400Y260400D03*
Y263500D03*
Y266700D03*
X218500Y260400D03*
Y263500D03*
Y266700D03*
G54D27*
X28800Y386700D03*
X22200D03*
G54D63*
X252000Y259500D03*
Y324400D03*
G54D36*
X58700Y231500D03*
Y240100D03*
X65100Y231500D03*
Y240100D03*
G54D18*
X15500Y115000D03*
X21000Y365500D03*
Y369500D03*
X211000Y361500D03*
G54D54*
X187400Y303700D03*
X194800D03*
X187300Y317900D03*
X194700D03*
G54D45*
X111350Y382300D03*
X171950D03*
G54D19*
X23500Y118800D03*
Y113200D03*
X22500Y261200D03*
Y266800D03*
X24000Y292700D03*
Y298300D03*
X42000Y253200D03*
Y258800D03*
X63900Y267500D03*
Y273100D03*
X103600Y366100D03*
Y360500D03*
X156600Y155100D03*
X150900D03*
X156600Y160700D03*
X150900D03*
X163600Y288000D03*
X173800D03*
X163600Y293600D03*
X173800D03*
X165300Y338900D03*
Y344500D03*
X217500Y312800D03*
Y307200D03*
G54D55*
X209500Y327100D03*
Y336900D03*
G54D46*
X119050Y376400D03*
X120950D03*
X122950D03*
X124950D03*
X126850D03*
X128850D03*
X130850D03*
X132750D03*
X134750D03*
X136750D03*
X138650D03*
X140650D03*
X142650D03*
X144650D03*
X146550D03*
X148550D03*
X150550D03*
X152450D03*
X154450D03*
X156450D03*
X158350D03*
X160350D03*
X162350D03*
X164250D03*
G54D28*
X39900Y71100D03*
Y81100D03*
Y76100D03*
Y96100D03*
Y106100D03*
Y101100D03*
X74500Y71100D03*
Y76100D03*
Y81100D03*
Y96100D03*
Y101100D03*
Y106100D03*
G54D37*
X70000Y259300D03*
Y264900D03*
G54D64*
X262600Y59000D03*
X274400D03*
G54D29*
X34000Y118700D03*
X30300Y127300D03*
X37700D03*
X60200Y252400D03*
X56500Y261000D03*
X63900D03*
G54D56*
X205200Y343500D03*
X210800D03*
X233700Y332500D03*
Y338000D03*
Y343500D03*
X239300Y332500D03*
Y338000D03*
Y343500D03*
G54D47*
X130100Y279200D03*
Y286800D03*
X130200Y345800D03*
X138100Y279200D03*
Y286800D03*
X138200Y345800D03*
X170000Y157500D03*
X171100Y278200D03*
X178000Y157500D03*
X179100Y278200D03*
X187500Y292700D03*
X195500D03*
X194700Y329200D03*
X186700D03*
X220800Y157000D03*
X212800D03*
X218900Y278200D03*
X210900D03*
G54D38*
X74600Y277400D03*
Y274300D03*
Y290000D03*
Y286900D03*
Y283700D03*
Y280600D03*
Y302600D03*
Y299500D03*
Y296300D03*
Y293200D03*
Y308900D03*
Y305800D03*
X85600Y192100D03*
Y188900D03*
Y185800D03*
X82500Y192100D03*
Y188900D03*
X79300Y192100D03*
Y188900D03*
Y185800D03*
X76200Y188900D03*
Y185800D03*
X85600Y204700D03*
Y201500D03*
Y198400D03*
Y195200D03*
X82500Y204700D03*
Y201500D03*
Y198400D03*
Y195200D03*
X79300Y204700D03*
Y201500D03*
Y198400D03*
Y195200D03*
X76200Y204700D03*
Y198400D03*
Y195200D03*
X85600Y217200D03*
Y214100D03*
Y207800D03*
X82500Y217200D03*
Y214100D03*
Y211000D03*
Y207800D03*
X79300Y217200D03*
Y214100D03*
Y211000D03*
Y207800D03*
X76200Y217200D03*
Y214100D03*
Y207800D03*
X85600Y226700D03*
Y223600D03*
X82500Y229800D03*
Y226700D03*
Y223600D03*
Y220400D03*
X79300Y229800D03*
Y226700D03*
Y223600D03*
Y220400D03*
X76200Y226700D03*
Y223600D03*
X85600Y242400D03*
Y239300D03*
Y236100D03*
Y233000D03*
X82500Y242400D03*
Y239300D03*
Y236100D03*
Y233000D03*
X79300Y242400D03*
Y239300D03*
Y236100D03*
Y233000D03*
X76200Y242400D03*
Y236100D03*
Y233000D03*
X85600Y255000D03*
Y251900D03*
Y248700D03*
Y245600D03*
X82500Y251900D03*
Y248700D03*
Y245600D03*
X79300Y255000D03*
Y251900D03*
Y248700D03*
Y245600D03*
X76200Y255000D03*
Y251900D03*
Y245600D03*
X87200Y277400D03*
Y274300D03*
X84000Y277400D03*
Y274300D03*
X80900Y277400D03*
Y274300D03*
X77700Y277400D03*
Y274300D03*
X87200Y290000D03*
Y286900D03*
Y283700D03*
Y280600D03*
X84000Y290000D03*
Y286900D03*
Y283700D03*
Y280600D03*
X80900Y290000D03*
Y286900D03*
Y283700D03*
Y280600D03*
X77700Y290000D03*
Y286900D03*
Y283700D03*
Y280600D03*
X87200Y302600D03*
Y299500D03*
Y296300D03*
Y293200D03*
X84000Y302600D03*
Y299500D03*
Y296300D03*
Y293200D03*
X80900Y302600D03*
Y299500D03*
Y296300D03*
Y293200D03*
X77700Y302600D03*
Y299500D03*
Y296300D03*
Y293200D03*
X87200Y308900D03*
Y305800D03*
X84000Y308900D03*
Y305800D03*
X80900Y308900D03*
Y305800D03*
X77700Y308900D03*
Y305800D03*
X98200Y192100D03*
Y188900D03*
Y185800D03*
X95100Y192100D03*
Y188900D03*
Y185800D03*
X91900Y192100D03*
Y188900D03*
X88800Y192100D03*
Y188900D03*
Y185800D03*
X98200Y204700D03*
Y201500D03*
Y198400D03*
Y195200D03*
X95100Y201500D03*
Y198400D03*
Y195200D03*
X91900Y204700D03*
Y198400D03*
Y195200D03*
X88800Y204700D03*
Y201500D03*
Y195200D03*
X98200Y217200D03*
Y214100D03*
Y211000D03*
Y207800D03*
X95100Y217200D03*
Y214100D03*
Y211000D03*
Y207800D03*
X91900Y217200D03*
Y214100D03*
Y207800D03*
X88800Y217200D03*
Y214100D03*
Y207800D03*
X98200Y229800D03*
Y226700D03*
Y223600D03*
Y220400D03*
X95100Y229800D03*
Y226700D03*
Y223600D03*
Y220400D03*
X91900Y226700D03*
Y223600D03*
X88800Y226700D03*
Y223600D03*
X98200Y242400D03*
Y239300D03*
Y236100D03*
Y233000D03*
X95100Y242400D03*
Y239300D03*
Y233000D03*
X91900Y242400D03*
Y236100D03*
Y233000D03*
X88800Y239300D03*
Y236100D03*
Y233000D03*
X98200Y255000D03*
Y251900D03*
Y248700D03*
Y245600D03*
X95100Y255000D03*
Y251900D03*
Y248700D03*
Y245600D03*
X91900Y251900D03*
Y248700D03*
Y245600D03*
X88800Y255000D03*
Y251900D03*
Y248700D03*
Y245600D03*
X96600Y277400D03*
Y274300D03*
X93500Y277400D03*
Y274300D03*
X90300Y277400D03*
Y274300D03*
X96600Y290000D03*
Y286900D03*
Y283700D03*
Y280600D03*
X93500Y290000D03*
Y286900D03*
Y283700D03*
Y280600D03*
X90300Y290000D03*
Y286900D03*
Y283700D03*
Y280600D03*
X96600Y302600D03*
Y299500D03*
Y296300D03*
Y293200D03*
X93500Y302600D03*
Y299500D03*
Y296300D03*
Y293200D03*
X90300Y302600D03*
Y299500D03*
Y296300D03*
Y293200D03*
X96600Y308900D03*
Y305800D03*
X93500Y308900D03*
Y305800D03*
X90300Y308900D03*
Y305800D03*
X110800Y192100D03*
Y188900D03*
X107600Y192100D03*
Y188900D03*
Y185800D03*
X104500Y192100D03*
Y188900D03*
Y185800D03*
X101400Y192100D03*
Y188900D03*
X110800Y204700D03*
X107600D03*
Y201500D03*
Y198400D03*
Y195200D03*
X104500Y204700D03*
Y201500D03*
Y198400D03*
Y195200D03*
X101400Y204700D03*
X110800Y217200D03*
Y214100D03*
Y211000D03*
Y207800D03*
X107600Y217200D03*
Y214100D03*
Y211000D03*
Y207800D03*
X104500Y217200D03*
Y214100D03*
Y211000D03*
Y207800D03*
X101400Y217200D03*
Y214100D03*
Y211000D03*
Y207800D03*
X110800Y229800D03*
Y226700D03*
Y223600D03*
Y220400D03*
X107600Y229800D03*
Y226700D03*
Y223600D03*
Y220400D03*
X104500Y229800D03*
Y226700D03*
Y223600D03*
Y220400D03*
X101400Y229800D03*
Y226700D03*
Y223600D03*
Y220400D03*
X110800Y236100D03*
Y233000D03*
X107600Y242400D03*
Y239300D03*
Y236100D03*
Y233000D03*
X104500Y242400D03*
Y239300D03*
Y236100D03*
Y233000D03*
X101400Y236100D03*
Y233000D03*
X110800Y251900D03*
Y248700D03*
X107600Y255000D03*
Y251900D03*
Y248700D03*
Y245600D03*
X104500Y255000D03*
Y251900D03*
Y248700D03*
Y245600D03*
X101400Y251900D03*
Y248700D03*
X109200Y277400D03*
Y274300D03*
X106100Y277400D03*
Y274300D03*
X102900Y277400D03*
Y274300D03*
X99800Y277400D03*
Y274300D03*
X109200Y290000D03*
Y286900D03*
Y283700D03*
Y280600D03*
X106100Y290000D03*
Y286900D03*
Y283700D03*
Y280600D03*
X102900Y290000D03*
Y286900D03*
Y283700D03*
Y280600D03*
X99800Y290000D03*
Y286900D03*
Y283700D03*
Y280600D03*
X109200Y302600D03*
Y299500D03*
Y296300D03*
Y293200D03*
X106100Y302600D03*
Y299500D03*
Y296300D03*
Y293200D03*
X102900Y302600D03*
Y299500D03*
Y296300D03*
Y293200D03*
X99800Y302600D03*
Y299500D03*
Y296300D03*
Y293200D03*
X109200Y308900D03*
Y305800D03*
X106100Y308900D03*
Y305800D03*
X102900Y308900D03*
Y305800D03*
X99800Y308900D03*
Y305800D03*
X123400Y192100D03*
Y188900D03*
Y185800D03*
X120200Y192100D03*
Y188900D03*
X117100Y192100D03*
Y188900D03*
Y185800D03*
X114000Y192100D03*
Y188900D03*
Y185800D03*
X123400Y204700D03*
Y201500D03*
Y198400D03*
Y195200D03*
X120200Y204700D03*
X117100D03*
Y201500D03*
Y198400D03*
Y195200D03*
X114000Y204700D03*
Y201500D03*
Y198400D03*
Y195200D03*
X123400Y217200D03*
Y214100D03*
Y211000D03*
Y207800D03*
X120200Y217200D03*
Y214100D03*
Y211000D03*
Y207800D03*
X117100Y217200D03*
Y214100D03*
Y211000D03*
Y207800D03*
X114000Y217200D03*
Y214100D03*
Y211000D03*
Y207800D03*
X123400Y229800D03*
Y226700D03*
Y223600D03*
Y220400D03*
X120200Y229800D03*
Y226700D03*
Y223600D03*
Y220400D03*
X117100Y229800D03*
Y226700D03*
Y223600D03*
Y220400D03*
X114000Y229800D03*
Y226700D03*
Y223600D03*
Y220400D03*
X123400Y242400D03*
Y239300D03*
Y236100D03*
Y233000D03*
X120200Y236100D03*
Y233000D03*
X117100Y242400D03*
Y239300D03*
Y236100D03*
Y233000D03*
X114000Y242400D03*
Y239300D03*
Y236100D03*
Y233000D03*
X123400Y255000D03*
Y251900D03*
Y248700D03*
Y245600D03*
X120200Y251900D03*
Y248700D03*
X117100Y255000D03*
Y251900D03*
Y248700D03*
Y245600D03*
X114000Y255000D03*
Y251900D03*
Y248700D03*
Y245600D03*
X136000Y192100D03*
Y188900D03*
Y185800D03*
X132800Y192100D03*
Y188900D03*
Y185800D03*
X129700Y192100D03*
Y188900D03*
X126500Y192100D03*
Y188900D03*
Y185800D03*
X136000Y204700D03*
Y201500D03*
Y198400D03*
Y195200D03*
X132800Y204700D03*
Y201500D03*
Y195200D03*
X129700Y204700D03*
Y198400D03*
Y195200D03*
X126500Y201500D03*
Y198400D03*
Y195200D03*
X136000Y217200D03*
Y214100D03*
Y207800D03*
X132800Y217200D03*
Y214100D03*
Y207800D03*
X129700Y217200D03*
Y214100D03*
Y207800D03*
X126500Y217200D03*
Y214100D03*
Y211000D03*
Y207800D03*
X136000Y226700D03*
Y223600D03*
X132800Y226700D03*
Y223600D03*
X129700Y226700D03*
Y223600D03*
X126500Y229800D03*
Y226700D03*
Y223600D03*
Y220400D03*
X136000Y242400D03*
Y239300D03*
Y236100D03*
Y233000D03*
X132800Y239300D03*
Y236100D03*
Y233000D03*
X129700Y242400D03*
Y236100D03*
Y233000D03*
X126500Y242400D03*
Y239300D03*
Y233000D03*
X136000Y255000D03*
Y251900D03*
Y248700D03*
Y245600D03*
X132800Y255000D03*
Y251900D03*
Y248700D03*
Y245600D03*
X129700Y251900D03*
Y248700D03*
Y245600D03*
X126500Y255000D03*
Y251900D03*
Y248700D03*
Y245600D03*
X145400Y188900D03*
Y185800D03*
X142300Y192100D03*
Y188900D03*
Y185800D03*
X139100Y192100D03*
Y188900D03*
X145400Y204700D03*
Y198400D03*
Y195200D03*
X142300Y204700D03*
Y201500D03*
Y198400D03*
Y195200D03*
X139100Y204700D03*
Y201500D03*
Y198400D03*
Y195200D03*
X145400Y217200D03*
Y214100D03*
Y207800D03*
X142300Y217200D03*
Y214100D03*
Y211000D03*
Y207800D03*
X139100Y217200D03*
Y214100D03*
Y211000D03*
Y207800D03*
X145400Y226700D03*
Y223600D03*
X142300Y229800D03*
Y226700D03*
Y223600D03*
Y220400D03*
X139100Y229800D03*
Y226700D03*
Y223600D03*
Y220400D03*
X145400Y242400D03*
Y236100D03*
Y233000D03*
X142300Y242400D03*
Y239300D03*
Y236100D03*
Y233000D03*
X139100Y242400D03*
Y239300D03*
Y236100D03*
Y233000D03*
X145400Y255000D03*
Y251900D03*
Y245600D03*
X142300Y255000D03*
Y251900D03*
Y248700D03*
Y245600D03*
X139100Y251900D03*
Y248700D03*
Y245600D03*
G54D65*
X273500Y83600D03*
Y95400D03*
G54D39*
X74300Y325400D03*
X71800D03*
X69200D03*
X66700D03*
Y352000D03*
X69200D03*
X71800D03*
X74300D03*
X87100Y325400D03*
X84600D03*
X82000D03*
X79500D03*
X76900D03*
Y352000D03*
X79500D03*
X82000D03*
X84600D03*
X87100D03*
X97400Y325400D03*
X94800D03*
X92300D03*
X89700D03*
Y352000D03*
X92300D03*
X94800D03*
X97400D03*
X99900Y325400D03*
Y352000D03*
G54D66*
X267000Y104500D03*
X261000D03*
X267000Y114500D03*
X261000D03*
G54D57*
X207300Y385100D03*
X230900D03*
G54D48*
X129400Y300100D03*
Y332600D03*
X139200Y300100D03*
Y332600D03*
G54D58*
X217400Y66000D03*
Y71000D03*
Y76000D03*
Y81000D03*
X238600Y71000D03*
Y66000D03*
Y81000D03*
Y76000D03*
G54D67*
X261200Y364800D03*
X269800D03*
X261200Y372200D03*
X269800D03*
Y368500D03*
G54D49*
X129400Y312700D03*
Y320700D03*
X147700Y286900D03*
Y294900D03*
X147800Y337800D03*
Y345800D03*
X180500Y286900D03*
Y294900D03*
X261500Y85500D03*
Y93500D03*
G54D59*
X218600Y354700D03*
X215400D03*
Y361300D03*
X218600D03*
G54D68*
X273000Y355000D03*
G54D69*
Y359000D03*
M02*
